<svg width="48" height="64" viewBox="0 0 48 64" fill="none" xmlns="http://www.w3.org/2000/svg">
<path d="M32.3806 40.4102C32.3201 40.4937 32.0212 40.7934 31.9051 40.9308C31.9615 40.7055 32.6018 40.1053 32.3806 40.4102ZM25.8191 59.4995C25.8898 59.386 25.9623 59.2705 26.0367 59.1527C26.0463 59.1372 26.0559 59.1217 26.0655 59.1061C26.0531 59.1188 26.0406 59.1318 26.028 59.1449C25.7271 59.4596 25.3828 59.8674 25.0961 60.1473C25.0483 60.1936 25.1073 60.0143 24.9992 60.1284C24.8908 60.2425 24.9939 60.2854 24.841 60.4696C24.6818 60.6639 23.8059 61.5059 23.4179 61.8802C23.2414 62.0529 23.0703 62.2213 22.7918 62.4586C22.664 62.5658 22.4938 62.7075 22.2294 62.8839C22.0654 62.9892 21.9593 63.0632 21.6324 63.2204C21.4785 63.2921 21.2988 63.3662 21.076 63.4341C20.7992 63.5176 20.4136 63.6048 19.9312 63.6064C19.4648 63.6212 18.5851 63.4706 17.9166 63.0455C17.2391 62.6387 16.766 62.0401 16.5164 61.5642C16.31 61.1768 16.2079 60.8429 16.1438 60.5665C16.0828 60.2904 16.0697 60.1592 16.0532 59.9911C16.0262 59.6552 16.0349 59.4986 16.0419 59.3232C16.0516 59.143 16.0628 59.0391 16.0762 58.923C16.1313 58.4839 16.1887 58.2346 16.2451 57.9768C16.4671 57.022 16.6851 56.3266 16.9261 55.5985C16.5463 57.127 17.0796 55.6269 17.1746 55.2059C17.1904 55.1333 17.0779 55.0881 17.2669 54.3727C17.3163 54.1839 17.3962 53.9192 17.5014 53.6113C17.8163 52.6842 17.8214 53.6275 18.1608 52.0285C17.6092 53.1735 17.9812 51.997 18.2593 51.054C18.3082 50.8889 18.731 49.5884 18.8959 49.0081C18.9532 48.8068 18.9446 48.4792 19.0211 48.2143C19.074 48.0313 19.1679 47.9126 19.2454 47.6431C19.6074 46.3866 19.9682 45.1549 20.3553 43.9056C20.3917 44.7128 20.6319 43.3619 20.6609 43.3065C20.8172 43.0276 20.4396 44.3854 20.6395 43.8633C20.8514 43.1132 21.0615 42.3653 21.2709 41.6149C21.0621 42.2186 21.294 40.7416 21.4516 40.5037C21.1977 40.5563 22.619 37.1544 22.6862 36.6036C22.7006 36.4878 22.3916 37.1843 22.9052 35.5107C22.9602 35.331 23.0091 35.418 23.0284 35.3219C23.0402 35.2636 22.9197 34.858 23.1366 34.5218C23.2135 34.4016 23.1348 35.2905 23.5682 33.3972C23.4401 33.6138 23.4471 33.4352 23.5153 33.0936C23.6861 32.2932 24.1116 30.6526 24.1536 30.4626C24.1129 30.5368 24.07 30.6148 24.0236 30.7059C24.1792 30.2605 24.0815 30.2965 24.0901 30.2861C24.1037 30.3129 24.0636 30.3091 24.1815 30.8317C24.2772 31.1096 24.3374 31.6258 25.1433 32.4291C25.9752 33.2612 27.3395 33.4241 27.8168 33.328C28.3378 33.2598 28.5216 33.1542 28.6314 33.1088C28.7438 33.055 28.7688 33.0332 28.7791 33.0243C28.792 33.0086 28.7256 33.0453 28.6612 33.0926C28.36 33.3146 28.3448 33.4668 27.9537 33.7535C27.8974 33.7949 27.8317 33.8406 27.7531 33.8925C27.8279 33.8533 27.9011 33.8152 27.9729 33.7784C28.0589 33.7333 28.1393 33.6926 28.22 33.6519C28.1485 33.7047 28.0774 33.7574 28.0007 33.8146C27.6701 34.0608 27.3339 34.3126 26.9966 34.5653C27.8251 33.6902 26.788 34.715 26.7132 34.7779C26.5956 34.8773 26.7232 34.6824 26.5264 34.8463C26.5064 34.8636 26.5809 34.8971 26.2724 35.1451C25.6261 35.6641 25.6734 35.5132 25.3982 35.7259C25.3734 35.7454 25.5009 35.7297 25.0314 36.1084C23.5313 37.3136 25.0106 36.0628 25.0622 36.0111C25.1315 35.9426 24.4457 36.1291 25.7947 35.2136C25.344 35.5218 25.2267 35.4605 25.1764 35.4954C25.1306 35.5278 24.3894 36.1159 24.3499 36.1507C24.0025 36.4663 24.3797 36.2821 24.316 36.349C24.2645 36.4038 23.2868 37.0105 23.2185 37.3687C22.6415 37.5173 23.3486 37.0153 24.0596 36.4311C24.1386 36.313 23.3063 36.8865 23.2635 36.9182C22.2207 37.7019 22.91 37.4175 22.7527 37.6847C22.6701 37.8245 22.1655 38.041 22.6609 37.8811C21.7167 38.6046 22.2377 38.0964 22.1678 38.1307C22.0615 38.1833 21.7557 38.4685 21.7092 38.4947C21.642 38.5324 21.8218 38.3281 21.5668 38.4902C21.5248 38.5174 21.1912 38.886 21.7253 38.5531C21.0408 39.0378 21.1449 39.0654 20.814 39.0941C20.5345 39.6968 20.361 39.1847 20.1653 39.3032C19.6446 39.6174 19.9349 39.7222 19.9162 39.7511C19.7978 39.925 18.6382 40.6655 18.157 41.0071C18.1007 41.0474 18.054 41.0823 18.0197 41.1104C18.0256 41.0673 18.0639 41.0158 18.1241 40.959C18.4053 40.6945 19.1588 40.313 19.3183 40.1639C19.9655 39.5643 18.2555 40.7965 18.644 40.2427C18.4618 40.4469 18.2781 40.6507 18.0934 40.8541C18.0815 40.8579 18.0701 40.8613 18.0593 40.8644C17.629 40.9869 18.1189 40.5853 17.0819 41.3476C16.9744 41.5747 17.8437 40.8098 17.7089 41.0219C17.63 41.148 17.0018 41.5851 17.0068 41.6185C17.0148 41.6589 17.5647 41.2363 17.5062 41.3448C17.3803 41.5869 15.209 42.8703 16.7734 41.7601C16.3281 42.0574 15.9631 41.9995 15.6169 42.3156C15.3914 42.5188 16.9967 41.8983 14.8335 43.2078C14.7269 43.138 15.6662 42.6364 15.6849 42.6123C15.7105 42.5804 15.4057 42.4627 15.3706 42.4697C15.2516 42.5029 13.1487 43.9894 12.6129 44.1506C12.878 44.1722 10.9652 45.1711 10.7857 45.3247C10.7385 45.3672 10.9864 45.3304 10.934 45.3726C10.6055 45.6346 9.54692 46.0529 9.09158 46.3047C8.58175 46.5876 8.68529 46.621 8.65685 46.637C8.43305 46.7575 8.58393 46.6101 8.44633 46.6874C8.42002 46.7022 8.37419 46.7277 8.31552 46.7602C8.10282 46.8763 7.74069 47.0839 7.25094 47.3271C6.98974 47.4494 6.74024 47.5878 6.1685 47.7519C6.02014 47.7916 5.85398 47.8314 5.61394 47.8629C5.49538 47.8778 5.38883 47.8879 5.2379 47.8927C5.07704 47.8975 4.90423 47.8921 4.72595 47.8726C4.40544 47.8436 3.90294 47.7168 3.53161 47.5286C3.15602 47.346 2.88812 47.1306 2.75677 47.017C2.57946 46.8529 2.94111 47.2298 3.39225 47.4775C3.84969 47.7454 4.40012 47.871 4.52951 47.9008C4.68491 47.93 4.74346 47.9829 4.16424 47.8608C3.83981 47.7611 3.27747 47.6628 2.47787 46.8965C1.64544 46.1012 1.38203 44.8277 1.41392 44.2748C1.37607 43.6617 1.82039 42.5122 2.44594 41.498C2.82995 40.8401 2.65641 41.0509 2.42608 41.3344C2.19845 41.608 1.82872 42.1785 1.98751 41.7773C2.69731 40.9059 2.50233 40.9565 2.66244 40.7278C2.71024 40.6631 3.17199 40.2252 3.52651 39.7107C3.28211 40.0953 3.03984 40.4815 2.78643 40.9028C3.07841 40.5037 3.54641 39.7859 3.78359 39.5013C3.89562 39.3672 3.90032 39.5542 4.12516 39.2355C4.17021 39.1717 4.13628 38.7435 3.6492 39.6389C3.5239 39.6456 3.85039 39.2966 3.96227 39.094C3.97846 39.0641 3.91732 38.8678 4.16868 38.6943C4.21851 38.6631 4.19784 39.307 4.7281 38.3577C4.80621 38.2168 4.90236 38.0317 5.01453 37.8006C5.04111 37.7454 4.86882 37.8792 4.89372 37.8242C4.91146 37.7855 5.21013 37.4196 5.23729 37.3685C5.26239 37.319 5.07093 37.469 5.0992 37.4088C5.24472 37.0989 5.70403 36.913 5.28846 37.444C5.45102 37.2771 5.60585 37.1211 5.76986 36.953C5.46872 37.0317 5.93335 36.6389 6.11822 36.3795C7.27875 34.7515 6.37879 35.7505 6.53079 35.4354C6.77615 34.9288 6.79483 35.4638 7.20228 34.7489C7.23999 34.6829 6.53243 35.3926 7.75677 33.8871C7.58783 34.1224 7.42333 34.3519 7.25684 34.5843C7.50571 34.5668 7.86482 33.7485 7.9007 33.6962C8.33594 33.0712 8.08066 33.5258 8.68038 32.5629C8.73321 32.4778 8.90131 32.3314 9.01227 32.1446C9.47258 31.371 8.25837 33.053 8.16489 33.0506C8.11794 33.0501 9.45982 31.2764 9.52145 31.2245C9.77922 31.0126 8.94357 32.0523 9.17496 31.9074C9.25721 31.8549 11.1034 29.2787 11.5153 28.7949C11.9914 28.2358 12.3943 28.1267 12.1669 27.9497C12.5172 27.9544 12.4726 27.6926 12.5305 27.6189C13.232 26.7297 13.2358 26.7294 13.7969 25.9379C13.9209 25.7631 14.0986 25.6695 14.1325 25.6003C14.152 25.5598 14.0291 25.5704 14.1361 25.3809C14.2859 25.1172 15.4421 23.7343 15.5642 23.6558C15.685 23.5793 15.125 24.278 15.2881 24.1996C15.6829 23.6876 16.0412 23.1751 16.4364 22.6618C16.6026 22.4461 16.5657 22.5931 16.637 22.4997C16.6681 22.4595 17.1854 21.6814 17.1448 21.6996C17.0485 21.7462 15.3468 24.0745 15.7202 23.4053C15.791 23.278 16.2115 22.9412 16.0306 22.9096C17.1633 21.4415 18.2946 19.9712 19.4074 18.5055C19.8428 17.9317 20.2737 17.3602 20.6996 16.7895C20.3458 17.376 19.9225 17.966 19.4774 18.557C18.972 19.2279 18.4407 19.8969 17.9538 20.5614C17.8247 20.7374 17.388 21.2968 17.5047 21.2786C18.1389 20.4566 18.8593 19.4485 19.5149 18.5846C19.6987 18.3421 19.8625 18.1309 20.0348 17.915C20.0601 17.8834 20.0324 18.047 20.1313 17.9319C20.3098 17.726 20.7593 16.9041 20.8688 16.8047C20.8917 16.7856 20.6654 17.2648 20.8088 17.173C21.1754 16.9397 20.9522 16.6441 21.1545 16.37C21.3175 16.1538 22.4958 14.7867 22.6435 14.3703C22.8129 13.9229 21.8526 15.3963 21.8421 15.2412C22.4435 14.2222 23.2848 13.1742 23.6186 12.5307C23.6218 12.5238 23.5203 12.5585 23.564 12.4525C23.6127 12.339 23.5585 12.4936 23.5193 13.0138C23.5047 13.2031 23.4987 13.4332 23.535 13.7262C23.5533 14.1114 23.8938 15.1407 24.5582 15.6864C25.1592 16.2006 25.5525 16.2614 25.6914 16.306C25.9899 16.3657 25.833 16.3227 25.8302 16.3099C25.8287 16.3046 25.8822 16.2039 25.8795 16.201C25.9366 16.1785 25.4779 16.2035 25.3975 16.1591C25.1277 16.0622 24.3251 15.586 23.8893 14.6197C23.5619 13.8685 23.59 13.3876 23.6121 13.0254C23.6329 12.7545 23.6797 12.5821 23.703 12.5135C23.7227 12.4555 23.7936 12.5257 23.7943 12.5128C23.7947 12.5093 23.7321 12.5215 23.6575 12.6046C23.5854 12.6834 23.5172 12.801 23.5967 12.8764C23.6038 12.8848 23.6693 12.7979 23.7464 12.6809C23.7828 12.6266 23.8243 12.5576 23.8393 12.5372C23.859 12.5385 23.8212 12.4825 23.7324 13.0404C23.7063 13.2705 23.6959 13.5543 23.7696 13.9303C23.8448 14.3228 24.0356 14.7669 24.2968 15.1106C24.8644 15.8327 25.3454 15.9693 25.5579 16.0569C25.9919 16.1872 25.9109 16.1216 25.8241 16.1247C25.6089 16.1059 25.1492 16.1184 24.7337 16.1419C23.8869 16.1907 23.0995 16.2578 22.9125 16.289C23.3921 16.2791 23.8446 16.269 24.2984 16.2617C23.3936 16.2672 22.2226 16.5263 22.1304 16.2772C18.516 16.515 14.7271 16.4585 11.0156 15.8678C10.9501 15.8557 10.8947 15.8437 10.8471 15.8317C10.3574 15.7044 10.5957 15.6392 9.50266 15.4363C9.79921 15.5607 10.1029 15.6782 10.4134 15.7875C9.74962 15.6886 7.14137 14.807 6.77846 14.6585C6.72812 14.6428 6.59381 14.7532 6.00783 14.5276C5.49877 14.3298 5.4733 14.1978 5.24153 14.0794C5.09643 14.0052 4.9448 13.9591 4.87023 13.9357C4.83401 13.9235 4.80564 13.9132 4.78931 13.9053C4.73655 13.8797 4.74405 13.811 4.59823 13.7407C4.35692 13.6244 4.28406 13.6309 4.25168 13.6342C4.19717 13.6213 4.24394 13.6604 3.797 13.2914C4.06785 13.4373 4.23759 13.5002 4.38746 13.557C4.20511 13.4651 3.98803 13.3735 3.57308 13.0797C3.37288 12.9306 3.09494 12.7148 2.7975 12.3144C2.49998 11.9302 2.23905 11.2806 2.20333 10.7732C2.15434 9.74273 2.38412 9.50611 2.29363 9.83394C2.27392 10.0162 2.17509 10.4372 2.34699 11.1456C2.51497 11.8661 3.05681 12.5163 3.42578 12.789C3.89399 13.1281 3.48074 12.9103 3.7781 13.1082C4.22391 13.3725 4.40247 13.4256 4.5806 13.5027C4.74879 13.5702 4.87089 13.6151 4.97766 13.6548C5.56809 13.8784 5.86289 13.9907 5.77916 13.9375C5.71504 13.8952 5.33379 13.7173 5.00301 13.5885C4.77969 13.4981 4.55809 13.4356 4.06812 13.1945C3.8164 13.0307 3.45368 12.9798 2.78391 12.0862C2.45433 11.6394 2.19683 10.7651 2.28743 10.1113C2.36233 9.44988 2.5712 9.07924 2.71164 8.82764C3.61583 7.6133 4.37059 7.38032 4.92505 6.98485C5.24415 6.78888 5.47845 6.6508 5.50433 6.64364C5.59488 6.62326 5.35029 6.85325 5.75399 6.69769C5.84773 6.64925 7.98464 5.41781 7.26674 5.95682C7.11868 6.06575 6.07004 6.61374 5.8121 6.76907C6.51566 6.59785 7.74181 5.59996 7.90203 5.52373C8.54218 5.21543 6.78859 6.32502 8.20367 5.59012C9.29118 5.02985 8.21262 5.45074 8.6014 5.17721C8.81979 5.0227 10.1062 4.51418 9.98274 4.35939C10.3909 4.12143 10.1946 4.34122 10.2495 4.32074C10.3024 4.30011 11.0963 3.81842 11.3821 3.71587C11.4167 3.70359 11.3621 3.8464 11.3993 3.83633C11.4694 3.8156 12.2532 3.38429 12.2795 3.361C12.2969 3.34524 12.068 3.36436 12.1353 3.30506C12.2135 3.23626 12.9848 2.85869 13.0143 2.81483C13.0561 2.74977 12.1288 3.26058 12.2393 3.09129C12.6838 2.88806 13.3581 2.46314 13.6066 2.24406C13.5476 2.30045 13.1298 2.52118 12.9801 2.58992C12.9821 2.42505 13.8827 1.9595 13.6281 2.22134C13.7953 2.06493 13.6466 2.10522 13.73 1.99621C13.7525 1.96791 14.0281 1.82131 14.0704 1.77103C14.0749 1.76301 13.7631 1.86315 13.8069 1.80716C13.8863 1.70582 14.7336 1.27933 14.8089 1.25596C15.0209 1.19049 14.3571 1.5894 14.3279 1.67361C14.3242 1.68615 14.9631 1.48968 14.9769 1.49442C15.0634 1.57777 14.3763 1.84224 14.4977 1.89466C14.6685 1.83031 14.8388 1.76629 15.0095 1.702C14.4381 2.11578 13.266 2.66423 13.0242 2.92306C13.9285 2.41352 14.8916 1.91823 15.012 2.15519C15.0632 2.25478 14.6968 2.51906 14.7253 2.5363C14.8307 2.59634 15.3299 2.2124 15.3527 2.20658C15.3723 2.20339 15.3827 2.20478 15.3854 2.21C15.3854 2.21 15.3855 2.21 15.3855 2.21C15.4127 2.26307 14.6483 2.70847 14.6216 2.753C14.5781 2.83013 15.0187 2.82568 15.0385 2.86499C15.0305 2.87913 14.4934 3.21116 14.7174 3.18144C14.9442 3.1511 15.4337 2.89879 15.4545 2.89708C15.5694 2.88973 14.7336 3.37156 14.7206 3.4092C14.7135 3.42851 15.2122 3.26549 15.2368 3.28031C15.2596 3.29618 14.9352 3.52504 14.8334 3.66536C14.7574 3.76976 15.0764 3.65387 15.0281 3.68914C14.9932 3.71398 14.1846 4.13282 14.1492 4.16264C14.097 4.20669 14.3181 4.16942 14.2985 4.19902C14.2706 4.24142 13.9986 4.3547 14.0443 4.3597C14.0779 4.3636 15.2 4.04832 15.2225 4.10813C15.2609 4.21007 14.0743 4.54588 15.2683 4.40678C15.2764 4.40573 15.5057 4.25245 15.5134 4.25142C15.6995 4.24326 14.9768 4.75474 15.9187 4.24177C14.2118 5.28193 15.7731 4.50062 15.5953 4.79817C15.5263 4.91288 14.8542 5.29449 14.8553 5.30576C14.9632 5.34977 15.1496 5.17534 15.2441 5.17534C15.2962 5.17568 14.7257 5.57786 14.8919 5.5602C14.978 5.55088 15.6246 5.20247 15.654 5.19411C15.9386 5.11147 15.651 5.331 15.7266 5.338C15.7769 5.3429 16.1712 5.14058 16.1837 5.13968C16.2051 5.14019 15.7222 5.51631 15.6293 5.60862C15.5587 5.67919 15.8974 5.55636 15.8445 5.59861C15.5251 5.85283 14.677 6.068 15.5348 5.93832C15.587 5.93056 15.8599 5.78098 15.8693 5.77996C16.0763 5.762 15.5717 6.03183 15.5113 6.13648C15.4072 6.31685 16.1071 5.88294 15.5375 6.26756C16.026 6.09646 16.2782 5.96209 16.8016 5.66722C15.3531 6.4837 14.9669 7.01121 16.6002 6.15479C16.077 6.42139 16.211 6.53631 16.0565 6.61977C15.9606 6.67138 15.1314 6.91869 15.6454 7.06333C15.7098 7.08128 16.1415 6.79173 16.041 6.94918C14.9304 7.49925 16.0451 7.01396 16.0519 7.0244C16.136 7.22267 13.3703 8.46229 12.9254 8.72501C12.4055 9.02951 12.0149 9.4274 11.8991 9.48886C11.5213 9.68869 11.7952 9.44649 11.6956 9.46332C11.5935 9.48103 10.5985 10.1978 10.5442 10.2177C10.3189 10.2974 10.4817 10.0941 10.4578 10.1012C10.1675 10.1835 8.78977 11.0261 8.40694 11.223C8.4477 11.2743 9.2273 10.8428 8.79458 11.2075C8.29703 11.6311 8.1293 11.3954 8.10693 11.3927C7.97836 11.4678 7.84996 11.544 7.7315 11.616C7.54973 11.7264 7.37841 11.8345 7.24472 11.926C7.12791 11.9948 6.97569 12.1588 7.20412 11.9218C7.26983 11.8391 7.37579 11.7353 7.53292 11.3923C7.68638 11.0875 7.8518 10.2949 7.59757 9.61793C7.35366 8.95428 7.03144 8.70602 6.88548 8.57334C6.72466 8.44232 6.65575 8.40988 6.61766 8.38707C6.5012 8.33066 6.73843 8.43735 6.94399 8.51232C8.90011 9.32028 10.2118 9.8605 11.7399 10.093C11.8244 10.1061 11.9088 10.1188 11.9929 10.1312C11.99 10.0961 11.8961 10.0611 11.7503 10.0262C11.3197 9.92934 10.3236 9.74252 10.2965 9.71072C10.1958 9.60984 10.9998 9.82577 11.7643 9.93631C12.4808 10.0466 13.1875 10.1421 13.353 10.1845C13.0663 10.1187 12.7738 10.0488 12.4862 9.97591C13.0098 9.87038 14.0874 10.2227 14.8265 10.1942C15.0614 10.1858 14.619 10.0842 14.6283 10.0797C14.8931 10.0316 15.3195 10.1126 14.993 10.1841C15.6482 10.1375 15.543 10.2286 16.0437 10.2596C16.0689 10.2608 15.8602 10.1805 16.2524 10.1665C16.4376 10.1627 17.4249 10.1838 17.5569 10.119C17.6112 10.0934 17.1162 9.80834 17.0487 10.0467C15.988 9.90252 16.704 10.148 16.2894 10.1292C16.226 10.1234 16.3782 10.0049 15.3341 10.01C15.5391 9.78495 16.7361 10.0153 16.9413 9.98584C17.3661 9.93912 15.6248 9.76261 15.2992 9.92082C15.4601 9.74115 15.1764 9.88936 14.7898 9.85264C14.3693 9.81151 14.5574 9.76968 14.3282 9.75004C13.7043 9.69139 13.9522 9.84904 13.4478 9.67471C13.9112 10.1012 12.5568 9.62453 12.182 9.46363C12.8273 9.53885 13.4882 9.59826 14.1387 9.63936C14.1035 9.6165 14.0684 9.59358 14.0332 9.5706C14.2014 9.58944 14.3779 9.60787 14.5491 9.62463C14.52 9.64103 14.4908 9.6574 14.4616 9.67372C15.3565 9.62394 15.5693 9.76426 15.6399 9.77128C16.5763 9.83874 17.6703 9.85605 18.633 9.83999C18.7793 9.83577 18.6716 9.72443 19.7318 9.78399C20.0739 9.80082 19.7576 9.90874 20.14 9.87804C20.6094 9.59857 20.6122 9.80253 20.7542 9.79541C21.1708 9.77224 21.4148 9.69172 21.4558 9.68853C21.9695 9.64579 22.7332 9.5982 23.3294 9.54296C23.3404 9.54115 23.0284 9.48559 23.4117 9.47991C23.603 9.49226 24.624 9.66834 26.2815 9.61759C25.8147 9.56666 25.4693 9.55321 25.1314 9.54109C25.3114 9.55595 25.7552 9.49682 26.6775 9.57361C27.1335 9.66483 27.8008 9.56561 29.0689 10.5257C29.703 11.0308 30.1986 11.9385 30.3219 12.6059C30.4551 13.2508 30.4106 13.6296 30.3941 13.8741C30.3685 14.1471 30.3769 14.1832 30.4356 13.8793C30.4485 13.798 30.4619 13.6964 30.4708 13.5685C30.5513 13.0348 30.3156 11.5481 29.3668 10.6688C28.4988 9.84378 27.7982 9.71698 27.411 9.6102C26.5973 9.44097 26.3051 9.47404 26.2111 9.3542C26.4068 9.38009 26.6647 9.375 27.335 9.52636C27.5067 9.5691 27.6988 9.61997 27.9817 9.73149C28.1199 9.78697 28.2576 9.84812 28.4292 9.94006C28.6146 10.04 28.8152 10.1655 29.0232 10.3296C29.4318 10.6397 29.9765 11.2603 30.241 11.9781C30.5254 12.7317 30.5297 13.3634 30.4682 13.8833C30.3137 14.8781 30.0959 15.1928 29.9487 15.5368C29.7957 15.8514 29.6574 16.0967 29.5239 16.3276C29.2576 16.785 29.0068 17.1776 28.78 17.5264C28.326 18.2214 27.969 18.7297 27.8858 18.8198C27.8539 18.8536 27.961 18.5806 27.9172 18.6284C27.8831 18.6681 27.3341 19.4784 27.2342 19.5722C27.175 19.629 27.3956 19.2455 27.3537 19.2622C27.3204 19.2815 26.5934 20.2509 26.6198 20.3579C26.768 20.0945 27.2787 19.4286 27.081 19.8297C27.053 19.8844 26.8413 20.0862 26.8097 20.1497C26.5225 20.7304 27.6118 19.1645 27.782 18.9158C27.1798 19.9699 25.9906 21.3935 25.2375 22.5353C24.8506 22.9421 25.6347 21.8116 25.2184 22.2794C25.1052 22.4065 25.0177 22.5085 24.9523 22.5881C24.5839 23.0342 24.9699 22.7221 25.0565 22.6648C25.0687 22.6564 25.0753 22.6529 25.0735 22.6569C25.0713 22.6618 25.0688 22.6668 25.0662 22.6719C24.9139 22.9747 23.9829 23.6169 24.2129 23.7879C23.9018 24.1337 23.9563 23.9988 23.5955 24.548C23.6636 24.4903 23.7314 24.4329 23.7989 24.3759C23.494 25.0699 22.2268 26.0548 22.268 25.9452C22.388 25.6395 22.9791 25.074 23.0182 25.016C23.0746 24.9319 23.0075 24.5284 23.8884 23.7852C24.0036 23.298 22.7201 25.1326 23.2194 24.2346C22.8279 24.8003 21.0279 26.9766 20.8539 27.3527C20.8336 27.3986 21.1283 27.3351 20.6283 27.8342C20.392 28.0695 20.869 27.4297 20.7421 27.5238C20.3521 27.8166 16.6234 32.9214 15.9095 33.8833C15.8628 33.9458 15.8309 33.8861 15.7853 33.9478C15.645 34.1372 15.2031 34.8776 14.9294 35.1951C15.5417 34.5688 14.5352 35.9238 14.2659 36.2624C13.8613 36.7704 13.7965 36.677 13.6097 36.8881C12.8875 37.7042 12.0866 39.2057 11.3931 39.7388C11.6123 39.842 10.4326 40.8383 10.0304 41.3847C9.89762 41.5643 9.75365 41.8096 9.68587 41.9712C9.59355 42.1815 9.59876 42.2878 9.82236 42.0707C9.84231 42.0517 9.86415 42.0299 9.88804 42.0051C9.86965 42.0296 9.85139 42.0542 9.83326 42.0786C9.30204 42.7959 8.79677 43.5687 8.37176 44.2169C8.29805 44.3298 8.34187 44.1396 8.22187 44.3285C8.2119 44.3455 8.25333 44.4062 8.15505 44.5679C7.75641 45.2343 7.7798 45.2063 7.74171 45.1926C7.71173 45.1753 7.66409 45.1657 7.65197 45.1403C7.65047 45.1052 7.67599 45.0635 7.73287 44.776C7.75198 44.6653 7.79523 44.3957 7.75997 44.0553C7.71941 43.6262 7.53104 42.9641 6.96388 42.4119C7.69487 43.1451 7.74999 43.9091 7.76451 44.2175C7.77155 44.5564 7.72787 44.7245 7.70573 44.8301C7.65036 45.0519 7.62489 45.0845 7.61427 45.1126C7.59213 45.1567 7.61681 45.097 7.65036 45.0344C7.72035 44.901 7.82777 44.7204 7.93497 44.548C8.14648 44.2081 8.33989 43.918 8.42723 43.7901C8.29147 43.8531 7.98196 44.3074 7.7389 44.735C7.62694 44.9234 7.50004 45.2166 7.58348 45.0526C7.60525 44.9787 7.6653 44.9195 7.71074 44.4615C7.71858 44.3321 7.72295 44.2061 7.69805 43.9906C7.66957 43.7574 7.60042 43.4679 7.45065 43.1641C7.28608 42.8214 6.99217 42.4599 6.66661 42.2218C6.35736 41.9912 6.04864 41.865 5.79398 41.7954C4.89556 41.6051 4.78388 41.7548 4.635 41.7599C4.51933 41.7875 4.47924 41.8052 4.4565 41.8153C4.44228 41.8216 4.52168 41.8834 4.5061 41.8892C4.50574 41.8894 4.50538 41.8895 4.50503 41.8896C4.16495 42.0683 5.48049 41.3405 5.16019 41.3941C5.12374 41.3989 4.9647 41.4807 4.76427 41.5865C4.66234 41.6402 4.55369 41.6973 4.46843 41.7395C4.42917 41.7592 4.39375 41.7751 4.40184 41.7725C4.43135 41.7711 4.39791 41.7415 4.84187 41.6729C4.58147 41.7049 4.5764 41.7094 4.53298 41.7063C4.50237 41.7028 4.49776 41.6902 4.50076 41.6756C4.50539 41.6466 4.56267 41.6064 4.5234 41.6146C4.19775 41.6971 4.39045 41.6478 4.56705 41.5587C4.76065 41.4695 5.01723 41.3475 5.2319 41.2441C5.36303 41.1811 5.47985 41.124 5.5578 41.0835C5.63403 41.0438 5.59949 40.9941 5.61176 40.9871C5.91259 40.8331 5.87638 41.051 6.09245 40.7247C6.66173 40.6206 5.43638 41.1744 5.28344 41.3363C5.26373 41.357 5.26114 41.3716 5.28083 41.3782C5.28543 41.3797 5.29376 41.379 5.30565 41.376C5.64697 41.306 8.79111 39.414 8.69095 39.2705C8.71174 39.2791 8.76893 39.271 8.87696 39.2359C9.1168 39.1597 10.0401 38.5773 10.1829 38.4513C10.2068 38.4293 10.1103 38.2964 10.1427 38.2747C10.2244 38.2217 11.4213 37.6262 11.7852 37.2756C11.5471 37.4007 11.3086 37.525 11.0705 37.6479C12.4336 36.7813 12.1939 36.8697 11.7156 37.1206C11.6928 37.1347 11.6675 37.1435 11.6456 37.1567C11.2747 37.3513 10.8038 37.606 10.7897 37.5995C10.7431 37.5797 13.0245 36.0757 12.6652 36.4862C12.6158 36.5455 11.5168 37.1749 12.1016 36.9264C12.2049 36.8832 12.8681 36.4131 12.9099 36.399C13.1939 36.3101 11.763 37.3674 12.004 37.3435C12.3098 37.0196 12.805 36.7651 13.2021 36.4687C13.3826 36.3341 13.3834 36.2347 13.4056 36.2181C13.7376 35.9706 13.5924 36.171 13.7062 36.0922C13.768 36.0501 14.339 35.441 14.3538 35.736C14.3971 35.7019 14.4388 35.6689 14.4789 35.6369C15.9731 34.4366 15.3551 34.8314 14.3853 35.5002C14.1088 35.6896 13.8038 35.899 13.5076 36.1007C13.706 35.9108 14.0335 35.6768 14.3538 35.4542C14.6517 35.2474 14.9441 35.0503 15.1197 34.915C15.2503 34.8142 15.122 34.8013 15.3401 34.6275C15.7905 34.2779 18.0741 32.738 18.6637 32.3183C18.3272 32.6062 18.4857 32.6027 18.7555 32.3936C19.0263 32.1833 18.7223 32.2575 18.768 32.2069C18.8168 32.1553 20.1351 31.2338 20.3385 31.0571C19.4005 31.8249 19.6717 31.7346 20.4984 31.1183C20.3959 31.2295 20.2931 31.3408 20.1908 31.4515C20.6478 31.0592 21.7438 30.3944 21.9963 30.147C22.0358 30.1082 21.8322 30.1678 21.8544 30.146C22.0785 29.9325 22.9547 29.3552 22.9802 29.3023C22.9999 29.2595 22.6048 29.483 22.717 29.3562C22.7404 29.3298 23.1466 29.1474 23.4701 28.8657C23.5905 28.761 23.4703 28.7618 23.4996 28.7338C23.696 28.5469 23.6827 28.6511 23.9171 28.4954C23.9752 28.4567 24.0463 28.4039 24.1404 28.3273C24.5428 28.0185 24.6057 27.751 25.6113 27.2078C24.7584 27.6567 24.6221 27.7824 24.4779 27.856C24.3621 27.9216 24.404 27.8802 24.534 27.7795C24.6673 27.678 24.883 27.5153 25.2293 27.2956C25.4126 27.1822 25.6127 27.0582 25.9507 26.9058C26.2975 26.7764 26.728 26.5135 27.8201 26.577C28.536 26.7004 28.7181 26.6121 29.7032 27.3006C30.161 27.6433 30.6471 28.3541 30.8145 28.9213C31.0051 29.509 31.0215 29.9952 31.0019 30.4C30.9755 29.9637 30.9276 29.4488 30.6888 28.8331C30.4658 28.222 29.9693 27.6739 29.8491 27.5838C29.7069 27.4692 29.9978 27.7157 30.2691 28.1435C30.5492 28.5745 30.7172 29.1121 30.7763 29.4625C30.9656 30.8863 30.7531 31.4638 30.7294 31.7934C30.7229 31.8251 30.6377 31.8153 30.5885 32.0774C30.5846 32.0978 30.6478 32.0856 30.6083 32.3131C30.196 34.4411 30.4212 33.0657 30.2781 33.4508C30.2228 33.5974 30.0971 34.385 30.0208 34.7445C30.012 34.7869 30.0041 34.8231 29.9972 34.8509C29.9825 34.9092 29.9307 34.8655 29.8744 35.0941C29.7754 35.4959 29.7436 35.8716 29.6799 36.1311C29.6725 36.1595 29.577 36.1452 29.4761 36.6415C29.4473 36.7822 29.4377 36.949 29.5181 36.7575C29.7151 36.2898 29.8647 35.4531 30.0405 34.7495C30.1034 34.4982 30.162 34.2923 30.2347 34.0923C30.3739 33.7135 30.2745 34.2286 30.1469 34.7765C30.0481 35.2034 29.9297 35.6607 29.9167 35.7108C29.9063 35.7518 29.9705 35.3179 29.8488 35.7446C29.7467 36.103 29.7299 36.8112 29.5491 37.3354C29.5358 37.3743 29.2808 37.7703 29.2789 37.7455C29.2773 37.7298 29.4288 37.0581 29.3626 37.1451C29.3554 37.1541 29.2421 37.5727 29.1971 37.6213C29.1434 37.677 28.7436 37.7582 28.7102 37.8447C28.6254 38.0672 28.7466 37.9404 28.6999 38.0875C28.6019 38.3985 28.1922 39.462 28.3025 39.5343C28.361 39.354 28.4191 39.1749 28.4765 38.9977C28.2063 40.0083 28.379 39.5909 28.3617 39.7402C28.3432 39.8998 28.249 39.8257 28.1427 40.1629C28.1205 40.235 27.74 41.6524 27.7911 41.6411C27.9441 40.8382 27.9922 41.1675 28.0051 41.1315C28.0522 40.9991 28.0289 40.8005 28.0826 40.6175C28.4608 39.3288 28.2074 40.6666 28.3241 40.3695C28.3636 40.2691 28.3607 40.0384 28.3764 39.9953C28.4278 39.8532 28.5111 39.8743 28.5316 39.7761C28.5793 39.5477 28.3885 39.7762 28.3874 39.7568C28.3704 39.5378 28.6844 38.7681 28.6736 39.2969C28.8025 39.0137 28.6562 38.9397 28.7846 38.7189C29.038 38.2833 28.8096 38.9819 28.7781 39.1718C28.6597 39.8755 28.5451 40.0556 28.292 41.0214C28.2017 41.3652 28.1581 41.8003 28.1171 41.9585C28.0911 42.0594 27.5557 42.9346 27.956 43.0807C27.8093 43.4396 27.3719 43.9402 27.2736 44.3226C27.1853 44.6668 27.3613 44.6007 27.3576 44.6342C27.3521 44.6859 27.2203 45.0943 27.1997 45.2397C27.1759 45.4102 27.255 45.3448 27.2014 45.6107C27.0677 46.2718 26.9251 46.2114 26.8961 46.2748C26.5586 47.0115 26.8674 46.7363 26.8339 46.9119C26.803 47.0759 26.0625 49.275 25.9748 49.7589C26.002 49.5606 26.0303 49.3582 26.0569 49.161C25.8637 49.4739 25.9052 49.8808 25.7389 49.8373C25.9847 49.9836 25.5958 50.6362 25.5396 50.8484C25.5173 50.933 25.5646 50.94 25.5352 51.045C25.4222 51.4508 25.1091 52.3601 25.0654 52.5874C24.8773 53.5684 25.7766 51.1804 25.8433 50.9916C25.7265 51.3727 25.1292 53.5678 25.5581 52.6077C25.6246 52.4587 25.5887 52.1474 25.6097 52.0608C25.7558 51.4642 25.7233 51.9584 25.7473 51.9155C25.7872 51.842 25.801 51.4227 25.8435 51.3258C25.8577 51.2924 25.8879 51.5425 26.0587 50.9804C26.0697 51.2851 25.5187 52.8392 25.4789 53.0494C25.4647 53.1242 25.8032 52.7269 25.2016 54.0148C25.2248 54.0048 25.2481 53.9948 25.2714 53.9848C25.0516 54.7376 24.8313 55.4894 24.6095 56.2425C24.5922 56.1465 24.6365 55.6947 24.4908 56.2368C24.4081 56.5449 24.5721 56.3485 24.5663 56.3773C24.5606 56.4054 24.5401 56.4797 24.5085 56.5886C24.3707 57.0745 23.9493 58.3895 23.6625 59.4327C23.5969 59.6662 23.5404 59.9475 23.5546 59.8676C23.5572 59.8387 23.5694 59.7696 23.569 59.5775C23.5679 59.4741 23.5622 59.2989 23.5205 59.0605C23.4999 58.9412 23.4532 58.7265 23.3727 58.5022C23.2824 58.2636 23.2008 58.0382 22.9151 57.6238C22.429 56.8417 21.123 56.1004 20.192 56.0889C19.4407 56.0355 18.9166 56.2212 18.7337 56.2845C18.2483 56.4715 18.1768 56.553 18.077 56.6115C17.941 56.7062 17.9656 56.6963 17.9888 56.6738C18.0126 56.6532 18.0648 56.6049 18.1067 56.5644C18.2032 56.4713 18.289 56.3833 18.3557 56.3133C18.5369 56.1275 19.0777 55.4249 19.1173 55.3779C19.324 55.1444 19.9726 54.4699 20.3578 54.0534C20.4691 53.9333 20.5587 53.8347 20.6031 53.7813C20.7232 53.6365 20.5416 53.7145 20.6575 53.5912C20.765 53.4769 20.7165 53.6512 20.7501 53.6188C21.0257 53.3564 22.8693 51.1354 23.384 50.671C23.0903 50.9667 21.8117 52.6393 21.8833 52.6437C21.8932 52.6443 22.2825 52.3005 22.3281 52.2046C22.4927 52.1248 22.7348 51.5359 22.9799 51.3236C23.0074 51.2999 23.0018 51.4845 23.4019 51.0684C23.539 50.9257 23.8175 50.4743 24.2452 50.1502C24.7141 49.55 27.4873 46.6638 27.5738 46.3738C27.574 46.3634 27.1669 46.7553 27.3807 46.4361C27.6651 46.0113 27.5387 46.5064 27.945 46.0796C28.0064 46.0153 29.0784 44.7728 29.1032 44.7229C29.3348 44.264 28.3427 45.3007 28.3447 45.2754C28.349 45.2126 29.1229 44.3062 29.1616 44.2762C29.1993 44.2479 28.6847 45.09 29.4103 44.1733C29.3057 44.2598 29.2016 44.3456 29.0972 44.4318C29.4311 43.9947 29.5566 44.035 29.6503 43.9406C29.9419 43.6473 30.1024 43.1906 30.7114 42.8453C30.8728 42.7539 30.7292 43.0162 30.7505 43.0057C30.9512 42.9014 30.9674 42.5574 31.2977 42.4282C31.3225 42.4183 30.905 43.0344 31.761 42.0702C31.6908 42.126 31.6204 42.182 31.55 42.238C31.6447 42.0793 32.4923 41.0932 32.6171 40.9647C32.9748 40.5975 32.7612 41.0056 33.0926 40.612C32.76 40.7577 33.7845 39.5729 33.8231 39.7267C33.8414 39.4582 34.8242 38.5414 35.241 38.0774C35.5032 37.7853 35.9814 37.138 36.0745 37.0458C36.1841 36.9377 36.2381 37.0459 36.4377 36.8585C36.4852 36.8144 36.8671 36.2905 37.3331 35.8583C37.4031 35.7928 37.4742 35.73 37.5457 35.6716C37.6559 35.5811 37.9868 35.495 37.8545 35.7157C37.7891 35.8245 37.6861 35.9467 37.5719 36.0702C37.3027 36.3607 36.9718 36.6506 37.0394 36.6954C37.0964 36.7411 37.3839 36.4206 37.6363 36.1273C37.8107 35.9249 37.9624 35.743 38.0486 35.6552C39.0405 34.6471 38.5949 35.3417 38.6477 35.3407C38.7815 35.3317 39.2859 34.7592 39.3158 34.7383C39.4312 34.665 39.1281 35.1184 39.1639 35.1645C39.2143 35.2204 39.8066 34.7566 39.7137 34.8992C39.5746 35.1096 39.0445 35.5372 39.0193 35.5737C38.6955 36.0477 39.3402 35.5817 39.5452 35.4787C39.6084 35.4468 39.4665 35.6712 39.5083 35.6357C40.1395 35.0999 39.4388 35.3483 39.8209 34.9542C40.1521 34.6136 39.8321 35.1447 39.8464 35.138C39.8673 35.1248 40.2584 34.6939 40.3441 34.6581C40.3941 34.6319 39.5564 35.9074 39.6731 35.9252C39.9773 35.5497 40.2771 35.1794 40.5787 34.8071C40.6996 34.8654 40.1726 35.3154 40.135 35.3778C40.0593 35.5033 40.3744 35.2469 40.3919 35.2886C40.4071 35.3106 40.1646 35.723 40.4737 35.4325C40.5783 35.3347 40.7177 35.0415 41.1388 34.707C39.9933 36.1735 40.9081 35.2535 40.9729 35.2493C41.0455 35.2365 40.5377 35.9699 41.2359 35.1556C41.455 35.2872 41.2782 35.2275 41.1103 35.4829C40.9049 35.7957 41.5354 35.2106 40.5855 36.1853C40.7235 36.207 41.4437 35.3839 41.4919 35.3439C41.5317 35.3119 41.4127 35.5328 41.4853 35.4806C42.3372 34.8645 41.7895 35.3243 42.0962 35.1978C42.1263 35.1834 42.8083 34.4981 42.3329 35.064C41.4719 36.0896 40.9661 36.4087 41.0871 36.8089C41.8613 36.17 42.4913 35.1157 42.691 34.8857C42.9918 34.5396 42.732 34.9405 42.7837 34.9131C42.8017 34.9027 43.0628 34.6007 43.0693 34.6021C43.464 34.567 41.8918 35.9312 41.4974 36.447C41.6388 36.3491 41.7922 36.2377 41.934 36.1394C41.7808 36.3143 41.625 36.492 41.4676 36.6716C42.2768 35.884 41.5177 36.6618 41.4964 37.0172C41.4912 37.0975 41.9153 36.4923 41.4616 37.2101C41.893 36.7721 41.8001 36.9444 42.1277 36.4823C42.1776 36.5588 41.4197 37.5618 41.1197 37.968C42.367 36.7125 41.4518 37.2558 42.595 36.227C42.6992 35.9454 42.2318 36.5032 42.2597 36.4447C42.3548 36.2402 42.7617 35.9373 42.9924 35.3366C43.0296 35.2388 42.6684 35.4718 43.0801 35.0179C43.1258 34.9677 43.4607 34.7394 43.4612 34.7495C43.4853 34.8379 43.2031 35.1112 43.2182 35.1425C43.2286 35.1765 43.5053 34.8385 43.5124 34.8433C43.5926 34.8979 43.3006 35.1361 43.3585 35.1165C43.4866 35.0711 44.6713 34.0538 43.2786 35.5247C44.3163 34.1971 43.3444 35.2905 42.9394 35.8089C42.832 35.9454 42.8537 36.0075 42.7061 36.2035C42.5242 36.4469 42.2658 36.6962 42.1645 36.8261C42.0606 36.9606 42.8048 36.3274 41.8461 37.3456C42.4163 36.907 43.148 35.8668 43.6865 35.4053C44.7677 34.4808 43.2072 36.2928 43.0526 36.4957C43.0113 36.5497 43.2203 36.4315 43.1937 36.4686C43.1502 36.5283 42.2179 37.5235 42.1785 37.6647C42.137 37.8081 42.5086 37.2886 42.5847 37.3037C42.6374 37.3122 41.6079 38.5918 42.2194 37.9496C42.6443 37.5027 43.2573 36.5405 43.528 36.5292C42.9441 37.2099 42.3514 37.9015 41.7704 38.5804C42.1544 38.2592 42.5328 37.9447 42.9188 37.6216C42.373 38.2657 41.8279 38.7962 41.3391 39.413C41.2471 39.5295 41.1547 39.6519 41.0623 39.7821C41.2038 39.6517 41.3167 39.5509 41.4068 39.4731C41.8954 39.0466 41.7781 39.2329 41.5083 39.5632C41.209 39.9307 40.7058 40.4914 40.7034 40.5155C40.7121 40.5318 41.4583 39.9809 41.5825 39.8941C41.1031 40.5459 39.5038 42.4035 40.6325 41.4895C40.4223 41.6455 40.1004 42.2082 40.1148 42.2071C40.2426 42.2213 41.1072 41.144 41.0295 41.3745C40.9341 41.648 40.5886 41.8123 40.3291 42.123C39.0171 43.6958 39.7994 43.6406 38.3701 45.121C38.412 45.1032 38.4538 45.0855 38.4956 45.0678C36.989 46.7193 35.4821 48.3706 33.9739 50.0216C33.5182 50.7871 32.0482 52.5946 31.2732 53.4375C31.118 53.6065 30.3012 54.3918 30.2317 54.4466C30.1052 54.5443 30.6733 53.8893 30.3717 54.1448C30.3075 54.1999 29.007 55.6041 29.1677 55.5644C29.3183 55.4118 29.7309 54.8781 29.82 54.8112C30.4505 54.3423 26.4269 58.6628 26.2715 58.9263C26.3812 58.8497 26.4971 58.766 26.6034 58.693C26.4382 58.8628 26.2628 59.0439 26.1006 59.21C26.0049 59.3087 25.911 59.4052 25.8191 59.4995ZM31.5778 41.7153C31.6564 41.485 32.0791 41.1151 32.2799 40.8489C32.5555 40.4826 32.8004 39.6609 32.8497 40.1522C32.4253 40.6738 32.0031 41.1928 31.5778 41.7153ZM24.9637 48.9485C25.3013 48.6452 25.2191 49.0425 24.9124 49.2602C24.8785 49.2839 24.5097 49.3562 24.9637 48.9485ZM28.1679 45.4899C28.1574 45.5057 27.8949 45.793 27.8836 45.801C27.5912 46.0075 28.3821 45.1424 28.1679 45.4899ZM24.8883 54.7144C24.7523 55.1916 25.0337 54.8999 25.0502 54.5846C25.0512 54.5647 24.8972 54.6835 24.8883 54.7144ZM24.7805 55.0521C24.5116 55.3692 24.6022 56.2183 24.7515 55.6135C24.7675 55.5494 24.7926 55.0401 24.7805 55.0521ZM26.0891 47.805C26.1027 47.8848 25.7725 48.2101 25.6287 48.3489C25.5892 48.3065 25.966 47.954 26.0891 47.805ZM18.3613 56.4219C18.3627 56.5043 19.3763 55.4157 19.4119 55.2725C19.2559 55.4912 18.3199 56.411 18.3613 56.4219ZM23.8256 58.3123C23.8039 58.353 23.6692 58.8567 23.7161 58.8546C23.8407 58.6294 23.9133 58.1554 23.8256 58.3123ZM26.2121 50.4466C26.21 50.4148 25.8231 50.7348 26.2831 49.8376C26.3505 49.7061 26.2718 50.2239 26.2963 50.1771C26.3458 50.0796 26.379 50.0004 26.4002 49.935C26.2907 50.3827 26.1625 50.8482 26.1335 50.8859C25.9946 51.0705 26.2123 50.462 26.2121 50.4466ZM27.2463 46.2335C27.2295 46.1292 27.4244 45.5524 27.4814 45.4245C27.4915 45.4027 27.5772 45.5359 27.6457 45.2703C27.7004 45.0571 27.4905 45.3379 27.6296 44.9323C27.7702 44.5216 27.6915 45.1022 27.7081 45.0674C27.7301 45.0216 27.8656 44.3617 27.928 44.402C27.9745 44.4314 27.7386 45.1116 27.6995 45.2847C27.6494 45.5069 27.8114 45.267 27.6863 45.6265C27.6077 45.8524 27.4965 45.6818 27.4748 45.7279C27.457 45.7667 27.3069 46.5921 27.2471 46.2324C27.2468 46.2327 27.2465 46.2331 27.2463 46.2335ZM26.4294 49.8134C26.4245 49.8482 26.4155 49.8881 26.4002 49.935C26.4102 49.8943 26.4198 49.8536 26.4294 49.8134ZM30.7665 42.7318C30.576 42.8745 30.9893 42.3167 31.2115 42.1604C31.2515 42.1913 30.7971 42.7084 30.7665 42.7318ZM26.4316 49.3657C26.664 48.7212 26.5723 49.2163 26.4294 49.8134C26.457 49.6194 26.3533 49.583 26.4316 49.3657ZM22.3281 52.2046C22.3006 52.2181 22.2752 52.2195 22.2517 52.2015C22.3254 52.1675 22.3429 52.174 22.3281 52.2046ZM21.2272 53.3564C20.9286 53.8247 21.6665 52.9953 21.6136 52.9577C21.5914 52.9461 21.2428 53.3336 21.2272 53.3564ZM25.082 54.1063C25.0587 54.1528 25.025 53.3271 24.8915 54.4703C25.0997 53.8942 24.9404 54.5215 24.9663 54.518C25.0395 54.5127 25.272 53.5188 25.364 53.3165C25.2979 53.1121 25.1574 53.9578 25.0824 54.1051C25.0822 54.1055 25.0821 54.1059 25.082 54.1063ZM29.4745 38.724C29.5063 38.8775 29.366 39.2945 29.2816 39.5791C29.2504 39.425 29.3903 39.0114 29.4745 38.724ZM23.7935 9.42848C24.8222 9.31523 25.5958 9.36001 25.7211 9.41426C25.845 9.46642 25.2414 9.49618 24.2563 9.50693C24.2172 9.50643 23.6664 9.46718 23.7935 9.42848ZM21.8284 26.9876C21.6125 27.0635 21.9735 26.5474 22.2625 26.2485C22.3276 26.1813 22.6366 25.9832 22.422 26.3126C22.3073 26.2082 21.8908 26.6666 21.8284 26.9876ZM26.464 48.9714C26.4401 48.7543 26.6728 48.1837 26.7775 47.875C26.788 48.086 26.5718 48.7025 26.464 48.9714ZM28.1311 18.2279C28.0016 18.3997 28.0033 18.5917 28.0336 18.5642C28.1681 18.4445 28.3282 18.0515 28.1311 18.2279ZM25.883 50.8694C25.8262 50.8824 26.0131 50.0881 26.1497 50.0691C26.0908 50.2345 25.9192 50.8597 25.883 50.8694ZM29.2872 39.2534C29.2278 39.3704 29.3619 38.7192 29.4392 38.5357C29.4878 38.5629 29.3249 39.1816 29.2872 39.2534ZM26.1355 21.1065C26.0152 21.256 25.7277 21.6454 25.7335 21.7132C25.7376 21.8028 26.1403 21.218 26.1355 21.1065ZM11.4183 10.2848C11.4483 10.2914 10.8793 10.7592 10.581 10.8788C10.0132 11.1047 11.3853 10.2845 11.4183 10.2848ZM29.2892 16.3442C29.7623 15.7451 29.2476 16.4246 29.3628 16.4435C29.4898 16.2375 29.7192 15.8483 29.871 15.5083C29.9479 15.3383 30.0009 15.1897 29.9898 15.1783C29.9802 15.1616 29.9012 15.3035 29.751 15.5428C29.6316 15.7397 29.4114 16.1575 29.2892 16.3442ZM28.92 16.87C28.9127 16.9496 28.7452 17.4163 28.9653 17.061C29.0659 16.8976 29.1276 16.5625 28.92 16.87ZM7.73186 12.4093C7.58483 12.4576 7.72362 12.342 8.05033 12.1421C8.48261 11.8759 9.19984 11.5012 9.23829 11.4912C9.27344 11.482 9.29799 11.4782 9.31312 11.478C9.37382 11.4082 9.76345 11.1871 9.84655 11.2316C9.7266 11.2897 9.40877 11.4732 9.36707 11.4866C9.34929 11.4922 9.33575 11.4958 9.32588 11.4972C9.25675 11.5882 8.52184 11.9793 8.09453 12.2151C7.88737 12.3285 7.75225 12.4032 7.73186 12.4093ZM8.77423 8.64507C8.20301 8.57103 8.1857 8.29348 8.2392 8.30793C8.86271 8.45668 8.41188 8.46681 8.4273 8.48256C8.4654 8.51427 8.89616 8.59714 8.77264 8.64443C8.77317 8.64464 8.7737 8.64486 8.77423 8.64507ZM7.57969 12.4444C7.56104 12.4629 7.47114 12.5436 7.49246 12.5272C7.50394 12.5201 7.56897 12.4773 7.57298 12.4771C7.70385 12.4373 7.54334 12.5658 7.5285 12.5751C7.47574 12.6405 7.92393 12.1233 7.57969 12.4444ZM27.9973 43.0469C28.1239 42.6973 28.11 43.0717 28.0097 43.3006C28.0009 43.3193 27.8853 43.356 27.9973 43.0469ZM28.7629 17.159C28.6987 17.2485 27.3439 19.1052 27.538 19.0564C27.6336 18.9134 29.1716 16.752 28.7629 17.159ZM18.9513 30.5215C19.1844 30.2132 19.0344 30.6275 18.8718 30.7637C18.8116 30.8141 18.8926 30.5993 18.9513 30.5215ZM25.4543 51.8892C25.4069 52.2928 25.2028 52.1454 25.381 51.8362C25.388 51.8241 25.4562 51.8733 25.4543 51.8892ZM20.8646 28.0978C20.1264 29.2116 19.9903 28.712 21.1403 27.4087C21.1224 27.4628 21.1046 27.5171 21.0866 27.5714C22.3364 26.0056 21.1915 27.48 20.9157 27.8856C20.8104 28.0405 20.9586 27.9569 20.8658 28.097C20.8654 28.0973 20.865 28.0975 20.8646 28.0978ZM17.7245 32.1399C16.7214 32.9903 18.3442 31.1474 18.736 30.5633C18.423 31.1792 17.8752 31.8774 18.6982 30.9873C17.6577 32.4105 18.0064 31.7543 17.9563 31.8048C17.8976 31.8649 17.7674 32.1036 17.7245 32.1399ZM19.7562 29.4342C19.7931 29.3711 20.1781 28.957 20.2903 28.7915C20.2012 29.0755 19.5066 29.8624 19.7562 29.4342ZM12.1586 9.51746C12.1171 9.57232 12.04 9.61007 11.8196 9.5808C11.7674 9.57407 11.7062 9.56196 11.6333 9.54266C11.6825 9.53346 11.7525 9.52863 11.8283 9.52443C11.9414 9.5224 12.0637 9.52213 12.1586 9.51746ZM32.1658 41.6692C32.3709 41.4464 32.7943 41.0133 32.61 41.0979C32.5901 41.1098 32.1326 41.6375 32.1658 41.6692ZM24.9318 22.4639C24.9262 22.4696 24.9067 22.4942 24.8772 22.5328C24.67 22.8039 23.9294 23.811 24.296 23.4427C24.3732 23.3658 24.758 22.8483 24.933 22.5739C25.0437 22.4016 25.0791 22.3172 24.9318 22.4639ZM30.2291 13.0178C30.2501 13.2226 30.2583 13.535 30.2182 13.8521C30.0393 14.9971 29.7213 15.4051 29.7392 15.4579C29.7484 15.4947 30.1033 15.0317 30.2519 13.8563C30.2925 13.4684 30.2531 13.1197 30.2291 13.0178ZM33.2411 40.577C33.2747 40.5514 33.8774 39.8504 33.7825 39.9005C33.5977 40.0014 33.1307 40.6596 33.2411 40.577ZM28.1961 41.6991C28.215 41.623 28.3246 41.5469 28.333 41.5212C28.3519 41.4614 28.7115 40.0788 28.6667 40.6326C28.6599 40.7267 28.0537 42.6902 27.9687 42.9418C27.8287 43.0091 28.1781 42.1966 28.2252 41.9889C28.2335 41.9519 28.1464 41.9039 28.1964 41.6999C28.1963 41.6996 28.1962 41.6994 28.1961 41.6991ZM10.3466 9.21424C10.286 9.28977 8.9396 8.87043 8.97722 8.77656C9.45034 8.94886 9.90147 9.09484 10.3466 9.21424ZM10.9939 9.39901C11.254 9.51408 10.612 9.38068 10.4261 9.29834C10.4395 9.25325 10.9564 9.38542 10.9939 9.39901ZM27.9701 17.7568C27.8863 17.9128 28.2805 17.522 28.2295 17.6346C28.1961 17.7081 27.942 18.0105 27.8986 18.1326C27.8858 18.1705 28.1965 17.8954 28.259 17.7944C28.3476 17.6525 28.1919 17.7413 28.2915 17.5922C28.6284 17.0846 28.9713 16.6673 29.3054 16.0938C29.3362 16.0406 29.0525 16.4155 29.3124 15.9701C29.3328 15.9338 29.4203 15.8259 29.5511 15.6187C29.6817 15.3843 29.8552 15.1945 30.0866 14.3662C30.1141 14.2199 30.1427 14.039 30.1584 13.8446C30.2845 13.1059 29.9316 11.6109 29.092 10.8881C28.3363 10.1956 27.7818 10.0791 27.414 9.9647C26.6752 9.78384 26.3307 9.78929 25.9522 9.76025C25.244 9.72491 24.664 9.7299 23.9693 9.82218C24.0177 9.83995 25.1497 9.83847 25.238 9.84491C25.5765 9.84834 25.9374 9.83691 26.5722 9.90611C26.9147 9.96206 27.2637 9.95761 28.0699 10.3271C28.4706 10.5281 29.07 10.9001 29.5276 11.6703C29.7459 12.0392 29.8904 12.4671 29.9483 12.8585C30.002 13.2112 29.9947 13.5374 29.9589 13.8196C29.7925 14.8217 29.5796 15.0712 29.4375 15.3969C29.2843 15.697 29.1496 15.9268 29.0209 16.1422C28.7675 16.5633 28.5349 16.9189 28.3427 17.2104C28.1631 17.481 28.2947 17.3815 28.2174 17.5011C28.1574 17.5929 28.1483 17.4256 27.9701 17.7568ZM32.1005 41.8273C32.2737 41.785 32.5591 41.3666 32.7804 41.1251C32.6352 41.1509 32.3285 41.6043 32.1005 41.8273ZM17.7061 10.094C17.8597 10.0914 18.3314 10.1195 18.3682 10.0881C18.4194 10.0487 17.7395 10.0264 17.7061 10.094ZM30.3553 33.8584C30.3555 33.8474 30.4587 33.4338 30.4639 33.4237C30.6278 33.0833 30.3264 34.2858 30.3553 33.8584ZM20.9832 30.4339C20.7578 30.6223 20.5423 30.8267 20.4135 30.8213C20.5706 30.7176 20.976 30.3673 20.9832 30.4339ZM10.6893 37.693C10.7974 37.7532 10.0225 38.1531 9.8764 38.2305C9.90519 38.1575 10.6108 37.6514 10.6893 37.693ZM12.1685 9.86085C11.9623 9.82825 11.8543 9.83797 11.7772 9.85297C11.6844 9.87647 11.6439 9.9093 11.4932 9.83806C11.451 9.81625 11.3754 9.46251 11.8068 9.6627C11.807 9.66279 11.8073 9.66287 11.8075 9.66296C11.8363 9.67441 11.8202 9.68418 11.8016 9.69613C11.7836 9.71032 11.7627 9.7274 11.793 9.75166C11.8308 9.77744 11.9337 9.81299 12.1685 9.86085ZM21.3121 27.185C21.3398 27.0292 21.615 26.6971 21.7965 26.464C21.7973 26.5513 21.4353 27.0122 21.3121 27.185ZM34.4135 39.3783C34.6576 39.2548 35.3863 38.3208 35.1421 38.4958C35.1101 38.5187 34.5257 39.2575 34.4135 39.3783ZM26.5484 47.5447C26.6109 47.0545 26.3005 48.0164 26.2838 48.344C26.32 48.2048 26.5443 47.5772 26.5484 47.5447ZM13.2517 36.11C13.2346 36.1256 12.8134 36.3951 12.7922 36.404C12.4047 36.561 13.5968 35.7975 13.2517 36.11ZM23.492 28.6663C23.3821 28.8331 22.3819 29.5391 22.1278 29.6524C22.275 29.4185 23.623 28.462 23.492 28.6663ZM14.2365 10.0552C13.8787 10.0268 13.5372 9.97118 13.2142 9.90521C13.286 9.86117 14.2015 10.0136 14.2365 10.0552ZM11.7156 37.1206C11.6928 37.1347 11.6675 37.1435 11.6456 37.1567C11.6693 37.1443 11.6928 37.1325 11.7156 37.1206ZM22.4438 10.0583C22.7666 10.0559 22.6938 9.96031 22.6732 9.95881C22.4214 9.94522 22.0879 10.0599 22.4438 10.0583ZM32.4597 41.6477C32.6012 41.625 32.9151 41.1651 33.1389 40.9454C33.0262 40.9643 32.6189 41.4539 32.4597 41.6477ZM16.7505 33.1254C16.4256 33.3936 17.3356 31.9932 17.5977 31.7504C17.6619 31.7662 16.7971 33.0859 16.7505 33.1254ZM25.9864 48.9582C25.9091 48.9688 25.7905 49.6665 25.8654 49.5332C25.9132 49.4479 26.0344 48.9521 25.9864 48.9582ZM18.1347 31.1054C18.2115 30.9671 18.487 30.7175 18.444 30.846C18.3887 31.0108 18.1153 31.1415 18.1347 31.1054ZM26.5068 19.7372C26.4585 19.7872 25.9704 20.5898 26.2556 20.3181C26.4519 20.1319 26.3932 20.0371 26.4306 19.9844C26.4729 19.9279 27.448 18.7751 26.5068 19.7372ZM11.1227 40.5442C11.3075 40.2483 11.5779 39.9371 11.7959 39.6404C11.7402 39.7889 11.2573 40.4601 11.1227 40.5442ZM26.7376 46.3565C26.6865 46.4306 26.0156 48.6345 26.4721 47.4053C26.4989 47.3332 26.894 46.1347 26.7376 46.3565ZM12.1685 9.86085C12.2314 9.87077 12.3034 9.88448 12.3864 9.90308C12.3034 9.88878 12.2314 9.87364 12.1685 9.86085ZM17.9129 10.2707C17.7966 10.323 18.3855 10.3352 18.5654 10.304C18.6157 10.241 17.9312 10.2647 17.9129 10.2707ZM11.754 39.5756C11.851 39.3954 12.1084 39.1025 12.2566 38.8978C12.2719 38.9578 11.8437 39.5368 11.754 39.5756ZM9.44341 38.7555C9.08181 38.942 8.65784 39.2109 8.68244 39.2648C8.67056 39.2611 8.64867 39.2628 8.61522 39.2714C8.58128 39.2805 8.22045 39.5271 8.04769 39.6054C7.01784 40.0914 11.7579 37.2836 9.11357 39.0817C9.22415 38.9729 9.33349 38.8645 9.44341 38.7555ZM25.039 27.6859C25.1902 27.6278 25.4544 27.4409 25.8042 27.2443C26.1312 27.0472 26.6937 26.8555 26.3452 26.9497C26.0762 27.0196 25.5342 27.2857 25.2926 27.4517C25.025 27.6262 24.8909 27.7449 25.039 27.6859ZM17.7356 33.2663C17.7989 33.2361 18.2801 32.8184 18.2706 32.778C17.9536 32.9639 17.446 33.405 17.7356 33.2663ZM30.5994 30.4332C30.5835 30.7051 30.6688 30.9923 30.6767 30.9673C30.7085 30.8637 30.7153 30.6222 30.6938 30.4552C30.6723 30.2656 30.6338 30.1786 30.5994 30.4332ZM13.1689 10.3055C13.3673 10.3635 14.0337 10.347 14.1805 10.2821C14.2059 10.2992 14.2763 10.3249 14.4059 10.359C14.4055 10.359 14.4051 10.3589 14.4047 10.3589C14.569 10.4719 19.9115 10.6166 16.3313 10.3912C16.2206 10.3821 16.3713 10.4579 15.9178 10.4261C15.8877 10.4238 15.8754 10.3673 15.7825 10.36C15.5674 10.3477 14.444 10.2354 14.2108 10.2554C14.2098 10.2449 14.1959 10.2337 14.1653 10.2219C13.8998 10.1198 13.0125 10.2629 13.1689 10.3055ZM16.7264 34.0138C16.8415 33.9565 17.1568 33.7035 17.1613 33.639C16.9858 33.7373 16.4586 34.1473 16.7264 34.0138ZM26.523 46.3679C26.409 46.6114 26.291 47.2779 26.3874 47.0944C26.4468 46.9817 26.6544 46.0873 26.523 46.3679ZM19.9676 31.5797C18.7357 32.4366 19.6852 31.7991 19.5454 31.9953C19.6864 31.8569 19.8272 31.7183 19.9676 31.5797ZM7.17871 8.41727C7.38255 8.51345 7.19992 8.54014 6.9686 8.44798C6.92198 8.42938 6.88003 8.40612 6.84194 8.37484C6.80386 8.34206 6.89175 8.33765 7.00224 8.35999C7.06616 8.37507 7.13383 8.39637 7.17871 8.41727ZM14.5811 8.06866C14.3396 8.05145 15.2665 7.65306 14.9591 7.91101C14.9441 7.92207 14.5959 8.06637 14.5811 8.06866ZM7.96612 11.5689C7.92647 11.6423 7.88254 11.6966 7.81334 11.7511C7.73821 11.8095 7.6304 11.8715 7.47355 11.9599C7.84869 11.699 7.58984 11.7972 7.77054 11.6804C7.80789 11.6566 7.87038 11.6204 7.96612 11.5689ZM8.69095 39.2705C8.68693 39.2688 8.68373 39.2677 8.68244 39.2648C8.68655 39.266 8.68917 39.2679 8.69095 39.2705ZM30.3766 32.3271C30.2632 32.5315 30.1455 33.0905 30.2539 32.9398C30.2642 32.9289 30.412 32.4333 30.3766 32.3271ZM14.1805 10.2821C14.158 10.2669 14.1709 10.2596 14.2108 10.2554C14.2118 10.2653 14.2008 10.2735 14.1805 10.2821ZM25.6129 27.4684C25.6128 27.4355 25.2892 27.6028 25.0635 27.7461C24.8271 27.8936 24.6347 28.0328 24.6199 28.0473C24.2705 28.4323 25.0304 27.8005 25.6129 27.4684ZM24.9152 51.4965C24.9085 51.5386 25.1217 51.3182 25.116 51.1455C25.1116 51.0115 24.9406 51.3368 24.9152 51.4965ZM9.24198 10.8034C9.46148 10.6822 9.76919 10.5144 9.85895 10.5418C9.7077 10.6119 9.26017 10.8491 9.24198 10.8034ZM14.1894 8.16921C13.9569 8.37896 13.3456 8.69788 12.9501 8.89068C12.8961 8.80186 13.9478 8.32227 14.1894 8.16921ZM12.5276 10.1865C12.5467 10.1945 13.1412 10.2997 13.0672 10.2203C12.9619 10.1067 12.3642 10.127 12.5276 10.1865ZM25.3468 50.3181C25.3836 50.029 25.0539 50.6191 25.0739 50.9463C25.0844 51.1129 25.3409 50.3661 25.3468 50.3181ZM29.89 34.0485C29.8336 34.4477 30.1383 33.5025 30.0969 33.3504C30.0504 33.5275 29.9102 33.9081 29.89 34.0485ZM18.692 32.7929C19.7628 32.2543 19.0196 32.3334 18.8719 32.4859C18.8506 32.5078 18.6663 32.806 18.692 32.7929ZM36.697 37.433C36.7888 37.2858 36.2867 37.6934 36.2871 37.7973C36.2857 37.8642 36.6377 37.5278 36.697 37.433ZM6.96388 42.4119C6.4175 41.8747 5.76985 41.7183 5.48318 41.6814C5.15766 41.6376 4.95843 41.6609 4.84187 41.6729C4.93652 41.6657 5.06394 41.6452 5.36324 41.6698C5.5944 41.7015 6.24971 41.7423 6.96388 42.4119ZM28.7265 37.3802C29.2346 36.6388 28.9924 36.6591 29.0127 36.5894C29.0569 36.4379 29.2319 36.0935 29.2956 35.801C29.2397 36.1423 29.182 36.486 29.1229 36.8311C29.1911 36.6413 29.5918 35.3862 29.7827 34.6841C29.8568 34.413 29.8986 34.237 29.8894 34.2205C29.858 34.1658 29.7822 34.4435 29.7238 34.6691C29.6935 34.7867 29.6693 34.8864 29.6653 34.8935C29.6492 34.9219 29.4363 34.9895 29.4115 35.0569C29.3755 35.1638 28.8567 37.0932 28.7265 37.3802ZM20.647 31.2788C20.4822 31.3761 20.3923 31.3502 20.3336 31.4173C20.3134 31.4403 20.353 31.5002 20.2822 31.5771C20.4035 31.4781 20.5256 31.3783 20.647 31.2788ZM28.5756 38.9189C28.4267 39.1277 28.7482 38.098 28.7669 38.0652C28.8729 37.9046 28.6985 38.7458 28.5756 38.9189ZM26.6465 27.0995C26.7048 27.0964 26.8791 26.9996 27.5307 26.9945C27.8269 26.9988 28.3458 27.0598 28.8658 27.3381C29.3981 27.6114 29.8155 28.0885 30.0106 28.4268C30.4198 29.1614 30.4054 29.4883 30.4582 29.7397C30.4884 29.9509 30.4976 30.0707 30.5104 30.0669C30.5043 29.9198 30.5333 29.6946 30.3672 29.1007C30.2711 28.8116 30.1312 28.3634 29.6073 27.8196C29.1087 27.2817 28.2245 26.9634 27.7072 26.95C26.6628 26.9266 26.4679 27.1336 26.3065 27.1717C26.1937 27.2278 26.2047 27.2125 26.6465 27.0995ZM20.1836 31.6581C19.9519 31.8235 19.4779 32.0905 19.5918 32.1395C19.5922 32.1392 19.5925 32.1389 19.5929 32.1387C19.7903 31.9786 19.9874 31.8183 20.1836 31.6581ZM25.4119 49.3062C25.094 49.7709 25.3742 49.5907 25.5635 49.1497C25.5306 48.9903 25.464 49.2293 25.4119 49.3062ZM24.7973 50.913C24.7264 51.0429 24.3141 52.529 24.4689 52.3296C24.5245 52.2578 24.7004 51.3907 24.7186 51.3514C24.7452 51.2953 24.7607 51.5929 24.8768 51.1372C24.8363 51.1538 24.8218 50.8672 24.7973 50.913ZM25.1797 49.6996C24.9021 50.1725 25.0979 50.3574 25.2138 49.9724C25.2596 49.8207 25.2192 49.633 25.1797 49.6996ZM25.8203 47.62C25.7434 47.7989 25.5671 48.2757 25.5428 48.6379C25.6839 48.1877 25.8246 47.7379 25.9646 47.2892C25.9365 47.2243 25.887 47.4655 25.8199 47.6212C25.82 47.6208 25.8201 47.6204 25.8203 47.62ZM16.7337 6.15144C16.3276 6.28544 17.1787 5.81398 17.2232 5.80971C17.3572 5.80284 16.9157 6.09131 16.7337 6.15144ZM40.5204 36.4189C40.6209 36.3467 40.7352 36.3529 40.8727 36.1274C40.6529 36.2754 40.4251 36.4324 40.2083 36.577C40.189 36.8269 40.4096 36.4986 40.5204 36.4189ZM41.5932 36.0443C41.5718 36.0739 41.8783 36.0795 41.4474 36.3304C41.1532 36.5035 42.2351 35.132 42.5225 34.9648C42.3282 35.2551 41.779 35.7902 41.5932 36.0443ZM44.3698 34.4436C44.3974 34.4402 43.9771 34.9507 43.9187 34.9968C43.5967 35.2538 44.226 34.454 44.3698 34.4436ZM42.9351 35.985C43.1793 35.7784 42.7364 36.3202 42.5868 36.4493C42.5409 36.4357 42.9015 36.0127 42.9351 35.985ZM11.3843 5.13402C11.0138 5.14934 10.9036 5.59178 11.3313 5.29018C11.3515 5.27595 11.4005 5.13425 11.3843 5.13402ZM44.1167 35.0784C43.8775 35.2786 44.311 34.749 44.4663 34.6153C44.5108 34.6303 44.1531 35.0475 44.1167 35.0784ZM10.9998 4.90981C10.55 5.017 10.8682 5.28178 10.9242 5.26977C11.1572 5.21602 11.7851 4.71848 11.9113 4.61068C10.891 5.20838 11.2119 4.85946 10.9998 4.90981ZM9.27939 6.07646C8.9313 6.3076 9.90806 5.87691 10.0359 5.6896C9.85586 5.79024 9.3792 6.00989 9.27939 6.07646ZM6.98935 7.1769C6.78613 7.27297 6.17603 7.58099 6.10737 7.69155C6.32008 7.55452 6.93819 7.27533 6.98935 7.1769ZM6.45179 7.27146C6.10124 7.37638 6.14285 7.62694 6.46655 7.36128C6.47921 7.35096 6.46561 7.26887 6.45179 7.27146ZM4.58539 8.31194C4.28486 8.40804 4.11111 8.84895 4.54245 8.51863C4.65683 8.43593 4.61842 8.30218 4.58539 8.31194ZM10.3122 4.80626C10.0034 4.92263 9.70505 5.26639 10.3341 4.95585C10.1283 5.09251 9.92266 5.22936 9.71586 5.36715C10.5713 5.02047 10.4056 4.84981 10.6427 4.73589C10.9748 4.57694 11.0373 4.75761 10.9993 4.8445C11.2123 4.60187 12.3466 4.00768 12.9909 3.6481C12.3929 3.90423 11.4185 4.31708 10.8356 4.58793C10.6678 4.66574 10.5361 4.79335 10.3938 4.8616C10.1676 4.96967 10.3297 4.80016 10.3134 4.80566C10.313 4.80586 10.3126 4.80606 10.3122 4.80626ZM5.78643 12.8865C6.35509 13.2396 6.05065 12.8609 5.7015 12.7618C5.68552 12.7586 5.77325 12.8781 5.78643 12.8865ZM45.2257 34.8957C44.5681 35.4828 44.9011 34.9172 43.8037 36.4419C44.2201 35.7666 43.7603 36.3415 43.8194 36.1914C43.8657 36.0731 44.2003 35.7524 43.9576 35.8915C44.1103 35.7927 44.4347 35.4546 44.7293 35.1365C44.8741 34.9803 45.0166 34.8234 45.1166 34.715C45.166 34.6614 45.2095 34.6149 45.2307 34.5937C45.2521 34.5697 45.253 34.5836 45.1174 34.7004C45.1238 34.6952 45.1304 34.6898 45.1368 34.6844C45.0834 34.7302 45.0687 34.7452 45.0775 34.7473C45.0846 34.7503 45.0742 34.7704 45.1282 34.7416C45.2565 34.6649 45.31 34.6415 45.3253 34.6642C45.358 34.7043 45.3272 34.8063 45.2257 34.8957ZM6.69243 6.6492C6.35611 6.51506 6.49498 6.947 5.98242 6.97092C5.62377 7.55947 7.43884 6.15297 7.80947 6.28554C5.66145 7.41844 9.35222 5.77027 7.66164 6.20126C8.96152 5.67636 8.03833 5.93793 8.20194 5.78776C8.37719 5.62734 9.09867 5.3148 9.01547 5.24074C9.01509 5.24095 9.0147 5.24115 9.01432 5.24136C8.59391 5.47284 8.17303 5.70602 7.75132 5.94226C8.2757 5.91568 7.37496 6.32464 6.99161 6.32661C6.88931 6.43521 6.79492 6.53976 6.69243 6.6492ZM9.1966 5.536C9.15158 5.55337 8.24488 6.07341 8.32741 6.0812C8.4639 6.03925 9.75329 5.31513 9.1966 5.536ZM13.2216 3.37243C12.8911 3.54353 12.3612 3.76965 12.22 3.93923C12.5504 3.76772 13.0816 3.54114 13.2216 3.37243ZM12.8508 14.9665C13.3516 14.9543 11.8395 14.756 12.2676 14.8899C12.2899 14.8974 12.8256 14.9679 12.8508 14.9665ZM5.74021 7.23784C5.25473 7.42323 5.60544 7.53273 5.89281 7.28371C5.90975 7.26905 5.76219 7.22954 5.74021 7.23784ZM44.7745 35.4482C44.8033 35.5158 43.9071 36.4507 43.754 36.6241C43.7938 36.4853 44.7426 35.3679 44.7745 35.4482ZM13.6868 2.84839C12.9188 2.97587 12.157 3.68586 12.0554 3.73206C11.9554 3.7772 12.0592 3.60443 12.0358 3.61347C11.9831 3.63404 10.952 4.1822 10.9038 4.21596C10.8706 4.23978 11.1265 4.27281 10.9345 4.42587C11.3131 4.13188 13.2302 3.19344 13.3202 3.12853C13.3901 3.07748 12.7454 3.23743 13.6857 2.84898C13.6861 2.84879 13.6864 2.84859 13.6868 2.84839ZM11.7964 3.83073C12.0844 3.75044 11.361 4.13648 11.1758 4.20761C10.7618 4.36622 11.7593 3.84154 11.7964 3.83073ZM10.0241 4.69407C9.93361 4.72564 9.17934 5.10962 9.14792 5.20475C9.5446 5.09543 10.2272 4.62378 10.0241 4.69407ZM6.08688 13.5236C6.29183 13.6008 6.86818 13.8904 6.92719 13.8472C6.70095 13.7696 6.13833 13.4803 6.08688 13.5236ZM42.2283 39.1031C42.5061 38.8662 41.9655 39.5062 41.7824 39.6761C41.7463 39.6562 42.2021 39.126 42.2283 39.1031ZM5.37568 6.78283C5.34498 6.79592 5.18613 6.88705 4.95265 7.03039C4.75915 7.1498 4.52243 7.29783 4.22978 7.50162C4.08373 7.60415 3.92179 7.72069 3.72685 7.88123C3.52664 8.06028 3.3062 8.19989 2.90966 8.7631C2.73208 9.04839 2.40325 9.54498 2.39765 10.4556C2.39708 11.3856 2.91467 12.1318 3.20585 12.4191C3.83028 13.0191 4.04817 13.036 4.25078 13.1531C4.61997 13.3216 4.76214 13.3603 4.84844 13.3905C4.76787 13.3472 4.6297 13.296 4.26353 13.1155C4.06302 12.9913 3.84391 12.9723 3.22022 12.3522C2.92626 12.0568 2.42432 11.2677 2.46179 10.3649C2.49797 9.49374 2.81812 9.0357 2.99254 8.76659C3.37523 8.24304 3.59556 8.10305 3.79268 7.93354C3.98568 7.77988 4.14522 7.66877 4.29181 7.56888C4.58121 7.37327 4.81615 7.22898 5.00281 7.11317C5.21442 6.9825 5.35427 6.89694 5.37795 6.87711C5.40807 6.85174 5.39177 6.77677 5.37568 6.78283ZM10.4875 3.98089C10.6617 3.78934 10.8514 3.81038 10.8796 3.79715C11.1514 3.67025 11.6948 3.36429 11.6133 3.50329C11.1275 3.71725 10.1401 4.36205 10.4875 3.98089ZM6.11212 13.9691C6.99411 14.2962 5.37084 13.5252 5.56561 13.7052C5.57192 13.7138 6.0171 13.934 6.11212 13.9691ZM5.63418 6.60317C5.7903 6.41719 8.19077 5.17856 8.56628 4.98569C8.28856 5.28362 7.96875 5.34032 7.51491 5.59325C7.39264 5.66166 7.45205 5.69215 7.43884 5.6994C7.22712 5.81716 7.35603 5.67482 7.22346 5.74577C7.14282 5.78295 5.43748 6.82589 5.63418 6.60317ZM10.582 3.86194C10.6905 3.74702 12.1469 2.96297 12.2112 2.94517C12.6986 2.80456 10.7047 3.81664 10.582 3.86194ZM5.35149 6.63073C5.54383 6.33643 6.78209 5.76417 6.00581 6.28627C5.93003 6.33678 5.56794 6.46512 5.35149 6.63073ZM5.96365 14.0662C5.99454 14.0869 6.9247 14.4936 6.96663 14.453C6.81517 14.3825 5.49673 13.8196 5.96365 14.0662ZM5.44984 14.0315C5.47258 14.0398 5.30505 13.8677 5.70269 14.0465C5.73842 14.062 5.74924 14.1842 6.31157 14.3714C6.42603 14.4093 6.6286 14.414 6.61766 14.4049C6.04089 13.9975 4.46642 13.6831 5.44984 14.0315ZM10.5689 3.77179C10.4694 3.77336 10.5974 3.55629 10.8018 3.5254C10.889 3.5126 10.7875 3.65557 10.5689 3.77179ZM9.10093 15.2096C8.45084 15.1304 10.4242 15.6363 10.5463 15.6069C10.4824 15.5584 9.15815 15.2299 9.10093 15.2096ZM42.1276 40.1537C42.1279 40.1534 42.1282 40.153 42.1285 40.1527C41.8166 40.4767 41.951 40.2242 41.9358 40.2382C41.2147 40.9026 41.5022 40.8073 41.4132 40.9347C41.2211 41.2095 41.1273 41.0371 40.8129 41.5069C41.3366 40.7461 40.8202 41.3997 40.7522 41.3773C40.4884 41.2708 41.6469 40.5579 41.9103 40.1765C41.9472 40.1231 41.5718 40.4173 41.6618 40.2792C41.7239 40.1842 41.8338 40.0682 41.9545 39.9592C42.4203 39.5349 43.0785 39.1597 42.1488 40.1316C42.1419 40.1389 42.1348 40.1462 42.1276 40.1537ZM10.9285 3.44593C11.0812 3.27685 12.5462 2.60016 12.1971 2.8551C12.1418 2.89514 10.7043 3.69225 10.9285 3.44593ZM11.5995 44.4279C11.2941 44.6893 12.1245 44.2873 12.2411 44.1541C12.2994 44.0883 11.7339 44.3133 11.5995 44.4279ZM17.2091 41.2293C17.5954 40.9531 17.848 40.4363 17.3854 40.8041C17.3362 40.8435 17.1425 41.2267 17.2091 41.2293ZM12.948 27.6943C12.5788 28.0162 12.7467 28.1068 12.9561 27.8241C13.03 27.7242 12.9596 27.6841 12.948 27.6943ZM5.14875 47.6394C5.32511 47.6458 5.75207 47.6026 6.00855 47.5324C6.29554 47.4602 6.48581 47.384 6.63334 47.3215C6.93013 47.1922 7.0769 47.0984 7.05819 47.0848C6.88714 47.1403 6.68251 47.296 5.91922 47.4995C5.54677 47.6016 4.65 47.6869 3.8829 47.3707C3.56585 47.2402 3.50095 47.2046 3.7802 47.3431C3.91614 47.4058 4.14486 47.4953 4.41052 47.5547C4.63144 47.6058 4.89351 47.6384 5.14875 47.6394ZM13.018 27.5565C12.8744 27.804 13.2774 27.4952 13.3796 27.1374C13.2824 27.2849 13.0327 27.5312 13.018 27.5565ZM4.16483 6.86564C4.05554 6.98446 3.82665 7.14269 3.47368 7.42446C3.28896 7.57828 3.07457 7.74014 2.74192 8.12611C2.56881 8.33917 2.36267 8.58871 2.14132 9.10557C1.92042 9.59579 1.76745 10.5057 1.98927 11.2788C2.00359 11.3628 1.91971 11.182 1.86525 10.76C1.80579 10.3339 1.86438 9.68401 2.05804 9.18839C2.45324 8.20702 2.88871 7.88468 3.146 7.62761C3.6847 7.1559 4.01237 6.98212 4.16483 6.86564ZM15.4675 42.2389C15.8044 41.9373 14.9684 42.4074 15.0928 42.4379C15.1052 42.4362 15.4551 42.2507 15.4675 42.2389ZM22.0609 15.3317C21.9325 15.6189 22.5587 14.8659 22.3182 15.0258C22.3058 15.0363 22.0705 15.3126 22.0609 15.3317ZM23.8024 12.9459C23.8237 12.7789 23.8769 12.6082 23.8902 12.5749C23.9061 12.5327 23.8909 12.5726 23.8684 12.6222C23.822 12.7255 23.7728 12.843 23.8647 12.7388C23.8759 12.7291 23.949 12.5957 23.9484 12.5803C23.9488 12.5734 23.9263 12.6085 23.8901 12.7032C23.8539 12.795 23.8176 12.9346 23.8024 12.9459ZM41.4491 41.0031C41.6096 40.9775 41.0995 41.5156 41.0109 41.5884C40.9795 41.6124 41.235 41.0423 41.4491 41.0031ZM11.0639 30.173C10.9244 30.38 10.519 30.8786 10.4938 31.0023C10.6666 30.7535 11.1995 30.1718 11.0639 30.173ZM13.7472 43.3287C14.1371 43.2189 14.6928 42.8548 14.4757 42.8187C13.86 43.2175 14.6231 42.8834 13.7472 43.3287ZM13.8811 26.2079C13.755 26.3614 13.7757 26.5678 13.7945 26.5538C13.9744 26.4194 14.0432 26.0832 13.8811 26.2079ZM5.00981 38.2675C4.98697 38.2568 4.91239 38.342 4.8407 38.4397C4.73139 38.5888 4.62908 38.7617 4.67705 38.7343C4.69145 38.7263 4.79777 38.5998 4.8905 38.4761C4.96597 38.3755 5.03069 38.2773 5.00981 38.2675ZM11.1703 16.0356C11.3449 16.0926 11.105 16.0899 10.8126 16.0533C10.5622 16.0215 10.2858 15.9644 10.1533 15.9102C10.0672 15.8343 10.4845 15.9128 10.8256 15.9702C11.0044 16.0015 11.1559 16.031 11.1703 16.0356ZM17.212 21.8242C17.1575 21.7483 16.6043 22.5726 16.8973 22.304C16.9697 22.2382 17.2298 21.8502 17.212 21.8242ZM22.643 14.1717C22.5097 14.4608 22.8344 14.0701 23.1133 13.6742C23.3932 13.2788 23.5986 12.9111 23.3807 13.1383C23.3626 13.1611 22.6759 14.114 22.643 14.1717ZM25.7532 16.2468C25.7976 16.2612 25.8164 16.5538 25.4863 16.4443C25.4427 16.4301 25.6464 16.3471 25.6092 16.3298C25.6293 16.3119 24.7497 16.3117 24.6881 16.3266C24.6418 16.3376 24.7034 16.4297 24.6564 16.4437C24.6076 16.4582 23.9862 16.4188 23.6551 16.4437C23.028 16.4902 22.9516 16.5756 22.9038 16.5795C22.7555 16.591 22.4814 16.5543 22.1726 16.5753C20.5852 16.6971 18.0574 16.8329 16.7489 16.6192C17.9125 16.7135 19.0203 16.627 20.1628 16.5587C19.8383 16.7432 21.8298 16.349 20.6647 16.6004C21.2205 16.562 25.8449 16.1359 25.7525 16.2468C25.7527 16.2468 25.753 16.2468 25.7532 16.2468ZM18.8019 40.2398C18.623 40.4912 19.83 39.6142 19.8614 39.4434C19.6936 39.5448 18.8259 40.2103 18.8019 40.2398ZM13.1643 44.2133C13.0555 44.3001 13.0479 44.5408 12.3743 44.828C12.3737 44.8283 12.3731 44.8287 12.3725 44.829C12.1745 44.9134 12.3576 44.7466 12.3153 44.7518C12.298 44.7542 11.6831 45.006 12.1436 44.7118C12.8479 44.2596 12.2872 44.7995 12.6718 44.5699C12.7172 44.5435 13.3853 44.0091 13.329 44.0151C13.3237 44.0152 13.1182 44.1679 13.0773 44.1812C12.9229 44.232 12.9562 44.1385 12.9356 44.1475C12.8697 44.1807 11.7815 44.9601 11.5666 44.9775C11.4987 44.9875 13.3375 43.7975 13.4162 43.762C13.4675 43.7419 13.5393 43.9013 13.5958 43.8865C13.6239 43.88 14.341 43.3576 14.4454 43.3099C14.4761 43.296 14.5004 43.2866 14.5184 43.2801C14.3774 43.306 15.0554 42.882 15.0667 42.9458C15.0683 42.9733 14.5945 43.2571 14.5763 43.2633C14.568 43.2665 14.5603 43.2684 14.5534 43.2708C14.6854 43.2685 13.1001 44.2481 13.4926 44.1187C13.0604 44.4462 13.4844 43.9565 13.1643 44.2133ZM10.9936 45.6359C11.0322 45.5922 11.071 45.5483 11.1101 45.5042C10.3335 46.0108 9.36815 46.4686 8.44059 46.9839C8.42184 46.9943 8.40314 47.0047 8.3845 47.0152C8.13749 47.1527 8.48352 47.0882 8.13314 47.2475C7.85725 47.3734 7.4272 47.479 7.60071 47.3629C7.64701 47.335 8.16971 47.114 8.43325 46.9708C8.46004 46.9563 8.48529 46.9422 8.50829 46.9286C9.25617 46.4853 9.01785 46.5083 9.06065 46.4816C9.10757 46.4521 9.61681 46.2403 9.87455 46.0886C10.5236 45.706 10.7901 45.4846 11.7142 45.0261C11.2352 45.3831 11.5847 45.3361 10.9936 45.6359ZM19.4876 18.3041C19.4603 18.2399 19.8543 17.7933 19.9735 17.6149C20.0036 17.6762 19.6082 18.1255 19.4876 18.3041ZM23.6047 61.6614C23.6448 61.5494 23.3855 61.7746 23.0916 62.0375C22.8227 62.2861 22.3417 62.6769 22.6808 62.4604C22.8776 62.3357 23.481 61.7924 23.6047 61.6614ZM17.471 54.1821C17.486 54.083 17.4103 54.2372 17.3503 54.3982C17.2958 54.546 17.253 54.6984 17.2871 54.7082C17.3001 54.7116 17.3533 54.5598 17.4005 54.4136C17.437 54.3012 17.4695 54.1927 17.471 54.1821ZM6.0145 36.1323C6.03155 36.104 6.35528 35.7048 6.3701 35.6933C6.65576 35.4841 5.6017 36.8036 6.0145 36.1323ZM19.5296 46.9379C19.4084 47.5723 19.9867 45.7262 19.7392 46.2692C19.7271 46.296 19.5355 46.9072 19.5296 46.9379ZM20.2758 44.3553C20.2356 44.5044 20.0114 45.1503 20.0376 45.1677C20.0805 45.1943 20.3338 44.4538 20.2758 44.3553ZM13.6633 25.8767C13.5294 25.8698 14.1404 25.1969 14.3182 24.9369C14.4515 24.9448 13.8416 25.6162 13.6633 25.8767ZM10.1626 30.396C12.388 27.2899 12.0719 28.1056 10.0696 30.6101C10.0097 30.571 10.0228 30.5913 10.1626 30.396ZM13.1116 26.4961C13.0854 26.6495 12.8081 26.9831 12.6274 27.2138C12.6194 27.142 12.9952 26.6721 13.1116 26.4961ZM24.9521 60.4522C24.8607 60.6902 23.9911 61.458 24.1041 61.2814C24.1417 61.2352 24.9792 60.3516 24.9521 60.4522ZM6.12883 35.8184C5.98921 35.8245 6.71393 34.9238 6.78498 34.8691C7.07405 34.6427 6.16946 35.7229 6.12883 35.8184ZM16.8309 21.4932C16.8823 21.2827 17.2628 20.8457 17.4802 20.5556C17.4413 20.7294 17.0172 21.2464 16.8309 21.4932ZM15.1822 23.5848C15.194 23.5637 15.5088 23.1566 15.5252 23.1411C15.8443 22.8535 14.9538 24.0059 15.1822 23.5848ZM43.1566 40.2206C43.1459 40.2368 42.888 40.5191 42.8747 40.5294C42.5823 40.7362 43.3721 39.8714 43.1566 40.2206Z" fill="#86D5FF"/>
</svg>
