<svg width="461" height="289" viewBox="0 0 461 289" fill="none" xmlns="http://www.w3.org/2000/svg">
<rect width="461" height="289" fill="#FEFEF2"/>
<rect x="13" y="11" width="436" height="267" fill="#FCF4B7"/>
<mask id="mask0_1235_2548" style="mask-type:alpha" maskUnits="userSpaceOnUse" x="13" y="11" width="436" height="267">
<rect x="13" y="11" width="436" height="267" fill="#BFEAE1"/>
</mask>
<g mask="url(#mask0_1235_2548)">
<path d="M19.1615 83.9222C14.4205 83.8962 5.35993 87.1761 -0.327186 89.6399C-1.83548 92.8173 -3.77733 96.8905 -6.29466 102.148C-9.02972 108.606 -11.0096 114.624 -12.2202 118.947C-13.4307 123.27 -13.8591 125.821 -19.4878 146.804C-25.1164 167.787 -35.627 206.044 -41.1725 225.926C-46.718 245.808 -47.2815 247.272 -48.4365 249.692L-48.4932 249.811C-49.6444 252.219 -51.1807 255.433 -44.7654 257.961C-38.2442 260.531 -54.1766 292.609 -37.866 293.481C-21.5554 294.352 4.15563 301.179 83.8449 311.108C163.534 321.036 372.43 363.482 445.52 334.924C518.609 306.365 477.939 171.891 481.978 134.276C486.017 96.6621 485.738 95.5476 484.978 94.9039C483.473 93.6306 478.6 90.4608 472.218 88.5769C467.339 87.1366 459.712 83.726 449.9 83.9731C442.867 84.1502 435.694 84.3987 429.214 86.9611C414.611 92.7353 410.647 96.0235 407.94 97.9413C406.736 98.7937 403.125 95.9452 396 91.8614C385.094 85.6114 380.802 83.6836 370.396 84.2491C364.667 84.5605 355.411 86.0655 344.397 89.3365L343.869 89.4931C339.214 90.8744 335.651 91.9313 332.512 93.8827C321.202 100.914 316.968 105.108 314.868 107.748C314.329 108.425 313.654 109.176 312.46 108.51C311.266 107.844 309.669 105.757 307.223 103.363C301.837 98.0886 296.353 93.4551 290.236 91.5262C282.938 89.2248 277.392 87.8007 272.902 87.9352C265.703 88.1508 260.107 88.4322 256.653 89.5366C251.294 91.25 244.754 93.2329 239.867 96.587C236.187 99.1129 233.885 102.358 231.394 103.457C230.53 103.838 230.068 103.225 227.153 100.561C219.122 93.2211 212.72 87.4211 209.25 85.8778C204.741 83.8716 199.918 81.6392 194.234 81.4985C186.568 81.3089 181.546 81.4396 178.926 82.3257C173.75 84.076 169.043 85.5334 164.436 88.2969C149.916 97.0068 148.065 98.8238 146.781 97.8301C144.991 96.4443 143.302 94.0369 135.179 89.8824C130.073 87.2704 123.561 84.1466 116.683 83.7718C112.092 83.5215 106.38 84.101 95.1604 88.0793C87.5158 90.7899 76.1929 95.0282 70.11 97.8432C62.852 101.202 60.4253 104.807 58.9442 103.48C55.467 100.366 51.4455 94.182 37.1 88.6504C30.9519 86.2797 24.85 83.9534 19.1615 83.9222Z" fill="#FDE38D"/>
<path d="M105.619 93.0323C106.444 92.7699 109.679 92.0799 110.973 91.9172C109.596 92.2013 102.696 93.8869 105.619 93.0323ZM250.679 83.3536C249.348 83.8458 247.987 84.3642 246.609 84.9285C249.017 84.0581 251.86 83.1503 254.358 82.3584C256.899 81.5717 258.843 81.3417 260.481 81.1512C261.151 81.0805 259.432 81.4379 261.015 81.2597C262.566 81.1063 262.264 80.9158 264.443 80.734C265.705 80.6264 269.202 80.4901 272.677 80.4282C277.193 80.3526 280.87 81.2826 282.767 81.6905C286.204 82.4825 289.37 83.4363 292.483 84.4019C301.42 87.3405 307.261 92.9913 312.488 97.986C313.503 98.9788 314.45 99.9939 315.275 100.883C315.684 101.323 316.068 101.736 316.346 102.015C316.482 102.151 316.593 102.255 316.613 102.273C316.622 102.29 316.583 102.219 316.117 101.952C315.792 101.777 315.271 101.513 314.384 101.354C313.519 101.185 312.225 101.256 311.238 101.631C309.206 102.451 308.927 103.262 308.974 103.12C308.888 103.308 309.494 102.144 311.776 101.492C312.857 101.204 313.994 101.28 314.696 101.456C315.422 101.633 315.825 101.848 316.093 101.996C316.585 102.289 316.576 102.336 316.567 102.326C316.543 102.312 316.449 102.234 316.354 102.148C316.157 101.969 315.945 101.762 315.788 101.612C315.467 101.301 315.349 101.202 315.421 101.305C315.487 101.4 315.743 101.699 316.034 102.018C316.176 102.174 316.331 102.334 316.415 102.418C316.474 102.496 316.572 102.511 315.994 102.173C315.691 102.012 315.2 101.759 314.326 101.604C313.474 101.439 312.162 101.526 311.197 101.922C309.221 102.789 309.071 103.513 309.206 103.244C310.447 101.691 311.713 100.418 312.473 99.666C313.218 99.1924 312.766 97.8155 325.029 89.6913C326.894 88.4938 327.909 87.9179 328.582 87.5603C329.956 86.8298 330.082 86.8916 331.47 86.2684C332.812 85.6739 335.681 84.461 341.13 82.7808C332.752 85.0926 336.487 83.7924 342.239 82.0713C344.55 81.376 347.243 80.6359 349.783 80.007C351.317 79.5523 363.47 76.9269 369.987 76.71C370.124 76.7023 370.257 76.6951 370.386 76.6883C372.43 76.5779 375.761 76.3004 378.907 76.6892C381.051 76.9688 382.747 77.3617 385.798 78.3469C391.466 80.2865 395.663 82.8663 399.821 85.194C401.891 86.3769 403.926 87.6148 405.842 88.7861C406.786 89.3614 407.736 89.9397 408.474 90.3468C408.825 90.5436 409.17 90.7049 409.129 90.6846C409.086 90.6759 408.978 90.5979 408.328 90.4841C408.005 90.4362 407.489 90.3664 406.677 90.4542C405.857 90.5393 404.61 90.8798 403.501 91.6753C405.359 90.3058 408.18 88.399 410.622 87.0736C404.132 91.4112 416.026 84.2865 416.552 84.3255C419.351 83.0203 406.998 89.4477 411.942 86.9438C416.842 84.3088 421.697 82.2418 426.576 80.2896C428.868 79.3781 431.192 78.718 433.474 78.2377C426.781 79.5151 442.263 76.1459 444.688 76.6836C444.379 76.5794 446.508 76.441 449.709 76.383C456.54 75.8314 468.275 79.2905 474.276 81.6063C479.327 83.1686 483.003 85.2015 484.489 85.9749C484.964 86.2234 483.934 85.5924 483.922 85.539C483.919 85.5137 484.173 85.6181 485 86.0718C485.885 86.6041 487.005 87.0728 489.754 89.2613C490.036 89.4872 490.831 90.2463 491.326 91.0261C491.845 91.815 492.12 92.5083 492.299 93.047C492.621 94.0629 492.676 94.6698 492.731 95.1105C492.825 96.0352 492.82 96.6072 492.819 97.2244C492.808 98.3724 492.746 99.4501 492.666 100.626C492.534 102.447 492.436 101.786 492.382 102.698C492.351 103.27 492.515 106.722 491.935 110.19C491.708 111.462 492.267 103.231 490.561 121.287C491.233 117.258 490.402 125.841 489.377 135.071C488.757 140.817 489.331 148.437 489.445 150.864C489.417 149.685 489.401 148.542 489.398 147.441C489.59 153.07 489.891 154.102 489.988 155.394C490.419 160.582 491.08 167.869 491.653 172.754C492.335 178.58 492.614 178.473 493.269 185.27C493.155 183.696 493.03 182.04 492.91 180.437C493.431 185.136 493.938 189.808 494.406 194.456C492.887 183.7 494.642 196.765 494.726 197.682C494.879 199.077 494.53 197.103 494.777 199.409C494.802 199.651 494.917 199.277 495.271 202.862C495.987 210.387 495.679 209.188 495.937 212.36C495.955 212.646 496.029 211.638 496.441 217.09C497.559 234.528 496.377 216.997 496.273 216.345C496.162 215.474 496.149 221.453 495.143 206.72C495.504 211.64 495.288 212.178 495.328 212.733C495.38 213.234 495.986 221.8 496.001 222.287C496.309 226.511 496.274 222.782 496.347 223.604C496.438 224.27 496.635 234.688 497.119 237.134C496.706 242.148 496.761 234.25 496.283 225.915C496.152 224.7 496.418 233.872 496.399 234.358C496.577 246.224 496.837 239.656 497.101 242.255C497.231 243.624 496.909 248.471 497.297 243.996C497.143 254.85 497.055 248.264 497.024 248.963C496.962 250.023 496.91 253.813 496.866 254.292C496.812 254.994 496.818 252.546 496.638 255.314C496.609 255.772 496.555 260.243 496.969 254.497C496.509 262.18 496.639 261.532 496.078 264.125C496.184 269.491 495.287 267.911 495.002 269.981C494.154 275.524 494.846 273.977 494.839 274.277C494.895 276.294 491.403 291.618 489.941 295.346C490.226 293.749 493.374 283.282 493.652 280.881C495.065 272.901 491.01 291.998 491.827 286.135C491.358 288.587 490.835 290.968 490.208 293.407C488.417 297.673 490.743 291.53 486.295 303.114C485.821 305.114 489.465 294.931 488.845 297.02C488.62 298.244 485.871 304.987 485.813 305.103C485.869 305.291 488.302 299.202 487.999 300.19C488.025 302.613 475.909 323.631 484.678 307.438C482.371 312.019 480.566 314.032 478.146 317.783C477.351 318.992 479.444 316.376 479.931 315.904C480.268 315.325 480.047 317.673 471.485 326.755C471.081 327.082 478.027 319.283 478.021 318.936C478.226 318.618 476.684 319.813 476.462 320.047C476.083 320.463 472.143 325.767 466.636 330.359C461.208 335.058 454.34 338.619 451.929 339.534C452.612 339.32 450.886 340.231 448.035 341.36C442.889 343.504 433.902 345.713 432.45 346.06C431.877 346.22 434.082 345.896 433.468 346.06C429.737 347.154 419.551 348.627 414.79 349.157C409.485 349.802 410.242 349.838 409.932 349.881C407.629 350.115 409.459 349.814 408.046 349.958C405.841 350.28 391.182 351.217 390.47 351.197C390.257 351.214 392.623 351.295 389.475 351.467C388.917 351.477 389.312 351.329 379.801 351.631C368.525 351.913 387.687 351.759 382.997 352.064C375.671 351.897 375.966 352.173 373.969 352.17C373.275 352.166 368.153 351.915 362.665 351.84C366.628 351.859 370.552 351.837 374.57 351.766C370.59 351.758 363.132 351.745 359.872 351.612C358.302 351.551 359.567 351.358 356.191 351.279C355.508 351.254 352.533 351.759 361.528 351.704C362.256 351.915 357.934 351.705 356.011 351.704C355.716 351.704 354.552 352.003 352.057 351.718C351.456 351.622 358.037 350.994 341.127 350.956C340.586 350.952 342.458 351.162 341.929 351.162C341.571 351.164 337.277 350.899 336.795 350.887C336.307 350.879 338.382 351.121 337.801 351.115C334.819 351.09 330.925 350.347 337.074 350.73C335.038 350.556 332.936 350.371 330.936 350.185C333.08 350.707 327.751 350.104 324.918 349.919C306.813 348.686 318.914 349.815 315.794 349.72C310.787 349.536 314.666 349.186 307.209 348.763C306.543 348.712 315.419 349.81 297.999 348.082C300.582 348.312 303.157 348.533 305.724 348.745C304.284 348.248 296.428 347.933 295.819 347.874C288.936 347.257 293.614 347.597 283.416 346.744C282.507 346.667 280.526 346.364 278.588 346.201C270.526 345.525 289.204 347.455 289.696 347.629C289.933 347.761 269.857 345.592 269.179 345.446C266.274 344.961 278.276 346.398 276.007 345.944C275.175 345.841 246.603 342.592 240.923 341.713C234.336 340.765 231.44 339.85 231.323 340.418C229.541 339.607 227.853 339.767 227.014 339.649C216.801 338.194 216.866 338.191 208.086 336.994C206.156 336.729 204.56 336.324 203.878 336.254C203.481 336.214 204.191 336.503 202.251 336.279C199.538 335.973 183.406 333.382 182.186 333.088C180.984 332.805 189.077 334.079 187.639 333.694C181.739 332.794 176.32 332.013 170.369 331.083C167.936 330.702 169.205 330.779 168.156 330.615C167.708 330.546 159.346 329.361 159.666 329.453C160.524 329.699 186.376 333.576 179.539 332.739C178.212 332.578 173.659 331.612 174.327 332.045C151.114 328.44 128.069 324.65 105.012 321.165C118.305 322.873 133.209 325.43 147.111 327.568C149.069 327.87 155.453 328.894 154.703 328.609C142.86 326.729 128.157 324.512 116.869 322.688C116.499 322.628 117.882 322.688 116.498 322.454C113.88 322.008 105.701 321.029 104.248 320.758C103.993 320.704 108.818 321.219 107.377 320.88C103.675 320.01 102.655 320.577 99.5877 320.127C97.81 319.864 89.1983 318.468 83.0259 317.681C80.2128 317.319 77.8809 317.038 76.6568 316.948C74.073 316.758 78.8133 317.385 82.9936 317.94C85.5587 318.283 87.96 318.633 87.455 318.642C85.9169 318.466 84.4208 318.293 82.9706 318.125C73.2629 316.997 63.573 315.585 54.4208 314.355C54.2324 314.33 55.8528 314.7 53.4576 314.393C49.3448 313.865 48.3006 313.505 46.291 313.19C44.1839 312.862 36.5426 311.793 35.5002 311.56C35.3692 311.531 36.9568 311.552 37.1991 311.582C40.5128 311.976 41.657 312.409 41.9656 312.457C43.127 312.634 44.2391 312.687 45.2628 312.838C46.9447 313.085 47.9275 313.32 50.1584 313.638C51.6916 313.856 50.2327 313.469 51.7174 313.683C52.2622 313.764 58.1526 314.99 58.7514 314.637C58.9471 314.66 10.4654 307.41 5.68983 306.57C9.82128 307.294 13.9208 307.999 18.1101 308.704C9.64468 307.265 -0.456606 305.939 -1.10246 305.318C-13.6463 303.318 -26.4822 300.639 -38.2042 299.809C-40.734 299.683 -43.9646 298.929 -46.6258 296.677C-49.3022 294.434 -50.5724 291.429 -51.1549 289.036C-52.2557 284.154 -51.7792 280.358 -51.3915 276.702C-50.9508 273.082 -50.303 269.688 -49.8335 266.539C-49.6021 264.984 -49.416 263.452 -49.3967 262.325C-49.3793 261.784 -49.4467 261.31 -49.4319 261.414C-49.4136 261.467 -49.3661 261.733 -49.0401 262.234C-48.7107 262.763 -47.9184 263.494 -47.0695 263.808C-49.2191 262.808 -51.9572 262.1 -54.5946 257.883C-55.863 255.734 -56.0213 252.719 -55.5521 250.885C-55.123 248.991 -54.4558 247.775 -54.095 246.992C-53.4922 245.773 -53.1328 244.694 -52.6278 243.124C-51.0087 237.955 -51.5435 240.935 -49.1139 232.065C-49.8591 234.322 -50.611 236.59 -51.3707 238.824C-50.6742 236.589 -48.8536 230.363 -47.1188 224.268C-45.4188 218.305 -43.7939 212.497 -43.3748 210.858C-43.2672 210.436 -43.3861 209.766 -42.0123 204.695C-40.7947 200.198 -40.3804 199.522 -39.681 197.141C-39.0912 195.13 -38.524 192.85 -38.3484 192.256C-38.2127 191.8 -38.0328 191.654 -37.7059 190.553C-36.6784 187.086 -37.8194 189.808 -36.449 186.462C-36.6644 187.31 -36.8797 188.157 -37.0957 189.006C-35.8778 184.809 -34.1105 179.107 -35.7172 185.337C-35.9938 186.409 -35.868 185.458 -36.0862 186.254C-44.6326 217.418 -37.5355 192.605 -34.7409 181.631C-33.7836 178.88 -29.6057 163.124 -29.4301 162.611C-29.1797 161.901 -29.7606 164.625 -28.6757 161.143C-28.4925 160.568 -24.9065 147.074 -24.382 145.491C-24.3118 145.28 -24.2919 145.267 -24.3358 145.504C-24.3771 145.732 -24.4794 146.2 -24.6645 146.99C-25.0347 148.584 -27.8076 158.621 -28.4667 161.067C-27.1931 157.399 -25.4531 150.38 -24.291 145.516C-23.6692 142.915 -23.2057 140.91 -23.0645 140.399C-21.3819 134.326 -25.8358 152.178 -22.1421 138.493C-19.331 127.961 -22.1966 137.782 -21.246 133.703C-20.6917 131.421 -17.4069 119.602 -17.8364 119.75C-17.5393 118.561 -17.3429 117.891 -17.2282 117.545C-16.9299 116.652 -17.1597 117.874 -17.0426 117.498C-16.9413 116.951 -14.4434 108.68 -13.3163 106.113C-13.1882 105.799 -13.3715 106.87 -13.2334 106.547C-13.0664 106.133 -11.7614 102.667 -10.7454 100.263C-10.7285 100.222 -10.6729 100.1 -10.6541 100.06C-10.0681 98.8186 -9.65236 97.9291 -9.5997 97.8053C-9.52717 97.6261 -10.5034 99.2552 -10.2064 98.5348C-9.84928 97.6771 -6.49087 90.7395 -6.35173 90.3249C-6.16389 89.7577 -10.228 98.3877 -9.71716 96.8557C-7.77081 92.9047 -4.82145 86.4004 -3.72586 83.7007C-3.98624 84.3619 -5.80395 88.2114 -6.45644 89.5428C-6.40817 88.7756 -2.5128 80.5486 -3.63129 83.4524C-2.89446 81.6004 -3.54163 82.8195 -3.1633 81.7423C-3.06581 81.468 -1.87509 78.9123 -1.70067 78.4137C-1.67638 78.3412 -3.00036 80.9145 -2.80969 80.3667C-2.6026 79.7872 -1.44926 77.2752 -0.333129 74.8278L-0.39198 74.9576C0.328744 73.3036 1.01243 71.5356 1.13238 71.2705C1.71922 69.9112 0.48697 73.3522 -0.175221 75.0529L-0.118588 74.928C-0.414337 75.6286 -0.588766 76.0857 -0.620761 76.2258C-0.62128 76.2431 -0.384601 75.7841 0.0216116 74.9934L-0.0335722 75.1152C0.646508 73.7763 1.76386 71.1994 1.79651 71.1574C2.03492 70.9839 0.860606 73.9406 0.308906 75.2658L0.360586 75.1517C0.0492127 75.86 -0.0860229 76.2312 0.0599239 76.0566C0.192388 75.7859 0.328193 75.5068 0.477254 75.2062L0.426781 75.3176C0.931488 74.2543 1.44652 73.0525 1.95368 71.8525C1.5715 72.935 1.10435 74.2001 0.604135 75.3956L0.652794 75.2882C-1.91129 81.1392 -5.44704 88.4355 -6.32785 90.7428C-3.494 84.6797 -0.593574 78.5007 0.998439 75.4496L0.953353 75.5491C1.50915 74.4667 1.89707 73.7685 2.0353 73.8367C2.1426 73.8818 1.82907 74.9154 1.51658 75.7967L1.5559 75.7099C1.18675 76.658 0.8888 77.4241 0.936394 77.383C1.07917 77.229 1.36556 76.6464 1.75605 75.8034L1.71879 75.8856C2.40306 74.3338 3.25863 71.8161 3.31471 71.6965C3.38674 71.5449 3.42604 71.4766 3.43703 71.4808C3.43704 71.4808 3.43704 71.4808 3.43704 71.4808C3.50043 71.4935 2.63013 73.9681 1.82385 75.9318L1.86003 75.852C1.13656 77.5133 0.539117 78.8823 0.480998 79.0602C0.287617 79.7132 2.12319 76.6799 2.20437 76.7071C2.17255 76.8402 -0.116617 81.9956 0.82451 80.3342C1.34202 79.424 2.14011 77.7799 2.83867 76.309L2.81261 76.3665C3.35036 75.184 3.76448 74.1338 3.8019 74.0654C3.98298 73.7075 3.54529 74.9563 2.9433 76.424L2.96802 76.3694C2.03898 78.5208 0.843571 81.1842 0.804483 81.3396C0.777084 81.4739 2.88657 77.3255 2.98207 77.2185C3.0758 77.1382 1.7006 80.387 1.2395 81.728C0.906679 82.7123 2.26571 80.0121 2.06004 80.4941C1.91243 80.8606 -1.58736 88.2742 -1.75174 88.6574C-1.98161 89.2119 -1.03887 87.546 -1.12361 87.8048C-1.24239 88.172 -2.43199 90.5607 -2.24124 90.2776C-2.08166 90.0447 2.74463 80.9383 2.81625 81.0564C2.97605 81.2453 -2.12668 90.9121 2.96691 82.087C3.00232 82.0273 3.98982 79.7591 4.02142 79.6993C4.78245 78.4145 1.8586 85.3116 5.41954 77.5143C5.51102 77.3044 5.60541 77.083 5.70199 76.8519C5.60997 77.079 5.51812 77.3017 5.42777 77.5162C-1.44131 92.9345 5.07181 79.0761 4.28881 81.6096C3.98901 82.6012 1.04944 88.9625 1.05188 88.9997C1.51221 88.4441 2.33531 86.3819 2.73747 85.7322C2.96134 85.3773 0.454024 91.1108 1.1658 89.8921C1.53824 89.2612 4.35209 83.2459 4.47609 82.9981C5.68751 80.676 4.44494 83.6331 4.76051 83.1507C4.97582 82.8296 6.66986 79.1769 6.71537 79.0891C6.81322 78.9439 4.71877 83.9935 4.3007 85.051C3.98901 85.8567 5.44873 82.9683 5.21723 83.5227C3.82455 86.8739 0.149896 93.6778 3.84268 87.1912C4.06474 86.8034 5.2542 84.2425 5.29403 84.1715C6.17925 82.6599 3.98317 87.3695 3.70628 88.2524C3.22814 89.7905 6.2974 82.9973 3.79289 88.6699C5.64032 85.0607 6.74896 82.7426 8.45878 78.9336C8.4655 78.9196 8.48442 78.877 8.49082 78.8629C8.74103 78.2843 8.98577 77.6861 9.23782 77.053C8.99396 77.6656 8.74971 78.2672 8.49432 78.8644C8.48792 78.8786 8.46897 78.9212 8.46225 78.9352C2.88894 91.3054 1.52883 95.3662 8.3314 80.8107C6.07923 85.6623 6.61201 85.2565 5.94513 86.6964C5.52855 87.5977 1.93715 94.4046 4.10736 91.5364C4.37418 91.1904 6.28395 86.8803 5.82199 88.2943C0.96459 98.4313 5.83021 88.5619 5.85277 88.5653C6.04312 88.7412 2.23057 96.7664 -1.49837 104.444L-1.39784 104.221C-3.88051 109.954 -5.80421 115.718 -6.34697 117.591C-6.62845 118.543 -6.88384 119.485 -7.10625 120.379C-8.02709 124.175 -8.6127 127.64 -8.85716 128.55C-9.82932 132.366 -9.18741 129.151 -9.46677 129.99C-9.74046 130.864 -12.241 141.712 -12.4109 142.248C-13.0371 144.321 -12.6725 142.154 -12.7384 142.362C-13.0087 143.215 -13.6172 145.465 -14.3428 148.184C-15.7651 153.519 -17.6634 160.744 -18.4217 163.414C-18.2596 163.326 -16.0518 155.222 -17.2178 160.336C-18.5799 166.302 -19.235 166.479 -19.3027 166.632C-24.816 186.888 -30.3724 207.136 -36.0009 227.369C-37.9031 234.116 -39.663 240.719 -41.8736 247.686C-41.2588 247.237 -36.5277 229.606 -36.3838 229.191C-35.9909 227.801 -38.8557 240.956 -43.3057 252.14C-43.8217 253.163 -43.9125 253.595 -43.8663 253.361C-43.8503 253.245 -43.8482 252.934 -43.9314 252.633C-44.01 252.33 -44.1491 252.084 -44.2356 251.967C-44.423 251.729 -44.3518 251.864 -44.1965 251.969C-44.0426 252.084 -43.8326 252.21 -43.6955 252.29C-44.0462 252.092 -44.2918 251.893 -44.3295 251.833C-44.3805 251.768 -44.1449 251.923 -43.9497 252.402C-43.7461 252.877 -43.7842 253.419 -43.7841 253.441C-43.7825 253.486 -43.6783 253.193 -43.4123 252.677C-43.5821 253.13 -43.6754 253.493 -43.6422 253.479C-43.6298 253.47 -43.5885 253.346 -43.5894 253.095C-43.5875 252.849 -43.6545 252.479 -43.7801 252.189C-44.0549 251.57 -44.2798 251.534 -44.0285 251.707C-43.7984 251.879 -43.2639 252.176 -42.5935 252.45C-40.544 253.207 -38.9353 255.109 -38.3363 256.447C-37.6443 257.901 -37.4837 258.977 -37.36 259.878C-37.1481 261.721 -37.2541 263.106 -37.3519 264.37C-37.5796 266.909 -37.942 269.012 -38.192 270.85C-38.5135 273.148 -37.6633 268.769 -37.6709 268.817C-37.9524 271.547 -38.7142 275.47 -38.4081 272.447C-39.178 278.535 -39.2968 277.641 -39.5979 281.852C-39.5893 282.036 -39.4525 280.4 -39.408 283.468C-39.4163 284.126 -39.1434 286.461 -38.7432 286.957C-38.5679 287.217 -38.632 287.09 -38.5572 287.128C-38.4852 287.152 -38.2275 287.2 -38.1106 287.186C-38.0081 287.183 -38.4102 286.938 -38.3946 286.831C-38.3837 286.729 -38.2299 286.837 -38.4563 286.952C-38.472 286.898 -38.6114 286.597 -38.6984 286.26C-38.7896 285.929 -38.8553 285.576 -38.899 285.333C-38.9876 284.82 -39.0291 284.644 -39.0727 284.645C-39.1504 284.608 -39.2404 285.215 -39.3223 283.727C-39.1759 283.09 -39.6106 284.971 -38.5076 275.582C-38.3979 276.524 -38.8791 279.771 -38.9408 282.51C-38.9783 283.883 -38.8876 285.093 -38.7406 285.805C-38.5929 286.531 -38.4589 286.745 -38.4158 286.801C-38.3282 286.882 -38.303 286.861 -38.3516 286.704C-38.4014 286.546 -38.6719 285.85 -38.7717 284.413C-39.0186 281.576 -38.316 276.722 -38.2792 275.234C-38.111 276.651 -38.0754 274.185 -37.4253 270.34C-36.7515 266.045 -36.9166 267.952 -36.6159 265.428C-36.2859 262.211 -36.4934 260.415 -36.7779 259.049C-36.9488 258.294 -37.0802 257.714 -37.5528 256.593C-38.0438 255.64 -38.8451 253.375 -42.3472 251.825C-42.5782 251.719 -42.8211 251.595 -43.0516 251.457C-42.6109 251.832 -42.4458 251.985 -42.6538 251.959C-42.8325 251.943 -43.3794 251.718 -43.7155 251.484C-43.8758 251.379 -43.9556 251.267 -43.8192 251.379C-43.6974 251.469 -43.2971 251.978 -43.155 252.65C-43.0065 253.318 -43.1267 253.714 -43.0647 253.622C-43.0133 253.546 -42.8153 253.162 -42.4775 252.536C-41.8004 251.288 -41.181 249.807 -40.8853 249.055C-41.2507 250.146 -41.8329 251.584 -42.3289 252.607C-42.745 253.457 -42.8572 253.857 -42.7934 253.657C-42.7025 253.507 -42.7152 252.244 -43.1443 251.569C-43.5378 250.893 -43.7023 250.916 -43.4824 251.034C-43.2816 251.162 -42.8169 251.395 -42.2609 251.606C-40.3543 252.323 -38.7468 253.87 -37.9274 255.255C-37.109 256.604 -36.7986 257.726 -36.5834 258.693C-36.2117 260.507 -36.2334 261.88 -36.2584 263.043C-36.2025 262.547 -36.1571 262.064 -36.1354 261.478C-36.0869 264.027 -36.3619 265.899 -36.6115 267.751C-36.6071 267.448 -36.6045 267.147 -36.6039 266.846C-37.7762 276.171 -38.2879 277.549 -38.3621 278.308C-38.7223 281.122 -38.8459 284.145 -38.4365 285.816C-38.3462 286.211 -38.2331 286.494 -38.1702 286.612C-38.1044 286.735 -38.1154 286.689 -38.1818 286.635C-38.2436 286.578 -38.3213 286.556 -38.2259 286.591C-38.1352 286.623 -37.8982 286.682 -37.5038 286.702C-34.1663 286.883 -30.9606 287.255 -28.0009 287.648C-26.5932 287.86 -27.4491 287.395 -17.2795 289.218C-14.099 289.8 -17.1202 289.495 -13.4943 290.065C-8.85347 290.316 -8.99572 290.711 -7.65528 290.935C-3.77442 291.585 -1.39179 291.853 -1.03234 291.911C3.75504 292.689 10.7752 293.858 16.024 294.666C16.1396 294.683 13.4167 294.092 16.8059 294.675C18.0187 294.886 28.6383 297.234 38.097 298.382C35.6523 297.98 33.2071 297.572 30.7743 297.162C33.6545 297.687 53.8366 300.386 48.9356 299.504C45.9531 298.978 38.5173 298.347 37.7277 297.805C44.3961 298.999 81.6293 303.757 84.5277 304.146C84.9318 304.211 82.411 304.033 82.9715 304.12C83.0834 304.138 83.7423 304.221 84.6883 304.338C87.194 304.644 92.3462 305.324 93.1526 305.475C93.8688 305.603 89.9509 305.159 90.2643 305.251C90.681 305.327 101.228 306.853 101.93 306.794C99.2248 306.467 91.8841 305.393 95.7464 305.783C96.2352 305.832 98.8227 306.306 99.4544 306.374C105.182 306.969 88.1837 304.626 85.6683 304.35C96.303 305.458 112.526 308.137 124.717 309.871C129.578 310.76 117.481 308.981 122.955 309.939C134.464 311.954 126.046 310.215 126.401 310.251C129.397 310.566 138.875 312.812 139.031 312.247C143.289 312.998 141.81 312.842 147.719 313.684C146.949 313.524 146.182 313.363 145.418 313.204C152.064 313.899 165.704 316.874 164.71 316.784C161.832 316.516 154.692 315.134 154.101 315.048C153.264 314.928 150.468 315.092 140.693 313.036C136.595 312.8 156.411 315.753 147.327 314.613C153.48 315.533 178.608 319.691 182.188 320.042C182.628 320.084 180.657 319.389 186.863 320.527C189.815 321.068 182.666 319.997 184.011 320.29C188.108 321.3 244.638 329.187 255.385 330.302C256.082 330.387 255.811 330.477 256.496 330.56C258.603 330.819 266.29 331.557 270.058 332.041C262.266 330.914 277.453 332.651 281.292 333.068C287.161 333.73 286.771 333.899 289.297 334.204C299.026 335.391 314.232 336.192 321.746 337.19C321.396 336.704 334.84 338.331 341.035 338.608C345.783 338.852 352.914 338.798 346.342 338.348C354.721 338.725 363.461 338.839 371.218 338.809C372.519 338.803 370.731 338.946 372.946 338.929C373.146 338.925 373.427 338.79 375.311 338.761C390.804 338.388 383.304 338.767 386.201 338.794C387.826 338.787 389.011 338.761 389.877 338.731C380.871 339.177 370.357 339.214 367.567 339.187C369.96 339.587 387.752 338.996 392.824 338.699C393.007 338.692 392.38 338.893 392.565 338.884C392.569 338.884 392.573 338.884 392.577 338.884C394.618 338.859 406.774 337.827 404.267 337.815C403.497 337.83 398.059 338.33 391.19 338.668C393.015 338.541 391.64 338.42 391.962 338.396C395.961 338.143 405.396 337.598 408.744 337.216C409.5 337.14 409.432 337.025 409.555 337.011C412.522 336.695 411.372 337.185 414.466 336.425C420.02 336.156 404.197 337.744 405.307 337.809C406.266 338.676 440.924 332.192 440.223 330.844C440.345 330.84 440.806 330.733 441.708 330.461C442.101 330.342 442.751 330.121 443.529 329.83C446.914 328.661 452.234 325.67 453.24 324.884C453.456 324.731 453.19 324.513 453.461 324.334C454.266 324.112 463.124 317.32 465.383 313.71C463.918 315.42 462.365 317.022 460.71 318.522C465.544 313.838 467.009 311.263 467.376 310.796C467.696 310.276 466.716 311.622 465.256 313.335C465.113 313.509 464.964 313.67 464.825 313.833C462.57 316.498 459.237 319.415 459.153 319.429C459.041 319.482 463.22 315.752 466.286 311.607C469.406 307.539 471.615 303.342 470.673 305.383C470.562 306.089 464.261 314.67 467.519 310.522C468.164 309.865 471.706 303.92 471.822 303.565C472.452 302.524 471.117 305.393 469.428 308.191C467.779 310.983 465.773 313.606 466.437 312.958C468.538 309.969 471.174 306.048 473.025 302.198C473.874 300.434 473.901 299.933 474.002 299.716C475.413 296.435 474.754 298.332 475.224 297.228C475.547 296.644 477.576 289.825 477.594 291.242C483.18 268.061 480.027 285.258 474.456 298.501C476.214 294.304 478.93 285.837 479.734 281.782C480.037 280.368 479.697 281.177 480.169 278.764C481.622 273.923 483.917 249.366 483.606 242.814C483.633 246.786 483.832 245.63 483.838 242.559C483.827 239.482 483.581 242.067 483.555 241.467C483.609 240.829 483.35 226.363 483.107 223.947C483.69 234.85 483.793 232.386 483.354 223.12C483.481 224.456 483.601 225.792 483.715 227.13C483.438 221.719 482.851 210.217 482.464 207.101C482.407 206.609 482.409 208.391 482.377 208.115C482.091 205.347 481.312 195.933 481.202 195.493C481.121 195.123 481.406 199.163 481.19 197.674C481.143 197.34 480.961 193.527 480.483 189.658C480.308 188.24 480.257 189.111 480.209 188.755C479.807 185.777 480.26 187.585 479.595 182.078C479.116 178.126 478.524 175.139 477.981 169.592C479.755 187.825 478.113 172.571 477.198 164.931C477.059 163.683 476.867 164.742 476.286 157.379C478.341 172.976 476.001 152.967 475.86 148.668C475.849 148.413 476.015 148.453 475.91 146.266C475.904 146.091 475.787 146.333 475.707 144.395C475.441 137.394 475.871 134.37 475.947 133.629C476.003 133.198 476.003 133.342 475.991 133.634C475.965 134.219 475.912 135.394 476.098 133.916C476.107 133.844 476.118 133.754 476.131 133.649C476.379 131.625 477.053 123.845 477.278 121.625C477.329 121.121 477.431 121.336 477.636 119.303C478 115.692 478.192 112.455 478.411 110.075C478.432 109.817 478.641 109.802 478.984 105.301C479.08 104.021 479.123 102.663 478.921 104.402C478.234 110.336 477.369 121.688 476.466 128.451C475.648 134.612 477.689 115.131 477.766 114.147C477.803 113.768 477.519 117.558 477.922 113.734C478.263 110.418 478.545 104.358 478.92 99.6527C478.933 99.496 479.071 98.4388 479.164 97.6168C479.211 97.1859 479.245 96.8493 479.266 96.69C479.286 96.5249 479.311 96.6026 479.314 96.5884C479.426 95.6471 479.195 101.719 479.303 100.827C479.334 100.724 479.538 97.0545 479.549 96.886C479.572 96.7608 479.654 96.5475 479.766 96.5357C479.829 96.5419 479.875 96.5864 480.053 96.98C480.103 97.0879 480.168 97.2281 480.25 97.3793C480.339 97.5496 480.459 97.7551 480.61 97.9686C480.915 98.4242 481.445 98.8911 481.561 98.9412C481.523 98.7465 481.32 98.4739 481.15 98.3451C479.77 97.3458 480.607 98.1088 479.64 97.4813C478.175 96.4741 473.557 94.1383 470.783 93.4386C469.336 93.0163 468.467 92.7443 468.346 92.7844C469.105 93.0446 469.889 93.3111 470.744 93.5713C471.494 93.801 472.24 94.0573 472.98 94.3379C472.101 94.018 471.358 93.785 470.734 93.6057C464.799 91.7387 467.887 92.8102 466.705 92.4713C465.371 92.0885 465.788 91.9562 462.971 91.0818C462.66 90.9884 459.584 90.082 456.646 89.6659C453.703 89.2085 450.887 89.2697 450.992 89.316C457.355 89.4388 454.974 89.7446 455.265 89.7122C456.374 89.8623 457.82 89.9381 459.328 90.2759C469.992 93.1791 459.151 90.4292 461.658 91.1906C462.51 91.4367 464.287 91.8449 464.664 91.9766C465.883 92.3919 465.848 92.5657 466.692 92.8325C468.69 93.4705 466.44 92.4571 466.611 92.5015C467.382 92.6863 469.083 93.2818 470.677 93.7966C472.264 94.3347 473.256 94.8279 471.068 94.26C473.285 95.0841 473.665 94.9144 475.36 95.7915C478.666 97.6456 473.596 95.1065 472.116 94.7457C471.551 94.5673 471.028 94.415 470.534 94.2805C465.35 92.8058 463.589 91.6241 456.638 90.3996C454.285 90.0219 451.585 90.0211 450.055 90.1153C449.731 90.1306 449.451 90.1425 449.226 90.1498C448.217 90.1177 439.805 90.0569 439.773 91.0378C437.325 91.2523 433.907 91.564 431.384 92.4482C430.59 92.7253 429.875 92.9926 429.223 93.2645C426.377 94.4635 427.395 94.3778 427.136 94.4961C426.731 94.6765 423.325 96.1435 422.237 96.7221C420.959 97.3909 421.636 97.175 419.649 98.2303C414.814 100.925 414.996 100.701 414.481 100.958C413.078 101.809 412.201 102.466 411.502 102.971C409.391 104.388 407.865 104.251 407.113 104.273C406.32 104.245 405.944 104.165 405.652 104.121C405.114 104.027 404.991 104.014 404.913 104.029C404.801 104.058 404.736 104.152 403.684 103.744C401.927 103.138 397.544 100.184 392.803 97.4384C387.511 94.2848 382.277 91.7965 380.656 91.5146C381.995 91.8494 383.38 92.3406 384.838 92.9577C382.339 91.5301 379.773 91.1928 379.804 90.8594C379.256 91.1385 374.19 90.2083 372.255 90.4092C371.558 90.438 371.618 90.5271 370.74 90.5776C370.733 90.5781 370.726 90.5785 370.719 90.5789C367.398 90.6741 359.24 92.0292 357.328 92.5476C349.844 94.3883 366.407 90.929 370.77 91.1196C371.331 91.0981 371.701 91.0903 371.878 91.0859C371.601 91.0956 371.243 91.1108 370.771 91.1377C365.936 91.1229 350.458 94.781 358.557 93.2655C359.913 93.0217 362.251 92.346 363.007 92.2176C368.095 91.3771 364.12 92.2016 364.524 92.1608C365.212 92.0754 368.503 91.4513 369.342 91.429C369.574 91.423 368.337 91.6471 370.792 91.5288C371.24 91.5125 371.791 91.491 372.461 91.4743C372.132 91.5117 371.56 91.5506 370.796 91.6074C366.702 91.7645 356.337 93.7179 354.847 94.1909C354.215 94.4263 358.298 93.5854 346.532 96.4366C346.679 96.4336 346.825 96.4308 346.971 96.4283C346.828 96.4707 346.685 96.5133 346.541 96.5563C342.413 97.7877 338.702 98.8778 336.504 100.303C334.33 101.662 332.216 103.042 330.178 104.466C330.712 103.981 333.71 101.727 329.844 104.417C327.675 105.98 329.402 105 329.205 105.145C328.728 105.571 324.014 108.61 320.813 112.477C320.36 112.941 319.62 114.358 316.789 115.665C313.755 117.07 310.065 115.995 308.76 115.144C306.911 114.047 306.394 113.381 305.747 112.786C305.157 112.2 304.705 111.711 304.273 111.249C303.422 110.334 302.674 109.535 301.911 108.788C297.131 104.024 291.908 99.8912 287.956 98.7571C282.589 97.0359 278.502 96.06 276.723 95.809C275.812 95.6607 274.311 95.5015 273.131 95.5743C269.93 95.7106 266.737 95.9318 266.375 95.9619C264.842 96.0581 260.872 96.3075 259.005 96.8949C254.558 98.2496 250.661 99.6297 249.517 100.157C248.193 100.74 249.51 100.347 248.346 100.856C247.287 101.337 248.312 100.685 247.996 100.824C247.392 101.094 245.807 101.823 244.215 102.922C243.4 103.483 242.46 104.275 241.203 105.469C239.81 106.63 238.762 108.385 234.512 110.522C233.595 111.026 230.764 111.623 228.833 111.017C226.946 110.491 226.249 109.897 225.701 109.546C224.705 108.827 224.355 108.469 223.935 108.103C223.164 107.407 222.563 106.845 221.933 106.273C217.493 102.22 213.486 98.6346 211.771 97.1231C213.224 98.3552 217.978 102.496 222.071 106.121C222.803 106.764 223.459 107.36 224.294 108.086C224.756 108.467 225.113 108.841 226.302 109.615C226.918 109.977 227.898 110.617 229.78 110.911C231.694 111.216 233.613 110.623 234.391 110.247C238.296 108.207 238.68 107.145 238.724 107.211C238.603 107.216 237.458 108.588 234.31 110.065C233.693 110.335 232.65 110.71 231.335 110.768C230.024 110.837 228.765 110.519 227.998 110.21C226.45 109.561 226.028 109.123 225.605 108.829C224.857 108.244 224.589 107.984 224.381 107.82C223.91 107.333 223.161 106.658 222.271 105.903C220.548 104.436 218.279 102.585 216.922 101.293C216.686 101.077 217.798 101.718 214.005 98.3144C212.828 97.2814 208.707 93.8674 206.49 92.4212C206.436 92.3962 206.384 92.3739 206.364 92.367C203.664 91.2447 198.685 88.6711 194.058 88.5852C189.365 88.4312 182.873 88.431 181.182 88.9969C174.151 91.2182 170.035 93.176 169.406 93.6875C169.319 93.6956 173.22 91.9564 170.657 93.2796C168.128 94.6971 169.221 93.8591 168.068 94.3517C167.645 94.5574 167.048 94.879 165.992 95.506C165.087 95.9331 153.565 103.472 151.258 104.309C150.254 104.794 148.854 105.106 148.483 105.157C148.3 105.19 148.381 105.199 148.67 105.174C148.963 105.148 149.435 105.076 149.913 104.956C151.892 104.43 153.165 103.667 154.484 102.956C157.031 101.523 159.648 99.9121 159.614 99.9592C159.459 100.089 158.015 101.017 156.157 102.173C155.209 102.756 154.22 103.376 152.928 104.067C152.241 104.414 151.565 104.813 150.07 105.26C149.303 105.466 148.168 105.75 146.493 105.575C144.81 105.428 142.994 104.503 142.154 103.806C140.95 102.848 140.659 102.519 140.562 102.44C140.493 102.354 140.984 102.813 142.214 103.73C142.964 104.317 144.236 105.002 145.495 105.274C146.772 105.563 147.766 105.506 148.474 105.421C149.846 105.222 150.282 104.986 150.521 104.905C150.725 104.814 150.657 104.841 149.974 105.03C149.579 105.121 149.082 105.297 147.808 105.362C146.671 105.5 143.835 104.912 142.319 103.594C141.084 102.627 140.328 101.83 139.34 101.056C140.075 101.696 140.489 102.242 142.122 103.638C140.447 102.284 140.145 101.912 139.644 101.487C139.207 101.097 138.891 100.82 138.636 100.591C138.121 100.135 137.88 99.8905 137.482 99.6085C135.983 98.5559 134.132 97.6176 131.825 96.44C130.195 95.6103 128.482 94.6939 126.592 93.6764C125.346 93.011 127.548 93.8129 127.397 93.7343C125.886 92.8835 123.762 92.4675 121.598 91.5132C121.514 91.471 122.812 91.8072 122.978 91.8152C123.163 91.8949 122.076 91.1371 117.602 90.469C118.207 90.5718 118.819 90.7018 119.435 90.8571C119.018 90.7971 117.771 90.5699 116.316 90.5077C113.125 90.2512 108.362 91.2294 107.381 91.4725C103.315 92.4411 106.819 91.2743 102.683 92.4812C104.291 92.1907 100.656 93.3301 97.4309 94.4828C95.0868 95.3056 92.98 96.0165 93.2591 95.7986C91.5383 96.7562 80.248 100.687 75.3112 102.85C74.62 103.146 73.7802 103.521 72.9255 103.927C70.1022 105.213 66.9915 107.523 66.0332 108.157C65.3768 108.587 65.0501 108.726 64.4916 108.981C64.1963 109.111 63.8704 109.281 63.0558 109.61C62.6273 109.77 62.0838 110.006 60.9686 110.195C59.9452 110.39 57.6173 110.398 55.6866 109.15C55.4096 108.977 55.031 108.72 54.5975 108.333C52.6854 106.693 48.9892 102.385 44.594 99.4845C43.7129 98.8541 41.8539 97.3667 43.7013 98.3238C46.9728 99.8667 51.531 104.533 51.6433 104.434C51.7972 103.95 44.9474 98.4421 42.5833 97.441C32.266 92.2415 38.3067 94.9744 38.136 94.7227C37.8561 94.5127 36.6538 93.9426 35.2745 93.3844C33.2794 92.5704 31.123 91.7675 30.9757 91.7075C29.9062 91.2272 34.4386 92.758 34.5663 92.6967C34.6791 92.5539 28.6818 90.0643 30.0845 90.5304C31.2563 90.8895 33.6611 91.8592 35.5565 92.6532C36.8197 93.1806 37.7825 93.6332 37.9177 93.6857C41.7037 95.2424 38.0039 93.2211 35.7396 92.1783C35.3519 91.9965 35.0141 91.8368 34.7699 91.7172C34.4084 91.5394 35.3493 91.8446 35.8132 91.9875C36.0117 92.0482 36.1179 92.0777 35.9867 92.0217C35.9326 91.9986 35.8791 91.9759 35.8262 91.9536C29.3502 89.261 34.3243 91.8713 29.9147 90.224C25.9879 88.8597 31.1299 90.3412 30.9942 90.3061C30.7928 90.1831 26.0812 88.6253 25.3851 88.4286C25.0766 88.1795 32.9014 90.4357 35.999 91.5056C36.7632 91.742 37.1851 91.8616 37.1003 91.7835C36.756 91.6491 36.4049 91.515 36.047 91.3811C32.3593 90.0038 28.7421 88.6509 25.1696 87.8087C24.9159 87.4006 30.5425 89.3065 31.1466 89.564C32.3548 89.9352 29.0807 88.6413 29.2492 88.6273C29.3376 88.5873 33.3092 89.7863 29.8019 88.4818C28.595 88.0888 25.9979 87.2225 21.6598 86.4313C29.3206 87.6438 30.5843 88.6348 29.7968 88.1414C29.0211 87.7776 26.241 86.8941 26.0224 86.8109C25.588 86.5987 33.0999 88.398 24.043 86.0733C23.7462 85.5178 24.2761 85.8948 26.8774 86.5075C30.0572 87.4201 22.8471 84.6888 34.2969 88.8668C33.748 88.2829 24.4453 85.2736 23.9149 85.4024C23.4847 85.291 25.6121 85.6281 24.8706 85.4272C20.4626 84.2875 19.702 84.5007 19.8099 84.4014C19.9049 84.3644 20.818 84.3781 19.4962 84.1853C19.471 84.1821 19.3491 84.1754 19.1601 84.1699C17.5898 83.9924 11.3401 85.2825 17.1878 84.144C17.8678 84.0515 18.5258 83.9947 19.1611 83.9957C29.8968 84.8106 33.8899 88.0497 35.986 87.8218C30.5855 85.4925 23.9901 83.4059 19.1633 83.5878C16.6131 83.6913 14.7701 84.2809 13.8401 84.482C9.77077 85.5506 13.9488 84.3016 13.4427 84.399C13.2534 84.4031 9.76574 85.417 9.72126 85.4413C8.28716 85.7106 13.0595 83.5851 19.1648 83.3195C24.0016 83.3951 28.9313 85.1921 31.4095 85.9906C29.9415 85.3945 28.4532 84.8323 26.9293 84.3414C29.0256 84.8978 31.0721 85.5881 33.0902 86.3205C23.4073 82.8909 32.8116 86.0482 35.318 86.6157C35.8918 86.7228 29.5324 84.5158 36.8068 86.9664C31.534 84.9191 33.2867 85.3905 28.2844 83.9463C28.4134 83.8218 33.3628 85.2873 37.7606 86.9371C40.1048 87.782 42.3129 88.7307 43.7496 89.4075C41.1918 88.1171 39.2698 87.3432 37.8186 86.7866C30.9668 84.3915 35.2056 85.6094 23.7576 82.5029C21.0793 82.2203 27.8613 83.5132 27.2698 83.5085C25.8354 83.2443 23.0008 82.3392 19.1697 82.4169C17.7119 82.4615 16.2783 82.7636 14.8417 83.1812C13.9756 83.467 17.7504 82.7883 12.2311 84.1121C11.6187 84.2492 8.13351 85.1319 8.18175 85.1177C8.57579 84.8031 12.0108 83.8288 12.1455 83.7498C12.2529 83.6304 8.44583 84.812 8.43764 84.8215C8.25429 84.6619 11.5913 83.7659 11.0954 83.8614C10.036 84.0276 -3.87688 87.9337 14.224 82.6205C-0.681334 87.3501 11.9283 82.6751 18.4977 82.1225C18.7463 82.1083 18.9698 82.0996 19.1715 82.0944C20.3344 82.0791 20.9405 81.9938 22.9076 82.2295C25.8605 82.5957 29.0706 83.6486 30.4706 84.089C31.9554 84.6045 23.602 81.3541 35.7733 85.7627C31.8296 84.1222 25.561 81.6481 19.1742 81.598C15.6743 81.677 13.0213 82.5032 10.8304 83.0282C0.919616 86.1209 11.5177 81.4207 19.1772 81.0571C21.0269 81.0562 22.4213 81.2555 22.9259 81.3164C23.589 81.3926 21.3902 80.9534 21.83 81.0033C22.8433 80.5878 35.2402 84.4789 36.2543 84.9604C37.4609 85.2704 31.9479 83.3545 31.5815 83.1279C31.4718 83.0152 35.8413 84.5061 38.3428 85.4272C40.3839 86.1772 41.3791 86.5329 38.3871 85.3122C38.2592 85.2616 38.1236 85.208 37.98 85.1514C32.9687 82.9091 22.2093 80.3076 20.0191 80.29C26.9902 80.6219 32.8391 83.0994 38.4389 85.178C40.5741 85.9922 42.6933 86.8976 44.7612 87.915C42.7293 86.8251 40.6384 85.8435 38.5263 84.9514C36.4182 84.0579 34.267 83.1476 32.0212 82.3035C34.3652 83.0889 36.5311 83.9289 38.6094 84.7358C44.8943 87.2003 50.7495 90.2469 56.2274 94.8565C51.9242 90.9984 49.7581 89.897 49.5076 89.6131C49.2204 89.3803 50.6647 90.16 52.6447 91.5387C56.7805 94.2379 61.8153 99.8924 61.7195 99.6174C62.1089 99.9959 56.1621 93.35 54.8048 92.4655C56.8994 93.9263 60.4299 97.5351 62.5119 99.4969C62.0379 99.0078 60.7709 98.4091 59.8602 98.4097C58.9474 98.3799 58.5674 98.5613 58.4058 98.6075C58.1154 98.726 58.407 98.5902 58.6667 98.4061C59.2441 98.0179 60.0195 97.4522 60.7377 96.9509C62.1821 95.9341 63.5106 95.0937 64.3246 94.5857C65.9918 93.6133 65.4425 93.5722 61.2168 96.0626C62.6861 95.1505 65.6989 93.3145 67.5875 92.3923C68.4622 91.9464 69.0324 91.6616 69.0043 91.666C68.8621 91.6858 68.3056 91.9003 67.5183 92.2428C65.7236 93.002 62.8312 94.5895 60.8249 95.9297C58.7502 97.3121 57.8915 97.8637 58.3499 97.4658C59.8597 96.1769 63.3648 94.06 67.0715 92.317C67.2027 92.2538 67.3342 92.1913 67.4658 92.1293C83.0788 85.344 80.333 85.7455 92.7014 81.1443C94.0781 80.6515 95.6542 80.1159 97.4882 79.5573C97.1001 79.6382 96.7107 79.7216 96.3275 79.8049C102.483 77.8747 109.351 75.933 117.086 76.381C125.549 76.9112 132.534 80.2788 138.523 83.3465C140.788 84.5167 143.057 85.7802 145.361 87.3252C146.507 88.0951 147.678 88.9572 148.797 89.8941C149.88 90.7932 151.07 91.9381 151.248 92.0593C150.754 91.6562 149.695 91.0785 148.67 90.8955C147.648 90.6966 146.888 90.7968 146.497 90.8649C145.685 91.0336 145.717 91.0976 145.757 91.0654C145.91 91.0022 146.456 90.7109 146.97 90.4123C148.031 89.7984 149.23 89.0618 150.419 88.3345C152.667 86.8107 156.324 84.4289 160.543 81.8068C165.689 78.5757 171.755 76.6096 176.445 74.9892C183.774 73.0607 187.059 73.7863 190.547 73.6574C191.22 73.6656 192.699 73.7043 194.425 73.7731C199.577 73.8412 205.408 76.0587 205.9 76.2805C206.666 76.5994 204.93 75.9504 203.347 75.5079C201.766 75.0668 200.442 74.7881 202.559 75.399C203.035 75.4562 208.434 77.3715 212.231 79.1766C215.596 80.795 217.044 82.1356 218.402 83.1079C219.655 84.0652 220.339 84.6058 220.119 84.3614C218.824 83.3358 215.972 80.8259 212.266 79.0993C211.618 78.8132 211.102 78.5806 210.877 78.469C209.68 77.8795 210.445 78.1693 212.32 78.978C218.833 82.1395 225.044 88.4887 232.275 94.9563C232.964 95.5852 233.673 96.2504 234.223 96.7497C234.466 96.9779 234.783 97.2206 234.504 97.0126C234.322 96.9171 233.995 96.557 232.557 96.1637C231.074 95.7054 228.828 96.2123 228.329 96.5158C227.98 96.6951 228.376 96.4992 228.863 96.059C229.369 95.6231 230.026 94.9958 230.735 94.3331C232.157 92.9946 233.835 91.5235 235.577 90.336C240.232 87.2353 243.437 86.1895 244.03 85.8584C242.774 86.3077 241.501 86.8059 240.213 87.3795C243.82 85.6238 247.334 84.4228 250.679 83.3536ZM116.566 91.1194C116.479 91.1246 116.383 91.1287 116.282 91.1322C114.548 91.1151 111.015 91.2795 108.58 91.8844C105.107 92.6158 99.0345 95.4406 101.505 93.866C106.8 92.1311 111.823 90.8696 116.283 91.1056C116.377 91.1094 116.472 91.1141 116.566 91.1194ZM196.665 89.3982C193.884 88.9273 196.042 88.6375 198.485 89.4729C198.78 89.6079 200.564 90.4527 196.665 89.3982ZM161.725 98.6344C161.873 98.5351 164.85 96.7285 164.95 96.6781C167.693 95.1933 158.737 100.629 161.725 98.6344ZM340.315 98.1788C336.985 99.5099 339.355 98.8778 341.671 97.9624C341.811 97.9038 340.541 98.0918 340.315 98.1788ZM337.979 99.1147C337.42 99.2917 336.808 99.5854 336.272 99.93C333.595 101.628 331.274 103.632 334.692 101.352C334.874 101.233 335.609 100.71 336.408 100.15C337.105 99.6217 338.042 99.0952 337.979 99.1147ZM184.092 89.0147C184.403 88.835 188.225 88.786 189.972 88.8519C189.914 88.9562 185.503 88.8674 184.092 89.0147ZM277.387 95.7605C277.488 95.7436 275.096 95.2225 273.122 95.2883C269.015 95.3869 264.455 95.6999 263.999 95.8383C265.099 95.691 269.338 95.4805 273.126 95.3904C275.033 95.3317 277.343 95.8002 277.387 95.7605ZM305.105 111.683C304.826 111.377 302.922 109.321 302.096 108.599C301.784 108.313 301.584 108.145 301.593 108.184C301.732 108.332 301.882 108.49 302.041 108.655C302.773 109.414 303.707 110.395 304.45 111.15C305.192 111.902 305.7 112.354 305.105 111.683ZM376.566 91.5798C376.673 91.5776 376.014 91.3733 376.181 91.2915C376.336 91.2526 377.433 91.0764 380.557 92.1488C381.474 92.4469 378.104 91.7085 378.431 91.8518C379.123 92.0228 379.657 92.1792 380.095 92.3054C377.26 91.4938 373.727 91.5834 373.329 91.549C371.683 91.3746 376.57 91.4971 376.566 91.5798ZM415.743 100.921C416.258 100.425 420.656 98.1053 421.766 97.661C421.948 97.5848 421.269 98.1609 423.347 97.1668C425.055 96.3718 422.372 97.3055 425.749 95.8438C429.193 94.3986 424.671 96.5409 424.997 96.4235C425.378 96.2415 430.667 93.9083 430.582 94.117C430.468 94.2533 424.733 96.5804 423.403 97.2633C421.679 98.1083 423.842 97.2594 420.97 98.6153C419.205 99.4797 420.032 98.7176 419.656 98.8915C419.234 98.9931 413.728 102.522 415.752 100.917C415.749 100.918 415.746 100.92 415.743 100.921ZM380.897 92.5351C380.671 92.4725 380.408 92.3963 380.095 92.3054C380.363 92.3766 380.63 92.4531 380.897 92.5351ZM125.673 93.3626C127.342 94.1447 122.23 92.1628 120.465 91.7127C120.427 91.5013 125.383 93.1372 125.673 93.3626ZM383.855 93.4247C388.768 95.9601 384.861 93.8343 380.897 92.5351C382.17 92.9105 382.273 92.7059 383.855 93.4247ZM224.381 107.82C224.6 108.048 224.759 108.233 224.741 108.296C224.086 107.636 224.115 107.603 224.381 107.82ZM244.574 102.258C246.205 101.172 245.151 101.701 243.935 102.514C242.931 103.178 241.529 104.513 241.576 104.555C241.638 104.535 243.246 103.121 244.015 102.631C244.315 102.425 244.543 102.28 244.574 102.258ZM345.419 96.5836C345.277 96.6196 345.872 96.3792 346.42 96.1476C347.116 95.8495 347.711 95.574 346.371 95.9849C345.604 96.2258 344.174 96.6754 342.047 97.4514C346.996 95.9938 341.774 97.6522 341.913 97.6741C342.022 97.7044 344.02 97.0823 346.48 96.3514C348.857 95.6319 351.483 94.9211 352.438 94.7129C353.626 94.1924 348.795 95.5559 346.46 96.2847C346.009 96.4204 345.651 96.524 345.43 96.5803C345.426 96.5814 345.423 96.5825 345.419 96.5836ZM476.035 97.5853C475.096 97.2474 472.298 95.9785 470.209 95.3837C470.067 95.3414 469.929 95.2992 469.794 95.2575C469.915 95.2819 470.057 95.3137 470.218 95.3514C471.455 95.5821 474.216 96.6427 476.035 97.5853ZM20.1472 295.153C38.0434 297.764 40.282 298.659 23.9433 295.963C23.5877 295.905 19.062 295.044 20.1472 295.153ZM174.557 317.746C176.226 318.258 170.561 317.434 166.941 316.769C166.118 316.619 163.119 315.895 166.6 316.381C166.436 316.668 171.821 317.616 174.557 317.746ZM386.708 94.6365C387.766 95.0458 390.271 96.4477 392.585 97.8188C393.597 98.4153 394.551 98.9996 395.302 99.4594C394.725 99.174 393.702 98.5922 392.524 97.9252C390.45 96.7455 388.016 95.347 386.708 94.6365ZM79.0734 303.732C80.9472 303.989 82.2718 303.932 81.943 303.872C80.4698 303.603 76.9577 303.337 79.0734 303.732ZM372.891 91.0648C372.775 91.0184 374.337 90.9238 375.829 91.0231C377.329 91.1074 378.74 91.4298 378.9 91.5958C377.873 91.2218 373.133 91.0566 372.891 91.0648ZM472.196 95.8609C471.318 95.4428 476.008 97.1805 477.265 98.0331C477.145 98.0094 472.799 96.026 472.196 95.8609ZM109.817 307.855C111.526 308.127 115.69 308.759 116.202 308.747C116.771 308.718 110.637 307.835 109.817 307.855ZM-9.76461 135.903C-9.66579 135.695 -11.0789 142.212 -11.92 145.066C-13.4989 150.45 -9.83702 136.124 -9.76461 135.903ZM61.1059 301.503C55.8038 300.575 61.6854 301.575 61.4942 301.324C57.9349 300.843 48.9408 299.588 55.0705 300.654C56.2988 300.865 59.4192 301.262 61.1059 301.503ZM66.0333 302.235C66.6042 302.238 70.5205 302.524 67.1638 302.099C65.6179 301.903 63.1399 301.828 66.0333 302.235ZM-20.3902 175.74C-21.8561 180.375 -15.9039 158.936 -15.7053 158.305C-15.5993 157.984 -15.5254 157.776 -15.4787 157.659C-15.3242 156.852 -14.2371 152.784 -13.9601 152.359C-14.2984 153.566 -15.1842 156.896 -15.3086 157.288C-15.3601 157.45 -15.4001 157.571 -15.4299 157.654C-15.6797 159.118 -20.1072 174.858 -20.3902 175.74ZM-30.3572 211.259C-29.1562 205.823 -28.4212 205.006 -28.5329 205.472C-29.9478 211.359 -29.249 207.46 -29.3135 207.63C-29.455 208.037 -30.4355 212.22 -30.3525 211.243C-30.3541 211.248 -30.3556 211.254 -30.3572 211.259ZM-22.4634 183.014C-22.4085 182.79 -21.1626 178.294 -21.1052 178.112C-19.9369 174.469 -23.461 187.189 -22.4634 183.014ZM440.13 91.0563C443.131 90.8057 440.17 91.2347 438.273 91.4731C438.125 91.5009 437.534 91.3408 440.13 91.0563ZM68.6813 302.534C69.2945 302.643 79.2001 303.999 84.6541 304.613C86.7547 304.851 88.1821 304.993 87.8468 304.869C87.5036 304.832 86.2839 304.673 84.6721 304.468C78.1644 303.655 64.9394 301.87 68.6813 302.534ZM215.126 324.11C211.66 323.616 215.483 323.899 217.291 324.25C217.965 324.382 215.99 324.233 215.126 324.11ZM363.945 91.666C360.602 92.3604 361.223 91.7649 364.165 91.4593C364.28 91.4484 364.076 91.6401 363.945 91.666ZM187.591 319.934C199.46 321.544 196.612 321.965 181.134 319.35C181.622 319.387 182.11 319.424 182.599 319.462C164.818 316.632 181.376 319.224 185.77 319.835C187.442 320.069 186.061 319.724 187.579 319.932C187.583 319.933 187.587 319.933 187.591 319.934ZM233.252 326.631C244.642 328.742 222.79 325.441 216.529 324.606C222.619 325.223 230.56 326.354 219.813 324.614C235.599 326.753 228.979 326.06 229.615 326.172C230.354 326.295 232.767 326.541 233.252 326.631ZM203.042 322.392C202.405 322.317 197.375 321.46 195.587 321.213C198.137 321.394 207.444 322.917 203.042 322.392ZM-40.9351 248.853C-40.932 248.355 -40.629 247.184 -39.4254 243.307C-39.711 244.549 -40.3729 247.026 -40.9351 248.853ZM113.581 90.2779C111.436 90.2859 106.677 91.2773 108.16 91.1303C108.368 91.0116 113.628 90.2585 113.581 90.2779ZM125.709 310.607C126.339 310.72 141.204 313.037 136.088 312.07C134.592 311.782 120.925 309.699 125.709 310.607ZM48.2341 299.867C49.5054 300.049 54.5437 300.717 54.6654 300.696C55.0182 300.618 48.8137 299.828 48.2341 299.867ZM101.628 92.6218C101.446 92.6666 99.2238 93.3788 97.2912 94.0889C95.5761 94.7128 94.1063 95.2732 94.5175 95.1615C95.0636 95.0139 96.1593 94.6328 97.3341 94.2099C99.6922 93.3502 102.388 92.4238 101.628 92.6218ZM451.414 90.1301C452.01 90.1308 452.789 90.3388 452.992 90.3543C453.439 90.0078 464.471 92.3965 460.205 91.6431C459.8 91.5569 454.74 90.2727 450.063 90.4372C445.643 90.5019 441.811 90.7535 440.864 90.8624C439.95 90.6534 447.263 90.3849 449.238 90.3742C449.434 90.3664 449.587 90.2942 450.058 90.2232C450.341 90.1752 450.753 90.1289 451.409 90.131C451.41 90.1307 451.412 90.1304 451.414 90.1301ZM-35.1729 228.504C-35.1714 228.429 -35.1065 228.13 -34.99 227.651C-34.2159 224.46 -31.1983 213.363 -31.0922 213.559C-32.3653 218.24 -33.6582 222.982 -34.9422 227.664C-35.0201 227.948 -35.097 228.228 -35.1729 228.504ZM-37.2693 235.885C-38.2508 238.975 -36.2288 231.691 -35.5849 229.544C-35.4871 229.568 -37.125 235.439 -37.2693 235.885ZM76.4507 304.202C77.9733 304.361 73.3368 303.55 74.3867 303.642C75.0524 303.702 78.4286 304.215 79.4726 304.278C79.7738 304.295 76.4248 303.666 75.399 303.543C73.9837 303.373 75.3313 303.706 73.7952 303.51C68.776 302.866 64.2479 302.154 59.4592 301.51C59.0308 301.452 62.334 302.012 58.6882 301.518C58.1688 301.447 54.6952 300.809 50.3589 300.229C40.5568 299.377 33.6142 297.864 21.2759 296.148C21.7096 296.271 30.9309 297.808 31.4164 297.879C41.7036 299.522 60.0287 302.078 70.8651 303.471C73.5928 303.826 72.2836 303.545 73.468 303.694C74.4142 303.813 73.2479 303.869 76.4507 304.202ZM114.741 90.1325C113.717 89.8759 109.96 90.3681 107.371 91.006C108.335 90.9381 112.503 90.0194 114.741 90.1325ZM-37.4758 287.203C-35.8515 287.249 -31.1052 287.797 -30.7076 287.8C-30.1794 287.744 -37.0914 287.022 -37.4758 287.203ZM476.106 130.654C476.1 130.747 475.91 132.485 475.784 133.611C475.729 134.108 475.695 134.481 475.689 134.524C475.522 135.85 475.543 134.947 475.673 133.6C475.88 131.525 476.254 128.442 476.106 130.654ZM482.394 215.945C482.61 218.574 482.835 221.237 482.721 222.135C482.657 220.446 482.262 215.643 482.394 215.945ZM458.346 320.193C458.936 320.108 453.086 324.369 451.85 324.927C452.3 324.69 458.057 320.397 458.346 320.193ZM-41.7977 249.263C-40.0501 244.106 -40.8212 245.21 -39.7461 242.158C-39.5877 241.682 -38.4291 240.229 -40.2636 245.477C-40.6402 246.467 -39.4708 242.459 -41.7977 249.263ZM178.632 318.964C177.415 318.923 173.477 318.28 170.871 317.868C171.45 317.85 176.829 318.701 178.632 318.964ZM87.6418 97.4284C85.3986 98.0127 75.7248 102.041 78.1872 101.205C78.5069 101.063 86.2363 97.9251 87.6418 97.4284ZM397.526 100.072C400.68 101.856 395.991 98.8712 392.935 97.2084C392.238 96.8263 391.631 96.5053 391.184 96.2841C391.5 96.459 392.131 96.8217 392.9 97.2705C394.753 98.3454 397.332 99.9626 397.526 100.072ZM473.439 300.097C473.392 300.288 471.427 304.128 471.305 304.265C469.569 307.31 475.063 296.512 473.439 300.097ZM480.059 188.457C480.389 190.126 481.433 201.07 481.509 203.496C481.139 201.215 479.683 186.403 480.059 188.457ZM-37.1682 264.635C-37.0655 263.288 -36.9598 261.827 -37.1728 259.944C-37.2987 259.01 -37.4598 257.914 -38.1568 256.428C-38.7581 255.06 -40.4081 253.078 -42.5321 252.295C-43.2573 251.999 -43.8351 251.652 -43.9794 251.508C-43.9484 251.475 -43.6234 251.754 -42.4982 252.209C-39.5558 253.294 -37.9205 256.239 -37.521 257.792C-37.0216 259.51 -37.0113 260.611 -36.9815 261.553C-36.9687 263.412 -37.1392 264.479 -37.1682 264.635ZM465.256 313.335C465.113 313.509 464.964 313.67 464.825 313.833C464.973 313.665 465.117 313.498 465.256 313.335ZM7.64478 294.227C10.4945 294.734 9.95822 294.442 9.77099 294.405C7.63423 293.995 4.32307 293.636 7.64478 294.227ZM111.992 89.9922C111.156 89.8403 106.89 90.7469 104.31 91.4763C105.105 91.3595 110.128 90.122 111.992 89.9922ZM245.485 328.616C249.128 329.29 234.177 327.577 231.064 327.013C230.838 326.87 244.962 328.534 245.485 328.616ZM386.22 93.3507C385.987 92.9778 380.974 91.0845 382.011 91.6052C382.613 91.7975 386.297 93.4523 386.22 93.3507ZM223.578 325.904C222.169 325.753 218.93 325.158 220.089 325.234C221.576 325.332 223.941 325.942 223.578 325.904ZM97.8827 307.134C98.5773 307.247 106.766 308.284 103.412 307.652C101.113 307.217 100.701 307.368 100.119 307.285C99.3539 307.163 86.3232 305.112 97.8827 307.134ZM329.087 337.165C325.991 337.022 322.176 336.693 318.934 336.452C320.239 336.47 327.795 336.974 329.087 337.165ZM413.529 101.287C413.381 101.371 412.699 101.84 411.371 102.786C408.512 104.647 406.393 103.943 405.482 103.783C404.452 103.518 403.853 103.236 403.297 102.982C402.225 102.471 401.417 101.993 400.649 101.544C399.123 100.639 397.815 99.827 396.869 99.2657C394.997 98.1596 394.611 97.952 398.504 100.404C398.682 100.513 399.547 101.062 400.831 101.823C401.487 102.206 402.216 102.637 403.25 103.127C403.786 103.371 404.371 103.647 405.397 103.915C406.312 104.062 408.407 104.857 411.453 102.902C413.324 101.535 414.264 100.88 413.529 101.287ZM-41.7977 249.263C-42.0404 249.931 -42.3963 250.827 -42.8378 251.738C-42.4072 250.831 -42.0473 249.934 -41.7977 249.263ZM-35.3748 287.696C-36.5772 287.681 -30.5486 288.264 -28.8491 288.471C-28.2989 288.384 -35.1481 287.649 -35.3748 287.696ZM318.678 336.578C316.808 336.497 313.41 336.166 311.075 335.979C311.484 335.921 317.884 336.425 318.678 336.578ZM447.344 327.863C446.092 328.438 444.679 329.038 443.415 329.535C441.659 330.23 440.194 330.759 440.181 330.839C440.106 330.845 439.937 330.882 439.66 330.954C439.399 331.039 435.7 332.255 434.143 332.612C429.702 333.616 437.195 331.898 443.388 329.466C450.748 326.362 457.06 323.059 443.926 329.596C445.107 329.047 446.245 328.469 447.344 327.863ZM478.649 173.591C478.556 171.537 477.704 165.463 477.823 167.05C477.897 168.132 478.748 175.741 478.649 173.591ZM483.702 254.588C483.78 253.951 483.887 248.282 483.8 248.122C483.663 251.4 483.427 257.413 483.702 254.588ZM477.07 157.126C476.963 155.745 476.59 154.063 476.593 154.221C476.615 155.564 477.159 159.459 477.07 157.126ZM-44.4647 252.151C-44.3382 252.283 -43.7786 252.638 -42.8067 252.991C-40.5114 253.822 -38.973 256.019 -38.471 257.428C-37.9255 258.838 -37.8028 259.902 -37.7057 260.803C-37.5504 262.54 -37.6158 263.664 -37.5962 264.191C-37.6493 264.497 -37.7471 265.308 -37.9703 266.691C-37.9698 266.687 -37.9692 266.683 -37.9687 266.679C-37.8031 267.506 -41.3609 282.115 -39.5744 286.802C-39.3983 287.282 -39.2349 287.494 -39.1427 287.592C-39.0476 287.689 -38.982 287.728 -38.8598 287.785C-38.6165 287.899 -38.1968 287.957 -38.2134 287.936C-38.1771 287.926 -38.6687 287.821 -38.8882 287.652C-38.9967 287.554 -39.0207 287.579 -39.2339 287.174C-39.4377 286.773 -39.7487 285.769 -39.823 284.138C-39.818 283.261 -40.0705 284.602 -39.8896 280.851C-39.8698 280.597 -39.754 280.478 -39.6765 279.682C-39.6637 277.96 -37.615 267.405 -37.5626 264.511C-37.5403 264.491 -37.5054 264.323 -37.4628 263.966C-37.3796 263.172 -37.2769 261.951 -37.4813 260.176C-37.6047 259.275 -37.7644 258.208 -38.4327 256.766C-39.0025 255.431 -40.6713 253.445 -42.7091 252.744C-44.3926 252.177 -44.5679 251.995 -44.4647 252.151ZM482.81 265.8C482.988 264.685 483.288 261.07 483.212 260.685C483.041 262.493 482.419 268.403 482.81 265.8ZM412.823 101.285C412.402 101.558 411.862 101.948 411.142 102.463C408.514 104.18 406.566 103.574 405.72 103.445C404.77 103.223 404.226 102.985 403.735 102.78C402.784 102.364 402.166 102.026 401.657 101.762C400.669 101.238 400.245 101.026 400.88 101.439C401.14 101.602 401.748 101.974 402.734 102.48C403.241 102.733 403.811 103.024 404.755 103.345C405.248 103.502 405.83 103.69 406.815 103.775C407.737 103.85 409.523 103.802 411.232 102.59C412.934 101.317 413.872 100.616 412.823 101.285ZM483.746 229.432C484.03 242.93 483.86 232.654 484.066 234.717C483.974 232.956 483.866 231.195 483.746 229.432ZM-27.3741 197.461C-27.9877 199.566 -27.578 197 -26.7912 194.722C-26.5438 194.008 -27.0299 196.278 -27.3741 197.461ZM-0.665397 103.407C-1.70146 104.987 2.36718 96.821 0.994628 100.096C0.923407 100.259 -0.605839 103.305 -0.665397 103.407ZM-19.6926 168.677C-19.9177 170.16 -20.1509 171.095 -21.2957 175.126C-19.7103 169.133 -21.3705 174.64 -19.6926 168.677ZM440.223 330.844C440.199 330.845 440.18 330.846 440.181 330.839C440.207 330.837 440.219 330.839 440.223 330.844ZM476.14 143.903C476.192 142.198 476.269 136.975 476.098 138.518C476.054 138.591 475.987 143.296 476.14 143.903ZM-37.5962 264.191C-37.5512 263.924 -37.5417 264.061 -37.5626 264.511C-37.5839 264.531 -37.5921 264.413 -37.5962 264.191ZM478.501 170.122C478.378 170.03 479.155 177.223 479.209 177.569C479.878 181.743 478.842 173.124 478.501 170.122ZM365.61 90.153C365.262 90.2095 367.57 90.1839 368.917 89.9631C369.97 89.7813 366.935 89.9114 365.61 90.153ZM-16.035 154.931C-15.4255 152.678 -14.5796 149.533 -14.2916 148.974C-14.718 150.486 -15.9521 155.003 -16.035 154.931ZM-2.1311 106.305C-2.99903 108.8 -5.07639 114.475 -6.18416 118.141C-6.48248 118.136 -3.11322 108.583 -2.1311 106.305ZM-43.977 252.941C-43.9883 252.961 -44.0942 253.202 -44.131 253.315C-44.1789 253.444 -44.1013 253.312 -44.1594 252.893C-44.2186 252.475 -44.4274 252.138 -44.4698 252.068C-44.5202 251.982 -44.4923 251.986 -44.4629 251.966C-44.4208 251.946 -44.2769 252.016 -44.1019 252.428C-43.9196 252.838 -43.9627 253.39 -43.9959 253.392C-44.0279 253.429 -43.9573 253.13 -43.9021 252.947C-43.845 252.752 -43.8578 252.714 -43.977 252.941ZM375.805 89.7813C377.896 89.8405 373.434 89.2024 370.688 89.6125C370.577 89.6264 370.468 89.6415 370.363 89.6576C370.028 89.7096 370.234 89.7211 370.694 89.718C372.111 89.6661 375.565 89.7376 375.805 89.7813ZM477.188 128.192C477.43 125.237 476.673 131.26 476.481 133.686C476.452 134.043 476.44 134.323 476.443 134.483C476.466 134.251 476.495 133.983 476.531 133.692C476.749 131.906 477.1 129.253 477.188 128.192ZM484.382 245.166C484.834 234.548 484.049 240.335 484.126 242.218C484.139 242.484 484.372 245.425 484.382 245.166ZM64.0845 107.699C63.0755 108.329 64.6637 107.491 65.7384 106.777C66.8784 106.039 68.0551 105.294 68.3028 105.063C68.5644 104.748 65.4195 106.814 64.0845 107.699ZM389.877 338.731C390.32 338.711 390.758 338.689 391.19 338.668C390.866 338.69 390.439 338.712 389.877 338.731ZM480.579 97.6309C479.619 104.68 479.98 104.156 479.956 104.768C479.831 106.161 479.365 109.457 479.128 112.117C479.36 109.068 479.588 105.989 479.769 102.957C479.606 105.303 477.227 126.294 477.256 126.774C477.33 127.386 477.978 120.802 478.01 120.596C478.057 120.312 478.54 119.316 478.615 118.728C478.751 117.718 480.561 99.9884 480.579 97.6309ZM483.778 222.908C483.828 224.623 483.701 225.118 483.776 225.912C483.801 226.183 483.947 226.22 484.026 227.145C483.951 225.731 483.868 224.319 483.778 222.908ZM473.688 94.7658C472.03 93.7857 479.781 97.3984 479.83 97.7368C481.039 98.532 475.162 95.3137 473.688 94.7658ZM478.222 166.449C478.192 166.176 477.463 158.596 477.392 158.739C477.48 160.641 478.55 170.639 478.222 166.449ZM484.086 228.289C484.188 230.864 484.164 235.717 484.362 235.156C484.362 235.152 484.362 235.149 484.362 235.145C484.294 232.862 484.201 230.577 484.086 228.289ZM382.976 90.8997C379.268 89.3029 380.925 90.1281 384.289 91.6616C385.398 91.9882 383.582 91.1786 382.976 90.8997ZM369.939 89.1354C368.772 88.886 355.647 91.2717 357.694 91.1506C358.415 91.0017 365.903 89.5643 366.24 89.607C366.758 89.5701 364.426 90.0249 368.368 89.5493C368.13 89.4956 370.365 89.1189 369.939 89.1354ZM379.877 89.6935C376.056 88.6596 375.025 89.2589 378.018 89.5592C379.157 89.7236 380.408 89.8652 379.877 89.6935ZM396.11 97.6349C395.559 97.285 394.649 96.7203 393.574 96.0934C391.83 95.0752 389.711 93.8937 388.039 93.1256C389.837 94.0822 391.663 95.1254 393.516 96.1947C395.275 97.2093 397.007 98.2643 398.793 99.3635C399.256 99.5409 397.348 98.4197 396.101 97.629C396.104 97.631 396.107 97.633 396.11 97.6349ZM8.89124 79.8681C8.09769 81.4547 8.4612 80.5446 9.04667 79.2081C9.05466 79.1915 9.07717 79.1409 9.08478 79.124C9.84761 77.3111 10.7867 74.8284 10.8816 74.6407C11.322 73.7608 10.1392 77.1581 9.22178 79.1843C9.21389 79.2017 9.19055 79.2542 9.18226 79.2714C9.07883 79.4862 8.97842 79.6944 8.89124 79.8681ZM36.2007 89.367C35.2316 88.9385 34.6509 88.5115 32.4398 87.7996C33.8629 88.411 35.2783 89.0494 36.6987 89.691C37.4247 90.0187 38.1194 90.3464 38.8224 90.6908C40.3457 91.0573 38.0812 90.1225 36.7371 89.5915C36.5278 89.5071 36.3429 89.4304 36.2007 89.367ZM28.1379 85.3426C28.4529 85.4468 26.8687 84.4108 30.8661 86.0462C32.9061 86.996 24.7108 83.8529 19.1614 83.9366C17.4583 83.9377 16.0659 84.2162 15.3976 84.289C16.3531 84.0747 17.6809 83.8163 19.1621 83.8126C22.4485 83.795 26.2473 84.814 28.1379 85.3426ZM0.640917 86.9192C0.442474 86.9241 6.11223 84.6793 6.81005 84.5137C10.3562 83.4205 1.6029 86.633 0.640917 86.9192ZM19.8372 81.894C19.5093 81.8734 19.293 81.8627 19.1728 81.8531C18.9958 81.8406 19.0123 81.8292 19.173 81.8193C19.9504 81.6892 24.0523 82.1242 25.4381 82.5481C25.6351 82.5928 20.348 81.7912 19.8372 81.894ZM-12.9525 112.656C-14.214 115.501 -14.3523 118.354 -13.076 113.771C-13.0145 113.555 -12.8974 112.536 -12.9525 112.656ZM6.05343 84.3491C8.79752 83.4828 2.80337 85.6398 1.05555 86.3467C0.850308 86.3107 5.62238 84.4546 6.05343 84.3491ZM-14.3374 114.504C-15.7619 118.398 -14.5882 117.221 -14.4214 116.734C-13.7548 114.716 -11.6902 107.767 -11.1923 106.364C-14.763 116.624 -13.5975 112.702 -14.3374 114.504ZM-18.6942 132.736C-19.5586 136.382 -17.0006 127.172 -16.7772 125.365C-17.2153 127.157 -18.4493 131.712 -18.6942 132.736ZM-24.7764 154.589C-25.3237 156.51 -26.9591 162.284 -27.1029 163.269C-26.5486 161.15 -24.8726 155.421 -24.7764 154.589ZM-26.3133 158.883C-27.2929 161.868 -27.031 162.72 -26.2206 159.194C-26.1885 159.055 -26.2741 158.773 -26.3133 158.883ZM-31.1237 175.885C-31.8511 177.827 -32.0267 180.215 -31.1331 176.996C-30.8681 176.038 -31.0453 175.68 -31.1237 175.885ZM-16.5764 119.274C-17.4222 122.193 -18.0239 125.966 -16.4198 119.798C-16.9442 122.012 -17.4129 124.145 -17.9107 126.301C-16.3175 120.519 -16.1684 119.114 -15.945 117.904C-15.864 117.46 -15.7724 117.032 -15.5827 116.405C-14.5741 113.138 -14.2675 113.525 -14.3666 114.208C-13.9503 112.298 -11.9905 106.248 -9.65898 100.723C-9.64618 100.692 -9.60412 100.6 -9.58991 100.57C-8.50981 98.2834 -7.4605 96.066 -6.60681 94.2463C-7.49814 96.0371 -8.58215 98.2087 -9.72832 100.503C-9.74312 100.535 -9.78696 100.631 -9.80029 100.663C-11.8643 105.298 -13.8152 110.516 -15.0165 114.254C-15.4185 115.494 -15.7265 116.735 -16.0242 117.882C-16.1158 118.234 -16.2049 118.572 -16.2965 118.901C-16.912 121.148 -16.5282 119.112 -16.5733 119.262C-16.5743 119.266 -16.5753 119.27 -16.5764 119.274ZM-37.2771 198.285C-39.0944 204.074 -37.6268 200.492 -36.7991 197.174C-36.7663 197.031 -37.2323 198.142 -37.2771 198.285ZM-2.16803 86.0708C5.91995 83.3127 -0.767811 84.6188 17.2433 80.0804C9.2904 81.7321 16.7688 80.2943 15.2379 80.6868C13.9799 80.9537 9.70101 82.047 12.2353 81.5535C8.7372 81.9796 -4.40562 87.3076 -5.03027 87.8224C-5.02478 87.8196 -5.01929 87.8169 -5.01379 87.8142C-5.38631 87.9867 -4.65805 87.0945 -2.16803 86.0708ZM-25.953 154.301C-27.0178 156.084 -26.3687 157.101 -27.858 160.808C-28.5162 165.537 -24.9326 150.536 -23.3501 145.768C-23.1557 145.181 -22.9937 144.756 -22.8693 144.527C-22.9893 144.97 -23.1048 145.396 -23.2151 145.804C-25.9051 155.723 -24.2889 150.371 -23.0556 145.847C-22.0287 142.07 -21.28 138.923 -23.3576 145.232C-19.8571 133.316 -22.4114 141.274 -22.0226 139.395C-21.6095 137.404 -19.7119 130.645 -20.0068 130.934C-20.0078 130.937 -20.0087 130.941 -20.0097 130.945C-21.0689 135.088 -22.1587 139.259 -23.2495 143.397C-22.3452 141.049 -22.8242 143.086 -23.5996 145.701C-24.122 147.46 -24.8055 149.57 -25.258 150.673C-25.4921 151.894 -25.7157 153.073 -25.953 154.301ZM-19.2906 130.926C-19.3917 131.307 -21.7178 140.391 -21.4737 139.805C-21.0875 138.632 -17.8211 125.791 -19.2906 130.926ZM-5.56852 91.4265C-6.91843 94.2594 -9.03259 98.5023 -9.82612 100.457C-9.84135 100.489 -9.88643 100.587 -9.90014 100.621C-9.95142 100.765 -9.99612 100.897 -10.0337 101.016C-9.98122 100.891 -9.92716 100.763 -9.87169 100.633C-9.85808 100.6 -9.81336 100.502 -9.79825 100.47C-8.32917 97.4199 -6.17925 93.0907 -5.56852 91.4265ZM-47.8166 260.982C-45.3674 261.91 -47.7818 261.296 -50.568 259.057C-51.9977 257.953 -53.2566 255.562 -53.355 254.198C-53.4523 253.532 -53.4414 253.16 -53.46 253.185C-53.4633 253.212 -53.5358 253.636 -53.3642 254.662C-53.432 254.829 -52.4902 257.67 -50.8731 258.946C-49.359 260.316 -47.934 260.906 -47.8166 260.982ZM-28.4193 163.714C-29.7268 167.863 -28.6605 166.028 -27.9504 162.875C-27.9094 162.693 -28.3584 163.52 -28.4193 163.714ZM4.1224 83.4777C4.34479 83.16 15.7343 79.3876 19.1841 79.8077C19.1926 79.8077 19.201 79.8078 19.2093 79.8078C19.2013 79.8085 19.1929 79.8091 19.1841 79.8098C16.661 79.336 3.80223 83.605 4.1224 83.4777ZM-3.4894 85.8824C-6.32222 90.8977 -9.23544 97.8069 -10.2886 100.235C-10.3059 100.272 -10.3569 100.383 -10.3724 100.421C-10.5285 100.831 -10.6361 101.113 -10.6929 101.245C-11.0954 102.182 -10.6757 100.623 -10.7698 100.836C-11.0764 101.289 -14.8596 111.471 -14.9208 112.008C-15.0272 112.368 -14.1334 110.598 -14.7433 112.753C-14.1861 110.742 -12.3875 105.439 -10.2643 100.467C-10.2492 100.43 -10.1995 100.322 -10.1828 100.286C-7.70008 95.1021 -5.30994 90.1293 -5.1018 89.6506C-4.79585 88.9438 -7.57187 94.0679 -3.49429 85.8928C-3.49266 85.8893 -3.49103 85.8859 -3.4894 85.8824ZM-11.7169 103.594C-10.6119 101.118 -13.3755 108.195 -13.9695 109.934C-15.4209 113.759 -11.9378 103.883 -11.7169 103.594ZM-17.499 120.973C-17.7409 121.821 -19.6083 129.118 -19.6493 129.793C-18.5737 126.367 -16.9744 119.14 -17.499 120.973ZM-39.4503 202.613C-39.9557 204.514 -41.5052 209.725 -41.473 210.06C-40.9639 208.154 -39.4156 202.942 -39.4503 202.613ZM46.1449 87.069C42.9959 85.3486 50.4319 89.0587 52.3816 90.6682C52.484 90.7063 46.4443 87.1152 46.1449 87.069ZM-29.726 164.123C-30.0607 165.238 -36.2664 188.275 -37.1042 191.514C-36.1429 188.382 -29.9003 165.585 -29.6668 164.534C-29.5978 164.23 -29.6816 163.982 -29.726 164.123ZM-16.4252 114.074C-15.9176 111.846 -15.2286 110.513 -15.1358 110.244C-14.2352 107.587 -12.1504 102.162 -12.4518 103.413C-14.4432 107.943 -17.4234 118.501 -16.4252 114.074ZM-40.6748 204.03C-42.7666 211.858 -38.45 196.916 -39.1704 198.826C-39.2168 198.953 -40.4613 203.231 -40.6748 204.03ZM-29.0767 161.539C-28.8886 160.534 -26.7367 152.645 -24.7699 145.387C-23.2705 139.861 -21.8856 134.688 -21.4725 133.102C-22.0863 136.494 -22.9758 139.072 -24.1575 143.545C-24.4684 144.723 -24.2802 144.445 -24.3137 144.571C-24.4244 144.988 -24.503 145.264 -24.5589 145.444C-24.7736 146.128 -24.6431 145.327 -24.9173 146.342C-25.1335 147.175 -29.533 164.002 -29.0767 161.539ZM-16.1511 112.797C-15.9553 111.838 -13.4481 104.4 -11.5086 99.9396C-11.4888 99.8914 -11.4236 99.7494 -11.4016 99.7022C-10.5261 97.864 -9.89427 96.5462 -9.81104 96.391C-8.96846 94.8147 -9.85777 96.7718 -11.2713 99.7645C-11.2928 99.8106 -11.3563 99.9489 -11.3756 99.9959C-13.4093 104.724 -15.938 112.1 -16.1511 112.797ZM-29.8784 163.59C-29.4974 161.026 -26.2025 149.651 -28.1743 157.515C-28.3669 158.279 -29.3499 161.39 -29.8784 163.59ZM-40.7284 203.122C-40.8407 203.498 -43.1522 211.635 -43.0957 211.794C-42.7311 210.626 -39.427 198.78 -40.7284 203.122ZM-39.8831 198.81C-39.9351 199.007 -39.2274 197.149 -40.3027 200.961C-40.3912 201.273 -40.7602 201.817 -42.0086 206.63C-42.2657 207.621 -42.5432 209.152 -42.5047 209.046C-40.8009 204.141 -37.2772 188.93 -39.8831 198.81ZM-16.2279 112.475C-16.5681 113.244 -16.211 111.237 -15.4872 109.562C-15.1739 108.846 -15.5153 110.265 -16.2279 112.475ZM-47.9694 228.891C-46.7998 224.138 -50.9861 238.914 -51.1881 239.631C-50.9433 239.224 -48.0782 229.365 -47.9694 228.891ZM54.107 90.4817C54.1034 90.479 54.0998 90.4764 54.0961 90.4738C57.8477 93.3891 55.4206 91.7097 55.6037 91.8409C63.0524 98.6053 60.8601 96.6686 61.9916 97.6061C62.6202 98.2122 62.9249 98.5307 63.1526 98.7816C62.4542 98.0735 60.5777 97.3695 59.4476 97.5218C58.3199 97.6177 57.9826 97.8953 57.9255 97.9218C57.8646 98.0113 58.7224 97.4679 60.1656 96.4112C58.3552 97.731 57.8252 98.0775 57.9792 98.0125C58.0338 97.9994 58.1307 97.9709 58.0962 97.9933C58.0706 98.0115 57.9795 98.0601 57.9876 98.0629C57.9719 98.1382 59.7586 96.9276 59.8729 96.9279C60.132 96.9004 59.7269 97.2433 59.0422 97.722C58.7198 97.9482 58.2721 98.2327 58.1266 98.2937C58.0874 98.3242 58.0576 98.2466 58.7839 98.0617C59.1503 97.9824 59.8084 97.8858 60.6786 98.0691C61.5427 98.2405 62.3864 98.739 62.8284 99.1435C61.1414 97.3455 57.3064 93.0998 55.2868 91.7437C54.7992 91.326 58.3614 94.5604 57.0568 93.5134C53.0346 89.7455 38.8815 81.0995 54.107 90.4817ZM-15.0458 108.231C-14.7895 107.245 -13.2599 103.081 -11.8174 99.8088C-11.7964 99.7577 -11.7273 99.6074 -11.704 99.5574C-10.2501 96.6033 -9.09491 94.344 -9.85667 96.0857C-9.93172 96.2581 -10.6309 97.7514 -11.528 99.6416C-11.5506 99.69 -11.6174 99.8355 -11.6377 99.8849C-13.4346 104.074 -15.5599 110.155 -15.0458 108.231ZM442.713 342.493C439.666 343.588 445.399 341.935 447.852 340.892C448.313 340.706 448.681 340.546 448.901 340.439C449.163 340.311 448.657 340.485 447.808 340.779C446.355 341.285 443.732 342.129 442.713 342.493ZM486.872 301.6C488.557 297.408 489.417 292.856 487.706 298.048C487.541 298.579 486.613 302.052 486.872 301.6ZM225.402 338.664C229.681 339.453 229.467 339.042 226.317 338.618C225.196 338.467 225.267 338.638 225.402 338.664ZM391.382 350.639C391.775 350.644 396.992 350.332 396.776 350.249C394.86 350.332 388.543 350.679 391.382 350.639ZM224.022 338.528C226.594 338.813 222.217 337.938 219.065 337.766C220.65 337.966 223.757 338.499 224.022 338.528ZM-33.0368 172.004C-33.4548 174.124 -35.104 179.976 -36.0035 183.357C-36.2962 183.668 -33.6583 174.422 -33.0368 172.004ZM477.437 318.272C479.861 314.702 474.283 322.081 474.871 321.478C474.974 321.409 477.363 318.428 477.437 318.272ZM87.0387 318.121C89.8218 318.359 81.0889 317.076 83.4683 317.593C83.5651 317.612 86.8658 318.104 87.0387 318.121ZM47.7935 312.891C49.9539 313.24 59.127 314.478 55.592 313.878C54.9751 313.779 48.0261 312.816 47.7935 312.891ZM62.2516 97.6643C61.9719 97.2472 62.7239 97.9822 63.3667 98.5425C62.7937 97.9707 61.3565 97.2099 60.1297 97.1476C58.9107 97.0596 58.2872 97.3122 58.0074 97.4011C57.4728 97.6184 57.7529 97.5236 57.9675 97.376C58.4779 97.0563 59.1618 96.5915 59.393 96.4479C59.5286 96.3603 58.9441 96.8331 58.3165 97.3169C58.0342 97.544 57.6485 97.7846 57.8735 97.6902C58.0156 97.6573 58.3397 97.4316 59.4921 97.3699C60.6442 97.2474 62.568 98.0354 63.205 98.7231C62.8525 98.4075 62.454 97.969 62.2516 97.6643ZM253.398 342.354C255.634 342.608 261.426 343.355 262.459 343.366C259.721 343.069 252.69 342.052 253.398 342.354ZM463.548 332.399C466.809 330.372 471.463 325.757 470.093 326.674C464.797 331.535 471.115 326.506 463.548 332.399ZM209.642 336.753C211.43 337.026 212.848 336.943 212.646 336.901C210.717 336.5 207.879 336.39 209.642 336.753ZM344.51 350.568C344.591 350.697 350.474 350.875 349.687 350.765C349.443 350.734 344.406 350.47 344.51 350.568ZM-53.3188 244.318C-54.168 246.589 -51.9898 239.473 -51.2262 237.112C-50.722 236.078 -53.2013 244.214 -53.3188 244.318ZM160.244 329.282C159.991 329.425 168.858 330.689 165.392 330.006C164.54 329.837 160.357 329.24 160.244 329.282ZM75.0755 316.973C81.0958 317.545 55.9005 314.107 62.4923 315.234C62.9218 315.317 74.5051 316.925 75.0755 316.973ZM33.8867 311.201C34.8873 311.371 34.3802 311.906 30.058 311.03C29.4942 310.916 32.1714 311.154 31.7147 311.049C31.408 310.989 22.1556 309.507 21.7152 309.448C21.2448 309.392 21.7662 309.666 21.2888 309.614C20.7394 309.556 15.0629 308.504 12.0539 308.02C6.42634 307.118 5.77597 307.168 5.33114 307.097C3.93359 306.871 1.73487 306.397 -1.01372 305.942C-11.9503 304.221 -27.796 301.175 -38.2362 300.409C-42.8068 300.518 -48.8252 296.637 -50.2712 292.771C-48.3168 297.423 -42.0941 300.409 -38.2311 300.313C-31.8383 300.69 -25.0243 301.752 -18.0162 302.85C-20.8551 302.711 -3.8476 304.951 -13.8149 303.676C-9.26254 304.429 30.4724 310.743 33.8753 311.199C33.8791 311.2 33.8829 311.2 33.8867 311.201ZM492.283 284.983C491.974 287.672 494.699 274.149 494.464 272.973C494.267 274.741 492.418 284.686 492.283 284.983ZM456.05 338.233C454.886 338.846 454.155 339.868 448.322 342.094C447.994 342.214 447.647 342.337 447.281 342.462C447.275 342.464 447.27 342.466 447.264 342.469C445.384 343.103 447.469 342.226 447.116 342.32C447.015 342.377 441.039 344.231 445.925 342.497C446.904 342.136 447.622 341.861 448.152 341.66C451.864 340.194 447.192 342.402 450.745 340.918C451.31 340.811 458.558 336.797 458.086 336.894C458.048 336.923 455.864 338.207 455.472 338.377C454.081 339.021 454.684 338.562 454.49 338.657C454.185 338.805 451.398 340.288 448.123 341.586C444.897 342.896 441.095 344.072 440.144 344.246C439.838 344.302 443.913 343.108 448.065 341.436C453.584 339.319 459.257 335.807 459.648 335.545C460.105 335.279 460.103 335.691 460.583 335.422C460.874 335.419 467.835 330.035 468.576 329.194C468.828 328.98 469.021 328.817 469.163 328.698C468.181 329.566 473.772 324.016 473.622 324.206C473.606 324.375 469.795 328.241 469.603 328.334C469.539 328.39 469.481 328.437 469.428 328.482C469.879 328.149 466.777 331.145 463.545 333.509C460.347 335.901 457.223 337.677 458.99 336.76C454.384 339.552 459.536 336.161 456.05 338.233ZM432.827 346.739C433.337 346.583 433.844 346.425 434.347 346.265C425.909 348.432 415.789 349.771 406.155 350.655C403.636 350.882 406.565 350.85 403.236 351.074C400.663 351.24 397.792 351.219 399.193 351.078C399.524 351.052 404.812 350.788 407.517 350.495C415.304 349.64 413.305 349.609 413.766 349.566C414.298 349.505 419.331 348.974 421.946 348.523C428.83 347.302 431.912 346.719 441.148 344.189C435.86 345.85 438.941 345.321 432.827 346.739ZM122.527 323.98C122.185 324.048 116.935 323.137 114.903 322.848C115.252 322.778 120.607 323.702 122.527 323.98ZM280.429 81.2471C278.783 80.9008 291.828 84.3835 288.427 83.3231C287.739 83.0545 282.296 81.5396 280.429 81.2471ZM320.784 92.907C322.206 91.7928 316.266 95.9652 316.375 96.1626C316.411 96.1478 320.597 93.008 320.784 92.907ZM323.645 350.294C323.332 350.281 318.657 349.9 318.537 349.879C315.462 349.456 330.756 350.65 323.645 350.294ZM393.114 81.6785C388.511 79.4141 398.592 84.7457 399.695 85.4147C399.881 85.5107 399.907 85.5119 399.713 85.3834C399.576 85.2929 399.327 85.1364 398.952 84.9073C398.758 84.7662 393.456 81.8053 393.114 81.6785ZM406.659 89.6027C406.119 89.9537 404.593 91.0243 403.562 91.7611C405.63 90.3319 407.451 90.4953 408.065 90.552C408.769 90.6411 408.942 90.7332 409.043 90.7605C409.202 90.8208 408.969 90.7259 408.778 90.6247C408.357 90.408 407.925 90.1631 407.908 90.1741C407.859 90.1756 408.274 90.4491 408.704 90.6934C408.9 90.809 409.147 90.9203 409.015 90.8724C408.927 90.8512 408.773 90.7654 408.094 90.6741C407.506 90.6178 405.704 90.4277 403.629 91.8562C404.78 91.019 406.427 89.8333 406.659 89.6027ZM208.328 337.318C208.95 337.634 200.898 336.303 198.046 335.909C197.431 335.595 205.485 336.942 208.328 337.318ZM259.734 344.308C225.32 340.168 232.944 340.7 261.797 344.445C261.822 344.592 261.908 344.557 259.734 344.308ZM215.743 338.512C217.004 338.546 220.887 339.132 223.528 339.506C223.037 339.54 217.634 338.754 215.743 338.512ZM263.624 80.6517C265.217 80.3873 270.172 80.2355 272.672 80.2468C274.397 80.2431 275.246 80.3705 274.507 80.3548C274.396 80.3562 273.723 80.324 272.675 80.3527C269.808 80.3998 262.997 80.7412 263.624 80.6517ZM320.707 350.277C321.462 350.559 311.124 349.68 310.309 349.551C307.122 349.103 319.843 350.283 320.707 350.277ZM159.754 330.225C157.88 330.107 152.817 329.234 149.5 328.716C151.074 328.814 156.895 329.78 159.754 330.225ZM183.63 334.009C183.415 333.984 178.796 333.271 178.597 333.232C174.836 332.496 187.907 334.513 183.63 334.009ZM49.4291 85.5701C49.5829 85.6094 53.1046 87.7651 53.2019 87.8824C54.687 88.9956 52.8796 87.7521 51.0849 86.6697C49.3046 85.5899 47.5634 84.6377 49.4291 85.5701Z" fill="#FDE38D"/>
</g>
</svg>
