<svg width="1440" height="28" viewBox="0 0 1440 28" fill="none" xmlns="http://www.w3.org/2000/svg" xmlns:xlink="http://www.w3.org/1999/xlink">
<g clip-path="url(#clip0_1224_2451)">
<rect width="1608" height="112" transform="translate(-82 -84)" fill="white"/>
<rect width="1608" height="112" transform="translate(-82 -84)" fill="url(#pattern0_1224_2451)"/>
</g>
<defs>
<clipPath id="clip0_1224_2451">
<rect width="1525" height="71" fill="white" transform="translate(-37 -43)"/>
</clipPath>
<pattern id="pattern0_1224_2451" patternUnits="userSpaceOnUse" patternTransform="matrix(241.736 0 0 208.561 -1.32956 0)" preserveAspectRatio="none" viewBox="-1.32956 0 241.736 208.561" width="1" height="1">
<g id="pattern0_1224_2451_inner">
<path d="M59.7186 30.2687L69.3151 7.6608C88.7756 15.4499 110.697 22.6922 121.933 26.85C136.648 31.7409 146.775 33.3223 154.824 36.0821C154.495 40.226 152.777 46.0034 151.028 51.8249C147.449 63.7345 140.445 84.1304 125.058 122.224C117.394 141.198 104.533 171.496 95.5846 185.681C86.6359 199.867 81.802 197.852 77.9484 196.487C62.5273 191.027 40.5653 181.737 10.2647 174.899C4.26644 173.545 1.66903 173.345 12.6801 144.244C23.6911 115.144 47.5865 58.8502 59.7186 30.2687Z" fill="#ED4262"/>
<path d="M49.1024 35.1336C48.9862 35.4595 48.424 36.6587 48.2074 37.1914C48.2586 36.5206 49.5065 33.9921 49.1024 35.1336ZM40.4802 95.845C40.6148 95.3823 40.7496 94.9193 40.8846 94.4561C40.3293 95.7027 39.6666 97.4019 39.1355 98.5524C39.0485 98.7404 39.1121 98.1855 38.9183 98.6353C38.7246 99.0851 38.9546 99.0784 38.7033 99.7442C38.4216 100.488 36.8895 103.813 36.4132 104.979C34.6229 109.359 32.9246 113.818 31.0613 118.167C32.7607 113.583 30.7572 118.08 30.3029 119.38C30.2043 119.666 30.5806 119.766 28.6558 124.269C27.4313 127.143 27.9852 124.263 26.3118 129.189C28.1681 125.607 26.6638 129.277 25.5282 132.169C25.3254 132.681 23.6664 136.711 22.9919 138.488C22.7536 139.114 22.5788 140.124 22.2746 140.922C22.0696 141.459 21.7873 141.878 21.4743 142.705C20.9428 144.108 20.3825 145.592 19.867 146.964C18.9457 149.415 18.0598 151.788 17.1747 154.193C17.4762 151.794 16.3233 155.908 16.252 156.058C15.7878 156.94 17.2279 152.748 16.5545 154.38C15.7599 156.662 14.9816 158.982 14.2932 161.229C14.9289 159.418 13.951 163.794 13.6115 164.483C13.9014 164.339 13.0017 167.008 12.6083 169.041C12.5115 169.527 12.465 169.932 12.4392 170.04C12.4038 170.16 12.4073 169.83 12.0036 169.118C11.6079 168.397 10.8229 167.778 10.5304 167.637C10.2089 167.463 10.2151 167.489 10.2408 167.472C10.2586 167.462 10.2511 167.398 10.2773 167.358C10.2918 167.338 10.2543 167.305 10.3685 167.329C10.4902 167.355 10.8052 167.441 11.8902 167.696C12.2163 167.774 12.5788 167.862 12.9807 167.962C13.5886 168.113 13.3261 168.197 13.6484 168.258C13.8403 168.294 15.0985 168.128 16.2787 168.664C16.7061 168.865 13.7676 168.432 20.0996 169.873C17.7011 168.778 28.8962 171.886 30.8938 172.628C30.5038 172.453 30.1118 172.279 29.7178 172.106C31.6908 172.832 32.1139 172.798 32.5637 172.936C34.3883 173.497 36.8757 174.403 38.5712 174.911C40.5746 175.513 40.6625 175.244 42.9411 176.085C42.415 175.851 41.8846 175.617 41.3502 175.384C42.9497 175.904 44.5396 176.432 46.1278 176.97C42.3233 176.12 46.9204 177.245 47.2152 177.339C47.6872 177.481 46.968 177.403 47.7545 177.645C47.836 177.669 47.7684 177.493 48.9863 177.885C51.5186 178.705 51.0704 178.748 52.1199 179.106C52.2148 179.138 51.927 178.899 53.7597 179.503C59.5769 181.443 53.6948 179.581 53.4709 179.527C53.1685 179.45 54.9879 180.64 50.1127 178.767C51.7601 179.392 51.8329 179.674 52.0216 179.744C52.1934 179.806 55.0588 180.769 55.2204 180.82C56.6443 181.236 55.4703 180.648 55.7522 180.716C55.9795 180.769 59.3543 182.2 60.3094 182.025C61.7991 183.05 59.2312 182.066 56.4538 181.155C56.025 181.1 59.0132 182.263 59.1732 182.323C63.0595 183.729 61.0345 182.599 61.9633 182.682C62.4499 182.726 63.9505 183.548 62.6012 182.697C66.1264 183.952 63.9314 183.354 64.1453 183.463C64.4795 183.631 65.7377 183.993 65.8827 184.06C66.1008 184.161 65.278 183.98 66.1539 184.348C66.3009 184.409 67.8065 184.754 65.9851 183.977C68.4447 184.919 68.2988 184.684 69.0102 185.315C70.9251 185.335 70.1047 186.131 70.7516 186.411C72.4868 187.159 72.1479 186.489 72.2508 186.501C72.9547 186.595 77.7341 188.548 78.9453 188.899C78.3612 189.083 75.1266 187.512 74.3376 187.294C71.7489 186.589 77.816 188.772 75.8311 188.531C76.6496 188.697 77.4422 188.852 78.2523 189.01C79.3864 189.697 77.9512 189.325 80.2169 190.081C80.5392 190.188 80.8803 190.301 81.1871 190.39C81.4304 190.33 81.0209 190.216 80.2594 189.961C79.6307 189.756 79.0164 189.555 79.3681 189.578C79.5205 189.587 79.8967 189.69 80.3125 189.811C81.1801 190.078 81.6414 190.191 81.6591 190.152C81.6796 190.119 81.4531 190.059 81.0922 189.932C80.7455 189.811 80.2679 189.632 80.4594 189.64C80.6656 189.646 81.2609 189.829 81.6214 189.926C82.0026 190.03 82.1312 190.047 82.1359 190.07C82.1427 190.092 82.1137 190.128 82.1234 190.165C82.1256 190.184 82.1347 190.203 82.1351 190.222C82.129 190.238 82.1384 190.268 81.9508 190.249C82.1541 190.286 82.1202 190.394 82.1458 190.501C82.1619 190.603 82.2021 190.689 82.2797 190.584C82.3231 190.518 82.1255 190.373 82.1137 190.201C82.0993 190.118 82.0723 190.046 82.0789 189.994C82.0978 189.92 82.1607 189.971 82.9725 189.426C83.0794 189.493 82.753 189.76 82.5047 189.889C82.2441 190.027 82.1326 190.018 82.1337 190.029C82.1195 190.062 82.4015 190.52 82.451 190.526C82.4744 190.556 83.0954 190.286 84.2418 189.186C85.3469 188.144 86.6227 186.521 87.1613 186.023C86.7145 186.252 88.705 183.713 89.7624 182.009C90.0898 181.499 90.3449 181.076 90.412 180.922C90.4848 180.754 89.9709 181.236 90.0554 181.06C90.5825 180.002 92.5215 177.301 93.2738 175.921C94.1161 174.393 93.8681 174.5 93.9141 174.418C94.2816 173.748 94.0907 174.339 94.3109 173.924C94.6603 173.295 96.9263 168.917 97.0079 168.68C97.034 168.612 96.5086 169.25 96.9588 168.271C97.0347 168.1 97.1874 168.311 98.5137 165.383C100.096 161.863 97.0927 167.68 97.5885 166.135C98.9733 164.045 98.6391 163.979 98.9574 163.379C99.0659 163.175 100.069 161.72 100.854 160.006C100.319 161.25 99.7748 162.5 99.2289 163.738C99.8505 162.561 100.903 160.195 101.419 159.214C101.67 158.74 101.688 159.237 102.174 158.176C102.275 157.948 102.193 156.83 101.125 159.702C100.844 159.839 101.576 158.578 101.809 157.942C101.843 157.846 101.717 157.34 102.262 156.644C102.392 156.473 102.329 158.936 104.114 153.345C104.171 153.164 103.792 153.71 103.846 153.532C103.883 153.411 104.539 152.075 104.59 151.919C104.642 151.758 104.229 152.359 104.287 152.166C104.587 151.177 105.612 150.158 104.709 152.074C105.057 151.456 105.406 150.834 105.753 150.215C105.087 150.747 106.105 149.155 106.49 148.253C108.951 142.47 107.023 146.22 107.338 145.178C107.839 143.502 107.923 144.987 108.767 142.538C108.843 142.311 107.35 145.064 109.906 139.534C109.563 140.362 109.217 141.194 108.87 142.024C109.425 141.697 110.13 139.033 110.208 138.834C111.098 136.616 110.594 138.153 111.8 134.806C111.908 134.505 112.263 133.903 112.482 133.263C113.398 130.589 110.934 136.64 110.719 136.741C110.623 136.791 113.362 130.333 113.484 130.116C114.025 129.232 112.321 133.08 112.811 132.416C112.995 132.184 116.697 122.865 117.508 121.033C117.794 120.4 118.065 119.896 118.295 119.492C118.856 118.492 119.176 118.059 118.803 117.897C119.574 117.498 119.431 116.82 119.544 116.549C120.94 113.214 120.937 113.235 122.035 110.337C122.274 109.703 122.642 109.244 122.707 109.001C122.743 108.863 122.475 109.04 122.678 108.376C122.964 107.451 125.228 102.226 125.487 101.839C125.737 101.479 124.64 104.116 124.983 103.697C125.755 101.781 126.433 99.9353 127.203 98.0049C127.52 97.2124 127.47 97.6635 127.605 97.322C127.667 97.1695 128.645 94.3564 128.555 94.4675C128.37 94.6883 125.091 103.281 125.78 100.95C125.91 100.511 126.763 99.0659 126.363 99.1913C129.412 91.578 132.399 83.9517 135.274 76.3006C133.894 80.7947 131.827 85.6839 130.093 90.2866C129.851 90.9282 129.007 93.0391 129.26 92.841C130.806 88.9436 132.568 84.0423 134.067 80.3059C134.115 80.1866 134.09 80.6806 134.279 80.2377C134.627 79.4284 135.418 76.5826 135.647 76.1324C135.69 76.0567 135.297 77.7018 135.589 77.2661C136.342 76.1374 135.785 75.5994 136.176 74.5477C136.483 73.7367 138.761 68.3799 139.025 66.9487C139.315 65.4294 137.485 70.9216 137.441 70.4667C138.587 66.6863 140.073 63.0128 141.221 59.4883C141.241 59.4268 140.923 59.9146 141.163 59.1286C141.581 57.7512 141.889 57.4795 142.143 56.8107C142.407 56.122 143.193 53.5584 143.364 53.2586C143.386 53.2234 143.426 53.7873 143.407 53.868C143.136 55.0087 142.758 55.3007 142.721 55.4046C142.589 55.7826 142.568 56.1838 142.452 56.5218C142.259 57.0838 142.064 57.3725 141.813 58.11C141.637 58.6263 141.976 58.182 141.802 58.6822C141.741 58.8595 140.685 60.7 141.031 61.0111C141.095 61.0806 143.257 54.9939 144.799 49.9533C145.797 46.7403 146.566 44.0345 146.686 43.4193C146.265 44.7606 145.816 46.1216 145.354 47.4976C146.33 44.694 146.862 41.3456 147.395 41.2499C147.913 39.2157 148.346 37.1774 148.483 35.5789L152.761 42.0999C145.227 39.5716 136.137 37.7938 127.503 35.1522C125.559 34.5284 126.721 34.5507 123.492 33.6483C124.282 34.005 125.084 34.3601 125.887 34.7102C124.983 34.3978 122.349 33.5234 119.989 32.6981C119.95 32.6863 119.834 32.6429 119.795 32.6297C118.042 31.9511 116.377 31.3442 115.887 31.1999C115.738 31.1564 115.442 31.361 113.694 30.7669C112.152 30.2438 111.981 29.9504 111.16 29.6162C110.488 29.3424 109.676 29.1179 109.478 29.0355C109.325 28.9712 109.308 28.8226 108.936 28.6668C107.753 28.1741 108.6 28.8738 107.556 28.0456C107.854 28.1325 108.14 28.2155 108.443 28.304C107.018 27.7368 105.092 26.8514 107.266 27.511C107.641 27.6248 107.281 27.6365 107.556 27.7328C118.282 31.4827 109.818 28.2303 105.979 27.0998C105.079 26.5801 99.5995 24.7776 99.4391 24.6791C99.206 24.5382 100.189 24.7217 99.0118 24.1646C98.7692 24.0534 91.4638 21.5669 94.1686 22.2579C94.7218 22.4003 98.1925 23.6916 99.0295 23.9782C97.1887 22.896 92.3696 21.7999 91.8505 21.5955C89.7713 20.7819 96.0048 22.7081 91.2909 20.967C87.6672 19.6222 90.9858 21.1094 89.5497 20.7153C88.7416 20.4959 84.7323 18.713 84.7095 19.1178C83.2826 18.6378 84.181 18.7479 84.0116 18.6699C83.8468 18.5965 81.0316 17.6799 80.1606 17.2648C80.0551 17.2145 80.4694 17.1529 80.3625 17.0953C80.1533 16.9883 77.4673 16.0213 77.3543 15.9954C77.2818 15.9808 77.8558 16.3876 77.5788 16.3288C77.2557 16.2614 74.7017 15.2435 74.5419 15.2349C74.3145 15.2319 77.5041 16.3931 76.9054 16.3767C75.4594 15.7766 73.0322 14.9848 72.0086 14.757C72.2619 14.807 73.681 15.3489 74.1677 15.5526C73.8315 15.7372 70.7885 14.5521 71.9125 14.7416C71.2068 14.5995 71.6342 14.8363 71.2197 14.7998C71.112 14.7897 70.169 14.4272 69.9697 14.4026C69.9421 14.4028 70.873 14.8854 70.6571 14.8642C70.2651 14.8279 67.4246 13.6786 67.204 13.5577C66.578 13.2229 68.934 14.0586 69.173 14.0195C69.2081 14.0142 67.3211 13.0059 67.3015 12.974C67.2691 12.7173 69.4042 13.7423 69.2287 13.4513C68.7011 13.1962 68.1738 12.9401 67.6489 12.6838C69.816 13.3309 73.6519 14.9343 74.7374 15.0944C71.6033 13.9708 68.3625 12.6731 68.5656 12.1809C68.6503 11.9741 70.036 12.3818 70.0042 12.3076C69.8837 12.0421 67.9463 11.5101 67.8843 11.4727C67.8327 11.4387 67.8116 11.4172 67.816 11.4063C67.816 11.4063 67.816 11.4063 67.816 11.4063C67.858 11.2967 70.5321 12.2656 70.6836 12.2645C70.9407 12.2619 69.9128 11.4288 69.9475 11.3475C69.9939 11.3478 71.9077 11.9988 71.3297 11.6065C70.7448 11.2112 69.1034 10.5567 69.0521 10.5182C68.7727 10.309 71.6762 11.3664 71.7833 11.3469C71.8378 11.3391 70.3575 10.5737 70.3318 10.5102C70.3112 10.4494 71.5209 10.8114 72.0407 10.8478C72.4274 10.8756 71.456 10.3999 71.6392 10.4522C71.7698 10.4928 74.4832 11.5513 74.6243 11.5821C74.8338 11.6309 74.2478 11.2568 74.3528 11.2604C74.5016 11.2651 75.3605 11.6495 75.2648 11.5579C75.1911 11.4919 71.969 9.72958 72.0376 9.61723C72.1567 9.43347 75.5635 11.2958 72.535 9.19757C72.5134 9.1833 71.6791 8.92064 71.6587 8.90674C71.2159 8.56312 73.9038 9.36395 70.7101 8.14845C76.7258 10.2213 71.564 8.13744 72.5728 8.14235C72.9626 8.14668 75.2749 8.98437 75.2943 8.96809C75.1354 8.71634 74.3541 8.56096 74.1377 8.38306C74.0183 8.28532 76.1388 8.90535 75.7206 8.61248C75.5041 8.46284 73.3211 7.63731 73.2355 7.58932C72.4171 7.14413 73.5179 7.44213 73.3588 7.29148C73.2525 7.19124 71.9452 6.67189 71.9156 6.64901C71.8668 6.60834 73.7273 7.10145 74.126 7.17205C74.4295 7.22606 73.4069 6.72513 73.6128 6.7774C74.8517 7.09542 77.2322 8.44381 75.0034 6.97931C74.8672 6.88973 73.9456 6.54504 73.9209 6.5278C73.412 6.15827 75.1049 6.80517 75.4553 6.80071C76.0553 6.7935 73.5815 5.96587 75.6583 6.60398C74.1963 5.87884 73.3524 5.55565 71.5705 4.89224C76.5083 6.71948 78.4476 6.83955 73.0076 4.73037C74.7304 5.41849 74.6603 5.0369 75.177 5.23283C75.4977 5.35613 77.8921 6.62968 77.004 5.50362C76.8929 5.36358 75.3268 4.8801 75.8718 4.89123C79.5109 6.35001 75.9923 4.81191 75.9975 4.78608C76.1917 4.4181 85.0242 8.15 86.6005 8.66098C88.4148 9.27061 90.1313 9.53506 90.5239 9.67761C91.8109 10.1458 90.6841 9.91908 90.9502 10.0833C91.2165 10.2488 95.002 11.2654 95.1753 11.3452C95.8631 11.6694 95.07 11.6015 95.1413 11.638C95.9818 12.0755 100.972 13.683 102.342 14.2151C102.346 14.0767 99.5647 13.0801 101.376 13.4961C103.475 13.976 103.403 14.5686 103.445 14.6109C110.195 16.9953 116.962 19.3091 123.796 21.815L123.627 21.7554C126.115 22.5809 128.608 23.3552 131.119 24.0861C131.08 23.7741 125.024 22.1533 124.901 22.0466C124.167 21.6091 134.296 24.6934 135.558 25.0792C134.611 24.753 133.682 24.4257 132.746 24.0901C134.466 24.2148 137.957 25.635 140.397 26.0883C141.186 26.2367 139.732 25.7239 139.767 25.7225C140.667 25.8108 142.037 26.2667 140.95 26.1836C143.122 26.549 142.765 26.6601 144.411 27.0875C144.496 27.1093 143.821 26.7919 145.145 27.0618C145.761 27.1844 149.077 28.0256 149.567 28.03C149.766 28.0261 148.202 27.0424 147.879 27.4577C144.333 26.3179 146.677 27.3791 145.283 27.0167C145.076 26.962 145.612 26.8211 142.126 26.0769C142.892 25.772 146.812 27.1224 147.536 27.2494C148.993 27.4902 143.16 25.7682 142.035 25.8748C142.623 25.6329 141.636 25.7232 140.358 25.381C138.966 25.0067 139.601 25.0534 138.849 24.8581C136.793 24.3168 137.577 24.7994 135.949 24.1137C137.393 25.2767 133.039 23.4273 131.793 22.849C133.932 23.4305 136.078 23.979 138.245 24.5076C138.132 24.4377 138.019 24.3676 137.906 24.2974C138.468 24.4511 139.042 24.6064 139.608 24.7579C139.506 24.7702 139.406 24.7832 139.306 24.7959C142.314 25.3183 142.986 25.7605 143.227 25.8257C146.351 26.6444 150.051 27.5384 153.429 28.5265C153.925 28.6866 153.651 28.301 157.047 29.598C159.802 30.6353 161.978 33.698 161.657 36.6243C161.643 36.7451 161.628 36.8694 161.611 36.9973C161.394 38.4532 161.369 37.0765 161.187 38.6699C161.397 40.6745 160.973 40.5385 160.872 41.0818C160.562 42.6221 160.46 43.5352 160.431 43.6728C160.018 45.5 159.294 48.0306 158.77 49.8868C158.761 49.922 159.195 49 158.798 50.1927C158.713 50.4497 158.017 51.9006 157.317 53.7145C156.87 54.8779 156.412 56.2011 156.093 57.4998C156.406 56.6557 156.715 55.8141 157.017 54.9806C156.671 55.9699 154.58 63.0154 155.3 61.363C155.746 60.3603 156.154 57.6444 156.634 57.5043C155.835 59.8255 151.685 72.6044 151.21 73.5483C151.147 73.685 151.319 72.7886 151.235 72.9741C151.169 73.1273 150.176 76.0196 149.99 76.3786C149.88 76.5936 150.255 75.3001 150.171 75.3886C150.112 75.456 148.763 79.035 148.842 79.3086C149.104 78.3891 150.05 75.9329 149.714 77.2908C149.669 77.4703 149.259 78.2846 149.205 78.4993C148.721 80.4551 150.703 74.8125 151.014 73.9203C149.964 77.5484 147.723 82.9528 146.334 87.0717C145.587 88.6672 147.041 84.5514 146.234 86.3825C144.564 90.1584 146.035 87.475 146.008 87.5991C145.778 88.6284 143.829 91.6275 144.377 91.8224C143.769 93.1772 143.861 92.73 143.188 94.7111C143.324 94.4674 143.46 94.2248 143.595 93.9834C143.083 96.2844 140.497 100.621 140.573 100.24C140.764 99.2671 141.956 96.9221 142.023 96.7296C142.125 96.4347 141.906 95.3635 143.67 92.2088C143.82 90.7011 141.404 97.4061 142.305 94.2824C141.573 96.3517 138.062 104.645 137.747 105.908C137.711 106.063 138.347 105.525 137.34 107.538C136.861 108.497 137.797 106.101 137.534 106.524C136.961 107.457 133.048 117.464 130.304 124.344C129.241 127.02 128.366 129.198 127.956 130.208C127.863 130.437 127.784 130.306 127.692 130.532C127.411 131.227 126.526 133.85 125.959 135.062C127.239 132.574 125.175 137.585 124.611 138.852C123.762 140.769 123.612 140.566 123.217 141.381C121.694 144.526 120.014 149.699 118.477 151.992C118.975 152.048 116.365 156.197 115.448 158.202C114.733 159.776 113.971 162.192 115.119 160.144C113.859 162.854 112.61 165.748 111.423 168.301C111.227 168.722 111.375 168.086 111.046 168.804C111.017 168.868 111.098 169.019 110.814 169.643C108.456 174.77 109.391 172.164 108.85 173.075C108.542 173.588 108.326 173.968 108.176 174.25C109.629 171.294 111.205 167.86 111.634 166.942C111.002 167.594 108.538 173.517 107.597 175.16C107.565 175.218 107.519 174.937 107.487 174.996C107.487 174.998 107.486 174.999 107.485 175C107.161 175.638 105.146 179.651 105.745 178.929C105.909 178.732 106.874 176.895 107.962 174.685C107.699 175.291 108.089 174.935 108.044 175.043C107.487 176.369 105.715 179.392 105.1 180.473C104.963 180.717 105.076 180.761 105.054 180.802C104.485 181.8 104.406 181.225 104.162 182.409C102.797 184.017 105.944 178.993 105.488 179.225C105.259 179.351 102.213 185.122 100.162 188.569C99.3019 190.044 98.6784 191.08 98.7711 191.125C98.7132 191.145 98.5777 191.265 98.3029 191.57C97.766 192.208 95.3425 195.403 94.8622 195.967C94.7904 196.067 95.0679 196.248 94.9688 196.364C94.794 196.659 90.9123 200.311 88.5153 201.598C89.7438 201.001 90.7903 200.316 91.7328 199.609C88.9528 201.875 86.8618 202.508 86.5354 202.683C86.1495 202.845 87.2817 202.565 88.5547 201.957C88.6802 201.893 88.8132 201.836 88.9268 201.775C90.8658 200.818 92.6601 199.287 92.6845 199.302C92.7542 199.257 90.7335 201.381 87.4922 202.737C84.2096 204.194 80.4903 203.664 82.1737 203.605C82.3912 203.608 84.4814 203.524 85.8737 203.074C87.2518 202.649 88.0447 202.271 86.3552 202.79C86.0596 202.873 84.7717 203.285 83.4134 203.414C82.0553 203.564 80.7989 203.427 80.6815 203.403C79.8626 203.198 82.0373 203.537 84.2871 203.028C86.5281 202.556 88.2362 201.456 87.6868 201.618C85.8516 202.82 82.2002 203.352 79.6259 202.803C78.4731 202.597 78.2241 202.661 78.0883 202.633C76.3246 202.134 77.3687 202.272 76.8303 202.1C76.7454 202.072 76.3815 201.983 76.0334 201.896C75.2169 201.687 74.0833 201.345 74.5357 201.14C66.7373 198.651 71.1706 200.329 75.9863 202.029C76.3786 202.166 76.8645 202.34 77.4178 202.515C76.9329 202.403 76.4054 202.243 75.9596 202.104C74.2387 201.565 72.0784 200.725 70.9553 200.347C70.4406 200.173 70.6872 200.444 69.8074 200.155C68.0024 199.564 59.6974 196.257 57.534 195.429C58.8991 195.865 58.5683 195.548 57.528 195.181C56.4983 194.82 57.276 195.364 57.0669 195.316C56.8416 195.258 52.044 193.407 51.2259 193.159C54.8997 194.37 54.142 193.903 51.0524 192.789C51.5169 192.897 51.9761 193.003 52.4466 193.115C50.6096 192.536 46.8865 190.952 45.7966 190.675C45.6263 190.632 46.1739 190.98 46.078 190.955C45.1388 190.701 42.0481 189.508 41.881 189.511C41.7443 189.512 43.0456 190.077 42.5279 189.973C42.4205 189.952 41.1906 189.326 39.9011 188.964C39.4203 188.829 39.6617 189.06 39.5394 189.029C38.5179 188.775 39.1927 188.731 37.3572 188.191C36.0189 187.801 34.9461 187.717 33.1333 187.084C39.0942 189.238 34.049 187.535 31.4865 186.872C31.0777 186.767 31.3496 187.117 28.9581 186.286C34.2647 187.345 27.5537 185.601 26.192 185.227C26.1174 185.205 26.1403 185.03 25.4694 184.84C25.4122 184.824 25.4634 184.96 24.8344 184.795C18.9098 183.27 22.7197 184.171 21.6283 183.754C21.1639 183.576 18.2436 182.987 17.4596 182.797C17.2811 182.752 17.3875 182.652 16.7004 182.485C15.482 182.189 14.3375 182.044 13.5348 181.862C13.4392 181.84 13.4865 181.65 11.9276 181.346C11.4889 181.261 10.9949 181.216 11.5912 181.413C13.5919 182.063 17.5147 182.705 19.749 183.481C21.7925 184.178 15.2207 182.504 14.8691 182.436C14.7427 182.405 16.0581 182.63 14.749 182.289C13.6387 182 11.5111 181.835 9.86293 181.384C9.78498 181.363 9.26777 181.133 8.89685 180.96C8.67103 180.854 8.48907 180.767 8.51555 180.766C8.53189 180.767 8.70293 180.798 8.92439 180.838C9.53225 180.947 10.578 181.138 10.3737 181.03C10.3447 181.014 9.30912 180.778 8.96523 180.657C8.92275 180.642 8.89079 180.629 8.87314 180.618C8.68663 180.5 8.23936 179.654 7.90211 179.552C7.01477 179.281 7.57172 179.598 6.94056 179.411C6.33972 179.174 4.21644 178.729 2.22531 176.507C0.354863 174.251 0.309633 172.332 0.112102 172.28C0.29924 173.375 0.728448 174.785 1.68802 176.091C0.376851 174.255 0.245873 173.086 0.0681789 172.46C-0.0748761 171.801 -0.102944 171.582 -0.13698 171.468C-0.195582 171.26 -0.190102 171.683 -0.256635 171.268C-0.362786 170.455 -0.176946 170.575 -0.102523 169.007C-0.210853 168.459 0.752869 163.125 0.682752 163.307C0.191884 166.147 0.180069 165.056 0.137839 165.184C0.0167971 165.711 0.0543909 166.358 -0.0551753 167.136C-0.534929 172.805 -0.362554 166.988 -0.519871 168.342C-0.58516 168.77 -0.487621 169.819 -0.485068 170.025C-0.492551 170.806 -0.658763 170.794 -0.595151 171.368C-0.39495 172.727 -0.355247 171.108 -0.319763 171.222C-0.202869 171.778 0.00772407 173.322 0.539757 174.598C0.791895 175.232 1.04018 175.689 1.03889 175.787C1.04425 175.873 0.727777 175.593 0.22378 174.643C1.31192 177.015 2.0735 177.183 3.53913 178.438C4.30864 179.011 4.54951 179.137 4.52194 179.166C4.48681 179.18 4.17322 179.054 3.67494 178.758C2.67476 178.245 1.12194 176.612 0.700382 175.838C-0.917914 173.116 -0.783885 171.671 -0.884507 170.321C-0.905765 168.974 -0.779304 167.654 -0.473776 165.782C-0.252206 164.432 -0.0530152 162.958 0.087322 162.371C0.150298 162.019 1.60032 158.89 0.813249 158.6C1.27543 157.339 2.40045 155.672 2.79347 154.422C3.1464 153.298 2.7374 153.573 2.76233 153.462C2.79135 153.316 3.28193 151.96 3.39245 151.518C3.52431 150.989 3.32353 151.213 3.57201 150.368C4.2006 148.252 4.46259 148.448 4.55967 148.235C5.67218 145.851 4.86295 146.802 5.02885 146.245C5.10939 145.978 5.85815 144.05 6.67185 141.971C7.4108 140.082 8.21013 138.042 8.43102 137.321C8.25788 137.94 8.08879 138.55 7.92389 139.152C8.49955 138.186 8.64911 136.933 8.97749 137.037C8.55259 136.596 9.73187 134.585 9.98275 133.906C10.0796 133.642 9.9834 133.628 10.1086 133.297C10.5773 132.051 11.7843 129.199 12.003 128.519C12.9817 125.487 9.66977 132.921 9.42271 133.514C9.88921 132.323 12.4451 125.534 10.9711 128.531C10.7452 128.989 10.6423 129.925 10.5417 130.206C9.8774 132.066 10.2392 130.541 10.1627 130.678C10.0335 130.912 9.76336 132.187 9.61831 132.487C9.56634 132.598 9.65677 131.813 8.9593 133.584C9.11662 132.636 11.1847 127.828 11.4012 127.166C11.4741 126.94 10.5274 128.182 12.5593 124.183C12.504 124.217 12.4486 124.251 12.3933 124.285C13.3161 121.932 14.2324 119.611 15.1469 117.306C15.1278 117.591 14.7706 118.954 15.3952 117.306C15.7565 116.354 15.2898 116.978 15.3192 116.89C15.6012 116.013 21.7678 101.091 22.9499 98.1972C23.3492 97.2096 24.3343 94.4088 24.4179 94.1996C24.9204 92.9415 26.8494 88.5635 27.1962 87.672C27.4115 87.1165 27.0407 87.5756 27.2522 87.0872C27.4491 86.6332 27.4006 87.1681 27.4632 87.0351C27.9822 85.933 31.3498 77.3129 32.3386 75.3483C31.7773 76.5687 29.4927 82.8727 29.6499 82.7923C29.6754 82.7713 30.4148 81.3162 30.489 80.9837C30.8302 80.5272 31.1752 78.6025 31.651 77.6802C31.7048 77.5761 31.7464 78.0918 32.4984 76.406C32.7582 75.8231 33.233 74.2092 34.0711 72.7465C34.9181 70.4595 40.1503 58.8171 40.2604 57.9055C40.2585 57.8752 39.4798 59.4962 39.8547 58.3373C40.3524 56.7987 40.2198 58.3197 40.9893 56.5994C41.1094 56.3296 43.0988 51.4962 43.1411 51.3224C43.5185 49.7532 41.6287 53.952 41.632 53.8661C41.6158 53.706 43.0656 50.1547 43.1364 50.0343C43.2114 49.9054 42.3312 52.8833 43.6523 49.4182C43.4463 49.7984 43.2458 50.1658 43.0415 50.542C43.64 48.9178 43.9386 48.8314 44.1158 48.45C44.6751 47.2476 44.8883 45.8032 46.1334 44.0232C46.4611 43.5574 46.2235 44.4606 46.2671 44.4039C46.6802 43.8428 46.6018 42.9189 47.303 42.0907C47.3527 42.0351 46.6144 44.2728 48.2193 40.4863C48.0814 40.7323 47.9431 40.9795 47.8043 41.2277C47.9604 40.6819 49.5578 36.8088 49.779 36.3296C50.4709 34.8205 50.1135 36.2316 50.7327 34.7038C50.0399 35.5578 51.9576 30.9364 52.0835 31.3104C52.053 30.8646 52.7868 29.182 53.4963 27.6275C53.9689 26.5873 54.4251 25.6137 54.725 24.9149C55.2343 23.7271 56.0959 21.3299 56.2677 20.9681C56.4772 20.5272 56.6126 20.7823 57.0131 19.9668C57.1312 19.725 57.9936 17.2723 59.1088 15.2395C59.3245 14.8459 60.0267 14.1659 59.801 14.941C59.4003 16.3018 58.0651 18.6625 58.2873 18.7147C58.525 18.7704 59.8131 15.3697 60.2112 14.5121C62.1021 10.429 61.3254 12.9134 61.4386 12.8453C61.733 12.6332 62.6853 10.3747 62.7344 10.3025C62.9677 9.94517 62.4344 11.5825 62.5224 11.6691C62.6564 11.736 63.8176 9.69107 63.6577 10.1966C63.4258 10.9261 62.3717 12.834 62.3263 12.9684C61.7461 14.7064 63.0456 12.5292 63.4544 12.0003C63.582 11.8335 63.3435 12.6148 63.424 12.4643C64.6592 10.149 63.189 11.7755 63.911 10.1973C64.5541 8.79159 63.9879 10.7064 64.0166 10.6709C64.069 10.5826 64.7898 8.91614 64.9826 8.66764C65.0677 8.57009 63.5992 13.1596 63.8713 13.0252C64.4285 11.6009 64.9799 10.1902 65.541 8.75678C65.8245 8.7494 64.7972 10.6834 64.7228 10.9266C64.5896 11.3772 65.2204 10.2254 65.2711 10.3149C65.3109 10.354 64.8805 11.8421 65.4916 10.5978C65.6964 10.1826 65.9075 9.2222 66.7423 7.72872C64.6642 13.2288 66.3724 9.57598 66.5399 9.41536C66.689 9.29792 65.7852 11.978 67.0838 8.8213C67.6034 8.88283 67.2068 8.938 66.907 9.87017C66.5332 11.0284 67.7682 8.54237 65.9566 12.489C66.2611 12.3736 67.6237 9.12099 67.7045 8.97859C67.781 8.84198 67.588 9.59273 67.7304 9.35756C69.4255 6.52707 68.3595 8.50744 68.9983 7.74514C69.0486 7.69317 70.358 4.8837 69.4799 7.06062C67.869 11.0522 66.8736 12.5443 67.2402 13.5042C68.7695 10.6936 69.8416 6.99059 70.2159 6.08902C70.7741 4.74522 70.3205 6.18563 70.4273 6.03829C70.4611 5.99244 70.9484 4.81354 70.9647 4.80464C71.8261 4.16625 68.7584 10.0256 68.0403 11.9591C68.3383 11.4654 68.6148 11.0223 68.9163 10.5202C68.6108 11.2483 68.3387 11.8977 68.0404 12.6087C69.5945 9.36629 68.1366 12.5407 68.2056 13.5042C68.2192 13.7253 68.9823 11.4936 68.1809 14.0848C69.0196 12.2713 68.8576 12.8831 69.4373 11.2C69.5881 11.2961 68.1911 15.0964 67.6523 16.5973C70.0281 11.5075 68.1861 14.1912 70.3977 9.85715C70.5503 8.93865 69.6823 11.0925 69.7226 10.9051C69.86 10.2497 70.6859 8.83081 71.0085 6.90866C71.062 6.59168 70.3332 7.72128 71.1088 5.92236C71.2009 5.70945 71.8667 4.64289 71.8716 4.66774C71.9499 4.87635 71.4142 5.99108 71.4498 6.07133C71.4898 6.13254 71.994 4.85125 72.0121 4.85156C72.2054 4.88879 71.6317 5.93608 71.7539 5.8023C72.0215 5.50722 74.3358 1.11489 71.6971 7.02099C73.5931 1.99736 71.7755 6.29235 71.0317 8.25864C70.8488 8.74305 70.8864 8.94861 70.6369 9.63865C70.2944 10.5776 69.7973 11.6076 69.6264 12.0642C69.4349 12.5748 70.891 9.83977 69.0715 13.9189C70.2096 11.9292 71.5131 8.12095 72.5617 6.13618C74.6755 2.13776 71.7542 9.2308 71.4854 9.95904C71.413 10.1554 71.8294 9.57178 71.7835 9.70418C71.7105 9.91346 69.9374 13.907 69.8965 14.3321C69.8506 14.7687 70.5065 12.8799 70.6889 12.7927C70.7925 12.7793 68.918 17.6044 70.0668 15.0556C70.866 13.281 71.953 9.79318 72.5445 9.39608C71.4529 12.0501 70.3525 14.725 69.264 17.3718C70.0105 15.9922 70.7674 14.5881 71.5174 13.2004C70.2887 16.2153 69.0602 18.6814 68.0537 21.5954C71.3698 14.9979 67.4536 23.9784 67.4784 24.0678C67.4973 24.1118 68.9872 21.5876 69.2288 21.1989C68.3679 23.6063 65.3756 30.8411 67.6021 26.8133C67.161 27.5775 66.6474 29.4661 66.6666 29.4721C66.9646 29.3079 68.5471 25.231 68.441 25.9667C68.3277 26.7972 67.5844 27.7837 67.1189 28.9415C66.3638 30.8162 66.0381 31.905 65.8022 32.851C65.3178 34.899 65.5697 35.583 63.6698 39.75C63.7562 39.6463 63.8425 39.543 63.9287 39.4399C61.0898 45.9715 58.261 52.4893 55.4276 59.0389C54.6571 61.7226 51.964 68.6365 50.521 71.9761C50.2301 72.649 48.6746 75.8992 48.5419 76.1364C48.2933 76.5759 49.3404 74.023 48.7558 75.1294C48.6331 75.3613 46.2097 80.9518 46.5514 80.6226C46.8359 79.9991 47.5713 78.0003 47.7486 77.692C48.9853 75.5441 41.5101 92.7715 41.2795 93.6789C41.4951 93.3188 41.7108 92.9586 41.9266 92.5983C41.4446 93.6792 40.9619 94.7626 40.4802 95.845ZM47.7112 39.7757C47.8085 39.0639 48.6529 37.434 49.0055 36.4676C49.5117 35.0843 49.8063 32.536 50.0612 33.7936C49.277 35.7888 48.4994 37.7691 47.7112 39.7757ZM35.2871 68.49C35.9374 67.2024 35.8772 68.3924 35.2689 69.4062C35.2007 69.5192 34.4122 70.2227 35.2871 68.49ZM41.3073 54.6881C41.2891 54.7448 40.7961 55.8855 40.7729 55.924C40.1897 56.8874 41.6764 53.4503 41.3073 54.6881ZM13.6436 121.995C14.2155 120.524 13.4458 121.451 13.2239 122.412C13.2099 122.472 13.6057 122.092 13.6436 121.995ZM14.0713 120.956C14.8391 119.93 15.1466 117.381 14.4731 119.231C14.406 119.415 14.0343 121.005 14.0713 120.956ZM37.4194 63.8328C37.4714 64.0352 36.8434 65.3707 36.5708 65.9412C36.4722 65.8777 37.1879 64.4194 37.4194 63.8328ZM22.9917 98.516C23.0588 98.612 25.0215 93.8479 25.0355 93.4737C24.7752 94.2457 22.9309 98.4274 22.9917 98.516ZM18.1049 110.798C18.1691 110.685 18.8178 109.026 18.7176 109.04C18.2805 109.806 17.8118 111.311 18.1049 110.798ZM8.32584 135.244C8.30799 135.352 9.32349 134.273 7.82301 137.131C7.60271 137.551 8.07422 135.927 7.99619 136.074C7.83163 136.391 7.71445 136.643 7.63123 136.849C8.13896 135.407 8.65345 134.03 8.74573 133.886C9.14887 133.293 8.32975 135.207 8.32584 135.244ZM3.79747 148.436C3.78379 148.738 3.06524 150.61 2.8871 151.011C2.85591 151.079 2.73692 150.692 2.46814 151.517C2.24098 152.218 2.82851 151.267 2.32899 152.597C1.83649 153.917 2.27892 152.08 2.23018 152.187C2.15488 152.347 1.56277 154.443 1.44635 154.349C1.36789 154.241 2.17611 152.076 2.36165 151.485C2.57218 150.794 2.11365 151.57 2.55441 150.428C2.8361 149.701 2.98423 150.211 3.05389 150.061C3.11902 149.907 3.85234 147.342 3.79514 148.44C3.79592 148.438 3.79669 148.437 3.79747 148.436ZM7.49891 137.23C7.52938 137.122 7.57151 136.997 7.63123 136.849C7.5863 136.977 7.5424 137.104 7.49891 137.23ZM46.2207 43.6419C45.8446 44.2852 46.5858 42.2211 47.0357 41.4799C47.1333 41.5076 46.2773 43.546 46.2207 43.6419ZM7.24492 138.591C6.37737 140.639 6.86937 139.05 7.49891 137.23C7.33002 137.829 7.52956 137.922 7.24492 138.591ZM30.489 80.9837C30.4323 81.0597 30.3766 81.0998 30.3192 81.0838C30.4721 80.8854 30.5125 80.8788 30.489 80.9837ZM28.4315 85.6459C27.9264 87.3277 29.2836 84.0484 29.1564 84.0196C29.1073 84.0106 28.4516 85.5786 28.4315 85.6459ZM12.8688 123.882C12.9458 123.737 12.5187 126.268 13.4935 122.734C12.7083 124.522 13.4192 122.588 13.3627 122.601C13.2027 122.63 12.1203 125.692 11.8047 126.328C11.8282 126.93 12.6141 124.361 12.8672 123.886C12.8678 123.884 12.8683 123.883 12.8688 123.882ZM4.09486 180.288C3.6138 180.123 2.48168 179.61 1.23768 178.415C-0.0243578 177.237 -0.965691 175.46 -1.32961 174.298C-1.07692 174.806 -0.59483 176.08 0.493036 177.427C1.5705 178.796 3.11467 179.822 4.09486 180.288ZM158.499 51.369C158.233 52.3384 157.988 53.1643 157.774 53.8518C156.664 57.3612 156.3 57.4313 157.51 53.7726C157.622 53.4303 157.749 53.0536 157.89 52.6418C157.927 52.5344 158.555 50.9738 158.499 51.369ZM139.811 103.708C139.357 104.171 140.033 102.325 140.618 101.105C140.749 100.833 141.388 99.8974 140.98 101.092C140.706 100.945 139.89 102.722 139.811 103.708ZM6.94847 139.82C6.90409 140.224 6.58759 141.044 6.26842 141.818C6.04738 142.357 5.82553 142.876 5.67179 143.257C5.71369 142.964 5.90372 142.397 6.14132 141.77C6.40782 141.067 6.7403 140.284 6.94847 139.82ZM151.6 71.6251C151.36 72.2526 151.414 72.7659 151.471 72.6598C151.727 72.1884 151.975 70.9352 151.6 71.6251ZM9.26716 133.896C9.38794 133.864 8.55136 136.282 8.24283 136.386C8.46762 135.855 9.179 133.946 9.26716 133.896ZM0.159954 176.878C-0.172406 176.304 0.54019 177.53 1.87478 178.643C3.21986 179.783 4.71514 180.374 5.25079 180.603C5.18578 180.623 4.22771 180.365 2.92629 179.546C1.61291 178.767 0.34274 177.221 0.159954 176.878ZM147.964 81.9829C147.742 82.5343 147.201 83.984 147.229 84.1668C147.258 84.4131 148.005 82.2763 147.964 81.9829ZM93.2546 9.6514C93.1959 9.58784 95.4819 10.1042 96.4352 10.523C98.2395 11.3193 93.3187 9.70763 93.2546 9.6514ZM153.599 65.4589C154.41 63.7074 153.54 65.6578 153.774 65.6542C154.197 64.4362 155.228 61.345 154.319 63.3973C154.145 63.7892 153.804 64.8959 153.599 65.4589ZM152.956 67.124C152.958 67.3428 152.716 68.7484 153.095 67.5924C153.27 67.0561 153.317 66.1338 152.956 67.124ZM106.904 14.4009C108.447 15.1531 101.106 12.4553 100.904 12.3437C100.799 12.2872 100.732 12.2452 100.695 12.2168C100.409 12.1814 99.0055 11.6944 98.9028 11.4905C99.3114 11.65 100.461 12.0436 100.584 12.1058C100.638 12.1329 100.678 12.1545 100.705 12.1715C101.245 12.2202 106.598 14.2556 106.904 14.4009ZM119.118 18.9171C117.155 18.5263 117.002 17.9515 117.165 17.9918C119.246 18.5151 117.811 18.3922 117.869 18.4308C117.992 18.504 119.499 18.8615 119.112 18.9151C119.114 18.9157 119.116 18.9164 119.118 18.9171ZM109.384 15.358C109.306 15.3375 107.766 14.7807 107.7 14.7491C106.484 14.1467 110.859 15.728 109.384 15.358ZM0.713283 158.723C0.32206 159.874 0.477104 158.695 0.789702 157.901C0.818082 157.833 1.07103 157.685 0.713283 158.723ZM152.693 68.0454C152.583 68.2935 150.127 74.9128 150.522 74.5945C150.699 74.0391 153.466 66.4902 152.693 68.0454ZM134.134 117.113C134.598 115.957 134.334 117.315 133.998 117.894C133.875 118.107 134.016 117.407 134.134 117.113ZM10.7687 130.712C11.1138 129.45 11.457 129.877 10.8928 130.863C10.8707 130.902 10.7553 130.761 10.7687 130.712ZM137.904 108.002C136.497 112 136.103 110.781 138.384 105.722C138.355 105.896 138.326 106.07 138.297 106.244C140.738 100.333 138.511 105.862 137.98 107.336C137.776 107.902 138.088 107.482 137.907 107.998C137.906 107.999 137.905 108 137.904 108.002ZM131.705 123.125C129.624 126.73 132.918 119.579 133.666 117.492C133.091 119.576 131.992 122.216 133.657 118.723C131.596 123.99 132.264 121.699 132.159 121.91C132.041 122.146 131.793 122.972 131.705 123.125ZM135.717 113.083C135.792 112.848 136.547 111.263 136.773 110.639C136.626 111.554 135.243 114.59 135.717 113.083ZM131.711 22.9433C131.528 23.0512 131.158 23.0665 129.867 22.6201C130.287 22.6648 131.15 22.85 131.711 22.9433ZM48.994 38.8461C49.3884 37.9443 50.1821 36.2229 49.8044 36.6948C49.7695 36.7413 48.9133 38.8014 48.994 38.8461ZM145.658 87.2309C145.569 87.4238 143.667 92.4352 144.482 90.7589C144.734 90.246 146.417 85.6854 145.658 87.2309ZM154.938 60.9996C154.793 61.4425 154.249 63.1894 154.272 63.2345C154.353 63.398 154.99 61.2376 154.938 60.9996ZM51.0481 34.4106C51.1054 34.3166 52.2451 31.5577 52.0459 31.834C51.6717 32.3506 50.8251 34.7939 51.0481 34.4106ZM-0.15112 163.31C-0.209579 163.582 -0.449669 163.88 -0.476176 163.992C-0.50572 164.118 -0.782518 165.444 -0.962924 166.601C-1.1492 167.771 -1.25871 168.786 -1.25018 167.572C-1.3868 166.903 0.398512 159.79 0.734415 159.049C1.05956 158.742 0.00925046 161.598 -0.130994 162.318C-0.154644 162.433 0.00311476 162.586 -0.151548 163.308C-0.151405 163.308 -0.151263 163.309 -0.15112 163.31ZM124.883 21.008C124.824 21.0285 124.459 20.9458 123.943 20.8031L124.145 20.8738C122.601 20.3846 119.803 19.4037 119.894 19.296C121.316 19.7855 122.737 20.2792 124.175 20.7916L123.971 20.7199C124.277 20.8174 124.581 20.9134 124.883 21.008ZM127.369 21.8299C128.385 22.2574 125.922 21.5227 125.208 21.2375C125.234 21.144 127.219 21.7697 127.369 21.8299ZM151.151 70.4948C151.008 71.0156 151.755 69.5229 151.673 69.8868C151.623 70.1105 151.143 71.2432 151.082 71.6185C151.064 71.7361 151.666 70.626 151.773 70.291C151.927 69.8132 151.617 70.2194 151.795 69.7045C152.396 67.9569 153.02 66.4811 153.57 64.8351C153.618 64.689 153.132 65.784 153.551 64.5422C153.618 64.3402 154.166 63.2338 154.639 61.712C155.134 58.8115 156.087 56.7316 157.024 53.6264C157.213 52.9964 157.404 52.321 157.59 51.5825C157.538 51.6646 157.181 52.6768 156.865 53.5788C156.615 54.2947 156.377 54.9808 156.352 55.055C155.186 58.6145 153.093 64.9341 151.82 68.5969C151.493 69.5433 151.754 69.1233 151.617 69.5311C151.51 69.8488 151.451 69.3997 151.151 70.4948ZM48.8942 39.3695C49.265 39.0145 49.7819 37.4664 50.1854 36.5419C49.8791 36.7952 49.338 38.4377 48.8942 39.3695ZM150.092 28.1154C150.611 28.2424 152.215 28.7481 152.368 28.7305C152.56 28.6972 150.235 28.0057 150.092 28.1154ZM20.4647 183.796C20.515 183.803 21.6941 184.127 21.7357 184.145C22.749 184.582 19.2125 183.611 20.4647 183.796ZM48.4818 192.42C49.3698 192.701 50.2785 192.952 50.5218 193.212C49.9623 192.988 48.3438 192.493 48.4818 192.42ZM93.0838 198.873C92.8074 198.893 95.3793 196.489 95.756 196.002C95.7239 196.251 93.3868 198.874 93.0838 198.873ZM131.715 23.6491C130.097 23.1641 130.342 23.5745 129.357 23.1256C129.195 23.0493 128.853 22.2405 130.556 23.0137C130.864 23.1514 129.563 22.9403 131.715 23.6491ZM138.715 104.894C138.747 104.421 139.295 103.134 139.64 102.277C139.665 102.505 138.955 104.255 138.715 104.894ZM53.2848 29.5574C53.4853 29.289 53.8146 28.5765 54.1006 27.884C54.5667 26.757 54.9275 25.6859 54.6365 26.1656C54.6016 26.2247 54.2993 26.999 53.973 27.8298C53.6902 28.5537 53.3885 29.3225 53.2848 29.5574ZM5.97804 144.227C5.63173 145.566 6.52407 143.322 6.89388 142.055C6.93062 141.926 6.96068 141.809 6.98146 141.711C6.95579 141.783 6.91126 141.899 6.85523 142.04C6.56135 142.784 5.99814 144.148 5.97804 144.227ZM78.3097 203.058C78.3424 203.118 81.071 203.622 81.2614 203.575C82.5085 203.699 80.9181 203.741 79.5807 203.472C78.2366 203.211 77.2435 202.817 78.3097 203.058ZM39.3995 189.106C40.0047 189.159 43.6014 190.45 44.3847 190.856C43.5343 190.763 38.6687 189.037 39.3995 189.106ZM138.481 25.4072C137.304 25.1073 136.196 24.7701 135.14 24.4229C135.393 24.383 138.374 25.2984 138.481 25.4072ZM88.5547 201.957C88.6802 201.893 88.8132 201.836 88.9268 201.775C88.8064 201.836 88.6762 201.899 88.5547 201.957ZM158.744 46.7023C158.414 47.7346 158.666 47.5711 158.691 47.5088C158.973 46.7439 159.113 45.5259 158.744 46.7023ZM49.6372 38.3823C49.9487 38.113 50.4869 36.483 50.9306 35.5478C50.6799 35.7713 49.9361 37.6286 49.6372 38.3823ZM129.708 127.068C129.278 127.793 129.85 126.026 130.449 124.402C130.804 123.444 131.167 122.54 131.363 122.178C131.433 122.163 131.066 123.288 130.65 124.483C130.232 125.692 129.755 126.989 129.708 127.068ZM7.95429 139.774C8.13423 139.7 8.7637 137.585 8.5338 137.996C8.38452 138.263 7.85395 139.788 7.95429 139.774ZM132.438 119.724C132.586 119.24 133.148 118.215 133.075 118.627C132.983 119.153 132.402 119.849 132.438 119.724ZM148.461 77.6968C148.368 77.8934 147.495 80.724 148.047 79.6295C148.428 78.8773 148.286 78.6642 148.352 78.4791C148.429 78.2748 150.274 73.8838 148.461 77.6968ZM117.9 154.594C118.304 153.55 118.907 152.342 119.373 151.27C119.263 151.742 118.201 154.207 117.9 154.594ZM4.93913 147.944C5.08026 147.685 7.69138 140.793 6.06647 144.636C5.95867 144.883 4.49322 148.652 4.93913 147.944ZM131.715 23.6491C131.921 23.7103 132.156 23.7851 132.425 23.8767C132.156 23.7939 131.921 23.7162 131.715 23.6491ZM150.702 28.6438C150.271 28.633 152.291 29.2124 152.913 29.3408C153.129 29.266 150.76 28.6389 150.702 28.6438ZM119.276 151.131C119.493 150.49 120.038 149.4 120.364 148.631C120.396 148.8 119.484 150.903 119.276 151.131ZM96.9342 193.842C97.8856 192.709 98.8916 191.192 98.7951 191.122C98.8269 191.109 98.8819 191.063 98.9628 190.979C99.0482 190.894 99.8529 189.586 100.241 189.043C100.33 188.92 100.401 188.824 100.455 188.754C100.619 188.54 100.621 188.577 100.508 188.787C99.9769 190.347 91.8497 200.389 97.7378 192.401C97.4779 192.884 97.2065 193.37 96.9342 193.842ZM34.5316 187.286C33.8753 186.932 31.8228 186.503 32.3253 186.713C32.6831 186.858 35.1953 187.639 34.5316 187.286ZM61.6427 196.494C61.4392 196.391 59.4874 195.778 59.4097 195.83C60.4933 196.313 62.5594 196.96 61.6427 196.494ZM29.1241 185.497C28.685 185.347 28.0489 185.405 28.0988 185.43C28.5325 185.641 29.8352 185.837 29.1241 185.497ZM134.931 25.2011C135.576 25.4486 137.749 25.8535 138.249 25.824C138.329 25.8753 138.554 25.974 138.968 26.1287C138.966 26.1284 138.965 26.128 138.964 26.1277C139.414 26.3129 157.203 30.8919 145.331 27.5653C144.96 27.4627 145.436 27.7231 143.937 27.3234C143.839 27.2969 143.818 27.1762 143.512 27.0942C142.805 26.9077 139.111 25.9001 138.354 25.7909C138.353 25.7691 138.31 25.7375 138.212 25.6932C137.345 25.3046 134.432 25.0137 134.931 25.2011ZM65.4666 197.892C65.0845 197.706 63.8571 197.291 63.6914 197.335C64.2811 197.606 66.3347 198.319 65.4666 197.892ZM5.40047 147.862C5.76967 147.08 6.37464 145.009 6.07275 145.592C5.87984 145.962 4.97476 148.756 5.40047 147.862ZM53.193 193.45C57.6629 195.179 54.2736 193.827 55.0132 193.939C54.4073 193.775 53.7936 193.61 53.193 193.45ZM114.152 17.9996C114.873 18.2887 113.912 18.2534 113.165 17.8266C112.932 17.6923 113.743 17.8365 114.152 17.9996ZM81.4572 6.34594C81.9781 6.81492 79.0487 5.54401 80.2726 5.82279C80.3285 5.83806 81.4168 6.32062 81.4572 6.34594ZM104.187 14.7017C104.744 14.7147 105.059 14.8045 106.443 15.3362C104.363 14.6561 106.229 15.4749 104.187 14.7017ZM98.7711 191.125C98.782 191.121 98.7906 191.118 98.7951 191.122C98.7841 191.127 98.7767 191.127 98.7711 191.125ZM24.7999 184.319C24.2713 184.02 22.6503 183.592 23.0935 183.865C23.1383 183.89 24.5394 184.359 24.7999 184.319ZM138.249 25.824C138.179 25.7786 138.222 25.7725 138.354 25.7909C138.355 25.8113 138.318 25.8206 138.249 25.824ZM33.457 186.705C33.3684 186.79 35.7888 187.577 35.8903 187.597C37.343 187.851 34.4573 186.998 33.457 186.705ZM11.6812 131.83C11.7195 131.702 11.1415 132.401 11.0543 132.926C10.9864 133.334 11.5369 132.314 11.6812 131.83ZM99.4561 13.1023C98.6815 12.8269 97.6097 12.4448 97.4521 12.2464C97.9613 12.4503 99.503 13.0149 99.4561 13.1023ZM82.5612 6.95823C83.515 7.14951 85.5676 7.91559 86.8743 8.42478C86.8248 8.62895 83.4203 7.23193 82.5612 6.95823ZM132.862 24.5451C132.921 24.5729 134.839 25.1702 134.61 24.9621C134.28 24.663 132.337 24.3192 132.862 24.5451ZM10.0829 135.503C9.84048 136.389 10.8746 134.539 11.0294 133.525C11.1048 133.013 10.1194 135.363 10.0829 135.503ZM19.81 182.783C18.6377 182.56 21.4656 183.445 21.8957 183.413C21.3726 183.261 20.2294 182.862 19.81 182.783ZM58.5998 194.972C55.183 193.28 56.8649 194.706 57.5129 194.87C57.5989 194.891 58.6856 195.014 58.5998 194.972ZM57.7482 21.1793C57.9033 20.6655 56.9335 22.4118 56.9512 22.7245C56.9688 22.9047 57.654 21.496 57.7482 21.1793ZM108.176 174.25C108.104 174.397 108.033 174.542 107.962 174.685C108.01 174.575 108.079 174.433 108.176 174.25ZM9.42534 179.681C11.8832 180.847 11.6996 180.345 11.9253 180.398C12.4118 180.519 13.5027 180.941 14.4115 181.135C13.3639 180.949 12.2892 180.762 11.2393 180.586C12.0621 180.8 19.1447 182.774 19.3108 182.737C19.5611 182.66 17.3073 182.127 17.2406 182.1C17.1515 182.06 16.8953 181.605 16.6909 181.539C16.3566 181.418 10.3777 179.977 9.42534 179.681ZM51.1341 192.356C51.6915 192.6 51.7987 192.798 52.0785 192.859C52.1739 192.879 52.2368 192.75 52.5602 192.825C52.0787 192.666 51.6099 192.512 51.1341 192.356ZM2.14598 176.872C1.51036 175.981 2.74063 177.594 4.30361 178.426C5.83821 179.278 7.01189 179.524 7.07411 179.571C7.42756 179.719 6.79641 179.658 5.64225 179.249C4.50872 178.91 2.63808 177.614 2.14598 176.872ZM32.2724 186.215C32.1662 186.17 29.697 185.384 29.6935 185.486C30.3341 185.746 33.6243 186.753 32.2724 186.215ZM52.9467 192.953C53.7935 193.271 55.3743 193.994 55.2589 193.723C55.2576 193.723 55.2564 193.722 55.2551 193.722C54.4859 193.464 53.7135 193.206 52.9467 192.953ZM9.36583 138.615C10.3037 137.138 9.60096 137.752 8.9597 139.111C8.94169 139.587 9.21292 138.856 9.36583 138.615ZM11.5966 133.582C11.8138 133.189 13.5632 128.575 13.1158 129.215C12.9627 129.424 12.07 132.13 12.0138 132.241C11.9251 132.416 12.0643 131.512 11.5556 132.916C11.6503 132.861 11.5187 133.724 11.5966 133.582ZM10.0835 137.366C10.9496 135.854 10.6264 135.359 10.1716 136.526C9.98909 136.993 9.95894 137.584 10.0835 137.366ZM7.55729 143.87C7.6826 143.599 7.8984 143.101 8.12254 142.52C8.34683 141.938 8.57843 141.267 8.7104 140.69C8.47259 141.296 8.23968 141.892 8.01183 142.478C7.68917 143.309 7.37732 144.117 7.07601 144.902C7.10161 145.093 7.32983 144.361 7.55874 143.866C7.55826 143.867 7.55777 143.868 7.55729 143.87ZM72.6982 4.48214C73.8883 5.09986 71.0088 4.01621 70.9037 3.93555C70.5873 3.68938 72.163 4.20588 72.6982 4.48214ZM65.8762 13.2232C66.0764 12.891 66.3434 12.7202 66.5702 11.9458C66.1345 12.6341 65.6789 13.3691 65.2388 14.0675C65.2634 14.7847 65.6713 13.5524 65.8762 13.2232ZM68.1304 10.7445C68.0922 10.8533 68.768 10.4531 67.8981 11.7068C67.3063 12.5638 69.2881 7.37124 69.8649 6.54091C69.5188 7.60184 68.4764 9.77644 68.1304 10.7445ZM73.7859 2.57994C73.8431 2.54024 73.0655 4.51154 72.9527 4.7102C72.32 5.84767 73.4649 2.82691 73.7859 2.57994ZM71.0784 8.731C71.547 7.85843 70.7496 9.88621 70.4402 10.482C70.3343 10.5096 70.9994 8.88338 71.0784 8.731ZM82.9969 15.6362C83.8939 16.306 85.0318 15.9995 83.4338 15.5554C83.3574 15.534 82.9596 15.6058 82.9969 15.6362ZM73.414 4.65831C72.9434 5.53544 73.7481 3.49056 74.0475 2.91844C74.1549 2.88693 73.4816 4.53278 73.414 4.65831ZM83.4444 16.6058C84.7047 17.3139 84.4969 16.4221 84.3408 16.3318C83.6937 15.9648 81.2295 15.3694 80.722 15.2581C84.294 16.4671 82.8512 16.2706 83.4444 16.6058ZM89.7794 18.4328C91.0494 18.8057 87.9273 17.5099 87.2478 17.4872C87.87 17.7037 89.417 18.3271 89.7794 18.4328ZM97.2475 21.3674C97.9067 21.6307 99.8752 22.3965 100.252 22.4017C99.5086 22.1627 97.5681 21.3502 97.2475 21.3674ZM98.6434 22.2444C99.63 22.7667 100.041 22.407 98.7911 22.1153C98.7425 22.104 98.6081 22.2222 98.6434 22.2444ZM104.467 24.4791C105.097 24.9008 106.028 24.7392 104.921 24.3373C104.591 24.2181 104.401 24.4328 104.467 24.4791ZM84.8363 17.995C85.7917 18.4324 87.1683 18.5844 85.0854 17.7827C85.8404 18.0061 86.5903 18.2265 87.3463 18.4482C84.665 17.2727 84.7075 17.7727 83.9271 17.4658C82.8354 17.0343 83.0529 16.7112 83.3153 16.682C82.3333 16.5678 78.5005 15.1429 76.2757 14.3381C78.1828 15.1713 81.2812 16.5126 83.1823 17.2793C83.7257 17.4992 84.2932 17.5978 84.757 17.7807C85.5023 18.0747 84.7831 17.9696 84.8325 17.9936C84.8337 17.994 84.835 17.9945 84.8363 17.995ZM112.188 27.1991C114.124 28.1101 113.018 27.228 111.845 26.9023C111.794 26.891 112.137 27.1758 112.188 27.1991ZM75.8135 2.60697C74.5194 5.16042 75.1024 3.13035 73.1202 8.7971C73.8477 6.37747 72.9953 8.58369 73.0842 8.08963C73.1532 7.70187 73.7906 6.38675 73.3008 7.08687C73.9203 6.1213 75.7712 1.62424 75.8867 1.43239C75.8859 1.43425 75.8851 1.43612 75.8843 1.43799C75.9523 1.32525 76.2256 1.79383 75.8135 2.60697ZM96.8521 22.512C97.331 23.2781 97.9055 22.5358 99.0664 23.4402C101.052 23.4263 94.2019 21.7176 93.5884 20.8871C100.763 23.5173 89.0277 18.6562 93.7586 21.255C89.726 19.4805 92.3672 20.8689 91.6916 20.7426C90.9713 20.608 88.6715 19.6428 88.7191 19.8821C88.7204 19.8826 88.7217 19.883 88.723 19.8835C90.1586 20.3881 91.5941 20.8891 93.0347 21.3891C91.7848 20.4621 94.6684 21.6385 95.5341 22.3359C95.9753 22.3955 96.4147 22.4542 96.8521 22.512ZM88.8908 19.2089C89.0286 19.2711 92.1638 20.334 91.9912 20.1747C91.599 19.975 87.1527 18.439 88.8908 19.2089ZM75.1844 14.2168C76.2961 14.6448 77.9881 15.3802 78.6552 15.4491C77.5411 15.0287 75.8507 14.2904 75.1844 14.2168ZM133.135 34.386C134.646 34.6544 130.112 33.3683 131.383 33.889C131.447 33.9163 133.062 34.3743 133.135 34.386ZM100.125 23.5799C101.512 24.2513 101.012 23.4955 99.893 23.2516C99.8281 23.2376 100.061 23.549 100.125 23.5799ZM74.9737 4.75542C75.056 4.90428 73.3538 8.67372 73.0678 9.35051C73.1164 8.91734 74.8782 4.58759 74.9737 4.75542ZM73.0458 13.9296C75.0866 15.2388 78.2974 15.8576 78.6223 15.9919C78.9461 16.1271 78.3571 16.1302 78.4299 16.1637C78.5958 16.2413 82.1026 17.5328 82.2766 17.5793C82.4016 17.6135 81.872 17.1017 82.6258 17.2817C81.1563 16.9263 74.8043 14.4111 74.4632 14.306C74.1974 14.2312 76.0192 15.2673 73.0496 13.9311C73.0483 13.9306 73.0471 13.9301 73.0458 13.9296ZM79.425 16.3626C78.5951 15.919 81.0495 16.8229 81.6281 17.0854C82.9108 17.672 79.5315 16.4204 79.425 16.3626ZM85.2845 18.6567C85.5542 18.7862 88.0774 19.7328 88.3387 19.6798C87.204 19.0788 84.6706 18.3629 85.2845 18.6567ZM113.449 28.6472C114.111 28.862 115.859 29.5967 116.01 29.5232C115.353 29.3066 113.595 28.5705 113.449 28.6472ZM70.4247 18.1667C70.9697 17.141 69.96 19.6253 69.6092 20.3278C69.5234 20.3238 70.3722 18.2682 70.4247 18.1667ZM99.986 24.754C100.366 24.9298 108.341 27.6325 109.467 27.9683C108.414 27.5017 100.543 24.7311 100.168 24.6431C100.06 24.6191 99.9384 24.7311 99.986 24.754ZM82.7767 18.6204C81.9852 18.5172 81.5866 18.1417 81.4953 18.105C80.604 17.7458 78.7254 17.0841 79.1943 17.0771C80.7559 17.7395 84.3487 18.825 82.7767 18.6204ZM113.742 29.6035C116.441 30.491 111.359 28.4911 111.972 28.9061C112.012 28.9319 113.465 29.5124 113.742 29.6035ZM99.0808 24.4893C98.4393 24.4203 90.522 21.4697 89.248 21.0009C90.4814 21.165 91.3332 21.6855 92.8756 22.2232C93.2902 22.3673 93.2167 22.224 93.2612 22.2398C93.9812 22.4916 93.4008 22.4193 93.8439 22.5796C94.1233 22.6835 99.9803 24.5945 99.0808 24.4893ZM82.3179 18.5819C81.8393 18.5183 76.8656 16.7007 76.6769 16.5951C75.2568 15.8467 81.9446 18.4151 82.3179 18.5819ZM99.7324 24.969C98.7709 24.9571 94.8887 23.3622 97.6481 24.1774C97.9102 24.2555 98.9598 24.7682 99.7324 24.969ZM113.359 29.7787C113.48 29.8298 116.259 30.8847 116.333 30.8088C115.943 30.6255 111.894 29.1537 113.359 29.7787ZM111.799 29.5786C111.866 29.5995 111.281 29.1928 112.573 29.6747C112.679 29.7149 112.822 29.9889 114.49 30.4991C114.831 30.6036 115.381 30.6507 115.352 30.631C113.768 29.7094 108.371 28.4867 111.799 29.5786ZM82.1673 18.7094C82.4033 18.8923 81.667 18.9033 81.1323 18.5609C80.9033 18.4136 81.4243 18.4376 82.1673 18.7094ZM122.398 33.0473C120.656 32.6651 125.965 34.3747 126.257 34.4013C126.106 34.2593 122.567 33.0931 122.398 33.0473ZM70.5068 21.1575C70.5073 21.1562 70.5079 21.1549 70.5084 21.1536C69.9139 22.4608 70.1381 21.5895 70.1076 21.6504C68.7007 24.461 69.3227 23.7728 69.1616 24.244C68.8262 25.2326 68.5435 24.9533 68.008 26.6068C68.9163 23.8883 67.9918 26.3089 67.8359 26.34C67.2141 26.4326 69.5689 22.8999 70.0331 21.5186C70.0982 21.3254 69.3626 22.6204 69.5187 22.128C70.0242 20.5334 72.8263 16.0505 70.5068 21.1575ZM80.6755 18.4159C79.982 18.331 75.2006 16.3609 76.5287 16.7237C76.7417 16.7875 81.6919 18.5525 80.6755 18.4159ZM89.236 184.094C89.7489 183.089 88.1656 185.15 87.9825 185.553C87.888 185.78 89.0212 184.533 89.236 184.094ZM80.7854 190.31C80.6124 190.254 80.4099 190.198 80.1936 190.147C79.051 189.887 78.0712 189.962 79.5381 190.407C79.6104 190.428 79.8457 190.439 80.0918 190.434C80.5028 190.442 80.849 190.383 80.7854 190.31ZM120.471 116.276C119.721 117.597 120.103 117.656 120.512 116.627C120.655 116.265 120.495 116.232 120.471 116.276ZM97.3262 169.198C97.253 169.318 96.4865 170.885 96.5941 170.862C96.9316 170.32 97.8401 168.375 97.3262 169.198ZM120.603 115.801C120.325 116.676 121.168 115.312 121.328 114.194C121.141 114.719 120.632 115.71 120.603 115.801ZM102.44 26.8067C103.201 26.9101 105.223 27.6698 106.389 28.0508C106.457 28.2874 103.275 27.0621 102.44 26.8067ZM82.4168 190.845C82.3158 190.952 82.3878 191 82.5252 190.973C82.6569 190.951 82.8882 190.809 82.7973 190.751C82.7599 190.765 82.4072 190.849 82.4168 190.845ZM137.934 70.4612C137.712 71.4426 138.923 68.5139 138.433 69.2639C138.412 69.2979 137.947 70.4038 137.934 70.4612ZM142.466 57.446C142.203 58.1302 141.192 61.2013 141.701 60.0434C141.782 59.8629 142.557 57.5235 142.466 57.446ZM69.2611 24.3795C69.6133 24.0776 68.6278 26.2737 68.4666 26.5612C68.4009 26.6775 68.7992 24.7809 69.2611 24.3795ZM116.73 125.414C116.461 126.138 115.634 128.016 115.598 128.383C115.942 127.497 117.031 125.249 116.73 125.414ZM85.0548 188.833C84.2513 189.361 83.3147 190.112 83.7332 190.154C84.2681 189.715 84.2032 189.661 84.1848 189.627C84.1723 189.573 84.205 189.563 85.0548 188.833ZM122.267 110.994C122.017 111.574 122.097 112.132 122.136 112.07C122.51 111.475 122.6 110.453 122.267 110.994ZM104.126 154.635C104.003 154.617 103.216 156.47 103.398 156.257C103.458 156.189 104.227 154.648 104.126 154.635ZM127.935 35.5765C128.825 35.9505 125.991 35.2355 125.194 34.8534C124.842 34.5575 127.829 35.538 127.935 35.5765ZM128.728 94.7343C128.6 94.5727 127.548 97.567 128.138 96.4535C128.287 96.171 128.773 94.7837 128.728 94.7343ZM138.995 66.353C138.513 68.4106 141.527 60.11 140.522 62.2188C140.457 62.3631 139.04 66.1796 138.995 66.353ZM143.651 52.7463C143.522 53.081 143.003 52.7408 143.663 51.3825C143.75 51.2031 143.631 52.1278 143.713 51.9859C143.743 51.9304 144.141 50.7647 144.441 49.8454C144.639 49.237 144.801 48.7291 144.813 48.671C144.844 48.5108 144.605 48.6389 144.632 48.475C144.663 48.2887 145.398 46.4149 145.683 45.4265C146.222 43.5613 146.109 43.3316 146.152 43.1787C146.271 42.7404 146.58 42.0336 146.798 41.1645C147.243 39.3898 147.706 37.1761 147.831 35.5272L152.549 42.7179C149.594 41.7098 146.267 40.8307 144.129 40.0772C147.134 40.9718 149.966 41.6053 152.637 42.4625L148.1 35.5485C148.091 35.728 148.076 35.9192 148.057 36.1193C147.931 35.7351 147.902 36.6457 147.82 37.4396C147.738 38.2274 147.696 38.7528 147.765 37.2656C147.817 38.1169 145.969 45.4443 144.561 49.8816C144.111 51.3697 143.759 52.4631 143.653 52.7425C143.652 52.7438 143.652 52.745 143.651 52.7463ZM75.5177 188.229C76.4315 188.349 72.1082 186.799 71.666 186.885C72.2165 187.126 75.415 188.217 75.5177 188.229ZM85.9275 186.494C86.1121 186.198 86.0106 185.739 87.2983 184.291C87.2993 184.289 87.3003 184.288 87.3013 184.287C87.6802 183.851 87.383 184.443 87.4719 184.377C87.5095 184.357 88.6933 182.985 87.871 184.235C86.6032 186.096 87.5131 184.237 86.8028 185.204C86.7256 185.334 85.5514 187.157 85.6645 187.073C85.6729 187.074 86.0557 186.539 86.1297 186.475C86.4365 186.21 86.414 186.438 86.4537 186.398C86.6016 186.294 88.5128 183.265 88.9603 182.861C89.1297 182.843 85.776 187.693 85.5923 187.678C85.4893 187.766 85.2661 187.495 85.1518 187.572C85.0972 187.642 83.8082 189.138 83.6415 189.196C83.5899 189.229 83.5449 189.254 83.5131 189.27C83.6446 189.228 83.4157 189.459 83.1782 189.633C82.9387 189.81 82.7073 189.916 82.6912 189.855C82.6828 189.832 82.8382 189.728 83.0124 189.603C83.1936 189.474 83.3926 189.321 83.4103 189.312C83.4246 189.305 83.4382 189.3 83.4502 189.294C83.33 189.309 83.9171 188.794 84.5182 188.105C85.1136 187.431 85.6551 186.692 85.2671 187.004C86.0331 185.923 85.3581 187.349 85.9275 186.494ZM89.74 180.589C89.6871 180.746 89.6346 180.901 89.5826 181.055C90.9221 178.719 92.6392 176.007 94.1601 173.115C94.5474 172.377 93.9102 173.113 94.4618 172.19C94.9035 171.448 95.5362 170.665 95.3573 171.115C95.3098 171.235 94.3854 172.73 93.9753 173.529C92.79 175.84 93.2579 175.354 93.1931 175.49C93.1224 175.634 92.2125 177.013 91.79 177.765C90.9048 179.343 90.4696 180.247 89.4334 181.801C89.1892 182.165 88.9203 182.549 88.6113 182.966C89.1105 182.059 89.0067 181.951 89.1376 181.615C89.2075 181.427 89.3511 181.169 89.74 180.589ZM132.959 82.0731C132.881 81.9396 133.652 80.1727 133.87 79.5313C133.951 79.6612 133.176 81.4429 132.959 82.0731ZM36.6497 104.282C36.691 103.663 34.969 107.715 35.5629 106.704C35.6954 106.478 36.438 104.791 36.6497 104.282ZM29.0601 122.532C28.8889 123.101 29.9133 120.948 29.771 120.893C29.7241 120.878 29.0808 122.462 29.0601 122.532ZM106.243 147.674C106.282 147.57 106.97 146.118 106.999 146.075C107.621 145.186 105.375 149.976 106.243 147.674ZM20.4837 144.889C20.9171 143.503 19.9266 145.936 19.6101 146.867C19.4619 147.297 19.4322 147.46 19.6823 146.938C19.6849 146.933 19.6905 146.92 19.6985 146.9C19.8066 146.637 20.4528 144.984 20.4837 144.889ZM17.5541 152.839C17.7202 152.355 18.5057 150.404 18.4658 150.341C18.383 150.28 17.4862 152.531 17.5541 152.839ZM121.731 110.323C121.435 110.466 122.658 107.848 122.997 106.914C123.296 106.764 122.066 109.409 121.731 110.323ZM114.78 127.07C119.189 115.831 118.64 118.458 114.607 127.773C114.469 127.732 114.501 127.774 114.78 127.07ZM120.627 112.719C120.598 113.174 120.05 114.429 119.689 115.298C119.661 115.101 120.406 113.339 120.627 112.719ZM38.9341 99.5543C38.8086 100.327 37.3162 103.358 37.4761 102.776C37.5162 102.636 38.9484 99.26 38.9341 99.5543ZM106.476 146.673C106.166 146.844 107.698 143.567 107.851 143.329C108.475 142.382 106.552 146.388 106.476 146.673ZM127.83 94.2629C127.905 93.5982 128.64 91.9322 129.061 90.8387C129.001 91.4012 128.197 93.3217 127.83 94.2629ZM124.638 102.096C124.66 102.022 125.271 100.504 125.304 100.442C125.947 99.255 124.217 103.551 124.638 102.096ZM72.794 19.9357C72.7733 19.9985 72.2904 21.1084 72.2636 21.1552C71.6801 22.1134 73.1675 18.6942 72.794 19.9357Z" fill="#ED4262"/>
</g>
</pattern></defs>
</svg>
