<svg width="153" height="139" viewBox="0 0 153 139" fill="none" xmlns="http://www.w3.org/2000/svg">
<path d="M67.0324 18.5263C66.1674 22.3843 64.9161 27.7971 64.1907 32.4512C62.8179 30.3185 60.4174 25.947 56.8417 19.5593C52.3295 12.5704 49.5319 8.50743 48.4678 7.79467C47.966 7.45858 47.4601 7.27665 47.2071 7.93057C46.9541 8.58449 46.9541 10.0304 47.5314 16.4979C48.1087 22.9653 49.2293 34.1164 49.6236 39.8582C50.0179 45.6 49.6957 45.9228 42.5838 43.4847C35.4719 41.0466 21.9793 36.0004 14.5598 33.3948C7.14043 30.7892 5.83387 30.6289 7.73788 33.8946C9.6419 37.1602 14.6061 43.6551 21.9978 51.8438C29.3895 60.0325 38.92 69.6245 35.5205 78.2877C32.121 86.9509 16.2718 94.458 16.8962 97.9909C17.5207 101.524 34.1159 101.096 42.4752 101.107C50.8344 101.118 50.9542 101.555 51.6712 107.022C52.3882 112.49 53.6639 122.679 54.6911 127.409C55.7184 132.139 56.4743 131.432 57.5097 130.263C58.5451 129.095 59.8213 127.515 62.0054 124.12C64.1895 120.725 67.1905 115.67 69.5238 111.03C71.8571 106.391 73.5884 102.33 74.5311 99.2014C76.0717 94.0889 76.58 91.0114 77.4343 91.0011C78.2007 90.9919 80.095 91.6132 88.281 97.0179C95.2512 101.62 107.495 109.941 112.288 111.394C117.082 112.848 114.502 107.594 110.443 100.59C106.384 93.5853 101.008 85.0882 98.4301 80.5282C95.852 75.9682 96.0649 75.3637 101.728 72.7859C107.392 70.2081 118.179 65.791 125.399 62.3881C132.619 58.9851 136.229 56.7543 138.4 55.0813C141.531 52.6682 146.366 49.8095 144.563 48.2522C143.742 47.5431 141.02 47.659 134.076 48.5444C129.532 49.1239 121.437 50.2487 112.344 52.3157C103.251 54.3827 93.3843 57.0966 87.8268 59.155C80.7776 61.7658 78.1217 63.309 76.5341 62.7376C75.9514 62.5279 75.8913 61.9189 75.3541 52.8561C74.8169 43.7934 73.8326 26.792 73.1304 17.7621C72.4282 8.7323 72.0204 7.70511 71.6326 7.32151C71.2449 6.93792 70.8446 7.15884 70.5377 7.63104C69.8543 8.68246 68.6194 11.4477 67.0324 18.5263Z" fill="#FFA599"/>
<path d="M64.9524 14.483C65.0083 14.8452 65.0886 16.3195 65.1494 16.971C64.8812 16.2495 64.7572 13.1896 64.9524 14.483ZM92.3305 49.5639C91.7983 49.7786 91.2592 49.998 90.7203 50.2206C92.3076 49.7627 94.3873 49.1143 95.8508 48.7558C96.0905 48.6971 95.5171 49.0182 96.0789 48.8671C96.638 48.7176 96.4773 48.5439 97.2833 48.2979C98.1921 48.0134 102.406 47.0504 103.856 46.6913C106.12 46.1163 108.393 45.5461 110.682 45.0051C113.914 44.2419 117.159 43.5712 120.407 43.0422C114.694 44.2581 120.507 43.3242 122.102 42.9954C122.455 42.9314 122.333 42.4998 128.123 41.7308C131.478 41.3139 129.022 42.1193 133.171 41.4426C133.574 41.3785 134.031 41.3028 134.564 41.213C133.936 41.238 133.476 41.2519 133.147 41.2555C132.268 41.2639 132.419 41.1866 133.123 41.0636C134.134 40.8891 136.231 40.6249 138.246 40.4269C138.51 40.4033 139.387 40.318 140.708 40.2569C141.379 40.2302 142.138 40.2004 143.197 40.2522C143.736 40.284 144.343 40.3242 145.231 40.5004C146.124 40.7371 147.402 40.8436 149.5 42.5383C150.411 43.3165 151.54 44.656 152.107 46.4697C152.693 48.2873 152.527 50.0607 152.233 51.1772C151.59 53.4335 150.872 54.16 150.428 54.8078C149.183 56.4058 148.056 57.5321 147.073 58.3211C146.402 58.8462 145.85 59.1135 144.99 59.7445C144.277 60.2673 143.616 60.7484 143.086 61.1612C139.051 64.2139 135.395 66.0254 131.643 67.8818C134.062 66.0944 129.463 68.7111 129.239 68.7702C128.099 69.1668 132.965 66.7578 130.992 67.6209C130.144 68.0425 129.297 68.4545 128.449 68.8598C126.596 69.7448 124.767 70.5806 122.94 71.4025C125.161 70.49 120.213 73.0916 119.214 73.3291C119.797 73.6015 106.953 78.1356 105.297 79.0845C105.035 79.229 106.319 78.792 104.789 79.5113C104.298 79.7476 103.119 80.272 102.443 80.6404C102.347 80.6924 102.346 80.6503 102.322 80.6238C102.305 80.5929 102.279 80.5734 102.317 80.5535C102.33 80.5451 102.374 80.5516 102.499 80.4945C102.626 80.4286 102.851 80.3148 103.236 79.8623C103.609 79.4383 104.142 78.4837 104.289 77.4797C104.447 76.478 104.274 75.7816 104.15 75.5358C104.105 75.4513 104.091 75.519 104.08 75.63C104.07 75.7376 104.063 75.9391 104.022 75.9014C103.991 75.8941 103.874 75.4833 103.823 75.4149C103.775 75.3436 103.954 75.8084 104.659 77.0063C104.801 77.2497 104.963 77.5225 105.143 77.8226C104.042 75.1246 110.449 86.211 111.67 88.3954C111.471 87.9505 111.271 87.5051 111.073 87.0621C112.174 89.1885 112.531 89.4833 112.804 89.9499C113.904 91.832 115.319 94.4997 116.371 96.279C116.516 96.5234 116.646 96.7362 116.765 96.9259C117.678 98.3929 118.006 98.5061 119.185 100.892C118.903 100.23 118.614 99.5752 118.332 98.9447C119.307 100.74 120.276 102.492 121.262 104.906C118.627 100.007 121.738 105.71 121.934 106.83C122.082 107.314 122.019 107.237 121.978 107.211C121.936 107.211 121.932 107.202 122.16 108.242C122.182 108.357 122.217 108.317 122.318 108.703C122.369 108.923 122.442 109.22 122.494 109.89C122.472 110.589 122.803 111.528 121.734 114.205C121.069 115.798 119.493 117.443 118.105 118.165C116.669 118.95 115.582 119.121 114.836 119.222C113.264 119.384 112.589 119.23 111.983 119.148C110.898 118.953 110.493 118.784 110.089 118.645C109.556 118.443 109.202 118.288 108.455 117.991C108.355 117.932 108.613 118.267 106.149 117.128C99.1428 113.517 106.102 117.063 106.534 117.185C106.719 117.262 106.303 116.926 106.443 116.873C106.694 116.824 106.877 117.037 110.214 118.236C110.87 118.428 111.548 118.664 112.969 118.795C111.365 118.64 110.801 118.383 110.226 118.195C108.778 117.63 108.763 117.424 108.531 117.336C108.136 117.231 104.534 115.465 104.41 115.371C102.747 114.549 104.095 115.478 103.765 115.33C103.456 115.213 99.7626 112.805 98.6719 112.691C97.1721 111.22 99.8335 112.974 102.98 114.685C103.459 114.864 100.16 112.834 100.005 112.724C95.8383 110.167 97.9489 111.896 96.9162 111.538C96.3741 111.347 94.8463 110.075 96.2056 111.333C92.4815 109.004 94.8348 110.271 94.6093 110.095C94.2718 109.829 92.9367 109.08 92.7852 108.966C92.5609 108.797 93.4399 109.23 92.5365 108.594C92.386 108.489 90.7898 107.687 92.657 109.018C90.1073 107.322 90.233 107.601 89.5586 106.747C87.4581 106.137 88.5048 105.59 87.8409 105.107C86.0768 103.822 86.3294 104.601 86.2178 104.556C85.9419 104.443 85.133 103.922 84.1523 103.271C82.4442 102.133 80.2274 100.662 79.4547 100.251C80.1044 100.2 83.2786 102.664 84.0838 103.122C84.1266 103.146 84.1674 103.168 84.2061 103.19C85.0519 103.653 84.8316 103.452 84.3013 103.046C83.3433 102.309 81.3961 100.955 82.7078 101.453C81.8693 101.062 81.0346 100.681 80.21 100.318C79.0069 99.2476 80.9244 100.188 77.3171 98.2423C76.9848 98.2088 77.5698 98.5078 78.2097 98.8602C78.8485 99.21 79.5084 99.5851 79.1353 99.477C78.6635 99.3147 76.6341 98.2033 76.6293 98.2938C76.5083 98.2973 78.3533 99.2249 78.0178 99.1741C77.8234 99.1392 77.1663 98.795 76.5649 98.495C76.2711 98.3473 75.9764 98.2095 75.8961 98.1721C75.8543 98.1026 75.8718 98.3245 77.5228 98.366C80.0366 98.3135 81.5518 97.0625 82.0991 96.5606C82.7138 95.9776 82.8919 95.6709 83.0412 95.4546C83.291 95.056 83.2943 94.9865 83.307 94.9422C83.3033 94.9176 83.2907 94.9292 83.1292 95.1751C83.0285 95.3163 82.9319 95.5046 82.476 96.0182C82.2378 96.2713 81.9014 96.6398 81.1782 97.1175C80.4878 97.5757 79.1511 98.2087 77.521 98.2168C76.6297 98.2112 76.1892 98.0512 76.041 98.0041C75.8892 97.9479 75.9565 97.9549 76.1108 98.0174C75.9786 97.9579 75.9086 97.9228 76.025 97.9377C76.147 97.9377 76.4581 98.0706 77.5189 98.0455C79.9483 97.991 81.4734 96.7083 82.0085 96.1547C82.599 95.5373 82.7469 95.215 82.8684 94.9956C83.0704 94.5788 83.0259 94.5399 83.0028 94.5444C82.9322 94.585 82.7984 94.9167 82.7223 95.3589C82.6443 95.8001 83.1283 94.854 83.315 94.8485C83.4985 94.8557 83.6176 94.7592 82.2826 99.3833C82.0187 99.4837 83.1988 95.8074 83.1834 95.8231C83.193 95.6939 82.5165 96.1427 82.4596 96.2524C82.3674 96.4004 81.8395 98.6034 81.0949 101.179C80.1992 104.244 78.956 107.101 78.4017 108.041C78.8808 107.566 76.859 111.861 75.673 114.123C75.3175 114.821 75.0488 115.344 74.973 115.536C74.8865 115.758 75.4608 115.057 75.3616 115.291C74.7482 116.771 72.4174 120.306 71.4203 121.968C70.309 123.842 70.5815 123.681 70.5201 123.787C70.0186 124.604 70.3194 123.892 70.0167 124.394C69.7781 124.79 68.796 126.393 67.8389 127.873C66.9676 129.229 66.0836 130.509 66.0005 130.644C65.9518 130.726 66.7127 129.959 65.9252 131.146C65.7306 131.359 65.8946 131.074 63.0227 134.676C62.9406 134.775 62.8646 134.865 62.7947 134.948C62.4317 135.381 61.7796 136.115 60.9861 136.702C60.1826 137.295 59.647 137.525 60.0868 137.327C60.4778 137.149 61.336 136.591 61.8384 136.141C62.373 135.679 62.7126 135.315 62.9473 135.083C63.9047 134.139 65.0218 132.843 64.4046 133.807C63.8383 134.393 63.3898 134.847 63.0639 135.186C62.4261 135.727 61.7823 137.098 58.7018 138.234C57.1767 138.768 54.9061 138.72 53.3282 138.037C51.7133 137.375 50.7784 136.473 50.1331 135.718C49.4842 135.013 48.6338 133.341 48.3483 132.263C47.9996 131.104 47.8079 130.047 47.5894 128.952C47.5267 128.632 47.4613 128.301 47.3952 127.979C47.4661 128.295 47.5416 128.622 47.62 128.945C47.8044 129.7 48.002 130.473 48.3086 131.416C48.466 131.889 48.6454 132.414 48.9658 133.12C49.4271 133.866 49.3374 134.706 51.8853 136.8C49.8422 135.19 49.5763 134.169 49.1582 133.433C48.805 132.685 48.6149 132.123 48.4448 131.599C48.1155 130.555 47.9188 129.709 47.7448 128.918C47.5492 128.013 47.413 127.25 47.3401 126.74C47.2485 126.077 47.5607 126.569 47.3126 125.154C47.2702 124.868 46.4836 123.706 47.4137 127.461C47.2752 127.797 47.0624 125.955 46.877 125.155C46.8481 125.033 46.4399 124.592 46.4779 123.528C46.5025 123.287 47.8138 125.781 46.1246 119.018C46.0712 118.801 46.0615 119.584 46.0063 119.372C45.9675 119.227 45.771 117.475 45.7286 117.286C45.6833 117.091 45.6701 117.951 45.6122 117.72C45.3143 116.535 45.6147 114.893 45.9139 117.371C45.8631 116.535 45.8147 115.701 45.7679 114.868C45.4983 115.801 45.4852 113.59 45.3246 112.452C44.3023 105.207 44.6833 110.096 44.3902 108.865C44.2899 108.447 44.2493 108.174 44.2448 107.996C44.2337 107.652 44.3393 107.599 44.3876 107.332C44.4411 107.12 44.4213 106.497 44.233 105.966C44.2092 105.888 44.2149 106.319 44.1639 106.352C44.1394 106.37 44.0822 106.14 44.0331 105.945C44.0289 105.879 43.9471 105.809 44.2454 106.412C44.4012 106.707 44.7439 107.24 45.291 107.718C45.8309 108.201 46.4517 108.483 46.7104 108.558C46.4354 108.472 45.4792 107.996 44.8317 107.183C44.1876 106.382 44.104 105.877 44.1015 105.883C44.1996 105.867 44.227 105.871 44.3992 106.207C44.5465 106.514 45.0646 107.324 45.7176 107.827C46.3638 108.337 46.7466 108.465 46.8436 108.536C46.9546 108.602 46.9036 108.613 46.9007 108.615C46.791 108.605 46.4916 108.573 46.329 108.558C46.1527 108.541 46.0403 108.527 45.894 108.517C45.594 108.5 45.2051 108.478 43.2573 108.562C43.0806 108.57 42.8124 108.55 42.4653 108.534C42.1456 108.518 41.7349 108.507 41.3594 108.531C39.6695 108.636 40.9185 108.657 42.4651 108.682C43.938 108.701 45.4797 108.766 45.5223 108.848C45.5772 108.881 44.2563 108.845 42.4649 108.851C40.2991 108.854 37.6827 108.853 37.5355 108.831C36.3399 108.676 41.2565 108.752 40.3184 108.558C40.0482 108.511 28.1405 108.642 25.4599 108.241C22.5022 107.933 21.0772 107.15 20.9741 107.724C20.138 107.023 19.2297 107.23 18.7317 107.11C17.2363 106.737 15.926 106.333 14.4088 105.483C13.0353 104.657 10.5814 103.067 9.81222 99.243C9.32105 95.7617 10.5207 93.9892 11.1858 92.7949C11.9478 91.5876 12.7043 90.7592 13.5489 89.9053C14.3332 89.125 15.0419 88.7531 15.2653 88.5207C15.3968 88.3867 15.0137 88.466 15.678 87.8348C16.7123 86.8418 21.9476 83.032 22.2813 82.84C22.7158 82.6248 20.2561 84.5311 20.7892 84.3138C22.5938 82.9032 24.178 81.538 25.6354 80.1546C26.2322 79.5813 26.0099 79.962 26.261 79.714C26.4325 79.5928 28.0461 77.584 27.8869 77.6556C27.8038 77.7055 26.5649 79.2279 25.0367 80.5887C23.5484 81.9405 22.0845 83.0644 23.0111 82.1661C23.371 81.8205 24.8018 80.91 24.3803 80.8438C26.5706 78.943 28.392 76.7672 28.8046 75.6523C29.6947 74.5272 28.2671 70.1779 24.8623 65.8969C28.1413 69.5216 29.8008 74.2162 29.0817 75.4324C29.0639 75.4967 29.0302 75.5992 28.9824 75.7221C28.8675 76.0521 28.4949 76.7069 28.6624 76.6576C28.8651 76.3333 29.0228 76.023 29.1209 75.7764C29.3875 75.0834 29.4591 74.3973 29.1734 73.179C28.8907 71.9879 28.1909 70.4896 27.4014 69.1119C27.3427 69.0086 27.6964 69.304 27.4848 68.9113C27.1255 68.1758 25.2078 65.9289 24.914 65.4866C24.8781 65.4073 26.0642 66.654 25.8518 66.1652C25.2996 64.8995 24.5194 65.0629 23.7774 64.1398C23.2753 63.4387 19.1995 58.3709 17.8436 57.2255C16.4763 56.0634 21.0784 60.9836 20.5763 60.7228C19.3022 59.4153 18.0155 58.0333 16.7334 56.5958C14.9022 54.542 13.1573 52.4528 11.4502 50.456C11.3989 50.3961 11.7292 51.016 11.0673 50.2645C9.92289 48.9592 9.79157 48.4641 9.28201 47.79C8.72317 47.0642 6.67685 44.5276 6.47256 44.1219C6.44572 44.0711 7.01495 44.4682 7.08387 44.5465C8.02607 45.6155 8.13091 46.1702 8.20882 46.2749C8.50495 46.6616 8.88487 46.9677 9.1551 47.3097C9.60732 47.8812 9.78427 48.2484 10.3861 48.9866C10.8028 49.4966 10.537 48.8914 10.9355 49.3816C11.0806 49.5667 12.3788 51.7444 12.8574 51.6396C12.932 51.509 6.16122 43.831 2.13123 37.1635C1.7203 36.3878 1.29465 35.8953 0.722512 33.9633C0.600429 33.4531 0.418836 32.7586 0.47999 31.5488C0.507654 30.3832 1.1449 28.261 2.62708 26.9155C4.02724 25.6126 5.34071 25.2912 6.04113 25.1267C6.83691 24.9605 7.33275 24.9549 7.70884 24.9487C9.20829 24.9753 9.66453 25.1384 10.1591 25.2198C10.6182 25.3135 10.908 25.3838 11.0799 25.4203C10.5445 25.2714 9.99371 25.117 9.12738 24.981C8.70438 24.9214 8.16171 24.8416 7.28399 24.8757C6.47387 25.0208 4.69121 24.7058 2.12516 27.2832C0.957574 28.5788 0.476698 30.2161 0.384856 31.2785C0.288583 32.3071 0.393491 32.9757 0.48988 33.5113C0.689352 34.4968 0.902499 34.9874 1.08022 35.4343C1.43495 36.2735 1.7108 36.7677 1.97574 37.2541C2.01765 37.3301 2.06018 37.4063 2.10337 37.4829C2.0607 37.4064 2.01834 37.33 1.97632 37.2538C1.69988 36.7422 1.40209 36.2368 0.997777 35.2758C0.809668 34.7733 0.534946 34.2223 0.355057 32.8487C0.289513 32.1613 0.208242 31.1102 0.699835 29.6309C1.16549 28.0981 2.61691 26.4506 3.85268 25.7989C6.32528 24.5314 7.2447 24.8509 7.96805 24.7867C8.67251 24.8049 9.12453 24.873 9.51766 24.9336C10.2827 25.0592 10.8114 25.1932 11.2721 25.313C13.0856 25.8079 14.031 26.2052 14.1298 26.4921C15.0001 26.7859 15.8399 27.0809 16.6735 27.3764C26.1264 30.7521 35.4281 34.317 44.6212 37.5417C45.5379 37.8591 46.4517 38.1697 47.2136 38.3973C47.5975 38.5124 47.9478 38.604 48.1444 38.6446C48.2368 38.6646 48.2951 38.6708 48.2377 38.6654C48.1779 38.6646 48.0119 38.6339 47.5327 38.6962C46.997 38.7633 46.0797 39.0753 45.3889 39.6098C44.6941 40.1326 44.3067 40.6953 44.0989 41.0648C43.6967 41.824 43.719 42.0909 43.6913 42.3164C43.6672 42.7109 43.8491 42.7806 43.7014 41.1001C43.6748 41.5343 43.6394 41.9367 43.5881 42.2241C43.5459 42.4928 43.4383 42.7206 43.4646 42.2965C43.3954 43.0338 43.5426 41.9085 43.4269 40.2837C43.2734 37.241 42.9536 33.2883 42.8311 32.4043C42.8058 32.2253 42.4925 32.0111 42.2716 29.8957C42.0751 28.0199 42.2655 27.6959 42.2131 26.6861C42.1683 25.837 42.0214 24.8946 42.0097 24.6406C42.0012 24.4462 42.1284 24.3606 42.1078 23.892C42.0421 22.4205 41.7763 23.6441 42.073 22.1473C42.1229 22.5008 42.1727 22.8524 42.2227 23.2058C42.1189 21.4349 42.0897 18.9904 42.4309 21.5915C42.4899 22.0407 42.324 21.6675 42.3554 22.0002C43.6088 35.0571 42.8801 24.6223 42.2477 20.0401C42.2795 19.5911 42.1925 18.351 42.0797 16.9845C41.8891 14.7413 41.6538 12.0416 41.6734 11.8776C41.7088 11.5476 41.935 12.7505 41.974 11.1489C41.9764 11.0799 41.9523 10.6903 41.9323 10.0411C41.9235 9.7124 41.9134 9.33921 41.928 8.81504C41.9793 8.26675 41.8618 7.71221 42.4248 6.08045C42.6604 5.51749 42.98 4.70047 44.0548 3.73351C45.1056 2.72663 47.0973 2.22432 48.1945 2.38279C50.4138 2.6908 50.802 3.26809 51.3197 3.53704C52.1163 4.09507 52.3349 4.37057 52.6065 4.63739C52.8466 4.88775 53.031 5.10094 53.18 5.27845C53.4817 5.6398 53.6753 5.90055 53.7945 6.07177C54.0152 6.39987 53.9678 6.38594 53.307 5.67463C53.2158 5.57857 53.0587 5.39645 52.7981 5.1127C52.6694 4.97353 52.5153 4.80829 52.2981 4.59593C52.0607 4.37436 51.8574 4.14771 51.2106 3.69995C50.7242 3.44592 50.361 2.91797 48.2968 2.59086C47.2843 2.42222 45.3455 2.82466 44.2648 3.81314C43.1693 4.76032 42.8419 5.59014 42.6064 6.1507C42.1352 7.46267 42.1764 8.05206 42.1267 8.55091C42.1004 9.03842 42.1022 9.39756 42.1052 9.72066C42.1136 10.3595 42.137 10.8116 42.1524 11.0841C42.1948 10.6736 42.2095 10.1785 42.2243 9.55336C42.2329 9.23582 42.2388 8.89317 42.2698 8.42995C42.3195 7.96034 42.3009 7.38118 42.7256 6.19681C42.9433 5.67031 43.2341 4.92399 44.203 4.02296C45.1431 3.08795 46.9949 2.54973 48.0691 2.67858C50.2351 2.93223 50.6422 3.50273 51.1685 3.76273C52.0379 4.36088 52.2645 4.64514 52.5762 4.93713C52.8588 5.21821 53.0804 5.45599 53.2821 5.67535C53.6844 6.11503 54.008 6.48885 54.2885 6.81579C54.8475 7.47046 55.2153 7.92057 55.3223 8.07675C56.8673 10.3398 51.9385 3.99821 55.51 9.04148C58.0729 12.8432 55.8722 9.14042 56.9597 10.5294C57.5833 11.3115 60.1147 15.7277 60.3595 15.3983C61.3401 16.8345 60.6121 16.0913 60.7168 16.28C60.7418 16.3247 60.877 16.5251 61.0789 16.8237C61.1148 16.8763 61.2101 17.0411 61.2426 17.0958C61.7967 18.0374 62.8812 19.8745 63.2308 20.6279C63.2866 20.7489 62.9056 20.4822 62.9582 20.6104C63.0646 20.86 64.6893 23.6838 64.7678 23.7865C64.8185 23.8526 64.5951 23.0912 64.7878 23.347C65.011 23.648 66.5047 26.38 66.6302 26.4896C66.8152 26.6686 64.8903 23.3618 65.3748 23.8144C66.1999 25.3913 67.7339 27.816 68.4245 28.6312C68.2519 28.4434 67.4113 27.0244 67.135 26.5045C67.5336 26.6439 69.2884 29.5817 68.4927 28.7038C68.9696 29.2434 68.7755 28.8043 69.077 29.0664C69.125 29.1085 69.3502 29.4445 69.4912 29.6161L69.4068 29.498C69.5292 29.6481 69.655 29.7942 69.7165 29.8445C69.7282 29.8516 69.5916 29.6208 69.4977 29.4314L69.5836 29.5518C69.5306 29.4127 69.4655 29.2359 69.5382 29.2928C69.5763 29.321 69.6408 29.3944 69.7046 29.4675L69.6166 29.3443C70.1013 29.871 71.9316 32.4196 72.0007 32.6067C72.4452 33.3873 70.5609 30.8327 70.2848 30.7067C70.2577 30.6758 71.6295 33.0261 71.6102 33.061C71.5311 33.322 69.9365 30.7864 69.9619 31.1924C70.3662 31.8106 70.7619 32.4457 71.1314 33.0651C70.4774 32.232 69.4185 30.8726 68.7283 29.9951L68.8008 30.0966C67.9299 28.88 66.8469 26.9775 66.3831 26.4627C67.2203 27.8652 68.1272 29.3893 68.6453 30.2049L68.5754 30.1071C69.4623 31.356 70.2816 32.7247 69.9984 32.8447C69.8201 32.9678 68.6614 31.5989 68.6581 31.6999C68.6574 32.0128 70.2629 33.9024 70.2873 33.9795C70.3181 34.0473 70.3272 34.0826 70.3174 34.0891C70.3174 34.0891 70.3174 34.0891 70.3174 34.0891C70.2528 34.1603 68.1133 31.3281 67.9953 31.3008C67.7457 31.1304 68.3203 32.5535 68.253 32.6167C68.2314 32.6009 67.8291 32.1073 67.5041 31.7537C67.1802 31.4002 66.9323 31.1656 67.0817 31.4973C67.3884 32.1492 68.6895 33.9319 68.699 33.996C68.8659 34.3475 66.972 31.8977 66.6245 31.5365L66.6603 31.5865C66.6268 31.5484 66.6031 31.5232 66.5942 31.5193C66.5859 31.5153 66.6004 31.5516 66.6272 31.6096L66.592 31.5603C66.7499 31.8746 67.4811 33.0443 67.4775 33.1151C67.47 33.1732 66.6485 32.2443 66.1949 31.8512L66.2231 31.8908C66.1808 31.8539 66.1392 31.818 66.1001 31.7863C65.9551 31.6679 66.0013 31.8255 66.0731 31.9952L66.0474 31.9593C66.1447 32.164 66.2919 32.4079 66.2174 32.3246C66.1978 32.3023 66.1065 32.184 65.9774 32.0106L66.0018 32.0448C65.5247 31.3921 64.4224 29.5128 64.3461 29.4111C64.1981 29.2174 64.4692 29.9536 64.3833 29.8746C64.2591 29.7638 63.7646 28.8118 63.7915 28.9592C63.8041 29.047 64.9395 31.6636 65.328 32.5138L65.3151 32.4958C65.4061 32.6877 65.4553 32.8087 65.4343 32.8184C65.4003 32.8339 65.3083 32.7385 65.1904 32.5872L65.201 32.6022C64.6643 31.8712 63.5427 29.6439 64.7696 32.8817C64.7704 32.8834 64.7736 32.8883 64.7791 32.8958C64.8571 33.0019 65.4265 33.6686 65.4389 33.6929C65.683 34.2842 63.5673 31.8511 65.9484 34.9814C65.2983 34.1463 64.7932 33.5632 64.4429 33.1349C63.1326 31.3616 63.788 32.5388 64.1621 33.3253C64.1634 33.3274 64.1678 33.3333 64.1692 33.3354C64.3609 33.7055 64.4721 33.979 64.2063 33.7953C64.1454 33.7527 64.0455 33.6543 63.9213 33.517C63.9191 33.5137 63.912 33.5042 63.9098 33.5009C63.2811 32.7788 62.2371 31.0783 62.2175 31.0793C62.2026 31.4069 62.7939 32.1283 62.8861 32.4402C62.9239 32.6141 61.4488 30.4938 61.6399 31.0537C61.7191 31.3377 63.1797 33.694 63.2831 33.8141C63.3008 33.8463 63.3169 33.8759 63.3316 33.9033C63.3356 33.9095 63.3488 33.9273 63.353 33.9334C63.6724 34.4954 63.3671 34.2202 63.1697 34.0677C63.1649 34.0607 63.1498 34.0402 63.1451 34.0331C63.0565 33.9599 62.9886 33.9106 63.013 33.99C63.0188 34.0092 63.0363 34.0443 63.0626 34.0906C63.0675 34.0981 63.0835 34.1197 63.0886 34.1271C63.3132 34.5033 64.0774 35.5147 64.0853 35.5462C64.1007 35.585 63.4571 34.914 62.8766 34.2824C62.8708 34.274 62.8525 34.2493 62.8468 34.2407C62.5596 33.9053 62.3283 33.6168 62.2217 33.4975C61.9622 33.2097 62.6652 34.4609 62.5048 34.2589C61.4386 32.9654 60.2232 30.0265 61.3163 32.9826C61.3791 33.1607 62.0477 34.1944 62.0748 34.2369C62.3699 34.9839 61.0922 33.0333 60.8108 32.7835C60.2636 32.3168 62.0275 34.976 60.5169 32.7924C60.9317 33.6174 61.2805 34.2593 61.7685 34.9913C61.7776 35.0052 61.8073 35.0452 61.8168 35.0589C62.3532 35.8159 62.8369 36.4027 63.4845 37.286C62.8893 36.4718 62.33 35.8197 61.7515 35.1067C61.7418 35.0927 61.7115 35.0517 61.7021 35.0375C60.4991 33.414 59.944 32.6319 59.7803 32.6001C59.6671 32.6046 59.8865 33.3016 61.2303 35.3659C61.2412 35.3825 61.2765 35.4302 61.2878 35.4465C61.5574 35.8233 61.8443 36.201 62.1279 36.5774C61.7725 36.1003 61.4662 35.742 61.2323 35.4872C61.2208 35.4706 61.1848 35.4221 61.1738 35.4052C60.5828 34.7037 60.463 34.8011 60.184 34.3685C59.9105 33.9655 58.5777 31.0243 58.689 32.6682C58.6929 32.8671 59.8372 34.5488 59.3495 34.0994C56.9604 29.9502 59.1713 34.0549 59.1742 34.087C58.6328 34.1572 53.4868 24.225 52.5246 22.5996C52.4317 22.4432 52.3372 22.2879 52.2418 22.1342L52.413 22.4186C51.263 20.8043 50.1089 19.5644 49.8679 19.1992C49.01 17.898 49.8649 18.8817 49.7262 18.5563C49.5863 18.2113 46.859 14.7625 46.7564 14.6178C46.3434 13.9091 46.9882 14.4654 46.9489 14.3926C46.8193 14.1523 46.4838 13.6536 46.0559 13.079C45.8451 12.7962 45.6074 12.4911 45.3943 12.2397C45.2906 12.1171 45.1884 12.0041 45.1344 11.9505C45.1099 11.9258 45.0938 11.9131 45.1233 11.9425C45.1556 11.9707 45.2118 12.0389 45.4943 12.2339C45.5256 12.2549 45.604 12.3154 45.8465 12.4335C46.0972 12.5396 46.5008 12.7667 47.4887 12.8365C48.4377 12.9556 50.2067 12.4057 51.0208 11.5665C51.8682 10.762 52.0605 10.1932 52.2055 9.86428C52.4859 9.06141 52.4011 9.03892 52.4185 9.08155C52.4167 9.13823 52.4148 9.30546 52.4174 9.46913C52.4223 9.80762 52.4361 10.1634 52.4403 10.4087C52.505 10.3921 52.5029 9.58301 52.5563 9.25874C52.5818 9.0865 52.611 9.07916 52.6429 9.08575C52.6769 9.10239 52.7133 9.02216 52.7635 9.34809C52.8942 10.1942 52.866 10.9141 52.7652 11.2254C52.669 11.5672 52.5206 11.6216 52.5099 11.6549C52.609 13.0715 52.7372 14.5492 52.8689 16.0215C53.5656 23.7646 54.3878 31.5077 54.9811 39.4902C55.0447 40.5806 55.1576 41.5757 55.0744 43.2551C54.951 44.1272 55.1158 45.2386 53.7441 47.4314C53.0442 48.5085 51.6397 49.5361 50.5016 49.8935C49.3534 50.2817 48.5412 50.296 47.8948 50.2946C47.973 50.3165 48.4735 50.5277 50.1868 50.1187C51.0248 49.9043 52.4034 49.27 53.4003 48.1134C54.4021 46.9705 54.7942 45.7888 54.9917 44.9763C55.5544 41.8922 55.1509 40.7537 55.1148 39.4811C55.0352 38.5371 54.9709 37.8728 54.9789 37.8186C55.0214 37.5434 55.1271 38.2493 55.2443 39.4722C55.313 40.3615 55.4565 41.3469 55.3863 43.2086C55.2002 44.1674 55.6512 45.6075 53.3361 48.4338C52.1138 49.7649 50.3321 50.3861 49.2903 50.5194C48.2002 50.6772 47.4788 50.6042 46.9142 50.5467C44.7281 50.2412 43.7793 49.8291 42.8088 49.5332C41.9009 49.2292 41.2765 48.9956 41.0072 48.8832C42.138 49.3357 43.2516 49.7945 44.7001 50.248C43.5072 50.103 42.1148 49.6399 40.659 49.0993C38.8607 48.4311 36.9292 47.6333 35.3782 47.1707C34.4724 46.9004 36.1278 47.6398 36.0902 47.6359C35.0493 47.4119 33.4889 46.7363 34.7466 46.9909C32.2596 46.2854 32.6877 46.2295 30.8387 45.5438C30.7439 45.5086 31.4884 45.9323 30.0045 45.4569C29.3079 45.2341 25.6565 43.9038 25.126 43.8441C24.9068 43.8207 26.5658 45.0202 26.9596 44.652C30.853 46.3194 28.3028 44.9082 29.8447 45.4809C30.0827 45.5691 29.4379 45.6247 33.3848 46.9169C32.4712 47.104 28.1128 45.1357 27.3275 44.9108C25.7023 44.4475 32.1417 47.0585 33.4783 47.1354C32.7869 47.2872 33.9251 47.3518 35.3861 47.8914C36.9892 48.4819 36.2448 48.3354 37.1213 48.6474C39.4728 49.4798 38.6395 48.9149 40.4302 49.7668C40.4612 49.7813 40.4928 49.7962 40.5252 49.8114C40.4943 49.7871 40.4655 49.764 40.4387 49.742C40.035 49.3983 40.1439 49.3422 40.5377 49.4531C41.6222 49.7261 44.2299 51.1762 46.96 51.6172C43.4211 51.1295 42.2243 50.487 40.3707 49.9403C39.5105 49.6587 38.6629 49.376 37.8152 49.0906C37.9469 49.1784 38.0706 49.2634 38.2064 49.3525C37.5488 49.1156 36.8844 48.8744 36.2284 48.6349C36.3465 48.6372 36.4615 48.6384 36.581 48.6411C33.106 47.6605 32.3846 47.1016 32.1057 46.999C28.5789 45.6897 24.5119 44.2036 20.9615 42.9103C20.4335 42.719 20.7048 43.0725 16.9016 41.4938C15.6842 40.9903 16.9203 41.234 15.5091 40.7567C13.5924 40.6164 13.7617 40.2431 13.2451 40.0588C12.9172 39.9426 12.5937 39.8356 12.327 39.7527C11.3821 39.4575 10.8068 39.342 10.7021 39.3072C9.82147 39.017 8.70345 38.6413 7.84247 38.4061C7.63201 38.3487 7.45323 38.3055 7.35 38.2845C7.26565 38.2619 7.20449 38.279 7.61596 38.2995C7.85244 38.2956 8.15702 38.3407 9.0503 38.1333C9.81425 37.9708 11.8549 37.1564 12.9968 35.0918C14.0623 33.0738 13.8078 31.834 13.773 31.2627C13.6862 30.6392 13.5984 30.4342 13.5515 30.2793C13.5482 30.2694 13.5807 30.3264 13.6319 30.447C13.6879 30.5824 13.761 30.8018 13.8122 31.0005C13.8608 31.1985 13.8831 31.2077 13.829 30.8689C13.7872 30.5784 13.6302 30.1058 13.5797 30.0381C13.555 29.9884 13.498 30.0255 13.6576 30.4431C14.0482 31.5252 15.4937 34.1371 17.2582 36.1411C16.7086 35.3554 16.1762 34.574 15.6627 33.7915C16.1717 34.7185 21.319 40.8354 20.2369 39.1962C19.5549 38.2034 17.4168 36.1966 17.5637 35.6898C18.5866 37.2434 23.8739 43.5269 27.2089 47.1398C28.4846 48.544 29.4666 49.6255 29.6695 49.8914C29.7705 50.0232 28.9832 49.3581 29.1245 49.5396C29.2263 49.6656 31.6552 52.3121 31.9402 52.7289C32.1075 52.9643 30.9782 51.8124 31.0287 51.9448C31.0775 52.0267 34.05 55.5552 34.3486 55.6921C33.5608 54.8183 31.5206 52.3865 32.7223 53.5524C32.8766 53.7016 33.5217 54.6273 33.7092 54.8182C35.457 56.5468 30.6687 51.0206 29.9536 50.2952C33.0304 53.4133 37.6756 58.8064 40.6784 64.5069C41.7138 66.8588 38.7291 61.2789 39.9707 63.8645C42.3582 69.4536 40.864 65.2347 40.9612 65.3722C41.8998 66.5876 42.5869 72.4115 42.9873 72.4507C43.046 75.1638 43.1852 74.2814 42.6092 78.2566C42.7642 77.7479 42.8962 77.2252 43.0027 76.7047C42.9485 77.8678 42.6215 79.3843 42.0065 80.8328C40.2252 84.9658 37.1991 87.2309 37.4602 86.9457C38.2784 85.863 40.7146 82.5872 40.8373 82.1168C40.9365 81.9018 41.0427 81.4618 41.3111 80.56C41.6341 79.3537 42.4149 77.2427 42.5553 73.5895C42.249 72.3146 42.4916 74.7971 42.082 76.961C41.6717 79.1095 41.0495 80.7518 41.6882 77.8922C41.5675 78.4918 41.3412 79.3815 40.9308 80.4107C38.7011 86.2728 31.9773 91.299 31.1236 92.2652C30.9939 92.3967 31.9206 92.1661 29.7017 93.712C28.6532 94.4356 31.0364 92.5003 30.527 92.7948C30.1307 93.0339 28.5612 94.2493 26.5253 95.8088C25.5168 96.5877 24.3655 97.4785 23.3639 98.3448C22.8643 98.7764 22.3929 99.2241 22.1501 99.5039C22.0362 99.6278 21.9797 99.7376 22.0904 99.5532C22.1467 99.3752 22.6782 98.7675 22.44 97.0111C22.1315 95.3913 21.2273 94.6762 20.9741 94.4732C20.6622 94.2452 20.6604 94.2828 20.7417 94.3081C20.9286 94.3858 21.4589 94.5364 22.0188 94.6445C23.165 94.8709 24.5096 95.0152 25.7404 95.1128C28.2259 95.3048 30.3523 95.3386 31.3832 95.3634C31.6589 95.3697 31.5548 95.4899 31.8267 95.4949C32.6581 95.5157 35.7294 95.3627 37.2614 95.4137C34.108 95.1872 40.2198 95.1644 41.8594 95.1828C42.0933 95.1861 42.2994 95.1914 42.483 95.1981C44.3223 95.2661 44.2788 95.4503 45.3085 95.5154C46.1349 95.5744 47.0476 95.6103 48.2492 95.7489C49.4134 95.9548 51.0673 95.9248 53.5307 97.6779C54.711 98.5597 55.614 99.8884 56.0516 100.887C56.5098 101.907 56.6898 102.668 56.8381 103.313C57.1106 104.585 57.207 105.46 57.305 106.284C57.4299 107.395 57.5028 108.408 57.4833 109.212C57.9323 108.982 57.9429 114.55 58.292 117.011C58.5591 118.948 59.2924 121.667 59.0951 119.059C59.4392 121.489 59.8834 124.075 60.3689 126.176C60.5347 126.894 60.7416 127.609 60.8373 127.83C60.8568 127.874 60.8167 127.863 60.7881 127.881C60.7726 127.887 60.7586 127.895 60.7473 127.898C60.7306 127.891 60.7439 127.919 60.6557 127.749C60.6356 127.714 60.6599 127.671 60.5522 127.445C60.4811 127.318 60.4077 127.148 60.0252 126.745C59.823 126.542 59.5312 126.261 58.9635 125.935C58.4123 125.613 57.4369 125.246 56.3652 125.253C54.7884 125.278 53.9903 125.804 53.604 126.025C53.2081 126.278 53.089 126.403 53.0151 126.465C52.8902 126.582 52.9869 126.484 53.0977 126.353C55.3779 123.537 54.2599 125.25 54.8943 124.579C55.2806 124.139 55.5578 123.786 55.7528 123.521C54.9736 124.659 54.1904 125.712 53.3986 126.62C53.2568 126.789 53.1561 126.877 53.3545 126.699C53.4669 126.609 53.6508 126.433 54.1662 126.164C54.6507 125.911 55.7124 125.517 57.0001 125.689C58.2877 125.854 59.178 126.479 59.5953 126.85C60.0412 127.252 60.1843 127.481 60.3021 127.648C60.5035 127.961 60.4957 127.999 60.4999 128.004C60.4872 127.989 60.4088 127.778 60.3555 127.602C60.2978 127.415 60.2496 127.238 60.2177 127.115C60.1817 127.285 60.3078 127.872 60.373 128.05C60.3755 128.071 60.3884 128.061 60.2323 127.806C60.1462 127.677 60.0209 127.469 59.6667 127.117C59.3279 126.793 58.6125 126.171 57.3532 125.899C56.0809 125.616 54.8645 125.978 54.34 126.244C53.7736 126.521 53.5811 126.708 53.4628 126.8C53.2562 126.982 53.3633 126.887 53.5046 126.714C54.7041 125.321 55.8685 123.485 56.4751 122.657C56.516 122.602 56.5214 122.894 56.5613 122.837C56.5621 122.836 56.563 122.835 56.5638 122.833C56.7137 122.619 57.1292 121.989 57.5728 121.268C58.3955 119.937 59.2951 118.318 58.8412 118.812C58.7146 118.948 58.1392 119.869 57.3388 121.118C56.9473 121.727 56.5053 122.409 56.0365 123.104C56.396 122.509 55.9489 122.832 56.0112 122.726C56.2652 122.297 56.6742 121.682 57.1375 120.988C58.0602 119.611 59.1723 117.951 59.6468 117.188C59.8095 116.926 59.695 116.883 59.7207 116.839C60.3704 115.797 60.412 116.405 60.7404 115.137C62.2356 113.431 58.6799 118.765 59.1319 118.509C59.3937 118.403 63.0075 112.34 64.6914 108.6C65.4535 106.955 65.9166 105.769 65.8196 105.737C65.8724 105.71 65.9962 105.554 66.2086 105.218C66.7049 104.474 68.1859 100.933 68.3226 100.323C68.3498 100.217 68.0286 100.141 68.0727 100.016C68.1255 99.8628 68.6246 98.742 69.0264 97.5426C69.4837 96.1667 69.936 94.5762 70.0932 93.6388C69.7807 94.6031 69.4776 95.5293 69.1663 96.4361C70.7483 90.7735 70.4777 91.3688 69.7943 93.4588C69.7666 93.556 69.7283 93.6486 69.7009 93.7432C69.219 95.2429 68.6247 97.03 68.5878 97.0535C68.5366 97.0788 69.0377 95.2469 69.5977 93.1919C69.8952 92.1408 70.1664 91.1045 70.6794 89.8058C70.9789 89.134 71.2062 88.3825 72.3014 87.0793C72.8343 86.4569 73.852 85.6107 75.0109 85.1846C76.1618 84.7432 77.1272 84.7542 77.3593 84.7617C77.3905 84.767 77.3911 84.7728 77.3595 84.7792C77.1174 84.7759 75.1066 84.9136 73.6128 86.0786C73.2852 86.2951 72.4369 87.0672 72.0181 87.6891C71.5583 88.3313 71.2991 88.8683 71.0972 89.3156C70.7071 90.2066 70.5118 90.8542 70.3418 91.3995C70.031 92.4399 69.8886 93.0408 70.347 91.8285C70.4121 91.6623 70.5492 91.1617 70.8241 90.3602C70.974 89.945 71.1233 89.4855 71.5269 88.704C71.7426 88.3138 71.9974 87.8128 72.685 87.0572C73.293 86.3723 74.9846 84.9759 77.3617 84.9614C79.4017 85.023 79.7017 85.331 79.8705 85.3421C80.211 85.4731 80.1712 85.4873 79.8818 85.4233C79.5431 85.3801 79.0965 85.1291 77.3636 85.1204C75.5879 85.1235 74.0268 86.0408 73.3351 86.6824C72.5876 87.3515 72.2696 87.862 72.0249 88.2487C71.5591 89.0317 71.4052 89.4964 71.2512 89.9177C70.9724 90.7335 70.8427 91.3164 70.7275 91.8288C70.5135 92.8256 70.4293 93.4456 70.5815 93.1872C70.6735 92.5617 70.8199 91.8898 71.0751 91.043C71.2098 90.6109 71.3517 90.1559 71.6585 89.4637C71.8274 89.1044 71.9991 88.7025 72.4897 88.0111C72.7456 87.6698 73.075 87.2277 73.7921 86.6668C74.4779 86.1228 75.8112 85.4265 77.3672 85.4216C79.8637 85.535 80.2824 86.0063 81.0525 86.2443C82.1814 86.7152 82.4106 86.6798 82.5384 86.7347C84.205 87.5661 83.1948 87.2299 83.7264 87.5138C84.0409 87.6622 87.061 89.0503 86.2518 89.1565C95.2323 94.4966 89.248 90.3762 83.1822 86.9798C85.3205 87.9021 88.6318 90.1155 90.1434 91.0529C90.6761 91.3817 90.4709 91.0451 91.3782 91.6006C91.4733 91.6591 91.5865 91.7302 91.717 91.8138C94.1078 93.3515 101.802 98.6588 103.89 99.9849C102.494 99.1736 102.793 99.581 103.855 100.235C104.914 100.884 104.159 100.122 104.379 100.228C104.616 100.37 109.481 103.449 110.283 103.805C106.577 101.795 107.32 102.453 110.413 104.208C109.944 104.013 109.468 103.807 108.991 103.596C110.336 104.319 113.046 105.899 113.878 106.153C114.122 106.244 114.005 106.159 113.493 106.157C113.321 106.161 113.56 106.101 113.708 106.065C113.873 106.029 113.939 105.999 113.911 105.992C113.828 105.98 113.69 105.944 113.241 105.987C112.855 106.04 111.858 106.159 110.736 107.149C109.598 108.163 109.276 109.512 109.243 110.006C109.197 110.566 109.257 110.694 109.264 110.736C109.291 110.788 109.22 110.471 109.141 110.246C109.062 110.012 108.981 109.819 108.957 109.796C108.916 109.754 108.981 110.022 109.007 110.224C109.032 110.422 109.026 110.559 108.943 110.416C108.931 110.4 108.736 109.295 108.038 108.05C107.789 107.602 107.799 107.943 107.733 107.831C107.156 106.886 107.701 107.361 106.65 105.542C106.233 104.829 105.807 104.237 105.343 103.545C104.935 102.937 104.496 102.251 103.998 101.336C104.57 102.403 104.957 103.146 105.202 103.627C105.767 104.744 105.596 104.49 105.115 103.677C104.553 102.728 103.543 101.01 102.8 99.8499C102.534 99.4358 102.531 99.935 101.122 97.3506C104.755 102.461 100.426 95.6955 99.5578 94.2745C99.5124 94.1968 99.6441 94.0778 99.2249 93.3837C99.1891 93.3252 99.1389 93.4692 98.7389 92.8296C94.9253 86.7234 97.4321 90.5881 96.8199 89.3573C96.5576 88.8337 94.596 85.8968 94.0977 85.0406C93.9867 84.8507 94.1409 84.876 93.6991 84.1207C93.5662 83.8929 93.423 83.6526 93.2907 83.434C92.6445 82.3471 91.9457 81.3271 91.3961 79.8513C91.3611 79.7471 91.3802 79.6868 91.2647 79.1584C91.2077 78.8727 91.1026 78.4796 91.0066 77.6833C90.9326 76.9237 90.7924 75.4513 91.5594 73.5808C91.9894 72.5435 92.58 71.7828 92.8043 71.4802C93.0223 71.2173 92.9292 71.1551 92.1308 72.2298C91.3935 73.2198 90.7159 75.0709 90.7446 76.6226C90.7449 78.1903 91.1025 79.2466 91.396 80.055C92.0181 81.6443 92.6051 82.5609 93.1501 83.5135C94.0345 85.0157 94.9027 86.4277 95.4831 87.5558C96.3796 89.2835 94.1758 85.7404 92.9658 83.6177C92.5867 82.9576 92.2755 82.3752 92.2222 82.2724C92.1343 82.113 93.1021 83.7174 92.219 82.0189C91.9003 81.1199 90.9429 80.572 90.5346 76.81C90.3266 74.8337 91.6065 71.9602 92.7444 70.8904C93.882 69.6784 94.6924 69.2187 95.3775 68.81C95.4947 68.7408 96.0851 68.4823 96.5882 68.3056C97.0853 68.1291 97.5126 68.0069 97.4794 68.0318C97.4417 68.0582 96.8064 68.3815 96.1127 68.7974C95.4348 69.1943 94.6474 69.7799 94.9375 69.6331C94.9708 69.6135 95.5621 69.2282 96.0698 68.9572C96.5904 68.6739 97.0694 68.4515 97.1992 68.4201C97.4995 68.3502 98.5142 68.6703 98.833 68.5433C99.6697 68.2048 99.0901 68.2971 99.5847 68.0765C99.5933 68.0726 99.6023 68.0687 99.6117 68.0647C100.755 67.5611 104.675 66.0929 104.695 65.8119C104.054 66.0726 103.422 66.3308 102.778 66.5953C106.29 65.041 104.742 65.599 105.224 65.3381C105.739 65.0606 105.679 65.3272 106.866 64.8397C107.13 64.731 112.03 62.5777 111.901 62.5303C109.244 63.8346 110.142 63.1491 110.016 63.1986C109.531 63.3874 108.983 63.7899 108.342 64.0617C103.818 65.9781 108.275 63.7996 107.185 64.2001C106.812 64.3371 106.13 64.7731 105.972 64.8338C105.454 65.0335 105.385 64.876 105.047 65.0367C104.27 65.4072 105.288 65.2328 105.231 65.271C104.588 65.7122 101.734 66.7479 103.358 65.7526C102.28 66.1175 102.291 66.4641 101.409 66.712C99.6551 67.2102 102.156 66.1731 102.801 65.849C105.125 64.6726 105.876 64.4873 109.2 63.0141C110.396 62.4848 111.752 61.731 112.303 61.4836C112.653 61.3291 116.155 60.3992 115.907 59.5765C117.21 59.096 119.421 58.7271 120.694 58.117C121.838 57.568 121.34 57.4639 121.444 57.4035C121.55 57.3411 122.208 57.0443 122.755 56.7786C123.036 56.6425 123.283 56.5175 123.43 56.4316C123.955 56.1249 123.632 56.1539 124.468 55.6978C126.532 54.5595 126.604 54.8495 126.827 54.7625C129.405 53.6934 128.113 53.861 128.637 53.5477C128.961 53.3534 132.647 51.4628 134.49 50.0081C135.732 49.0633 136.61 48.4422 137.001 48.1117C136.474 48.5717 135.905 49.0551 135.298 49.5818C136.572 48.8802 137.422 47.8878 137.64 48.1493C137.549 47.5527 139.617 46.3901 139.53 46.3673C139.54 46.3502 139.495 46.2444 139.378 46.3958C139.3 46.5543 139.02 46.7149 138.711 48.0336C138.572 48.6969 138.544 49.8147 138.946 50.8852C139.338 51.9571 139.982 52.667 140.424 53.0437C141.282 53.7609 141.856 53.9184 142.152 54.021C142.456 54.1117 142.56 54.1166 142.6 54.1223C142.667 54.1254 142.483 54.1049 142.291 54.1033C141.884 54.0961 141.391 54.1252 141.167 54.1545C140.11 54.2976 140.356 54.3672 141.149 54.3986C141.529 54.4173 142.051 54.4375 142.383 54.4848C142.538 54.5055 142.658 54.5442 142.496 54.5386C142.33 54.4629 141.825 54.6965 140.12 53.396C139.346 52.8782 138.041 50.7888 138.119 49.0851C138.139 47.4282 138.564 46.8199 138.709 46.4749C138.887 46.1371 138.959 46.0499 138.998 45.9863C139.035 45.9309 139.04 45.9221 139.042 45.9165C139.035 45.9254 139.021 45.9391 138.956 46.0227C138.897 46.1069 138.778 46.2463 138.569 46.6682C138.386 47.093 137.947 47.9302 138.069 49.5961C138.167 51.2973 139.358 52.976 140.036 53.493C141.749 54.8295 142.273 54.629 142.455 54.7341C142.635 54.7696 142.533 54.7596 142.399 54.7688C142.107 54.7809 141.63 54.8238 141.302 54.8726C140.609 54.977 140.505 55.0545 141.571 55.0896C141.794 55.0998 142.077 55.0401 142.271 54.9838C142.471 54.9272 142.548 54.871 142.54 54.8652C142.557 54.8618 141.962 54.7558 141.539 54.5829C141.109 54.4119 141.058 54.3976 141.29 54.5399C141.498 54.6669 141.827 54.8158 141.988 54.8832C142.158 54.9555 142.227 54.9862 142.177 54.9808C142.007 54.8762 141.682 55.1312 139.858 53.6987C139.204 53.1844 137.959 51.4067 137.87 49.675C137.755 47.9934 138.157 47.2712 138.242 46.9559C138.307 46.7712 138.071 47.258 138.101 47.0244C138.111 46.9187 138.22 46.5531 138.396 46.2065C138.567 45.858 138.773 45.6065 138.743 45.6417C138.734 45.6245 138.725 45.6093 138.675 45.6482C138.627 45.6906 138.535 45.77 138.327 46.1038C138.151 46.4576 137.657 47.0641 137.559 48.894C137.382 50.7907 138.84 53.2576 139.723 53.8547C141.117 54.9886 141.835 55.0286 142.151 55.1364C142.478 55.2091 142.525 55.1972 142.506 55.1965C142.448 55.1861 142.106 55.1759 141.786 55.1843C141.119 55.1993 140.437 55.2535 140.235 55.2845C139.942 55.3441 141.733 55.5295 136.84 55.6727C136.903 55.7042 136.965 55.7358 137.027 55.7674C136.369 55.8496 135.703 55.9361 135.03 56.0258C132.927 56.3058 130.838 56.6072 128.751 56.9378C129.039 56.8033 130.556 56.3942 128.615 56.7253C127.497 56.9198 128.358 56.9883 128.257 57.0097C127.62 57.1338 120.103 58.3087 114.025 59.7127C110.557 60.4947 107.498 61.2638 106.279 61.5843C105.122 61.8818 101.96 62.893 101.72 62.9666C100.258 63.3655 95.1378 64.7598 94.1804 65.1118C93.5696 65.3226 94.2055 65.2929 93.6552 65.4622C93.1451 65.6203 93.6209 65.2965 93.4682 65.3392C93.082 65.4471 91.8851 65.8406 90.4984 66.3684C88.8097 67.0079 86.7758 67.8396 84.7915 68.6398C82.7763 69.3886 80.845 70.4003 77.6348 70.5386C80.7728 70.4109 83.1673 69.1252 85.0895 68.319C87.0236 67.4491 88.6314 66.7125 88.5554 66.6822C88.515 66.679 86.7969 67.2171 86.4623 67.4159C85.8216 67.5155 84.008 68.715 82.6025 69.1401C82.5232 69.1639 82.6159 69.0647 82.4209 69.0652C82.1851 69.0649 81.9005 69.1624 80.1248 69.6162C79.4007 69.6252 78.3093 70.6653 74.1 69.501C73.4105 69.3251 71.466 68.2025 70.6385 67.0226C69.7571 65.8716 69.5286 65.1303 69.3356 64.6126C69.0138 63.6285 68.9721 63.1974 68.9025 62.7761C68.7914 61.9785 68.7728 61.4418 68.7719 60.8866C68.6107 59.593 68.4499 56.5624 68.2845 53.2752C68.0359 48.3382 67.7583 42.8159 67.5683 42.219C67.5531 42.1894 67.5888 44.2606 67.4008 42.8695C67.1509 41.0262 67.7189 42.6618 67.6293 40.4987C67.6169 40.1716 67.2026 34.1708 67.16 33.9764C66.7847 32.1751 67.003 37.4261 66.967 37.3553C66.8797 37.1759 66.5638 32.8229 66.5699 32.644C66.5783 32.4744 67.1487 36.0051 66.7491 31.7445C66.7386 32.2388 66.7274 32.7261 66.7165 33.2196C66.5098 31.2171 66.7379 31.0134 66.7216 30.5237C66.6717 29.0102 66.2014 27.3988 66.4907 24.9567C66.5672 24.3062 66.7723 25.3654 66.7846 25.2804C66.894 24.4976 66.3968 23.5559 66.6376 22.3796C66.6546 22.2938 67.0391 24.9502 66.7056 20.2797C66.6979 20.5972 66.6914 20.9355 66.6829 21.2499C66.6256 20.9295 66.5029 19.5998 66.3837 18.2868C66.2623 16.9362 66.1402 15.5997 66.1208 15.2942C66.0018 13.4762 66.3732 15.0343 66.1696 13.2358C66.0751 13.8279 65.8872 12.7398 65.7365 11.6436C65.6619 11.0987 65.5935 10.561 65.5683 10.2611C65.5406 9.94759 65.574 9.91097 65.6419 9.90897C65.6 9.89944 65.5545 9.86128 65.5669 9.98536C65.579 10.0581 65.5946 10.1622 65.722 10.4668C65.8324 10.7347 66.1992 11.4654 66.8723 12.1337C67.2674 12.5167 67.889 13.0924 69.1208 13.5452C70.3265 14.0203 72.1607 14.0054 73.3147 13.5535C75.643 12.595 75.8902 11.7198 76.23 11.3311C76.3017 11.2106 76.1739 11.4112 76.0592 11.652C75.9361 11.9032 75.7926 12.2287 75.6535 12.5715C75.3743 13.2585 75.1133 14.0076 74.9392 14.5831C74.5601 15.7849 74.0354 18.5086 73.9275 18.9274C73.7992 19.3958 73.6345 19.2545 73.4052 19.955C73.3846 20.019 73.3634 20.09 73.3414 20.1693C73.2644 20.4581 72.7527 23.4308 71.986 25.9003C71.8368 26.3805 71.2489 27.3288 71.3474 26.3997C71.5134 24.8123 72.4824 21.8965 72.2556 21.8819C72.0065 21.8803 71.2564 25.9176 71.0127 26.971C69.877 31.8512 70.2036 28.9674 70.0969 29.0798C69.84 29.3742 69.3582 32.0418 69.332 32.144C69.1779 32.5909 69.3577 30.684 69.2545 30.6322C69.106 30.5725 68.402 33.0938 68.4527 32.5028C68.5097 31.6607 69.1753 29.3192 69.1986 29.1654C69.4452 27.1653 68.5686 29.8032 68.2718 30.5173C68.1787 30.7341 68.2605 29.8179 68.211 30.0025C67.4673 32.8184 68.5716 30.6934 68.2052 32.5702C67.8987 34.237 68.0138 32.0466 67.9954 32.1072C67.9618 32.1903 67.6397 34.191 67.5275 34.4862C67.4213 34.6619 67.8686 29.3309 67.6635 29.5009C67.3854 31.2032 67.1383 32.8972 66.9638 34.5632C66.6806 34.663 67.2226 32.2838 67.2485 32.0265C67.2789 31.5136 66.9191 32.8978 66.8504 32.825C66.8015 32.7871 66.8901 31.0989 66.571 32.5842C66.4676 33.0954 66.4582 34.2012 66.0874 36.0195C66.6886 29.5215 65.9573 33.9794 65.8289 34.1695C65.7115 34.3506 65.9292 31.1858 65.4535 34.992C64.9372 35.0968 65.298 34.8925 65.3596 33.7971C65.4583 32.4505 64.7838 35.506 65.7135 30.6506C65.4114 30.8841 64.8246 34.8206 64.8127 35.0223C64.7736 35.2012 64.7655 34.3114 64.6883 34.6191C64.5241 35.2738 64.4172 35.7381 64.3425 36.0485C64.0017 37.4984 64.2404 35.9419 63.9231 36.8062C63.885 36.902 63.4752 40.4354 63.664 37.737C63.7091 37.1093 63.7572 36.542 63.8078 35.9991C64.1952 32.3181 64.7475 30.7188 64.2466 29.8903C63.7122 31.8616 63.4248 34.1333 63.3528 35.9571C63.2928 37.4184 63.2896 38.5671 63.2519 39.0653C63.1248 40.7631 63.1233 38.9877 63.0655 39.1978C63.0452 39.2721 62.9417 40.7307 62.9293 40.7544C62.5395 41.3853 62.8257 38.6487 63.1663 35.9398C63.3675 34.3181 63.6675 32.7287 63.7752 31.8425C63.592 32.4634 63.415 33.0881 63.2469 33.7184C63.3623 32.8493 63.4946 31.9837 63.6375 31.1213C62.8242 35.2136 63.5333 31.2561 63.2958 30.1562C63.2387 29.9066 62.9298 32.6436 63.2052 29.5096C62.7389 31.7757 62.7698 31.0325 62.5762 33.135C62.3826 33.0493 62.9745 28.3442 63.2805 26.5192C61.8636 32.9453 63.1066 29.3216 61.9772 34.977C62.0714 36.0686 62.3513 33.3187 62.3687 33.5523C62.3804 34.0144 62.2371 34.8105 62.1804 35.8487C62.1399 36.6149 62.1335 37.5048 62.2478 38.4749C62.2923 38.842 62.6471 37.3345 62.4494 39.5925C62.4267 39.8392 62.1209 41.2651 62.1091 41.2457C61.9691 41.0381 62.1376 39.6152 62.0789 39.5579C62.0221 39.4925 61.9345 41.0887 61.9184 41.0962C61.7225 41.1225 61.9465 39.7655 61.8716 39.9569C61.7056 40.3723 60.8598 46.0943 61.5567 38.6054C61.2897 44.8421 61.6864 39.4102 61.8253 36.9977C61.8525 36.5087 61.7958 36.3129 61.7912 35.8127C61.7901 35.6734 61.7936 35.5106 61.8057 35.3106C61.8739 34.1351 62.1259 32.8001 62.1974 32.2078C62.2816 31.5721 61.4163 35.1274 62.3605 29.9384C61.9398 31.4211 61.602 33.609 61.4171 35.7782C61.2867 37.3232 61.1677 38.7949 60.9995 39.8976C60.2946 44.6333 60.7039 37.7164 60.8658 35.7272C60.881 35.5151 60.8937 35.3531 60.8996 35.2624C60.9156 34.9998 60.6744 35.8602 60.6825 35.6851C60.6408 35.3525 61.4694 30.208 61.4658 29.7098C61.4253 29.188 61.1479 31.5681 60.9971 31.7114C60.8587 31.7853 61.8348 25.6603 61.158 28.9468C60.7637 30.8205 60.502 34.122 60.2419 35.6695C60.1855 35.9715 60.1209 36.1881 60.0435 36.3011C60.0606 36.0899 60.0782 35.8749 60.0963 35.6561C60.391 32.2997 60.9548 29.1787 61.5497 26.0671C61.0359 27.8504 60.5423 29.6527 60.0963 31.5061C60.6731 27.6556 61.5313 24.4995 62.0941 20.9698C59.7972 29.2771 62.3197 18.145 62.3007 18.0545C62.2774 17.9998 61.1643 21.1929 60.98 21.7147C61.1524 20.6879 61.5025 18.9425 61.8048 17.3543C62.4067 14.2119 63.0295 11.4306 61.8152 14.9009C62.1465 13.9536 62.5517 11.4757 62.5354 11.49C62.1926 11.7659 61.0356 17.0155 61.0725 16.1111C61.0863 15.0815 61.7066 13.7789 62.1085 12.2331C63.2837 7.97446 63.3866 6.5759 64.6905 3.83031C65.1885 3.10211 65.5911 2.10436 67.8378 0.833659C68.9456 0.227477 70.977 -0.270505 72.8669 0.164692C74.7583 0.576011 75.9694 1.52541 76.6892 2.2098C77.5719 3.03757 78.2105 4.14687 78.4717 4.72324C78.7641 5.35178 78.9005 5.76896 79.02 6.13881C79.2425 6.85046 79.3594 7.37319 79.4681 7.90697C79.6773 8.96135 79.8132 10.0207 79.9252 11.3193C79.9472 11.1574 79.9684 10.9919 79.9889 10.8231C80.2162 13.0217 80.3718 15.1017 80.5201 17.1875C80.9506 23.4333 81.2836 29.5887 81.6182 35.7592C82.1518 38.9517 82.862 47.4831 83.0713 51.6689C83.0791 51.8227 83.0878 52.0831 83.096 52.3973C83.136 53.8891 83.1842 56.6932 83.1768 56.939C83.1531 57.5164 82.9345 54.3716 82.9125 55.8066C82.911 55.9282 82.9746 57.3498 83.0768 58.7645C83.1252 59.4431 83.1973 60.1935 83.2456 60.4431C83.2557 60.4979 83.2638 60.5142 83.2504 60.4323C83.2336 60.3505 83.2105 60.17 83.0429 59.708C82.8761 59.2751 82.4977 58.341 81.4843 57.3338C80.4553 56.3155 79.3404 55.8905 79.04 55.7751C78.6274 55.6145 78.4795 55.5719 78.6631 55.5935C78.7814 55.6252 78.9151 55.6657 79.0607 55.7175C79.3713 55.83 80.1046 56.112 80.9156 56.7342C81.7333 57.352 82.3563 58.1684 82.6677 58.7132C83.293 59.8472 83.2709 60.1571 83.3326 60.3391C83.3896 60.6397 83.3266 60.3781 83.299 60.1562C83.2296 59.6604 83.1718 59.0255 83.1796 58.8565C83.1988 58.4192 83.2479 58.6099 83.3199 59.1925C83.3558 59.4768 83.4003 59.8808 83.4468 60.2135C83.4665 60.3655 83.5034 60.5476 83.4761 60.3885C83.443 60.2798 83.4686 60.1531 83.1289 59.3344C82.9481 58.9414 82.6259 58.2268 81.7806 57.3363C80.9516 56.4247 79.5748 55.7366 79.1046 55.5955C77.7594 55.1221 76.8674 55.2821 76.6782 55.3027C76.4519 55.3426 76.635 55.3136 76.9038 55.2217C77.4701 55.0373 78.4197 54.6672 79.3749 54.2896C81.3176 53.5176 83.4366 52.6909 85.1936 52.0451C87.6767 51.1357 89.4094 50.604 89.6964 50.4721C89.1923 50.5683 88.6907 50.6664 88.1862 50.7688C89.5802 50.3404 90.9608 49.9429 92.3305 49.5639ZM65.9239 19.8116C65.8211 19.4832 65.7585 18.9317 65.7104 18.3392C65.6414 17.4836 65.5973 16.5124 65.5073 15.8326C65.3 14.1921 64.2912 11.6763 65.1363 12.7219C65.3758 14.5137 65.5812 16.4205 65.7764 18.334C65.8255 18.8142 65.8756 19.3188 65.9239 19.8116ZM67.8874 55.6697C67.8887 54.0064 68.3691 55.2603 68.2854 56.6448C68.2756 56.7912 67.89 57.9413 67.8874 55.6697ZM67.0495 38.3712C67.0592 38.441 67.1346 39.863 67.1313 39.9141C67.0461 41.2003 66.8192 36.9069 67.0495 38.3712ZM134.128 55.8183C132.375 56.0677 133.693 56.2628 134.77 55.9717C134.836 55.9534 134.248 55.8016 134.128 55.8183ZM132.878 55.9743C131.463 55.8287 128.829 56.8923 130.991 56.5104C131.203 56.4715 132.937 55.9811 132.878 55.9743ZM67.6988 49.7731C67.8362 49.9537 67.8756 51.6582 67.8882 52.3829C67.7723 52.3811 67.7545 50.4772 67.6988 49.7731ZM106.543 61.3517C106.582 61.2257 100.999 62.7085 100.666 62.9535C101.517 62.6449 106.498 61.4451 106.543 61.3517ZM120.883 57.9812C120.736 57.989 118.804 58.3928 118.877 58.4699C119.843 58.392 121.538 57.9367 120.883 57.9812ZM137.988 46.3097C137.964 46.3433 138.256 46.2947 138.269 46.4083C138.265 46.53 138.087 46.7627 136.591 47.6242C136.161 47.8723 137.496 46.7132 137.327 46.8089C137.03 46.9828 136.787 47.1384 136.594 47.2753C137.914 46.2701 138.641 45.5862 138.623 45.6354C138.744 45.6269 138.734 45.6778 138.546 45.8524C138.365 46.0216 138 46.2944 137.988 46.3097ZM126.106 54.4005C125.857 54.6324 123.926 55.5262 123.466 55.7002C123.388 55.7295 123.613 55.3579 122.751 55.7877C122.232 56.0455 122.742 55.9579 122.459 56.1511C122.365 56.2156 122.182 56.3114 121.826 56.4665C120.428 57.0719 122.202 56.0565 122.075 56.1003C121.91 56.1637 119.805 57.2519 119.808 57.0907C119.815 56.9907 121.492 56.2666 122.327 55.8703C122.485 55.7958 122.614 55.7335 122.699 55.689C123.403 55.322 122.462 55.5774 123.677 55.0368C124.437 54.6953 124.155 55.1753 124.321 55.112C124.467 55.063 126.978 53.6063 126.101 54.4017C126.103 54.4013 126.104 54.4009 126.106 54.4005ZM136.248 47.5435C136.342 47.4624 136.455 47.3733 136.594 47.2753C136.48 47.3635 136.364 47.4535 136.248 47.5435ZM66.3925 24.5181C66.355 25.375 66.0618 22.8583 66.1181 21.8984C66.2179 21.8676 66.3995 24.3895 66.3925 24.5181ZM135.091 48.6966C134.543 49.0761 134.188 49.3224 134.033 49.4152C133.951 49.4556 133.947 49.4366 134 49.3729C134.279 49.0892 135.296 48.2763 136.248 47.5435C135.716 48.002 135.836 48.183 135.091 48.6966ZM86.4623 67.4159C86.5652 67.4 86.6391 67.4095 86.6685 67.4614C86.3965 67.4995 86.3556 67.4784 86.4623 67.4159ZM91.6806 65.5583C92.9943 64.9633 91.1372 65.5592 90.3328 65.921C90.0667 66.0366 89.8938 66.1259 89.909 66.1514C89.9182 66.1649 90.1069 66.1058 90.3682 66.0168C90.8525 65.8521 91.6345 65.5788 91.6806 65.5583ZM136.389 55.5501C136.207 55.5559 138.882 54.6798 134.972 55.5698C134.963 55.5719 134.954 55.574 134.945 55.5761C134.954 55.5752 134.964 55.5743 134.973 55.5734C136.768 55.4021 135.412 55.6232 134.991 55.7206C134.921 55.7371 134.878 55.7499 134.884 55.7562C134.893 55.7679 134.934 55.7734 134.998 55.7737C135.65 55.7682 138.619 55.3097 139.285 55.3069C139.867 54.9966 136.996 55.5259 136.394 55.5496C136.392 55.5497 136.391 55.5499 136.389 55.5501ZM100.257 65.7654C100.677 65.4205 102.188 64.8072 103.194 64.3814C102.783 64.7155 101.279 65.3195 100.257 65.7654ZM13.868 30.4555C15.4241 32.8526 16.7307 34.6477 16.7827 34.9088C16.9081 35.2208 15.8966 34.1314 14.3477 31.6283C14.26 31.5049 13.6337 30.1906 13.868 30.4555ZM34.5281 90.7643C33.7744 91.112 35.667 89.3399 36.9887 88.0175C37.2865 87.7315 38.5226 86.6995 37.3696 88.0913C37.1747 87.8725 35.2518 89.7356 34.5281 90.7643ZM133.992 49.7276C133.687 50.19 132.077 51.1232 131.148 51.6324C131.644 51.1877 133.371 50.1532 133.992 49.7276ZM27.9747 48.4277C28.4822 49.0144 29.001 49.2554 28.924 49.1433C28.5795 48.6393 27.4775 47.6929 27.9747 48.4277ZM139.007 45.9444C139.06 45.9609 138.954 46.1518 138.525 46.5107C138.122 46.8507 137.521 47.2487 137.374 47.202C137.607 47.0401 138.126 46.646 138.481 46.3539C138.851 46.0509 138.984 45.921 139.007 45.9444ZM102.192 64.9971C102.647 64.8541 100.445 65.9175 99.7326 66.1843C99.7544 66.053 101.897 65.0868 102.192 64.9971ZM36.6082 58.4382C37.0653 59.07 38.2001 60.7394 38.3951 60.893C38.6521 61.0493 36.9405 58.618 36.6082 58.4382ZM47.4692 17.3183C47.4847 17.4091 45.7842 15.4167 45.2224 14.5345C44.1379 12.7822 47.4254 17.1435 47.4692 17.3183ZM23.1169 43.1247C21.8872 41.3674 23.2736 43.2987 23.3819 43.0822C22.4416 41.9915 20.1733 39.2551 21.5764 41.2709C21.8519 41.6651 22.6866 42.6046 23.1169 43.1247ZM24.3539 44.6616C24.5568 44.7853 25.7502 45.7954 24.8546 44.8041C24.4445 44.3499 23.5979 43.7621 24.3539 44.6616ZM54.1381 15.1101C54.1277 16.0927 53.9418 14.3418 53.7978 12.3829C53.7269 11.4122 53.6707 10.3771 53.6651 9.73158C53.6614 9.41293 53.6718 9.20121 53.68 9.16461C53.6897 9.11802 53.681 9.27419 53.6795 9.30607C53.6807 9.43622 53.6571 9.63686 53.6397 9.76104C53.6046 9.86297 53.5519 10.0437 53.4322 10.3388C53.2795 10.6667 53.1184 11.2053 52.2724 12.1578C51.5223 13.1258 49.2558 14.2489 47.7527 14.1448C46.2496 14.1162 45.6508 13.7633 45.2862 13.6213C44.9328 13.456 44.8177 13.3775 44.7493 13.3461C44.3668 13.0957 44.2875 13.0229 44.2128 12.9821C44.1475 12.9449 44.1206 12.9451 44.0976 12.9555C44.1557 12.9939 44.1077 13.0082 44.6975 13.4234C44.7785 13.4715 44.9224 13.5887 45.4357 13.8121C45.9264 13.9916 47.0069 14.5004 48.9884 14.1362C51.0223 13.7509 52.4412 12.2628 52.8599 11.6075C53.3506 10.8832 53.4377 10.5596 53.5174 10.3718C53.5344 10.326 53.5471 10.2893 53.5559 10.2625C53.635 10.02 53.6633 9.87971 53.6798 9.78977C53.7493 9.60284 53.8159 9.26912 53.828 9.19655C53.844 9.10821 53.8396 9.21894 53.8451 9.43491C53.8533 9.87951 53.8896 10.698 53.9357 11.5226C54.0287 13.1899 54.1422 14.9318 54.1381 15.1101ZM55.319 30.0085C54.8228 27.7775 55.2751 27.3365 55.3092 27.5283C55.738 29.9632 55.2274 28.396 55.2176 28.4734C55.2055 28.6471 55.534 30.3772 55.3183 30.0014C55.3186 30.0038 55.3188 30.0061 55.319 30.0085ZM54.3305 18.1412C54.3155 18.0537 54.1598 16.1798 54.1613 16.1022C54.163 16.0149 54.166 15.9504 54.1701 15.9053C54.1805 15.7821 54.1985 15.7963 54.2205 15.9008C54.3338 16.4343 54.5678 19.5043 54.3305 18.1412ZM115.738 59.5845C114.489 60.0769 115.623 59.3845 116.462 59.0862C116.531 59.0627 116.836 59.1497 115.738 59.5845ZM25.0867 45.4203C25.1519 45.5134 25.9154 46.4181 26.8456 47.4678C28.3877 49.2021 30.4856 51.4902 30.4035 51.1498C30.1516 50.889 28.3875 48.9101 26.9776 47.3487C25.6387 45.8624 24.5608 44.6616 25.0867 45.4203ZM22.8159 100.073C22.722 100.221 22.7671 100.176 22.7804 100.2C22.8008 100.211 22.8163 100.239 22.8487 100.24C22.8787 100.242 22.9431 100.2 23.0529 100.02C23.1675 99.8262 23.3382 99.4691 23.4407 98.8947C23.5029 98.4593 23.3975 98.9325 23.2121 99.3657C23.0376 99.7706 22.8564 100.006 22.8159 100.073ZM142.481 54.4559C142.659 54.5194 142.549 54.4979 142.513 54.4763C142.464 54.4516 142.434 54.4098 142.447 54.3698C142.457 54.3297 142.513 54.2918 142.561 54.2756C142.599 54.2559 142.671 54.2757 142.444 54.2748C142.404 54.273 142.452 54.4455 142.481 54.4559ZM29.9287 94.4204C26.0986 97.6224 26.4428 96.4224 31.8469 92.3428C31.7059 92.5101 31.5649 92.6764 31.4241 92.8415C37.5958 87.5695 31.8664 92.6428 30.4228 93.7995C29.8715 94.2682 30.4276 93.9948 29.9332 94.418C29.9317 94.4188 29.9302 94.4196 29.9287 94.4204ZM23.1366 93.9726C24.8583 94.4749 24.2662 94.4725 22.9276 94.2741C22.2944 94.1756 21.4716 93.9838 21.0855 93.8305C20.9089 93.7705 20.8404 93.6818 21.1991 93.9055C21.3716 94.0221 21.6904 94.2507 22.0703 94.7284C22.4653 95.2166 22.8889 96.0347 23.0342 96.9061C23.2557 98.3181 22.933 99.057 22.82 99.3868C22.9872 99.0053 23.2839 98.1429 23.091 96.896C22.8943 95.6203 22.2178 94.6923 21.8534 94.3044C21.4452 93.8708 21.2528 93.7608 21.1438 93.6743C20.9437 93.533 21.0489 93.5715 21.0849 93.5556C21.1327 93.5481 21.1207 93.5176 21.086 93.4685C21.0789 93.4493 21.0609 93.4144 21.1967 93.4633C21.3264 93.5684 21.6627 93.4708 22.6781 94.8216C21.8687 93.6612 21.4483 93.5552 21.2803 93.4209C21.109 93.3224 21.111 93.3352 21.1504 93.3495C21.2388 93.387 21.4626 93.461 21.6435 93.5145C22.0038 93.6217 22.2232 93.6871 22.2678 93.7245C22.3699 93.801 21.9486 93.7781 22.0339 93.8054C22.2133 93.8706 22.9703 93.925 23.1366 93.9726ZM24.8876 98.1993C25.0487 98.0382 26.6448 96.9206 27.2275 96.4431C26.48 97.2611 23.7027 99.3195 24.8876 98.1993ZM47.1103 51.5174C47.2093 51.4867 47.3506 51.4627 47.5905 51.4418C47.827 51.4185 48.1517 51.407 48.7166 51.3477C49.2934 51.2645 50.1385 51.2345 51.6346 50.5474C53.1428 49.935 54.9942 47.9006 55.5034 46.3323C55.3319 46.8186 55.0551 47.5315 54.3913 48.4207C53.757 49.2945 52.6094 50.2548 51.4971 50.7471C49.1717 51.7358 47.9011 51.5048 47.1103 51.5174ZM66.6242 18.2257C66.5522 17.1236 66.4243 14.9716 66.3183 15.6446C66.3141 15.7228 66.5335 18.2143 66.6242 18.2257ZM40.4086 65.2706C40.4645 65.4039 41.3372 67.2559 41.8574 69.0167C42.3894 70.7636 42.6193 72.2938 42.4304 70.7192C42.3795 70.2344 41.8188 68.0503 41.1545 66.5727C40.5075 65.0769 39.931 64.1226 40.4086 65.2706ZM19.7244 39.2918C20.0312 39.6747 21.3436 41.205 21.4031 41.2151C21.5838 41.2376 19.9489 39.3811 19.7244 39.2918ZM66.2999 12.7915C66.3012 12.7286 66.21 11.8923 66.1008 11.1865C65.9914 10.4626 65.8758 10.0105 65.861 10.1353C65.8114 10.4948 66.301 13.2699 66.2999 12.7915ZM111.395 61.8656C111.137 61.9831 110.725 61.9762 110.635 62.0131C110.427 62.1007 105.662 64.2158 107.407 63.231C107.708 63.0644 114.597 60.1932 115.475 59.8229C115.911 59.8871 112.916 60.9504 112.212 61.2783C112.089 61.3364 112.085 61.5496 111.397 61.8638C111.396 61.8644 111.395 61.865 111.395 61.8656ZM55.9251 37.3294C55.7687 37.085 55.1336 30.9362 55.3131 30.997C55.5254 33.094 55.7339 35.1949 55.9251 37.3294ZM56.1294 40.5932C56.1102 41.5597 56.0277 40.4676 55.9449 39.4241C55.8978 38.8052 55.8539 38.1469 55.8446 37.8031C55.902 37.7963 55.9952 38.6439 56.0576 39.4163C56.103 39.9708 56.1311 40.4985 56.1294 40.5932ZM26.694 48.2021C26.9317 48.435 26.7099 48.0811 26.5173 47.7642C26.3552 47.4993 26.2118 47.2585 26.351 47.3849C26.4022 47.4317 26.4972 47.5378 26.6164 47.6747C26.9494 48.0574 27.4852 48.6936 27.739 48.8986C27.8372 48.975 27.0505 47.8087 26.7835 47.5249C26.7833 47.5247 26.7831 47.5245 26.783 47.5243C26.3963 47.113 26.6439 47.6256 26.2322 47.1695C24.8683 45.6557 23.763 44.2241 22.5229 42.7808C22.4105 42.6506 23.1913 43.7344 22.2411 42.6226C22.0925 42.4478 21.3339 41.3055 20.2087 39.9813C17.4078 37.3611 15.8686 34.7068 13.3805 31.214C13.3438 31.3159 15.1823 34.2049 15.3336 34.3823C17.5677 37.6304 22.3113 43.3109 25.202 46.5245C25.9395 47.3518 25.6656 46.8798 25.9852 47.2307C26.2036 47.4698 25.9007 47.3567 26.384 47.8845C26.4634 47.971 26.5645 48.0751 26.694 48.2021ZM66.7806 18.7934C66.8177 18.6697 66.8323 18.4795 66.8321 18.2519C66.8293 17.4565 66.6508 16.1814 66.5798 15.2959C66.4544 15.6444 66.6623 17.1188 66.7487 18.2584C66.763 18.4454 66.7744 18.6266 66.7806 18.7934ZM24.5524 43.69C23.9879 43.4924 22.2741 42.8026 22.1089 42.8075C21.8971 42.8151 24.3852 43.7757 24.5524 43.69ZM95.8487 88.4041C95.8813 88.4483 96.6241 89.6972 96.6465 89.7457C97.1771 90.9378 94.9548 87.1974 95.8487 88.4041ZM112.922 104.922C112.135 104.59 111.231 104.182 111.021 103.882C111.578 104.221 113.077 104.877 112.922 104.922ZM68.5046 97.5102C68.797 97.372 67.7502 100.001 67.4939 100.53C67.5103 100.285 68.3546 97.5649 68.5046 97.5102ZM46.6758 50.7893C48.5316 51.1389 51.3238 50.4927 52.6785 49.2156C54.0541 48.046 54.838 46.5648 55.2844 44.8536C55.3617 44.5697 55.6059 44.1036 55.7184 44.3093C55.769 44.4148 55.8159 44.673 55.6513 45.4248C55.5545 45.8162 55.4198 46.3497 54.9724 47.1931C54.554 47.9902 53.5812 49.3238 52.0264 50.1541C50.9532 50.6984 52.4799 49.8324 52.4545 49.7345C52.4538 49.6797 52.0398 50.037 50.8193 50.4773C49.5985 50.9214 47.9502 50.9973 46.6758 50.7893ZM32.7087 91.61C33.0373 91.1384 34.3813 89.9882 35.2753 89.1028C35.154 89.3946 33.3369 91.0681 32.7087 91.61ZM75.5529 11.2699C75.6103 11.1795 75.666 11.0858 75.7148 10.9962C75.7246 10.7922 75.3111 11.583 75.0797 12.3374C74.8373 13.0859 74.7124 13.7222 74.9089 13.3184C74.9153 13.2235 75.8419 10.6646 75.7362 11.0101C75.6763 11.1016 75.611 11.1931 75.5529 11.2699ZM130.754 52.59C129.419 53.5362 132.394 51.9019 133.085 51.2226C132.743 51.4793 130.857 52.5296 130.754 52.59ZM82.4087 86.2765C82.3535 86.2547 81.8214 85.976 81.0789 85.6633C80.7093 85.5083 80.2712 85.3421 79.8186 85.2074C79.3729 85.0715 78.9062 84.9813 78.8221 84.9658C78.1185 84.8197 77.579 84.8086 77.5627 84.7919C77.5254 84.7781 77.9762 84.7641 78.5034 84.8283C79.6229 84.9625 80.5682 85.3157 81.2335 85.5979C82.5447 86.1719 83.3818 86.7044 82.4087 86.2765ZM107.577 107.783C107.769 108.013 108.329 109.079 108.662 109.965C108.829 110.398 108.924 110.788 108.9 110.82C108.89 110.833 108.851 110.746 108.826 110.509C108.8 110.284 108.804 109.891 108.876 109.496C108.765 109.871 108.721 110.322 108.724 110.569C108.725 110.819 108.743 110.893 108.723 110.842C108.689 110.733 108.511 110.21 108.29 109.68C107.845 108.597 107.319 107.473 107.577 107.783ZM37.5704 48.1444C38.619 48.51 39.622 48.885 40.6039 49.26C40.9165 49.3788 41.1931 49.4859 41.508 49.6055C41.412 49.6068 41.0578 49.5012 40.5777 49.3366C39.434 48.9461 37.6571 48.2374 37.5704 48.1444ZM69.7943 93.4588C69.7666 93.556 69.7283 93.6486 69.7009 93.7432C69.7326 93.6453 69.7642 93.5506 69.7943 93.4588ZM7.94258 37.5167C7.54662 37.3923 7.49458 37.4305 7.45816 37.4685C7.42938 37.5097 7.43994 37.5643 7.45104 37.5696C7.57801 37.6245 7.98608 37.6993 8.19889 37.7158C8.42458 37.7363 8.40981 37.6676 7.94258 37.5167ZM66.9742 17.4347C67.1231 17.0052 66.82 15.0528 66.7547 13.9488C66.6456 14.2769 66.8844 16.514 66.9742 17.4347ZM27.5231 94.7744C28.9078 95.0746 23.177 94.9077 22.3567 94.521C22.1547 94.4528 27.249 94.7865 27.5231 94.7744ZM134.871 50.2175C135.111 50.1983 137.167 48.492 136.664 48.7753C136.382 48.921 134.773 50.1707 134.871 50.2175ZM20.8162 94.0385C20.7896 94.0584 20.9319 94.0536 21.3872 94.3961C21.8314 94.7246 22.3298 95.3977 21.947 94.791C21.4809 94.1273 21.0599 93.9565 20.9485 93.9538C20.8165 93.9473 20.8272 94.0379 20.8162 94.0385ZM32.5705 54.9771C32.7302 55.1713 35.1359 57.9102 34.3031 56.6479C33.722 55.7683 33.4567 55.7786 33.301 55.5908C33.1313 55.3521 29.5912 50.897 32.5705 54.9771ZM58.3899 112.09C58.1694 110.844 58.0336 109.309 57.8576 107.986C58.0146 108.514 58.4342 111.543 58.3899 112.09ZM127.327 54.7968C127.718 54.7511 134.401 50.9423 130.542 52.9712C130.351 53.1017 126.465 55.0577 127.327 54.7968ZM46.6758 50.7893C46.2028 50.7261 45.715 50.6258 45.2506 50.504C45.7135 50.6167 46.2002 50.72 46.6758 50.7893ZM23.9154 43.0824C24.3846 43.1432 22.2113 42.3213 21.5503 42.1395C21.3116 42.187 23.8492 43.0736 23.9154 43.0824ZM57.7013 107.905C57.614 107.486 57.54 106.883 57.4681 106.262C57.4081 105.745 57.3466 105.193 57.2684 104.696C57.3307 104.781 57.4659 105.553 57.5574 106.25C57.6545 106.979 57.7279 107.725 57.7013 107.905ZM67.0546 102.756C66.4413 104.042 65.7027 105.667 65.7962 105.743C65.7666 105.763 65.719 105.818 65.6509 105.915C65.5851 106.014 64.9557 107.444 64.6115 108.037C64.4997 108.232 64.4201 108.363 64.37 108.438C64.2958 108.548 64.2876 108.532 64.331 108.419C64.9864 107.21 70.1216 95.3378 66.6089 104.298C66.7634 103.782 66.9123 103.268 67.0546 102.756ZM105 102.615C104.698 101.809 103.319 99.8413 103.588 100.405C103.78 100.797 105.306 103.423 105 102.615ZM99.6184 97.7445C99.8196 97.9083 101.834 99.0894 101.926 99.0559C100.843 98.2701 98.7065 97.0082 99.6184 97.7445ZM101.774 96.8748C101.513 96.401 100.957 95.9307 100.981 95.9901C101.195 96.504 102.133 97.7181 101.774 96.8748ZM41.7598 48.8401C41.5468 48.7505 41.2426 48.646 40.8563 48.524C39.793 48.1901 38.2958 47.7912 37.8577 47.7561C37.7634 47.6914 37.5187 47.5641 37.0347 47.3431C37.0362 47.3436 37.0377 47.3441 37.0393 47.3447C36.3611 47.0691 16.7652 39.8469 29.8287 44.9213C30.2397 45.0806 29.7199 44.7463 31.3938 45.3795C31.5041 45.4213 31.52 45.5462 31.8632 45.6763C32.646 45.9749 36.8496 47.5614 37.7337 47.7744C37.7333 47.7963 37.7832 47.8349 37.8962 47.894C38.461 48.1916 39.8207 48.5448 40.7824 48.7394C41.5165 48.8901 42.0223 48.951 41.7598 48.8401ZM95.7147 95.2042C96.0848 95.4993 97.3608 96.2938 97.5445 96.2959C96.9509 95.8487 94.8468 94.5136 95.7147 95.2042ZM127.733 55.0434C128.603 54.6964 130.551 53.4547 129.9 53.7187C129.523 53.8864 126.744 55.4527 127.733 55.0434ZM108.247 103.091C103.72 100.253 107.147 102.449 106.369 102.153C106.999 102.475 107.624 102.787 108.247 103.091ZM53.9987 24.3707C54.049 25.2608 53.6664 24.2457 53.7288 23.2565C53.749 22.9459 53.9701 23.8748 53.9987 24.3707ZM55.3901 28.4837C55.2351 27.6913 56.9364 31.0219 56.0708 29.8376C56.0317 29.7809 55.4056 28.5318 55.3901 28.4837ZM52.7291 12.4496C52.9462 13.0189 52.9929 13.3881 53.0945 15.059C52.8381 12.6064 52.8716 14.8841 52.7291 12.4496ZM65.8196 105.737C65.8094 105.742 65.8013 105.747 65.7962 105.743C65.8063 105.737 65.8137 105.735 65.8196 105.737ZM99.0243 92.4345C98.787 91.7641 97.7581 90.0933 97.936 90.6688C97.9529 90.7232 98.7837 92.2472 99.0243 92.4345ZM37.8577 47.7561C37.9389 47.8126 37.8866 47.8121 37.7337 47.7744C37.7334 47.7536 37.7769 47.7494 37.8577 47.7561ZM104.508 101.301C104.416 101.299 105.153 102.637 105.582 103.406C105.746 103.7 105.865 103.907 105.884 103.933C106.419 104.66 106.161 104.137 105.706 103.335C105.322 102.656 104.794 101.779 104.508 101.301ZM141.656 52.7995C141.795 52.8698 141.59 52.8638 140.972 52.4092C140.684 52.2001 140.055 51.7076 139.619 50.5764C139.177 49.4383 139.349 48.2545 139.535 47.8022C139.638 47.5333 139.666 47.542 139.652 47.6433C139.637 47.7684 139.561 48.0045 139.514 48.5599C139.465 49.0777 139.536 50.0254 139.908 50.8203C140.279 51.6347 140.747 52.0881 141.032 52.3404C141.281 52.5562 141.494 52.6982 141.656 52.7995ZM47.11 12.8987C45.637 12.6348 45.5378 12.3386 45.4352 12.3221C44.9878 12.0082 45.0353 12.0052 45.0248 12.0128C45.0353 12.0297 45.0893 12.0977 45.1409 12.172C45.2475 12.3239 45.3437 12.4936 45.3464 12.5779C45.2677 12.47 45.1275 12.2909 45.0306 12.172C44.9852 12.1153 44.9447 12.0685 44.9609 12.078C44.9884 12.0917 45.0214 12.1448 45.389 12.3912C45.4451 12.4163 45.6844 12.5655 46.1236 12.712C46.5494 12.8631 47.1457 12.9262 47.11 12.8987ZM54.8389 27.1226C54.1574 26.2257 52.9178 24.0029 52.1499 22.5779C52.3162 22.4495 54.2838 26.2289 54.8389 27.1226ZM44.4605 49.7634C44.2998 49.7322 41.8501 48.8872 42.1495 49.1235C42.5029 49.4767 45.2 50.0576 44.4605 49.7634ZM139.341 47.4425C139.053 47.7368 139.342 47.6351 139.707 47.3979C140.07 47.1795 140.416 46.7766 140.105 46.9978C140.027 47.0675 140.043 46.9897 140.077 46.9029C140.11 46.8189 140.11 46.8018 140.02 46.8754C139.852 47.0175 139.383 47.3998 139.341 47.4425ZM96.0035 87.0812C95.2082 85.9123 96.8903 88.99 97.2654 89.3236C96.9391 88.7638 96.2872 87.5002 96.0035 87.0812ZM102.66 100.148C106.079 102.79 104.499 100.896 103.819 100.552C103.724 100.504 102.576 100.084 102.66 100.148ZM72.4228 19.0175C72.344 19.6076 73.0526 17.5014 72.9915 17.2016C72.9467 17.0124 72.4692 18.6333 72.4228 19.0175ZM55.7528 123.521C55.849 123.381 55.944 123.241 56.0365 123.104C55.972 123.21 55.88 123.348 55.7528 123.521ZM97.2536 69.5548C95.4712 70.123 94.1302 71.1346 93.5412 71.8934C92.936 72.6685 93.0562 72.7649 92.8187 73.1329C92.2766 73.8958 91.5978 76.0226 91.8316 77.5609C92.0023 79.0959 92.4168 80.0177 92.7392 80.7169C92.3626 79.9075 91.8221 79.0286 91.6294 77.0554C91.3156 75.0059 92.8192 72.1197 93.9094 71.2449C93.6723 71.4856 93.0898 71.9305 92.3613 73.1986C91.5843 74.4358 91.2725 76.786 91.5975 78.1524C92.2142 80.9161 93.0498 81.9726 93.6634 83.2233C94.6668 85.0678 95.5548 86.5671 95.63 86.6151C95.8827 86.7779 94.4332 84.415 94.4015 84.3267C94.3591 84.2198 94.4624 83.6423 94.3473 83.4118C94.3215 83.3605 94.2338 83.202 94.107 82.9724C93.8851 82.5659 93.5433 81.9683 93.1004 81.0662C92.7411 80.1168 91.8468 79.1214 91.9384 76.053C92.0332 74.5101 92.9074 72.8972 93.6443 72.1108C94.3858 71.2808 94.9833 70.877 95.4596 70.5516C96.3989 69.9395 96.9624 69.69 97.2536 69.5548ZM110.268 104.625C109.716 104.273 109.624 104.048 109.34 103.929C109.243 103.889 109.16 104.007 108.827 103.86C109.31 104.123 109.79 104.378 110.268 104.625ZM102.368 66.6129C103.177 66.4311 100.172 67.7057 99.5388 67.9756C99.4771 68.0013 99.4382 68.0168 99.4269 68.0201C99.2527 68.0671 99.3067 68.01 99.5016 67.8938C100.069 67.5497 101.829 66.73 102.368 66.6129ZM103.87 99.9759C103.81 99.8505 102.319 97.2601 102.246 97.3307C102.597 98.0477 104.618 101.481 103.87 99.9759ZM108.435 103.646C107.573 103.134 105.989 102.007 106.07 102.306C106.071 102.307 106.072 102.308 106.073 102.309C106.865 102.768 107.646 103.212 108.435 103.646ZM136.988 49.7741C138.755 48.9174 137.805 49.0687 136.279 50.0418C135.92 50.4963 136.695 49.9167 136.988 49.7741ZM140.511 47.3859C140.492 47.4747 140.376 47.5226 140.191 48.3362C140.112 48.7459 140.062 49.4718 140.328 50.2638C140.585 51.0518 141.085 51.6342 141.407 51.9063C142.117 52.4965 142.523 52.5637 142.677 52.6227C142.839 52.6684 142.825 52.66 142.764 52.6607C142.63 52.656 142.312 52.6612 142.041 52.6833C141.482 52.7274 141.064 52.8068 141.323 52.8529C141.43 52.8767 142.105 52.8248 142.538 52.8172C142.747 52.8085 142.884 52.8278 142.693 52.773C142.537 52.7378 141.815 52.4493 141.327 51.9985C141.235 51.9173 141.169 51.8511 141.145 51.8289C140.932 51.6257 141.261 52.0371 141.251 52.0801C141.246 52.1012 141.172 52.0947 140.871 51.7875C140.717 51.6174 140.48 51.3638 140.21 50.7996C139.946 50.2731 139.743 49.3351 139.85 48.5798C139.859 48.6723 139.894 48.5106 139.965 48.2865C140.033 48.0746 140.144 47.818 140.236 47.674C140.431 47.3628 140.534 47.3348 140.511 47.3859ZM138.4 49.0183C139.994 48.155 139.887 47.5889 138.936 48.3396C138.54 48.6416 138.165 49.1437 138.4 49.0183ZM132.242 53.2859C132.819 52.9996 134.288 52.1558 135.032 51.3924C133.883 52.2261 132.548 53.0383 131.153 53.8192C131.037 53.9898 131.743 53.5399 132.245 53.2837C132.244 53.2844 132.243 53.2852 132.242 53.2859ZM62.2783 36.9757C61.5432 35.7445 63.5189 38.3581 63.557 38.5215C63.6993 38.9268 62.6064 37.5056 62.2783 36.9757ZM65.6446 29.8353C65.5145 30.2453 65.2858 30.4894 65.2201 31.4326C65.5082 30.5218 65.8088 29.6167 66.118 28.7127C65.9608 27.9324 65.7862 29.387 65.6446 29.8353ZM63.9575 33.2313C63.9721 33.0972 63.3948 33.7576 63.9697 32.0779C64.2372 31.3302 63.9295 33.8635 63.7533 35.9941C63.6607 37.0847 63.5537 38.0584 63.4508 38.4475C63.4566 37.8474 63.5382 36.919 63.6317 35.9828C63.737 34.9197 63.9001 33.8467 63.9575 33.2313ZM60.9636 44.2888C60.9177 44.3588 61.0169 41.8942 61.0678 41.6162C61.311 40.1322 61.1732 43.8838 60.9636 44.2888ZM61.6424 36.4906C61.5288 37.1609 61.5397 36.5605 61.5953 35.7946C61.6356 35.2367 61.712 34.6042 61.7734 34.2862C61.8353 34.2462 61.7555 35.1261 61.7046 35.8047C61.6777 36.1536 61.6523 36.4311 61.6424 36.4906ZM59.8654 19.7615C59.5381 18.5273 58.4067 17.9007 59.4527 19.4896C59.5021 19.5646 59.8773 19.8146 59.8654 19.7615ZM60.6459 41.8501C60.8171 40.7099 60.6941 43.2577 60.6045 44.0259C60.5107 44.09 60.6174 42.0205 60.6459 41.8501ZM60.0989 18.6342C59.969 18.3001 59.8475 18.0781 59.7383 17.9379C59.7169 17.9019 59.6542 17.7934 59.6305 17.7588C59.2085 17.2825 59.0242 17.8681 59.0918 18.0172C59.1018 18.0387 59.1128 18.0614 59.1249 18.0852C59.1443 18.1135 59.1957 18.2024 59.2132 18.2318C59.5843 19.0911 61.1737 21.3512 61.5161 21.8157C59.3079 18.0967 60.3829 19.3626 60.0989 18.6342ZM55.4825 12.318C54.5565 11.0831 56.6132 14.4335 57.1941 14.9446C56.769 14.3118 55.7496 12.67 55.4825 12.318ZM44.3622 6.7487C44.3525 6.7718 44.343 6.7952 44.3335 6.81889C43.8343 8.20715 43.9441 9.11904 43.9326 9.97517C43.9522 10.8142 44.0152 11.526 44.0872 11.7342C44.0579 10.7603 43.7995 8.66208 44.3407 6.82167C44.3486 6.79514 44.3558 6.77076 44.3622 6.7487ZM43.61 9.81086C43.4939 11.2461 43.9885 11.5313 43.7838 9.93393C43.7767 9.87368 43.6179 9.75489 43.61 9.81086ZM43.9689 17.2183C43.8559 18.0744 44.403 18.9895 44.2914 17.6299C44.2582 17.232 43.9823 17.1251 43.9689 17.2183ZM59.6061 16.2538C59.0186 15.199 57.8875 14.0688 59.2668 16.2548C58.731 15.5219 58.1934 14.7899 57.652 14.0584C59.3538 16.9943 59.5899 16.5328 60.1033 17.3584C60.1176 17.3815 60.1315 17.4043 60.145 17.4267C60.1729 17.4676 60.2473 17.5961 60.2726 17.6388C60.8555 18.762 60.4857 18.8497 60.2538 18.6731C60.9961 19.522 63.2838 23.6274 64.6408 25.9381C63.5645 23.8379 61.8332 20.3788 60.7366 18.2939C60.6114 18.0554 60.4708 17.8297 60.3276 17.608C60.3018 17.5647 60.2263 17.4342 60.1979 17.3925C59.9632 17.0749 59.7372 16.7885 59.5531 16.4916C59.0697 15.7111 59.6379 16.313 59.6086 16.2578C59.6078 16.2565 59.6069 16.2551 59.6061 16.2538ZM44.8404 26.6283C44.8563 29.0963 45.1727 27.5059 44.9603 26.1293C44.9484 26.0708 44.84 26.5672 44.8404 26.6283ZM59.0436 45.1138C59.4315 41.7177 59.484 44.1795 59.6673 37.1872C59.6919 40.1232 59.8498 37.3684 59.9122 37.9446C59.96 38.4015 59.748 40.119 60.0059 39.1322C59.6855 40.423 59.3802 46.1091 59.3901 46.5326C59.3902 46.5298 59.3902 46.5269 59.3902 46.5239C59.3709 46.7194 58.9334 46.1972 59.0436 45.1138ZM43.2215 6.33972C43.2136 6.35307 43.2058 6.36637 43.1981 6.37961C42.4203 7.83476 42.6179 8.25565 42.659 8.85209C42.737 9.4155 42.8512 9.98603 42.662 10.8751C42.8777 11.4921 42.9506 11.3141 42.9568 10.6895C42.9614 10.3767 42.9485 9.94599 42.9475 9.3908C42.9482 9.10884 42.9495 8.79191 42.9777 8.37588C43.0192 7.95673 43.0234 7.42293 43.3783 6.44935C43.5733 5.9793 43.8356 5.31515 44.695 4.52887C45.5319 3.71185 47.1446 3.27238 48.0655 3.39417C49.9258 3.63278 50.2898 4.13573 50.7533 4.38255C51.6566 5.0307 51.8378 5.32334 52.1362 5.64035C52.4017 5.94669 52.5884 6.19316 52.754 6.42606C53.073 6.8795 53.2537 7.21987 53.2877 7.41845C52.3062 6.14053 51.7463 5.39523 50.6058 4.60282C50.287 4.39968 50.0592 4.29486 50.0808 4.31955C50.0936 4.34051 50.3233 4.48213 50.5661 4.66204C52.1953 5.94737 52.7941 7.13396 53.5092 7.96735C54.1143 8.74458 54.42 8.92075 53.2951 6.95215C56.2522 11.5169 54.4315 8.3272 55.017 8.94198C55.6281 9.59457 57.1511 12.0827 57.2417 11.8472C57.2408 11.8459 57.2399 11.8446 57.239 11.8433C56.2317 10.3652 55.2248 8.90062 54.0821 7.37904C54.4443 8.2509 54.103 7.9098 53.5818 7.18204C53.3139 6.81182 53.003 6.35044 52.6381 5.83784C52.2413 5.31788 51.9834 4.816 51.0033 4.00945C50.9837 3.99201 50.964 3.97462 50.9442 3.9573C50.4157 3.73514 49.9598 3.22234 47.9531 3.06715C46.9575 2.99116 45.3369 3.51354 44.513 4.35274C43.6624 5.16516 43.4026 5.85347 43.2215 6.33972ZM56.71 12.2961C56.6367 12.149 54.3811 8.96274 54.4355 9.22046C54.7242 9.68783 57.8274 14.2056 56.71 12.2961ZM65.475 26.8477C64.8085 25.679 63.8611 23.8068 63.3505 23.2426C64.0136 24.4321 64.9641 26.299 65.475 26.8477ZM44.0097 39.7467C43.9599 39.734 43.9155 39.723 43.8765 39.7139C43.5762 39.6446 43.6262 39.6895 43.8515 39.7868C44.5868 40.1111 46.8308 40.8119 45.8792 40.3837C45.8201 40.3631 44.1024 39.7749 44.0097 39.7467ZM42.9577 12.1357C42.9176 13.9711 43.3956 13.0774 43.164 11.7271C43.1504 11.6465 42.9598 12.0535 42.9577 12.1357ZM59.1339 42.3601C58.996 42.2229 59.47 37.387 59.5557 36.5457C59.6237 37.0312 59.263 42.498 59.1339 42.3601ZM67.0767 28.6124C66.1753 26.1414 63.9019 23.1825 63.7138 22.8279C63.5287 22.4716 64.02 22.9188 63.9803 22.8362C63.8878 22.6481 61.7905 18.9275 61.6744 18.7505C61.5919 18.6262 61.7129 19.4491 61.1989 18.7205C62.1891 20.1509 65.9026 27.0099 66.1281 27.3004C66.305 27.5493 65.4223 25.4176 67.0744 28.6085C67.0751 28.6098 67.0759 28.6111 67.0767 28.6124ZM63.2792 21.9183C63.6912 22.9101 62.2178 20.3039 61.9039 19.648C61.2053 18.187 63.2266 21.7941 63.2792 21.9183ZM59.5898 15.3716C59.4281 15.0666 57.7347 12.4409 57.4663 12.2934C58.1449 13.6316 59.9622 16.0629 59.5898 15.3716ZM44.0788 28.6346C44.1712 29.431 44.2667 31.6279 44.398 31.7438C44.3085 30.9494 44.2108 28.7488 44.0788 28.6346ZM60.2643 25.4695C59.8905 26.7885 60.4871 23.6768 60.7337 22.7961C60.8203 22.7631 60.2931 25.3536 60.2643 25.4695ZM41.8286 12.5289C41.8259 12.7479 41.9823 14.732 42.2039 16.9734C42.4922 19.915 42.8647 23.3572 42.9685 24.1248C42.9497 23.3586 42.6424 19.8839 42.3835 16.9574C42.1887 14.7762 42.0359 12.8745 42.0045 12.6772C41.9818 12.5464 41.83 12.4667 41.8286 12.5289ZM61.9099 17.5267C62.5008 18.2193 62.5964 18.8275 62.6492 18.9274C63.1636 19.9042 64.3065 21.8687 63.9144 21.5175C63.0316 19.7939 60.7385 16.1547 61.9099 17.5267ZM43.3421 29.3932C43.7107 32.6535 43.3142 26.3609 43.2051 27.2007C43.1991 27.2552 43.3041 29.0556 43.3421 29.3932ZM41.7031 11.3806C41.6716 11.2442 41.6293 10.8415 41.5968 10.1906C41.5816 9.86112 41.5663 9.46686 41.5748 8.93797C41.6317 8.34961 41.4551 7.86276 42.0957 5.95315C42.3297 5.39157 42.6386 4.6009 43.6603 3.61377C44.637 2.5957 46.6899 1.89179 47.9541 2.0147C50.4833 2.2624 50.9359 2.94845 51.517 3.2425C52.251 3.75147 52.4966 4.02964 52.7712 4.29461C53.0303 4.55668 53.2227 4.77225 53.4054 4.98296C53.7603 5.39444 54.0472 5.75935 54.3188 6.11346C54.8535 6.8135 55.3106 7.45811 55.7198 8.04411C56.5328 9.21214 57.137 10.1297 57.3901 10.5035C56.3584 9.45655 55.9026 8.40802 54.6554 6.74444C54.3097 6.29104 54.3093 6.4762 54.2726 6.42754C53.6367 5.61686 54.2226 6.15888 53.8086 5.63635C53.7691 5.58827 53.6167 5.40131 53.3337 5.08188C53.1924 4.92341 53.015 4.727 52.7733 4.48263C52.4964 4.21964 52.2827 3.94838 51.4377 3.36087C50.9211 3.09706 50.538 2.53459 48.3136 2.19428C47.2201 2.01857 45.1435 2.46885 43.9998 3.52659C42.8387 4.54047 42.4959 5.41948 42.2488 6.01237C41.5671 8.11164 41.7977 8.5816 41.7384 9.23719C41.7366 9.82995 41.7528 10.2673 41.7614 10.6277C41.7811 11.3409 41.7764 11.6742 41.7031 11.3806ZM62.266 17.9114C62.6225 18.3394 65.6071 23.597 65.6998 23.8107C66.4095 25.4943 62.4692 18.349 62.266 17.9114ZM41.5279 12.3433C41.3406 11.7907 41.197 10.3261 41.2568 8.91944C41.275 8.2405 41.4442 7.28317 41.4953 7.25435C41.5256 7.24235 41.3896 8.35497 41.4507 9.42076C41.4574 9.88739 41.3907 11.3992 41.5279 12.3433ZM43.018 29.0712C43.025 29.2341 43.2759 32.6387 43.3778 32.6916C43.3741 32.2002 42.9473 27.2331 43.018 29.0712ZM42.5233 27.3356C42.5332 27.4174 42.6463 26.6012 42.772 28.2011C42.782 28.334 42.5952 28.6042 42.8576 30.601C42.9112 31.0082 43.1083 31.6231 43.1129 31.5778C43.2562 29.4638 42.0256 23.216 42.5233 27.3356ZM62.47 17.9241C62.3889 17.5956 63.0055 18.1537 63.2345 18.8398C63.3322 19.1339 62.9164 18.7163 62.47 17.9241ZM43.8577 39.796C43.7453 39.0863 43.7335 39.477 43.7612 40.2608C43.7842 40.9149 43.8287 41.8412 43.8191 42.3053C43.8169 42.535 43.8003 42.6204 43.8185 42.5131C43.8317 42.4161 43.9178 42.1195 43.9516 42.0506C43.9474 42.1144 43.8783 42.4376 43.8873 42.5292C43.8904 42.6338 43.9249 42.5194 43.9373 42.2655C43.9673 41.7543 43.9225 40.7942 43.8903 40.2519C43.8759 40.0068 43.8632 39.8321 43.8577 39.796ZM59.7102 22.0891C59.7098 22.0907 59.7095 22.0922 59.7091 22.0938C60.1105 20.4351 60.0149 21.4968 60.0362 21.4187C61.0134 17.9292 60.5097 18.812 60.5975 18.2525C60.686 17.6925 60.8038 17.4564 60.9328 17.1588C61.0845 16.7951 61.2464 16.3573 61.4304 15.2436C60.8518 18.7142 61.4803 15.5844 61.6358 15.5136C61.8952 15.4036 61.6941 16.1895 61.3748 17.2579C60.9549 18.6392 60.2753 20.5832 60.1298 21.552C60.0938 21.7849 60.6369 20.1258 60.5537 20.7254C60.2762 22.6524 58.2027 28.5177 59.7102 22.0891ZM63.5217 19.306C64.0411 19.9169 66.7757 25.1127 65.9021 23.818C65.7637 23.6205 62.7654 18.4226 63.5217 19.306ZM76.2812 111.304C75.7598 112.711 77.3976 109.656 77.5581 109.008C77.6444 108.697 76.5136 110.695 76.2812 111.304ZM77.7916 98.4424C79.0711 99.1333 80.8124 99.5449 79.0999 98.6129C78.9062 98.5052 77.6764 98.2842 77.7916 98.4424ZM17.9418 106.126C19.1567 106.562 19.6552 106.587 19.7138 106.535C19.7658 106.474 19.3585 106.311 18.4963 106.099C17.8632 105.937 17.8614 106.095 17.9418 106.126ZM65.8152 130.004C65.9458 129.851 67.1363 128.015 67.0123 128.037C66.5525 128.671 65.0326 130.981 65.8152 130.004ZM17.0962 105.924C17.904 106.143 17.6632 105.989 16.921 105.693C16.1778 105.343 14.9124 105.054 12.966 103.516C15.0051 105.327 16.9355 105.832 17.0962 105.924ZM40.9943 16.1458C41.0525 16.3675 41.1061 16.679 41.1586 17.0667C41.3127 18.1959 41.4455 19.8608 41.5648 20.922C41.4169 21.0588 41.2195 18.6035 41.0849 17.0733C41.0498 16.6762 41.0201 16.3567 40.9943 16.1458ZM82.3709 95.5247C82.4944 94.853 82.3271 95.1843 82.151 95.7178C81.9753 96.2522 81.7867 97.0105 81.9184 96.8832C81.942 96.8324 82.3652 95.5568 82.3709 95.5247ZM20.7941 60.2735C21.6407 61.0351 19.351 58.2531 19.8584 59.1306C19.8879 59.1749 20.75 60.2329 20.7941 60.2735ZM10.0537 47.9364C10.598 48.6774 13.1048 51.6121 12.2219 50.3908C12.0808 50.205 10.1803 47.9259 10.0537 47.9364ZM60.4781 18.1248C60.3227 18.3365 60.4158 17.7475 60.5584 17.0748C60.7053 16.3815 60.9084 15.6102 60.9748 15.4096C61.0091 15.3076 60.9436 16.2857 60.7937 17.1276C60.7202 17.5443 60.6155 17.9367 60.4781 18.1248ZM30.8745 107.56C31.828 107.563 34.2604 107.643 34.6859 107.535C33.5495 107.556 30.5709 107.341 30.8745 107.56ZM80.2277 102.837C80.4721 102.361 80.7268 101.741 80.9304 101.13C81.2969 100.046 81.4849 99.0973 81.1856 99.4375C80.6141 101.457 81.1132 100.258 80.8537 101.107C80.7602 101.407 80.581 101.941 80.2277 102.837ZM13.2474 90.8671C12.4608 91.653 11.9533 92.8785 12.0773 92.7298C13.1764 91.3884 14.055 90.2183 13.2474 90.8671ZM46.8605 120.316C46.7451 120.373 47.1548 122.739 47.1849 122.411C47.192 122.299 46.9499 120.265 46.8605 120.316ZM48.2057 38.3784C48.3175 38.3593 48.2984 38.3316 48.2525 38.3035C48.1593 38.3009 48.1089 38.145 46.9211 38.3917C46.355 38.5212 45.336 38.9489 44.5554 39.7063C43.7655 40.4534 43.3934 41.2528 43.2434 41.6676C42.9635 42.5305 43.0768 42.4845 43.089 42.4903C43.1367 42.4737 43.1612 42.5274 43.1843 42.4795C43.2489 42.4126 43.0948 42.2466 43.7672 40.9745C44.1054 40.3627 44.8844 39.5157 45.691 39.0707C46.4884 38.6125 47.1246 38.491 47.4588 38.4353C48.1505 38.3451 48.1647 38.3901 48.2057 38.3784ZM27.9973 77.9326C27.9734 77.7441 26.1729 79.8978 27.0297 79.1732C27.27 78.9833 28.0436 77.9866 27.9973 77.9326ZM17.2427 56.8973C17.7971 57.413 17.5513 57.0562 16.9868 56.3671C15.6608 54.7665 12.6782 51.3037 13.8103 52.8871C13.9056 53.0261 15.9735 55.4762 16.8644 56.4775C17.0718 56.7127 17.2122 56.8688 17.2427 56.8973ZM6.13842 43.4859C6.38932 43.849 5.77642 44.0552 4.83787 42.4033C4.71536 42.1884 5.52976 43.0196 5.4389 42.8358C5.3799 42.7585 3.03231 39.3282 2.90971 39.1083C2.77795 38.9369 2.75954 39.2588 2.61691 39.0805C2.53477 38.9743 2.15108 38.3345 1.66948 37.4327C1.42587 36.9704 1.14879 36.4539 0.808737 35.6534C0.633177 35.2249 0.44539 34.7695 0.248127 33.9727C0.0977407 33.184 -0.256181 32.0584 0.310091 29.8859C0.794124 27.7585 3.06739 25.658 4.39154 25.1929C5.80561 24.5895 6.51941 24.5796 7.09737 24.5154C8.19191 24.4469 8.68523 24.5297 9.09177 24.5657C9.88834 24.6597 10.2435 24.731 10.5502 24.7774C11.1078 24.8669 11.2429 24.8666 11.3707 24.8991C12.1004 25.091 13.0937 25.513 14.2415 25.8962C15.0919 26.1794 15.9688 26.4801 16.8777 26.7949C22.1061 28.6121 28.535 30.9219 32.0241 32.4965C28.3303 31.0062 24.7088 29.8333 20.9372 28.5207C22.1622 28.6022 15.2918 26.7756 19.325 27.8058C18.964 27.6945 18.0552 27.3856 16.8176 26.9659C15.5055 26.5271 13.9379 25.9693 11.8503 25.3684C11.3182 25.2201 10.7426 25.0633 9.97714 24.9118C9.57232 24.8348 9.15293 24.7585 8.50403 24.7059C7.81893 24.7042 7.13808 24.4725 5.01736 25.1361C4.01264 25.4676 2.25664 26.4731 1.23792 28.2138C0.216506 29.9383 0.174448 31.4386 0.200624 32.3094C0.325104 34.0854 0.652103 34.6311 0.852645 35.2125C1.28644 36.2587 1.60521 36.7742 1.9027 37.2967C4.05819 40.8474 5.79965 42.9506 6.13544 43.4819C6.13644 43.4833 6.13743 43.4846 6.13842 43.4859ZM82.9941 101.848C82.5142 101.659 83.3632 102.254 84.3886 102.913C85.4254 103.579 86.6791 104.328 86.9266 104.349C86.6182 104.123 85.4577 103.375 84.4876 102.763C83.706 102.271 83.0456 101.87 82.9941 101.848ZM79.6942 106.74C79.5161 107.246 79.7024 107.912 78.3631 110.358C78.362 110.36 78.3609 110.362 78.3599 110.365C77.9664 111.074 78.2648 110.197 78.1712 110.317C78.1381 110.365 76.8889 112.548 77.7466 110.65C79.0322 107.724 78.1463 110.506 78.8541 108.945C78.9497 108.768 80.0279 105.639 79.9018 105.788C79.8909 105.804 79.5557 106.751 79.4735 106.892C79.1661 107.434 79.1671 107.108 79.128 107.186C79.0252 107.472 77.1015 112.2 76.5936 112.751C76.4796 112.991 79.8011 105.31 79.8852 104.9C79.9811 104.705 80.2724 104.914 80.384 104.717C80.4323 104.642 81.1343 102.523 81.4719 101.293C81.5548 101.001 81.616 100.792 81.6498 100.701C81.6948 100.582 81.7313 100.493 81.7589 100.428C81.5212 100.878 82.3507 97.9978 82.434 98.1293C82.4713 98.1826 81.8853 100.156 81.8518 100.228C81.8392 100.259 81.8265 100.285 81.8157 100.31C81.8839 100.205 81.782 100.653 81.6011 101.332C81.0756 103.366 79.7943 106.616 80.35 105.601C79.6511 107.627 80.2013 105.22 79.6942 106.74ZM75.6753 115.805C75.7411 115.599 75.8056 115.394 75.8706 115.188C74.3013 118.442 72.1555 121.878 70.0375 125.344C69.4969 126.224 70.3111 125.329 69.546 126.449C68.931 127.348 68.0959 128.262 68.3809 127.732C68.4538 127.603 69.7488 125.799 70.3046 124.848C71.9468 122.04 71.3479 122.642 71.4436 122.478C71.5469 122.295 72.6898 120.596 73.2304 119.612C74.3224 117.627 74.8635 116.468 76.0189 114.297C76.2966 113.772 76.6095 113.186 76.972 112.509C76.3779 113.922 76.5521 113.908 76.3468 114.462C76.2488 114.722 76.0659 115.108 75.6753 115.805ZM27.8994 70.8753C27.7729 70.8582 27.081 69.3748 26.6919 68.8303C26.8665 68.858 27.6595 70.3892 27.8994 70.8753ZM103.024 46.9498C102.399 47.3043 107.456 46.1018 106.088 46.2717C105.784 46.3063 103.658 46.7879 103.024 46.9498ZM126.081 42.3155C126.766 42.1525 123.952 42.4501 123.985 42.6034C123.997 42.6493 125.991 42.3344 126.081 42.3155ZM44.8023 112.014C44.7789 111.884 44.5809 110.023 44.583 109.961C44.6298 108.702 45.3103 114.844 44.8023 112.014ZM142.797 61.189C142.87 61.129 142.932 61.0764 142.985 61.0304C143.244 60.7941 143.17 60.818 142.939 60.9708C141.825 61.818 138.57 63.8674 140.189 62.9794C140.29 62.9506 142.676 61.3235 142.797 61.189ZM133.177 66.9989C133.71 66.7298 136.133 65.5144 136.141 65.4319C136.136 65.336 133.371 66.7253 133.177 66.9989ZM13.2312 89.8152C13.0134 89.8742 13.7977 89.0682 14.6689 88.3328C15.546 87.5837 16.5014 86.8648 16.9781 86.4668C17.3551 86.4531 14.4616 88.5116 13.2312 89.8152ZM33.5937 108.783C26.3454 108.797 23.11 108.262 23.6916 108.268C24.2715 108.262 28.4158 108.562 34.4569 108.683C34.4732 108.825 34.5077 108.782 33.5937 108.783ZM9.26518 96.8983C9.23548 97.4599 9.21735 98.2808 9.41281 99.3136C9.84733 102.059 12.0568 104.425 13.3725 105.244C14.7646 106.187 15.7812 106.547 16.5274 106.825C16.3611 106.8 15.6171 106.623 14.2631 105.897C13.6122 105.529 12.7378 105.011 11.7149 103.945C10.725 102.948 9.6432 101.1 9.36328 99.3223C9.18953 98.3452 9.20788 97.5165 9.26518 96.8983ZM96.9441 48.2457C97.7691 47.822 101.691 47.0146 101.023 47.2697C100.866 47.319 96.6518 48.422 96.9441 48.2457ZM44.461 110.87C44.3458 111.101 44.1065 109.328 43.9613 108.034C43.8876 107.373 43.8438 106.917 43.8475 106.834C43.8685 106.363 43.9712 106.915 44.1049 108.015C44.2505 109.192 44.4124 110.692 44.461 110.87ZM27.2591 77.2416C27.4465 76.7507 28.1602 75.789 28.2632 75.4577C28.3848 75.6194 27.7754 76.6179 27.2591 77.2416ZM21.3876 82.671C21.4523 82.6155 22.7908 81.525 22.844 81.4832C24.0393 80.7048 20.2421 83.7977 21.3876 82.671ZM57.6183 24.084C57.6254 24.0182 57.9441 22.5718 57.9616 22.5252C58.3954 21.2677 57.441 25.6058 57.6183 24.084Z" fill="#FFA599"/>
</svg>
