<svg width="70" height="64" viewBox="0 0 70 64" fill="none" xmlns="http://www.w3.org/2000/svg">
<g clip-path="url(#clip0_148_126)">
<path d="M32.0042 1.88147C32.3085 1.7728 32.6647 1.7418 33.0286 1.83948C33.3802 1.93394 33.6459 2.12362 33.8313 2.30823C34.3018 2.77667 34.438 3.40661 34.5422 4.03772C34.6627 4.76765 34.7936 5.9826 34.9543 8.06311C35.277 12.2386 35.7277 20.0858 35.9729 24.2487C36.0545 25.6344 36.1122 26.5649 36.1594 27.1959C36.5306 27.0581 36.9772 26.8792 37.5598 26.6461C38.1424 26.4131 38.8358 26.1383 39.6584 25.8317C42.2924 24.8499 46.8807 23.5828 51.0647 22.6256C55.2933 21.6582 59.0515 21.1333 61.1506 20.8639C62.7368 20.6604 63.909 20.5354 64.7454 20.5094C65.1617 20.4965 65.5588 20.5054 65.9124 20.5612C66.201 20.6067 66.6016 20.7038 66.969 20.9635L67.1243 21.0846L67.2444 21.1969C67.5167 21.4726 67.7316 21.8415 67.7981 22.2946C67.8697 22.7829 67.7431 23.2021 67.6057 23.4938C67.3531 24.03 66.9068 24.4661 66.5715 24.7633C66.2009 25.0919 65.767 25.4185 65.3694 25.7106C64.9499 26.0187 64.577 26.2847 64.2395 26.5465C63.1226 27.4127 61.3603 28.4939 58.0149 30.0807C54.76 31.6245 49.6089 33.7583 47.1672 34.8766C46.5556 35.1568 46.163 35.3517 45.9045 35.5094C45.9892 35.6979 46.1259 35.9603 46.3411 36.3434C46.916 37.3668 47.8105 38.8444 48.8108 40.4977C49.8034 42.1383 50.8913 43.9369 51.8293 45.566C52.729 47.1283 53.6028 48.7179 53.9172 49.8658C54.0005 50.1699 54.0708 50.5328 54.0588 50.9078C54.0468 51.2835 53.9451 51.8154 53.5315 52.2643C53.1023 52.7298 52.5511 52.8771 52.1155 52.8981C51.8037 52.9131 51.4965 52.8684 51.2122 52.7994L50.9358 52.7242C50.2284 52.5084 49.3517 52.077 48.4573 51.5846C47.5373 51.078 46.5035 50.4531 45.4553 49.7926C43.3619 48.4735 41.1387 46.9687 39.5598 45.9196C37.9138 44.8259 36.8607 44.1858 36.1838 43.8131C36.1284 44.0126 36.0656 44.2359 35.9963 44.4889C35.8685 44.9557 35.7178 45.5001 35.5364 46.1061C35.0694 47.6656 34.2339 49.6233 33.1497 51.7926C32.0531 53.987 30.6521 56.361 29.6321 57.9567C28.8572 59.1688 28.3098 59.9169 27.8596 60.4703L27.4377 60.9684C27.3479 61.0705 27.1118 61.3476 26.8186 61.5465C26.6548 61.6577 26.3833 61.8087 26.0227 61.858C25.6235 61.9127 25.2279 61.8269 24.8899 61.6227C24.333 61.2861 24.0813 60.7187 23.9612 60.4156C23.8104 60.035 23.6798 59.5531 23.5559 58.9791C23.0689 56.722 22.4744 51.9398 22.1526 49.4703C22.0651 48.799 22.0138 48.4498 21.9446 48.2174C21.9419 48.2085 21.9382 48.2006 21.9358 48.193C21.8621 48.1726 21.7265 48.1424 21.4973 48.1178C21.0394 48.0686 20.3946 48.0536 19.4309 48.0524C17.563 48.0499 14.6322 48.0987 12.1584 47.9401C10.9284 47.8612 9.71791 47.7271 8.76489 47.4801C8.29461 47.3582 7.79497 47.1859 7.36841 46.9215C6.97973 46.6805 6.46381 46.241 6.28442 45.525L6.25317 45.3776C6.11598 44.5964 6.46076 43.9521 6.70728 43.5865C6.97739 43.186 7.34224 42.8098 7.70337 42.4752C8.42245 41.809 9.42467 41.0424 10.3674 40.2936C11.3481 39.5146 12.3291 38.7064 13.1536 37.8668C13.9888 37.0164 14.5722 36.2235 14.8538 35.5016C15.3637 34.1938 14.9867 32.6371 13.7434 30.6813C12.5099 28.7408 10.6891 26.8134 8.94751 24.8717C5.55234 21.0865 3.19466 18.0016 2.24243 16.358C2.12009 16.1469 2.00177 15.9271 1.90845 15.7115C1.82364 15.5156 1.71154 15.2175 1.68677 14.8756C1.65963 14.4999 1.7362 13.9115 2.23462 13.4528C2.66953 13.0526 3.17872 12.9891 3.43774 12.9781C3.94846 12.9567 4.53624 13.107 5.04028 13.2545C5.60386 13.4195 6.31292 13.6617 7.16138 13.9615C10.6438 15.1923 16.6893 17.4716 19.9719 18.6041C20.5027 18.7872 20.9155 18.9217 21.2405 19.0172C21.2324 18.8521 21.2217 18.6657 21.2073 18.4537C21.0282 15.829 20.5196 10.7436 20.2522 7.72913C20.1203 6.24222 20.0506 5.29222 20.0305 4.66858C20.0125 4.10828 20.0177 3.58057 20.1975 3.11292L20.2844 2.91956C20.3877 2.71673 20.5454 2.49272 20.7883 2.3053C21.136 2.03708 21.5316 1.94062 21.8831 1.94983C22.455 1.96483 22.8875 2.2608 23.0129 2.34534C23.3405 2.56614 23.6358 2.90823 23.8528 3.17542C24.1055 3.48665 24.3988 3.88449 24.7268 4.35217C25.2202 5.05559 25.8216 5.95975 26.5276 7.04749L27.2688 8.19592L27.2942 8.23499L27.3167 8.27698C27.8156 9.17404 28.2621 9.97629 28.6565 10.6862C28.8522 9.77754 29.044 8.92349 29.2043 8.20374C29.9355 4.92182 30.5449 3.42313 31.012 2.69983C31.1519 2.48314 31.4602 2.07574 32.0042 1.88147Z" fill="currentColor" stroke="currentColor" stroke-width="3"/>
</g>
<defs>
<clipPath id="clip0_148_126">
<rect width="70" height="64" fill="white"/>
</clipPath>
</defs>
</svg>
