<svg width="461" height="289" viewBox="0 0 461 289" fill="none" xmlns="http://www.w3.org/2000/svg">
<rect width="461" height="289" fill="#FEFEF2"/>
<rect x="13" y="11" width="436" height="267" fill="#FCF9B5"/>
<mask id="mask0_1235_2555" style="mask-type:alpha" maskUnits="userSpaceOnUse" x="13" y="11" width="436" height="267">
<rect x="13" y="11" width="436" height="267" fill="#BFEAE1"/>
</mask>
<g mask="url(#mask0_1235_2555)">
<path d="M19.1615 90.9222C14.4205 90.8962 5.35993 94.1761 -0.327186 96.6399C-1.83548 99.8173 -3.77733 103.891 -6.29466 109.148C-9.02972 115.606 -11.0096 121.624 -12.2202 125.947C-13.4307 130.27 -13.8591 132.821 -19.4878 153.804C-25.1164 174.787 -35.627 213.044 -41.1725 232.926C-46.718 252.808 -47.2815 254.272 -48.4365 256.692L-48.4932 256.811C-49.6444 259.219 -51.1807 262.433 -44.7654 264.961C-38.2442 267.531 -54.1766 299.609 -37.866 300.481C-21.5554 301.352 4.15563 308.179 83.8449 318.108C163.534 328.036 372.43 370.482 445.52 341.924C518.609 313.365 477.939 178.891 481.978 141.276C486.017 103.662 485.738 102.548 484.978 101.904C483.473 100.631 478.6 97.4608 472.218 95.5769C467.339 94.1366 459.712 90.726 449.9 90.9731C442.867 91.1502 435.694 91.3987 429.214 93.9611C414.611 99.7353 410.647 103.024 407.94 104.941C406.736 105.794 403.125 102.945 396 98.8614C385.094 92.6114 380.802 90.6836 370.396 91.2491C364.667 91.5605 355.411 93.0655 344.397 96.3365L343.869 96.4931C339.214 97.8744 335.651 98.9313 332.512 100.883C321.202 107.914 316.968 112.108 314.868 114.748C314.329 115.425 313.654 116.176 312.46 115.51C311.266 114.844 309.669 112.757 307.223 110.363C301.837 105.089 296.353 100.455 290.236 98.5262C282.938 96.2248 277.392 94.8007 272.902 94.9352C265.703 95.1508 260.107 95.4322 256.653 96.5366C251.294 98.25 244.754 100.233 239.867 103.587C236.187 106.113 233.885 109.358 231.394 110.457C230.53 110.838 230.068 110.225 227.153 107.561C219.122 100.221 212.72 94.4211 209.25 92.8778C204.741 90.8716 199.918 88.6392 194.234 88.4985C186.568 88.3089 181.546 88.4396 178.926 89.3257C173.75 91.076 169.043 92.5334 164.436 95.2969C149.916 104.007 148.065 105.824 146.781 104.83C144.991 103.444 143.302 101.037 135.179 96.8824C130.073 94.2704 123.561 91.1466 116.683 90.7718C112.092 90.5215 106.38 91.101 95.1604 95.0793C87.5158 97.7899 76.1929 102.028 70.11 104.843C62.852 108.202 60.4253 111.807 58.9442 110.48C55.467 107.366 51.4455 101.182 37.1 95.6504C30.9519 93.2797 24.85 90.9534 19.1615 90.9222Z" fill="#E2EB95"/>
<path d="M105.619 100.032C106.444 99.7699 109.679 99.0799 110.973 98.9172C109.596 99.2013 102.696 100.887 105.619 100.032ZM250.679 90.3536C249.348 90.8458 247.987 91.3642 246.609 91.9285C249.017 91.0581 251.86 90.1503 254.358 89.3584C256.899 88.5717 258.843 88.3417 260.481 88.1512C261.151 88.0805 259.432 88.4379 261.015 88.2597C262.566 88.1063 262.264 87.9158 264.443 87.734C265.705 87.6264 269.202 87.4901 272.677 87.4282C277.193 87.3526 280.87 88.2826 282.767 88.6905C286.204 89.4825 289.37 90.4363 292.483 91.4019C301.42 94.3405 307.261 99.9913 312.488 104.986C313.503 105.979 314.45 106.994 315.275 107.883C315.684 108.323 316.068 108.736 316.346 109.015C316.482 109.151 316.593 109.255 316.613 109.273C316.622 109.29 316.583 109.219 316.117 108.952C315.792 108.777 315.271 108.513 314.384 108.354C313.519 108.185 312.225 108.256 311.238 108.631C309.206 109.451 308.927 110.262 308.974 110.12C308.888 110.308 309.494 109.144 311.776 108.492C312.857 108.204 313.994 108.28 314.696 108.456C315.422 108.633 315.825 108.848 316.093 108.996C316.585 109.289 316.576 109.336 316.567 109.326C316.543 109.312 316.449 109.234 316.354 109.148C316.157 108.969 315.945 108.762 315.788 108.612C315.467 108.301 315.349 108.202 315.421 108.305C315.487 108.4 315.743 108.699 316.034 109.018C316.176 109.174 316.331 109.334 316.415 109.418C316.474 109.496 316.572 109.511 315.994 109.173C315.691 109.012 315.2 108.759 314.326 108.604C313.474 108.439 312.162 108.526 311.197 108.922C309.221 109.789 309.071 110.513 309.206 110.244C310.447 108.691 311.713 107.418 312.473 106.666C313.218 106.192 312.766 104.816 325.029 96.6913C326.894 95.4938 327.909 94.9179 328.582 94.5603C329.956 93.8298 330.082 93.8916 331.47 93.2684C332.812 92.6739 335.681 91.461 341.13 89.7808C332.752 92.0926 336.487 90.7924 342.239 89.0713C344.55 88.376 347.243 87.6359 349.783 87.007C351.317 86.5523 363.47 83.9269 369.987 83.71C370.124 83.7023 370.257 83.6951 370.386 83.6883C372.43 83.5779 375.761 83.3004 378.907 83.6892C381.051 83.9688 382.747 84.3617 385.798 85.3469C391.466 87.2865 395.663 89.8663 399.821 92.194C401.891 93.3769 403.926 94.6148 405.842 95.7861C406.786 96.3614 407.736 96.9397 408.474 97.3468C408.825 97.5436 409.17 97.7049 409.129 97.6846C409.086 97.6759 408.978 97.5979 408.328 97.4841C408.005 97.4362 407.489 97.3664 406.677 97.4542C405.857 97.5393 404.61 97.8798 403.501 98.6753C405.359 97.3058 408.18 95.399 410.622 94.0736C404.132 98.4112 416.026 91.2865 416.552 91.3255C419.351 90.0203 406.998 96.4477 411.942 93.9438C416.842 91.3088 421.697 89.2418 426.576 87.2896C428.868 86.3781 431.192 85.718 433.474 85.2377C426.781 86.5151 442.263 83.1459 444.688 83.6836C444.379 83.5794 446.508 83.441 449.709 83.383C456.54 82.8314 468.275 86.2905 474.276 88.6063C479.327 90.1686 483.003 92.2015 484.489 92.9749C484.964 93.2234 483.934 92.5924 483.922 92.539C483.919 92.5137 484.173 92.6181 485 93.0718C485.885 93.6041 487.005 94.0728 489.754 96.2613C490.036 96.4872 490.831 97.2463 491.326 98.0261C491.845 98.815 492.12 99.5083 492.299 100.047C492.621 101.063 492.676 101.67 492.731 102.11C492.825 103.035 492.82 103.607 492.819 104.224C492.808 105.372 492.746 106.45 492.666 107.626C492.534 109.447 492.436 108.786 492.382 109.698C492.351 110.27 492.515 113.722 491.935 117.19C491.708 118.462 492.267 110.231 490.561 128.287C491.233 124.258 490.402 132.841 489.377 142.071C488.757 147.817 489.331 155.437 489.445 157.864C489.417 156.685 489.401 155.542 489.398 154.441C489.59 160.07 489.891 161.102 489.988 162.394C490.419 167.582 491.08 174.869 491.653 179.754C492.335 185.58 492.614 185.473 493.269 192.27C493.155 190.696 493.03 189.04 492.91 187.437C493.431 192.136 493.938 196.808 494.406 201.456C492.887 190.7 494.642 203.765 494.726 204.682C494.879 206.077 494.53 204.103 494.777 206.409C494.802 206.651 494.917 206.277 495.271 209.862C495.987 217.387 495.679 216.188 495.937 219.36C495.955 219.646 496.029 218.638 496.441 224.09C497.559 241.528 496.377 223.997 496.273 223.345C496.162 222.474 496.149 228.453 495.143 213.72C495.504 218.64 495.288 219.178 495.328 219.733C495.38 220.234 495.986 228.8 496.001 229.287C496.309 233.511 496.274 229.782 496.347 230.604C496.438 231.27 496.635 241.688 497.119 244.134C496.706 249.148 496.761 241.25 496.283 232.915C496.152 231.7 496.418 240.872 496.399 241.358C496.577 253.224 496.837 246.656 497.101 249.255C497.231 250.624 496.909 255.471 497.297 250.996C497.143 261.85 497.055 255.264 497.024 255.963C496.962 257.023 496.91 260.813 496.866 261.292C496.812 261.994 496.818 259.546 496.638 262.314C496.609 262.772 496.555 267.243 496.969 261.497C496.509 269.18 496.639 268.532 496.078 271.125C496.184 276.491 495.287 274.911 495.002 276.981C494.154 282.524 494.846 280.977 494.839 281.277C494.895 283.294 491.403 298.618 489.941 302.346C490.226 300.749 493.374 290.282 493.652 287.881C495.065 279.901 491.01 298.998 491.827 293.135C491.358 295.587 490.835 297.968 490.208 300.407C488.417 304.673 490.743 298.53 486.295 310.114C485.821 312.114 489.465 301.931 488.845 304.02C488.62 305.244 485.871 311.987 485.813 312.103C485.869 312.291 488.302 306.202 487.999 307.19C488.025 309.613 475.909 330.631 484.678 314.438C482.371 319.019 480.566 321.032 478.146 324.783C477.351 325.992 479.444 323.376 479.931 322.904C480.268 322.325 480.047 324.673 471.485 333.755C471.081 334.082 478.027 326.283 478.021 325.936C478.226 325.618 476.684 326.813 476.462 327.047C476.083 327.463 472.143 332.767 466.636 337.359C461.208 342.058 454.34 345.619 451.929 346.534C452.612 346.32 450.886 347.231 448.035 348.36C442.889 350.504 433.902 352.713 432.45 353.06C431.877 353.22 434.082 352.896 433.468 353.06C429.737 354.154 419.551 355.627 414.79 356.157C409.485 356.802 410.242 356.838 409.932 356.881C407.629 357.115 409.459 356.814 408.046 356.958C405.841 357.28 391.182 358.217 390.47 358.197C390.257 358.214 392.623 358.295 389.475 358.467C388.917 358.477 389.312 358.329 379.801 358.631C368.525 358.913 387.687 358.759 382.997 359.064C375.671 358.897 375.966 359.173 373.969 359.17C373.275 359.166 368.153 358.915 362.665 358.84C366.628 358.859 370.552 358.837 374.57 358.766C370.59 358.758 363.132 358.745 359.872 358.612C358.302 358.551 359.567 358.358 356.191 358.279C355.508 358.254 352.533 358.759 361.528 358.704C362.256 358.915 357.934 358.705 356.011 358.704C355.716 358.704 354.552 359.003 352.057 358.718C351.456 358.622 358.037 357.994 341.127 357.956C340.586 357.952 342.458 358.162 341.929 358.162C341.571 358.164 337.277 357.899 336.795 357.887C336.307 357.879 338.382 358.121 337.801 358.115C334.819 358.09 330.925 357.347 337.074 357.73C335.038 357.556 332.936 357.371 330.936 357.185C333.08 357.707 327.751 357.104 324.918 356.919C306.813 355.686 318.914 356.815 315.794 356.72C310.787 356.536 314.666 356.186 307.209 355.763C306.543 355.712 315.419 356.81 297.999 355.082C300.582 355.312 303.157 355.533 305.724 355.745C304.284 355.248 296.428 354.933 295.819 354.874C288.936 354.257 293.614 354.597 283.416 353.744C282.507 353.667 280.526 353.364 278.588 353.201C270.526 352.525 289.204 354.455 289.696 354.629C289.933 354.761 269.857 352.592 269.179 352.446C266.274 351.961 278.276 353.398 276.007 352.944C275.175 352.841 246.603 349.592 240.923 348.713C234.336 347.765 231.44 346.85 231.323 347.418C229.541 346.607 227.853 346.767 227.014 346.649C216.801 345.194 216.866 345.191 208.086 343.994C206.156 343.729 204.56 343.324 203.878 343.254C203.481 343.214 204.191 343.503 202.251 343.279C199.538 342.973 183.406 340.382 182.186 340.088C180.984 339.805 189.077 341.079 187.639 340.694C181.739 339.794 176.32 339.013 170.369 338.083C167.936 337.702 169.205 337.779 168.156 337.615C167.708 337.546 159.346 336.361 159.666 336.453C160.524 336.699 186.376 340.576 179.539 339.739C178.212 339.578 173.659 338.612 174.327 339.045C151.114 335.44 128.069 331.65 105.012 328.165C118.305 329.873 133.209 332.43 147.111 334.568C149.069 334.87 155.453 335.894 154.703 335.609C142.86 333.729 128.157 331.512 116.869 329.688C116.499 329.628 117.882 329.688 116.498 329.454C113.88 329.008 105.701 328.029 104.248 327.758C103.993 327.704 108.818 328.219 107.377 327.88C103.675 327.01 102.655 327.577 99.5877 327.127C97.81 326.864 89.1983 325.468 83.0259 324.681C80.2128 324.319 77.8809 324.038 76.6568 323.948C74.073 323.758 78.8133 324.385 82.9936 324.94C85.5587 325.283 87.96 325.633 87.455 325.642C85.9169 325.466 84.4208 325.293 82.9706 325.125C73.2629 323.997 63.573 322.585 54.4208 321.355C54.2324 321.33 55.8528 321.7 53.4576 321.393C49.3448 320.865 48.3006 320.505 46.291 320.19C44.1839 319.862 36.5426 318.793 35.5002 318.56C35.3692 318.531 36.9568 318.552 37.1991 318.582C40.5128 318.976 41.657 319.409 41.9656 319.457C43.127 319.634 44.2391 319.687 45.2628 319.838C46.9447 320.085 47.9275 320.32 50.1584 320.638C51.6916 320.856 50.2327 320.469 51.7174 320.683C52.2622 320.764 58.1526 321.99 58.7514 321.637C58.9471 321.66 10.4654 314.41 5.68983 313.57C9.82128 314.294 13.9208 314.999 18.1101 315.704C9.64468 314.265 -0.456606 312.939 -1.10246 312.318C-13.6463 310.318 -26.4822 307.639 -38.2042 306.809C-40.734 306.683 -43.9646 305.929 -46.6258 303.677C-49.3022 301.434 -50.5724 298.429 -51.1549 296.036C-52.2557 291.154 -51.7792 287.358 -51.3915 283.702C-50.9508 280.082 -50.303 276.688 -49.8335 273.539C-49.6021 271.984 -49.416 270.452 -49.3967 269.325C-49.3793 268.784 -49.4467 268.31 -49.4319 268.414C-49.4136 268.467 -49.3661 268.733 -49.0401 269.234C-48.7107 269.763 -47.9184 270.494 -47.0695 270.808C-49.2191 269.808 -51.9572 269.1 -54.5946 264.883C-55.863 262.734 -56.0213 259.719 -55.5521 257.885C-55.123 255.991 -54.4558 254.775 -54.095 253.992C-53.4922 252.773 -53.1328 251.694 -52.6278 250.124C-51.0087 244.955 -51.5435 247.935 -49.1139 239.065C-49.8591 241.322 -50.611 243.59 -51.3707 245.824C-50.6742 243.589 -48.8536 237.363 -47.1188 231.268C-45.4188 225.305 -43.7939 219.497 -43.3748 217.858C-43.2672 217.436 -43.3861 216.766 -42.0123 211.695C-40.7947 207.198 -40.3804 206.522 -39.681 204.141C-39.0912 202.13 -38.524 199.85 -38.3484 199.256C-38.2127 198.8 -38.0328 198.654 -37.7059 197.553C-36.6784 194.086 -37.8194 196.808 -36.449 193.462C-36.6644 194.31 -36.8797 195.157 -37.0957 196.006C-35.8778 191.809 -34.1105 186.107 -35.7172 192.337C-35.9938 193.409 -35.868 192.458 -36.0862 193.254C-44.6326 224.418 -37.5355 199.605 -34.7409 188.631C-33.7836 185.88 -29.6057 170.124 -29.4301 169.611C-29.1797 168.901 -29.7606 171.625 -28.6757 168.143C-28.4925 167.568 -24.9065 154.074 -24.382 152.491C-24.3118 152.28 -24.2919 152.267 -24.3358 152.504C-24.3771 152.732 -24.4794 153.2 -24.6645 153.99C-25.0347 155.584 -27.8076 165.621 -28.4667 168.067C-27.1931 164.399 -25.4531 157.38 -24.291 152.516C-23.6692 149.915 -23.2057 147.91 -23.0645 147.399C-21.3819 141.326 -25.8358 159.178 -22.1421 145.493C-19.331 134.961 -22.1966 144.782 -21.246 140.703C-20.6917 138.421 -17.4069 126.602 -17.8364 126.75C-17.5393 125.561 -17.3429 124.891 -17.2282 124.545C-16.9299 123.652 -17.1597 124.874 -17.0426 124.498C-16.9413 123.951 -14.4434 115.68 -13.3163 113.113C-13.1882 112.799 -13.3715 113.87 -13.2334 113.547C-13.0664 113.133 -11.7614 109.667 -10.7454 107.263C-10.7285 107.222 -10.6729 107.1 -10.6541 107.06C-10.0681 105.819 -9.65236 104.929 -9.5997 104.805C-9.52717 104.626 -10.5034 106.255 -10.2064 105.535C-9.84928 104.677 -6.49087 97.7395 -6.35173 97.3249C-6.16389 96.7577 -10.228 105.388 -9.71716 103.856C-7.77081 99.9047 -4.82145 93.4004 -3.72586 90.7007C-3.98624 91.3619 -5.80395 95.2114 -6.45644 96.5428C-6.40817 95.7756 -2.5128 87.5486 -3.63129 90.4524C-2.89446 88.6004 -3.54163 89.8195 -3.1633 88.7423C-3.06581 88.468 -1.87509 85.9123 -1.70067 85.4137C-1.67638 85.3412 -3.00036 87.9145 -2.80969 87.3667C-2.6026 86.7872 -1.44926 84.2752 -0.333129 81.8278L-0.39198 81.9576C0.328744 80.3036 1.01243 78.5356 1.13238 78.2705C1.71922 76.9112 0.48697 80.3522 -0.175221 82.0529L-0.118588 81.928C-0.414337 82.6286 -0.588766 83.0857 -0.620761 83.2258C-0.62128 83.2431 -0.384601 82.7841 0.0216116 81.9934L-0.0335722 82.1152C0.646508 80.7763 1.76386 78.1994 1.79651 78.1574C2.03492 77.9839 0.860606 80.9406 0.308906 82.2658L0.360586 82.1517C0.0492127 82.86 -0.0860229 83.2312 0.0599239 83.0566C0.192388 82.7859 0.328193 82.5068 0.477254 82.2062L0.426781 82.3176C0.931488 81.2543 1.44652 80.0525 1.95368 78.8525C1.5715 79.935 1.10435 81.2001 0.604135 82.3956L0.652794 82.2882C-1.91129 88.1392 -5.44704 95.4355 -6.32785 97.7428C-3.494 91.6797 -0.593574 85.5007 0.998439 82.4496L0.953353 82.5491C1.50915 81.4667 1.89707 80.7685 2.0353 80.8367C2.1426 80.8818 1.82907 81.9154 1.51658 82.7967L1.5559 82.7099C1.18675 83.658 0.8888 84.4241 0.936394 84.383C1.07917 84.229 1.36556 83.6464 1.75605 82.8034L1.71879 82.8856C2.40306 81.3338 3.25863 78.8161 3.31471 78.6965C3.38674 78.5449 3.42604 78.4766 3.43703 78.4808C3.43704 78.4808 3.43704 78.4808 3.43704 78.4808C3.50043 78.4935 2.63013 80.9681 1.82385 82.9318L1.86003 82.852C1.13656 84.5133 0.539117 85.8823 0.480998 86.0602C0.287617 86.7132 2.12319 83.6799 2.20437 83.7071C2.17255 83.8402 -0.116617 88.9956 0.82451 87.3342C1.34202 86.424 2.14011 84.7799 2.83867 83.309L2.81261 83.3665C3.35036 82.184 3.76448 81.1338 3.8019 81.0654C3.98298 80.7075 3.54529 81.9563 2.9433 83.424L2.96802 83.3694C2.03898 85.5208 0.843571 88.1842 0.804483 88.3396C0.777084 88.4739 2.88657 84.3255 2.98207 84.2185C3.0758 84.1382 1.7006 87.387 1.2395 88.728C0.906679 89.7123 2.26571 87.0121 2.06004 87.4941C1.91243 87.8606 -1.58736 95.2742 -1.75174 95.6574C-1.98161 96.2119 -1.03887 94.546 -1.12361 94.8048C-1.24239 95.172 -2.43199 97.5607 -2.24124 97.2776C-2.08166 97.0447 2.74463 87.9383 2.81625 88.0564C2.97605 88.2453 -2.12668 97.9121 2.96691 89.087C3.00232 89.0273 3.98982 86.7591 4.02142 86.6993C4.78245 85.4145 1.8586 92.3116 5.41954 84.5143C5.51102 84.3044 5.60541 84.083 5.70199 83.8519C5.60997 84.079 5.51812 84.3017 5.42777 84.5162C-1.44131 99.9345 5.07181 86.0761 4.28881 88.6096C3.98901 89.6012 1.04944 95.9625 1.05188 95.9997C1.51221 95.4441 2.33531 93.3819 2.73747 92.7322C2.96134 92.3773 0.454024 98.1108 1.1658 96.8921C1.53824 96.2612 4.35209 90.2459 4.47609 89.9981C5.68751 87.676 4.44494 90.6331 4.76051 90.1507C4.97582 89.8296 6.66986 86.1769 6.71537 86.0891C6.81322 85.9439 4.71877 90.9935 4.3007 92.051C3.98901 92.8567 5.44873 89.9683 5.21723 90.5227C3.82455 93.8739 0.149896 100.678 3.84268 94.1912C4.06474 93.8034 5.2542 91.2425 5.29403 91.1715C6.17925 89.6599 3.98317 94.3695 3.70628 95.2524C3.22814 96.7905 6.2974 89.9973 3.79289 95.6699C5.64032 92.0607 6.74896 89.7426 8.45878 85.9336C8.4655 85.9196 8.48442 85.877 8.49082 85.8629C8.74103 85.2843 8.98577 84.6861 9.23782 84.053C8.99396 84.6656 8.74971 85.2672 8.49432 85.8644C8.48792 85.8786 8.46897 85.9212 8.46225 85.9352C2.88894 98.3054 1.52883 102.366 8.3314 87.8107C6.07923 92.6623 6.61201 92.2565 5.94513 93.6964C5.52855 94.5977 1.93715 101.405 4.10736 98.5364C4.37418 98.1904 6.28395 93.8803 5.82199 95.2943C0.96459 105.431 5.83021 95.5619 5.85277 95.5653C6.04312 95.7412 2.23057 103.766 -1.49837 111.444L-1.39784 111.221C-3.88051 116.954 -5.80421 122.718 -6.34697 124.591C-6.62845 125.543 -6.88384 126.485 -7.10625 127.379C-8.02709 131.175 -8.6127 134.64 -8.85716 135.55C-9.82932 139.366 -9.18741 136.151 -9.46677 136.99C-9.74046 137.864 -12.241 148.712 -12.4109 149.248C-13.0371 151.321 -12.6725 149.154 -12.7384 149.362C-13.0087 150.215 -13.6172 152.465 -14.3428 155.184C-15.7651 160.519 -17.6634 167.744 -18.4217 170.414C-18.2596 170.326 -16.0518 162.222 -17.2178 167.336C-18.5799 173.302 -19.235 173.479 -19.3027 173.632C-24.816 193.888 -30.3724 214.136 -36.0009 234.369C-37.9031 241.116 -39.663 247.719 -41.8736 254.686C-41.2588 254.237 -36.5277 236.606 -36.3838 236.191C-35.9909 234.801 -38.8557 247.956 -43.3057 259.14C-43.8217 260.163 -43.9125 260.595 -43.8663 260.361C-43.8503 260.245 -43.8482 259.934 -43.9314 259.633C-44.01 259.33 -44.1491 259.084 -44.2356 258.967C-44.423 258.729 -44.3518 258.864 -44.1965 258.969C-44.0426 259.084 -43.8326 259.21 -43.6955 259.29C-44.0462 259.092 -44.2918 258.893 -44.3295 258.833C-44.3805 258.768 -44.1449 258.923 -43.9497 259.402C-43.7461 259.877 -43.7842 260.419 -43.7841 260.441C-43.7825 260.486 -43.6783 260.193 -43.4123 259.677C-43.5821 260.13 -43.6754 260.493 -43.6422 260.479C-43.6298 260.47 -43.5885 260.346 -43.5894 260.095C-43.5875 259.849 -43.6545 259.479 -43.7801 259.189C-44.0549 258.57 -44.2798 258.534 -44.0285 258.707C-43.7984 258.879 -43.2639 259.176 -42.5935 259.45C-40.544 260.207 -38.9353 262.109 -38.3363 263.447C-37.6443 264.901 -37.4837 265.977 -37.36 266.878C-37.1481 268.721 -37.2541 270.106 -37.3519 271.37C-37.5796 273.909 -37.942 276.012 -38.192 277.85C-38.5135 280.148 -37.6633 275.769 -37.6709 275.817C-37.9524 278.547 -38.7142 282.47 -38.4081 279.447C-39.178 285.535 -39.2968 284.641 -39.5979 288.852C-39.5893 289.036 -39.4525 287.4 -39.408 290.468C-39.4163 291.126 -39.1434 293.461 -38.7432 293.957C-38.5679 294.217 -38.632 294.09 -38.5572 294.128C-38.4852 294.152 -38.2275 294.2 -38.1106 294.186C-38.0081 294.183 -38.4102 293.938 -38.3946 293.831C-38.3837 293.729 -38.2299 293.837 -38.4563 293.952C-38.472 293.898 -38.6114 293.597 -38.6984 293.26C-38.7896 292.929 -38.8553 292.576 -38.899 292.333C-38.9876 291.82 -39.0291 291.644 -39.0727 291.645C-39.1504 291.608 -39.2404 292.215 -39.3223 290.727C-39.1759 290.09 -39.6106 291.971 -38.5076 282.582C-38.3979 283.524 -38.8791 286.771 -38.9408 289.51C-38.9783 290.883 -38.8876 292.093 -38.7406 292.805C-38.5929 293.531 -38.4589 293.745 -38.4158 293.801C-38.3282 293.882 -38.303 293.861 -38.3516 293.704C-38.4014 293.546 -38.6719 292.85 -38.7717 291.413C-39.0186 288.576 -38.316 283.722 -38.2792 282.234C-38.111 283.651 -38.0754 281.185 -37.4253 277.34C-36.7515 273.045 -36.9166 274.952 -36.6159 272.428C-36.2859 269.211 -36.4934 267.415 -36.7779 266.049C-36.9488 265.294 -37.0802 264.714 -37.5528 263.593C-38.0438 262.64 -38.8451 260.375 -42.3472 258.825C-42.5782 258.719 -42.8211 258.595 -43.0516 258.457C-42.6109 258.832 -42.4458 258.985 -42.6538 258.959C-42.8325 258.943 -43.3794 258.718 -43.7155 258.484C-43.8758 258.379 -43.9556 258.267 -43.8192 258.379C-43.6974 258.469 -43.2971 258.978 -43.155 259.65C-43.0065 260.318 -43.1267 260.714 -43.0647 260.622C-43.0133 260.546 -42.8153 260.162 -42.4775 259.536C-41.8004 258.288 -41.181 256.807 -40.8853 256.055C-41.2507 257.146 -41.8329 258.584 -42.3289 259.607C-42.745 260.457 -42.8572 260.857 -42.7934 260.657C-42.7025 260.507 -42.7152 259.244 -43.1443 258.569C-43.5378 257.893 -43.7023 257.916 -43.4824 258.034C-43.2816 258.162 -42.8169 258.395 -42.2609 258.606C-40.3543 259.323 -38.7468 260.87 -37.9274 262.255C-37.109 263.604 -36.7986 264.726 -36.5834 265.693C-36.2117 267.507 -36.2334 268.88 -36.2584 270.043C-36.2025 269.547 -36.1571 269.064 -36.1354 268.478C-36.0869 271.027 -36.3619 272.899 -36.6115 274.751C-36.6071 274.448 -36.6045 274.147 -36.6039 273.846C-37.7762 283.171 -38.2879 284.549 -38.3621 285.308C-38.7223 288.122 -38.8459 291.145 -38.4365 292.816C-38.3462 293.211 -38.2331 293.494 -38.1702 293.612C-38.1044 293.735 -38.1154 293.689 -38.1818 293.635C-38.2436 293.578 -38.3213 293.556 -38.2259 293.591C-38.1352 293.623 -37.8982 293.682 -37.5038 293.702C-34.1663 293.883 -30.9606 294.255 -28.0009 294.648C-26.5932 294.86 -27.4491 294.395 -17.2795 296.218C-14.099 296.8 -17.1202 296.495 -13.4943 297.065C-8.85347 297.316 -8.99572 297.711 -7.65528 297.935C-3.77442 298.585 -1.39179 298.853 -1.03234 298.911C3.75504 299.689 10.7752 300.858 16.024 301.666C16.1396 301.683 13.4167 301.092 16.8059 301.675C18.0187 301.886 28.6383 304.234 38.097 305.382C35.6523 304.98 33.2071 304.572 30.7743 304.162C33.6545 304.687 53.8366 307.386 48.9356 306.504C45.9531 305.978 38.5173 305.347 37.7277 304.805C44.3961 305.999 81.6293 310.757 84.5277 311.146C84.9318 311.211 82.411 311.033 82.9715 311.12C83.0834 311.138 83.7423 311.221 84.6883 311.338C87.194 311.644 92.3462 312.324 93.1526 312.475C93.8688 312.603 89.9509 312.159 90.2643 312.251C90.681 312.327 101.228 313.853 101.93 313.794C99.2248 313.467 91.8841 312.393 95.7464 312.783C96.2352 312.832 98.8227 313.306 99.4544 313.374C105.182 313.969 88.1837 311.626 85.6683 311.35C96.303 312.458 112.526 315.137 124.717 316.871C129.578 317.76 117.481 315.981 122.955 316.939C134.464 318.954 126.046 317.215 126.401 317.251C129.397 317.566 138.875 319.812 139.031 319.247C143.289 319.998 141.81 319.842 147.719 320.684C146.949 320.524 146.182 320.363 145.418 320.204C152.064 320.899 165.704 323.874 164.71 323.784C161.832 323.516 154.692 322.134 154.101 322.048C153.264 321.928 150.468 322.092 140.693 320.036C136.595 319.8 156.411 322.753 147.327 321.613C153.48 322.533 178.608 326.691 182.188 327.042C182.628 327.084 180.657 326.389 186.863 327.527C189.815 328.068 182.666 326.997 184.011 327.29C188.108 328.3 244.638 336.187 255.385 337.302C256.082 337.387 255.811 337.477 256.496 337.56C258.603 337.819 266.29 338.557 270.058 339.041C262.266 337.914 277.453 339.651 281.292 340.068C287.161 340.73 286.771 340.899 289.297 341.204C299.026 342.391 314.232 343.192 321.746 344.19C321.396 343.704 334.84 345.331 341.035 345.608C345.783 345.852 352.914 345.798 346.342 345.348C354.721 345.725 363.461 345.839 371.218 345.809C372.519 345.803 370.731 345.946 372.946 345.929C373.146 345.925 373.427 345.79 375.311 345.761C390.804 345.388 383.304 345.767 386.201 345.794C387.826 345.787 389.011 345.761 389.877 345.731C380.871 346.177 370.357 346.214 367.567 346.187C369.96 346.587 387.752 345.996 392.824 345.699C393.007 345.692 392.38 345.893 392.565 345.884C392.569 345.884 392.573 345.884 392.577 345.884C394.618 345.859 406.774 344.827 404.267 344.815C403.497 344.83 398.059 345.33 391.19 345.668C393.015 345.541 391.64 345.42 391.962 345.396C395.961 345.143 405.396 344.598 408.744 344.216C409.5 344.14 409.432 344.025 409.555 344.011C412.522 343.695 411.372 344.185 414.466 343.425C420.02 343.156 404.197 344.744 405.307 344.809C406.266 345.676 440.924 339.192 440.223 337.844C440.345 337.84 440.806 337.733 441.708 337.461C442.101 337.342 442.751 337.121 443.529 336.83C446.914 335.661 452.234 332.67 453.24 331.884C453.456 331.731 453.19 331.513 453.461 331.334C454.266 331.112 463.124 324.32 465.383 320.71C463.918 322.42 462.365 324.022 460.71 325.522C465.544 320.838 467.009 318.263 467.376 317.796C467.696 317.276 466.716 318.622 465.256 320.335C465.113 320.509 464.964 320.67 464.825 320.833C462.57 323.498 459.237 326.415 459.153 326.429C459.041 326.482 463.22 322.752 466.286 318.607C469.406 314.539 471.615 310.342 470.673 312.383C470.562 313.089 464.261 321.67 467.519 317.522C468.164 316.865 471.706 310.92 471.822 310.565C472.452 309.524 471.117 312.393 469.428 315.191C467.779 317.983 465.773 320.606 466.437 319.958C468.538 316.969 471.174 313.048 473.025 309.198C473.874 307.434 473.901 306.933 474.002 306.716C475.413 303.435 474.754 305.332 475.224 304.228C475.547 303.644 477.576 296.825 477.594 298.242C483.18 275.061 480.027 292.258 474.456 305.501C476.214 301.304 478.93 292.837 479.734 288.782C480.037 287.368 479.697 288.177 480.169 285.764C481.622 280.923 483.917 256.366 483.606 249.814C483.633 253.786 483.832 252.63 483.838 249.559C483.827 246.482 483.581 249.067 483.555 248.467C483.609 247.829 483.35 233.363 483.107 230.947C483.69 241.85 483.793 239.386 483.354 230.12C483.481 231.456 483.601 232.792 483.715 234.13C483.438 228.719 482.851 217.217 482.464 214.101C482.407 213.609 482.409 215.391 482.377 215.115C482.091 212.347 481.312 202.933 481.202 202.493C481.121 202.123 481.406 206.163 481.19 204.674C481.143 204.34 480.961 200.527 480.483 196.658C480.308 195.24 480.257 196.111 480.209 195.755C479.807 192.777 480.26 194.585 479.595 189.078C479.116 185.126 478.524 182.139 477.981 176.592C479.755 194.825 478.113 179.571 477.198 171.931C477.059 170.683 476.867 171.742 476.286 164.379C478.341 179.976 476.001 159.967 475.86 155.668C475.849 155.413 476.015 155.453 475.91 153.266C475.904 153.091 475.787 153.333 475.707 151.395C475.441 144.394 475.871 141.37 475.947 140.629C476.003 140.198 476.003 140.342 475.991 140.634C475.965 141.219 475.912 142.394 476.098 140.916C476.107 140.844 476.118 140.754 476.131 140.649C476.379 138.625 477.053 130.845 477.278 128.625C477.329 128.121 477.431 128.336 477.636 126.303C478 122.692 478.192 119.455 478.411 117.075C478.432 116.817 478.641 116.802 478.984 112.301C479.08 111.021 479.123 109.663 478.921 111.402C478.234 117.336 477.369 128.688 476.466 135.451C475.648 141.612 477.689 122.131 477.766 121.147C477.803 120.768 477.519 124.558 477.922 120.734C478.263 117.418 478.545 111.358 478.92 106.653C478.933 106.496 479.071 105.439 479.164 104.617C479.211 104.186 479.245 103.849 479.266 103.69C479.286 103.525 479.311 103.603 479.314 103.588C479.426 102.647 479.195 108.719 479.303 107.827C479.334 107.724 479.538 104.055 479.549 103.886C479.572 103.761 479.654 103.548 479.766 103.536C479.829 103.542 479.875 103.586 480.053 103.98C480.103 104.088 480.168 104.228 480.25 104.379C480.339 104.55 480.459 104.755 480.61 104.969C480.915 105.424 481.445 105.891 481.561 105.941C481.523 105.747 481.32 105.474 481.15 105.345C479.77 104.346 480.607 105.109 479.64 104.481C478.175 103.474 473.557 101.138 470.783 100.439C469.336 100.016 468.467 99.7443 468.346 99.7844C469.105 100.045 469.889 100.311 470.744 100.571C471.494 100.801 472.24 101.057 472.98 101.338C472.101 101.018 471.358 100.785 470.734 100.606C464.799 98.7387 467.887 99.8102 466.705 99.4713C465.371 99.0885 465.788 98.9562 462.971 98.0818C462.66 97.9884 459.584 97.082 456.646 96.6659C453.703 96.2085 450.887 96.2697 450.992 96.316C457.355 96.4388 454.974 96.7446 455.265 96.7122C456.374 96.8623 457.82 96.9381 459.328 97.2759C469.992 100.179 459.151 97.4292 461.658 98.1906C462.51 98.4367 464.287 98.8449 464.664 98.9766C465.883 99.3919 465.848 99.5657 466.692 99.8325C468.69 100.47 466.44 99.4571 466.611 99.5015C467.382 99.6863 469.083 100.282 470.677 100.797C472.264 101.335 473.256 101.828 471.068 101.26C473.285 102.084 473.665 101.914 475.36 102.792C478.666 104.646 473.596 102.107 472.116 101.746C471.551 101.567 471.028 101.415 470.534 101.281C465.35 99.8058 463.589 98.6241 456.638 97.3996C454.285 97.0219 451.585 97.0211 450.055 97.1153C449.731 97.1306 449.451 97.1425 449.226 97.1498C448.217 97.1177 439.805 97.0569 439.773 98.0378C437.325 98.2523 433.907 98.564 431.384 99.4482C430.59 99.7253 429.875 99.9926 429.223 100.265C426.377 101.463 427.395 101.378 427.136 101.496C426.731 101.677 423.325 103.144 422.237 103.722C420.959 104.391 421.636 104.175 419.649 105.23C414.814 107.925 414.996 107.701 414.481 107.958C413.078 108.809 412.201 109.466 411.502 109.971C409.391 111.388 407.865 111.251 407.113 111.273C406.32 111.245 405.944 111.165 405.652 111.121C405.114 111.027 404.991 111.014 404.913 111.029C404.801 111.058 404.736 111.152 403.684 110.744C401.927 110.138 397.544 107.184 392.803 104.438C387.511 101.285 382.277 98.7965 380.656 98.5146C381.995 98.8494 383.38 99.3406 384.838 99.9577C382.339 98.5301 379.773 98.1928 379.804 97.8594C379.256 98.1385 374.19 97.2083 372.255 97.4092C371.558 97.438 371.618 97.5271 370.74 97.5776C370.733 97.5781 370.726 97.5785 370.719 97.5789C367.398 97.6741 359.24 99.0292 357.328 99.5476C349.844 101.388 366.407 97.929 370.77 98.1196C371.331 98.0981 371.701 98.0903 371.878 98.0859C371.601 98.0956 371.243 98.1108 370.771 98.1377C365.936 98.1229 350.458 101.781 358.557 100.266C359.913 100.022 362.251 99.346 363.007 99.2176C368.095 98.3771 364.12 99.2016 364.524 99.1608C365.212 99.0754 368.503 98.4513 369.342 98.429C369.574 98.423 368.337 98.6471 370.792 98.5288C371.24 98.5125 371.791 98.491 372.461 98.4743C372.132 98.5117 371.56 98.5506 370.796 98.6074C366.702 98.7645 356.337 100.718 354.847 101.191C354.215 101.426 358.298 100.585 346.532 103.437C346.679 103.434 346.825 103.431 346.971 103.428C346.828 103.471 346.685 103.513 346.541 103.556C342.413 104.788 338.702 105.878 336.504 107.303C334.33 108.662 332.216 110.042 330.178 111.466C330.712 110.981 333.71 108.727 329.844 111.417C327.675 112.98 329.402 112 329.205 112.145C328.728 112.571 324.014 115.61 320.813 119.477C320.36 119.941 319.62 121.358 316.789 122.665C313.755 124.07 310.065 122.995 308.76 122.144C306.911 121.047 306.394 120.381 305.747 119.786C305.157 119.2 304.705 118.711 304.273 118.249C303.422 117.334 302.674 116.535 301.911 115.788C297.131 111.024 291.908 106.891 287.956 105.757C282.589 104.036 278.502 103.06 276.723 102.809C275.812 102.661 274.311 102.502 273.131 102.574C269.93 102.711 266.737 102.932 266.375 102.962C264.842 103.058 260.872 103.307 259.005 103.895C254.558 105.25 250.661 106.63 249.517 107.157C248.193 107.74 249.51 107.347 248.346 107.856C247.287 108.337 248.312 107.685 247.996 107.824C247.392 108.094 245.807 108.823 244.215 109.922C243.4 110.483 242.46 111.275 241.203 112.469C239.81 113.63 238.762 115.385 234.512 117.522C233.595 118.026 230.764 118.623 228.833 118.017C226.946 117.491 226.249 116.897 225.701 116.546C224.705 115.827 224.355 115.469 223.935 115.103C223.164 114.407 222.563 113.845 221.933 113.273C217.493 109.22 213.486 105.635 211.771 104.123C213.224 105.355 217.978 109.496 222.071 113.121C222.803 113.764 223.459 114.36 224.294 115.086C224.756 115.467 225.113 115.841 226.302 116.615C226.918 116.977 227.898 117.617 229.78 117.911C231.694 118.216 233.613 117.623 234.391 117.247C238.296 115.207 238.68 114.145 238.724 114.211C238.603 114.216 237.458 115.588 234.31 117.065C233.693 117.335 232.65 117.71 231.335 117.768C230.024 117.837 228.765 117.519 227.998 117.21C226.45 116.561 226.028 116.123 225.605 115.829C224.857 115.244 224.589 114.984 224.381 114.82C223.91 114.333 223.161 113.658 222.271 112.903C220.548 111.436 218.279 109.585 216.922 108.293C216.686 108.077 217.798 108.718 214.005 105.314C212.828 104.281 208.707 100.867 206.49 99.4212C206.436 99.3962 206.384 99.3739 206.364 99.367C203.664 98.2447 198.685 95.6711 194.058 95.5852C189.365 95.4312 182.873 95.431 181.182 95.9969C174.151 98.2182 170.035 100.176 169.406 100.687C169.319 100.696 173.22 98.9564 170.657 100.28C168.128 101.697 169.221 100.859 168.068 101.352C167.645 101.557 167.048 101.879 165.992 102.506C165.087 102.933 153.565 110.472 151.258 111.309C150.254 111.794 148.854 112.106 148.483 112.157C148.3 112.19 148.381 112.199 148.67 112.174C148.963 112.148 149.435 112.076 149.913 111.956C151.892 111.43 153.165 110.667 154.484 109.956C157.031 108.523 159.648 106.912 159.614 106.959C159.459 107.089 158.015 108.017 156.157 109.173C155.209 109.756 154.22 110.376 152.928 111.067C152.241 111.414 151.565 111.813 150.07 112.26C149.303 112.466 148.168 112.75 146.493 112.575C144.81 112.428 142.994 111.503 142.154 110.806C140.95 109.848 140.659 109.519 140.562 109.44C140.493 109.354 140.984 109.813 142.214 110.73C142.964 111.317 144.236 112.002 145.495 112.274C146.772 112.563 147.766 112.506 148.474 112.421C149.846 112.222 150.282 111.986 150.521 111.905C150.725 111.814 150.657 111.841 149.974 112.03C149.579 112.121 149.082 112.297 147.808 112.362C146.671 112.5 143.835 111.912 142.319 110.594C141.084 109.627 140.328 108.83 139.34 108.056C140.075 108.696 140.489 109.242 142.122 110.638C140.447 109.284 140.145 108.912 139.644 108.487C139.207 108.097 138.891 107.82 138.636 107.591C138.121 107.135 137.88 106.891 137.482 106.608C135.983 105.556 134.132 104.618 131.825 103.44C130.195 102.61 128.482 101.694 126.592 100.676C125.346 100.011 127.548 100.813 127.397 100.734C125.886 99.8835 123.762 99.4675 121.598 98.5132C121.514 98.471 122.812 98.8072 122.978 98.8152C123.163 98.8949 122.076 98.1371 117.602 97.469C118.207 97.5718 118.819 97.7018 119.435 97.8571C119.018 97.7971 117.771 97.5699 116.316 97.5077C113.125 97.2512 108.362 98.2294 107.381 98.4725C103.315 99.4411 106.819 98.2743 102.683 99.4812C104.291 99.1907 100.656 100.33 97.4309 101.483C95.0868 102.306 92.98 103.017 93.2591 102.799C91.5383 103.756 80.248 107.687 75.3112 109.85C74.62 110.146 73.7802 110.521 72.9255 110.927C70.1022 112.213 66.9915 114.523 66.0332 115.157C65.3768 115.587 65.0501 115.726 64.4916 115.981C64.1963 116.111 63.8704 116.281 63.0558 116.61C62.6273 116.77 62.0838 117.006 60.9686 117.195C59.9452 117.39 57.6173 117.398 55.6866 116.15C55.4096 115.977 55.031 115.72 54.5975 115.333C52.6854 113.693 48.9892 109.385 44.594 106.484C43.7129 105.854 41.8539 104.367 43.7013 105.324C46.9728 106.867 51.531 111.533 51.6433 111.434C51.7972 110.95 44.9474 105.442 42.5833 104.441C32.266 99.2415 38.3067 101.974 38.136 101.723C37.8561 101.513 36.6538 100.943 35.2745 100.384C33.2794 99.5704 31.123 98.7675 30.9757 98.7075C29.9062 98.2272 34.4386 99.758 34.5663 99.6967C34.6791 99.5539 28.6818 97.0643 30.0845 97.5304C31.2563 97.8895 33.6611 98.8592 35.5565 99.6532C36.8197 100.181 37.7825 100.633 37.9177 100.686C41.7037 102.242 38.0039 100.221 35.7396 99.1783C35.3519 98.9965 35.0141 98.8368 34.7699 98.7172C34.4084 98.5394 35.3493 98.8446 35.8132 98.9875C36.0117 99.0482 36.1179 99.0777 35.9867 99.0217C35.9326 98.9986 35.8791 98.9759 35.8262 98.9536C29.3502 96.261 34.3243 98.8713 29.9147 97.224C25.9879 95.8597 31.1299 97.3412 30.9942 97.3061C30.7928 97.1831 26.0812 95.6253 25.3851 95.4286C25.0766 95.1795 32.9014 97.4357 35.999 98.5056C36.7632 98.742 37.1851 98.8616 37.1003 98.7835C36.756 98.6491 36.4049 98.515 36.047 98.3811C32.3593 97.0038 28.7421 95.6509 25.1696 94.8087C24.9159 94.4006 30.5425 96.3065 31.1466 96.564C32.3548 96.9352 29.0807 95.6413 29.2492 95.6273C29.3376 95.5873 33.3092 96.7863 29.8019 95.4818C28.595 95.0888 25.9979 94.2225 21.6598 93.4313C29.3206 94.6438 30.5843 95.6348 29.7968 95.1414C29.0211 94.7776 26.241 93.8941 26.0224 93.8109C25.588 93.5987 33.0999 95.398 24.043 93.0733C23.7462 92.5178 24.2761 92.8948 26.8774 93.5075C30.0572 94.4201 22.8471 91.6888 34.2969 95.8668C33.748 95.2829 24.4453 92.2736 23.9149 92.4024C23.4847 92.291 25.6121 92.6281 24.8706 92.4272C20.4626 91.2875 19.702 91.5007 19.8099 91.4014C19.9049 91.3644 20.818 91.3781 19.4962 91.1853C19.471 91.1821 19.3491 91.1754 19.1601 91.1699C17.5898 90.9924 11.3401 92.2825 17.1878 91.144C17.8678 91.0515 18.5258 90.9947 19.1611 90.9957C29.8968 91.8106 33.8899 95.0497 35.986 94.8218C30.5855 92.4925 23.9901 90.4059 19.1633 90.5878C16.6131 90.6913 14.7701 91.2809 13.8401 91.482C9.77077 92.5506 13.9488 91.3016 13.4427 91.399C13.2534 91.4031 9.76574 92.417 9.72126 92.4413C8.28716 92.7106 13.0595 90.5851 19.1648 90.3195C24.0016 90.3951 28.9313 92.1921 31.4095 92.9906C29.9415 92.3945 28.4532 91.8323 26.9293 91.3414C29.0256 91.8978 31.0721 92.5881 33.0902 93.3205C23.4073 89.8909 32.8116 93.0482 35.318 93.6157C35.8918 93.7228 29.5324 91.5158 36.8068 93.9664C31.534 91.9191 33.2867 92.3905 28.2844 90.9463C28.4134 90.8218 33.3628 92.2873 37.7606 93.9371C40.1048 94.782 42.3129 95.7307 43.7496 96.4075C41.1918 95.1171 39.2698 94.3432 37.8186 93.7866C30.9668 91.3915 35.2056 92.6094 23.7576 89.5029C21.0793 89.2203 27.8613 90.5132 27.2698 90.5085C25.8354 90.2443 23.0008 89.3392 19.1697 89.4169C17.7119 89.4615 16.2783 89.7636 14.8417 90.1812C13.9756 90.467 17.7504 89.7883 12.2311 91.1121C11.6187 91.2492 8.13351 92.1319 8.18175 92.1177C8.57579 91.8031 12.0108 90.8288 12.1455 90.7498C12.2529 90.6304 8.44583 91.812 8.43764 91.8215C8.25429 91.6619 11.5913 90.7659 11.0954 90.8614C10.036 91.0276 -3.87688 94.9337 14.224 89.6205C-0.681334 94.3501 11.9283 89.6751 18.4977 89.1225C18.7463 89.1083 18.9698 89.0996 19.1715 89.0944C20.3344 89.0791 20.9405 88.9938 22.9076 89.2295C25.8605 89.5957 29.0706 90.6486 30.4706 91.089C31.9554 91.6045 23.602 88.3541 35.7733 92.7627C31.8296 91.1222 25.561 88.6481 19.1742 88.598C15.6743 88.677 13.0213 89.5032 10.8304 90.0282C0.919616 93.1209 11.5177 88.4207 19.1772 88.0571C21.0269 88.0562 22.4213 88.2555 22.9259 88.3164C23.589 88.3926 21.3902 87.9534 21.83 88.0033C22.8433 87.5878 35.2402 91.4789 36.2543 91.9604C37.4609 92.2704 31.9479 90.3545 31.5815 90.1279C31.4718 90.0152 35.8413 91.5061 38.3428 92.4272C40.3839 93.1772 41.3791 93.5329 38.3871 92.3122C38.2592 92.2616 38.1236 92.208 37.98 92.1514C32.9687 89.9091 22.2093 87.3076 20.0191 87.29C26.9902 87.6219 32.8391 90.0994 38.4389 92.178C40.5741 92.9922 42.6933 93.8976 44.7612 94.915C42.7293 93.8251 40.6384 92.8435 38.5263 91.9514C36.4182 91.0579 34.267 90.1476 32.0212 89.3035C34.3652 90.0889 36.5311 90.9289 38.6094 91.7358C44.8943 94.2003 50.7495 97.2469 56.2274 101.856C51.9242 97.9984 49.7581 96.897 49.5076 96.6131C49.2204 96.3803 50.6647 97.16 52.6447 98.5387C56.7805 101.238 61.8153 106.892 61.7195 106.617C62.1089 106.996 56.1621 100.35 54.8048 99.4655C56.8994 100.926 60.4299 104.535 62.5119 106.497C62.0379 106.008 60.7709 105.409 59.8602 105.41C58.9474 105.38 58.5674 105.561 58.4058 105.607C58.1154 105.726 58.407 105.59 58.6667 105.406C59.2441 105.018 60.0195 104.452 60.7377 103.951C62.1821 102.934 63.5106 102.094 64.3246 101.586C65.9918 100.613 65.4425 100.572 61.2168 103.063C62.6861 102.15 65.6989 100.315 67.5875 99.3923C68.4622 98.9464 69.0324 98.6616 69.0043 98.666C68.8621 98.6858 68.3056 98.9003 67.5183 99.2428C65.7236 100.002 62.8312 101.589 60.8249 102.93C58.7502 104.312 57.8915 104.864 58.3499 104.466C59.8597 103.177 63.3648 101.06 67.0715 99.317C67.2027 99.2538 67.3342 99.1913 67.4658 99.1293C83.0788 92.344 80.333 92.7455 92.7014 88.1443C94.0781 87.6515 95.6542 87.1159 97.4882 86.5573C97.1001 86.6382 96.7107 86.7216 96.3275 86.8049C102.483 84.8747 109.351 82.933 117.086 83.381C125.549 83.9112 132.534 87.2788 138.523 90.3465C140.788 91.5167 143.057 92.7802 145.361 94.3252C146.507 95.0951 147.678 95.9572 148.797 96.8941C149.88 97.7932 151.07 98.9381 151.248 99.0593C150.754 98.6562 149.695 98.0785 148.67 97.8955C147.648 97.6966 146.888 97.7968 146.497 97.8649C145.685 98.0336 145.717 98.0976 145.757 98.0654C145.91 98.0022 146.456 97.7109 146.97 97.4123C148.031 96.7984 149.23 96.0618 150.419 95.3345C152.667 93.8107 156.324 91.4289 160.543 88.8068C165.689 85.5757 171.755 83.6096 176.445 81.9892C183.774 80.0607 187.059 80.7863 190.547 80.6574C191.22 80.6656 192.699 80.7043 194.425 80.7731C199.577 80.8412 205.408 83.0587 205.9 83.2805C206.666 83.5994 204.93 82.9504 203.347 82.5079C201.766 82.0668 200.442 81.7881 202.559 82.399C203.035 82.4562 208.434 84.3715 212.231 86.1766C215.596 87.795 217.044 89.1356 218.402 90.1079C219.655 91.0652 220.339 91.6058 220.119 91.3614C218.824 90.3358 215.972 87.8259 212.266 86.0993C211.618 85.8132 211.102 85.5806 210.877 85.469C209.68 84.8795 210.445 85.1693 212.32 85.978C218.833 89.1395 225.044 95.4887 232.275 101.956C232.964 102.585 233.673 103.25 234.223 103.75C234.466 103.978 234.783 104.221 234.504 104.013C234.322 103.917 233.995 103.557 232.557 103.164C231.074 102.705 228.828 103.212 228.329 103.516C227.98 103.695 228.376 103.499 228.863 103.059C229.369 102.623 230.026 101.996 230.735 101.333C232.157 99.9946 233.835 98.5235 235.577 97.336C240.232 94.2353 243.437 93.1895 244.03 92.8584C242.774 93.3077 241.501 93.8059 240.213 94.3795C243.82 92.6238 247.334 91.4228 250.679 90.3536ZM116.566 98.1194C116.479 98.1246 116.383 98.1287 116.282 98.1322C114.548 98.1151 111.015 98.2795 108.58 98.8844C105.107 99.6158 99.0345 102.441 101.505 100.866C106.8 99.1311 111.823 97.8696 116.283 98.1056C116.377 98.1094 116.472 98.1141 116.566 98.1194ZM196.665 96.3982C193.884 95.9273 196.042 95.6375 198.485 96.4729C198.78 96.6079 200.564 97.4527 196.665 96.3982ZM161.725 105.634C161.873 105.535 164.85 103.728 164.95 103.678C167.693 102.193 158.737 107.629 161.725 105.634ZM340.315 105.179C336.985 106.51 339.355 105.878 341.671 104.962C341.811 104.904 340.541 105.092 340.315 105.179ZM337.979 106.115C337.42 106.292 336.808 106.585 336.272 106.93C333.595 108.628 331.274 110.632 334.692 108.352C334.874 108.233 335.609 107.71 336.408 107.15C337.105 106.622 338.042 106.095 337.979 106.115ZM184.092 96.0147C184.403 95.835 188.225 95.786 189.972 95.8519C189.914 95.9562 185.503 95.8674 184.092 96.0147ZM277.387 102.761C277.488 102.744 275.096 102.222 273.122 102.288C269.015 102.387 264.455 102.7 263.999 102.838C265.099 102.691 269.338 102.48 273.126 102.39C275.033 102.332 277.343 102.8 277.387 102.761ZM305.105 118.683C304.826 118.377 302.922 116.321 302.096 115.599C301.784 115.313 301.584 115.145 301.593 115.184C301.732 115.332 301.882 115.49 302.041 115.655C302.773 116.414 303.707 117.395 304.45 118.15C305.192 118.902 305.7 119.354 305.105 118.683ZM376.566 98.5798C376.673 98.5776 376.014 98.3733 376.181 98.2915C376.336 98.2526 377.433 98.0764 380.557 99.1488C381.474 99.4469 378.104 98.7085 378.431 98.8518C379.123 99.0228 379.657 99.1792 380.095 99.3054C377.26 98.4938 373.727 98.5834 373.329 98.549C371.683 98.3746 376.57 98.4971 376.566 98.5798ZM415.743 107.921C416.258 107.425 420.656 105.105 421.766 104.661C421.948 104.585 421.269 105.161 423.347 104.167C425.055 103.372 422.372 104.306 425.749 102.844C429.193 101.399 424.671 103.541 424.997 103.423C425.378 103.242 430.667 100.908 430.582 101.117C430.468 101.253 424.733 103.58 423.403 104.263C421.679 105.108 423.842 104.259 420.97 105.615C419.205 106.48 420.032 105.718 419.656 105.891C419.234 105.993 413.728 109.522 415.752 107.917C415.749 107.918 415.746 107.92 415.743 107.921ZM380.897 99.5351C380.671 99.4725 380.408 99.3963 380.095 99.3054C380.363 99.3766 380.63 99.4531 380.897 99.5351ZM125.673 100.363C127.342 101.145 122.23 99.1628 120.465 98.7127C120.427 98.5013 125.383 100.137 125.673 100.363ZM383.855 100.425C388.768 102.96 384.861 100.834 380.897 99.5351C382.17 99.9105 382.273 99.7059 383.855 100.425ZM224.381 114.82C224.6 115.048 224.759 115.233 224.741 115.296C224.086 114.636 224.115 114.603 224.381 114.82ZM244.574 109.258C246.205 108.172 245.151 108.701 243.935 109.514C242.931 110.178 241.529 111.513 241.576 111.555C241.638 111.535 243.246 110.121 244.015 109.631C244.315 109.425 244.543 109.28 244.574 109.258ZM345.419 103.584C345.277 103.62 345.872 103.379 346.42 103.148C347.116 102.85 347.711 102.574 346.371 102.985C345.604 103.226 344.174 103.675 342.047 104.451C346.996 102.994 341.774 104.652 341.913 104.674C342.022 104.704 344.02 104.082 346.48 103.351C348.857 102.632 351.483 101.921 352.438 101.713C353.626 101.192 348.795 102.556 346.46 103.285C346.009 103.42 345.651 103.524 345.43 103.58C345.426 103.581 345.423 103.583 345.419 103.584ZM476.035 104.585C475.096 104.247 472.298 102.978 470.209 102.384C470.067 102.341 469.929 102.299 469.794 102.258C469.915 102.282 470.057 102.314 470.218 102.351C471.455 102.582 474.216 103.643 476.035 104.585ZM20.1472 302.153C38.0434 304.764 40.282 305.659 23.9433 302.963C23.5877 302.905 19.062 302.044 20.1472 302.153ZM174.557 324.746C176.226 325.258 170.561 324.434 166.941 323.769C166.118 323.619 163.119 322.895 166.6 323.381C166.436 323.668 171.821 324.616 174.557 324.746ZM386.708 101.637C387.766 102.046 390.271 103.448 392.585 104.819C393.597 105.415 394.551 106 395.302 106.459C394.725 106.174 393.702 105.592 392.524 104.925C390.45 103.745 388.016 102.347 386.708 101.637ZM79.0734 310.732C80.9472 310.989 82.2718 310.932 81.943 310.872C80.4698 310.603 76.9577 310.337 79.0734 310.732ZM372.891 98.0648C372.775 98.0184 374.337 97.9238 375.829 98.0231C377.329 98.1074 378.74 98.4298 378.9 98.5958C377.873 98.2218 373.133 98.0566 372.891 98.0648ZM472.196 102.861C471.318 102.443 476.008 104.181 477.265 105.033C477.145 105.009 472.799 103.026 472.196 102.861ZM109.817 314.855C111.526 315.127 115.69 315.759 116.202 315.747C116.771 315.718 110.637 314.835 109.817 314.855ZM-9.76461 142.903C-9.66579 142.695 -11.0789 149.212 -11.92 152.066C-13.4989 157.45 -9.83702 143.124 -9.76461 142.903ZM61.1059 308.503C55.8038 307.575 61.6854 308.575 61.4942 308.324C57.9349 307.843 48.9408 306.588 55.0705 307.654C56.2988 307.865 59.4192 308.262 61.1059 308.503ZM66.0333 309.235C66.6042 309.238 70.5205 309.524 67.1638 309.099C65.6179 308.903 63.1399 308.828 66.0333 309.235ZM-20.3902 182.74C-21.8561 187.375 -15.9039 165.936 -15.7053 165.305C-15.5993 164.984 -15.5254 164.776 -15.4787 164.659C-15.3242 163.852 -14.2371 159.784 -13.9601 159.359C-14.2984 160.566 -15.1842 163.896 -15.3086 164.288C-15.3601 164.45 -15.4001 164.571 -15.4299 164.654C-15.6797 166.118 -20.1072 181.858 -20.3902 182.74ZM-30.3572 218.259C-29.1562 212.823 -28.4212 212.006 -28.5329 212.472C-29.9478 218.359 -29.249 214.46 -29.3135 214.63C-29.455 215.037 -30.4355 219.22 -30.3525 218.243C-30.3541 218.248 -30.3556 218.254 -30.3572 218.259ZM-22.4634 190.014C-22.4085 189.79 -21.1626 185.294 -21.1052 185.112C-19.9369 181.469 -23.461 194.189 -22.4634 190.014ZM440.13 98.0563C443.131 97.8057 440.17 98.2347 438.273 98.4731C438.125 98.5009 437.534 98.3408 440.13 98.0563ZM68.6813 309.534C69.2945 309.643 79.2001 310.999 84.6541 311.613C86.7547 311.851 88.1821 311.993 87.8468 311.869C87.5036 311.832 86.2839 311.673 84.6721 311.468C78.1644 310.655 64.9394 308.87 68.6813 309.534ZM215.126 331.11C211.66 330.616 215.483 330.899 217.291 331.25C217.965 331.382 215.99 331.233 215.126 331.11ZM363.945 98.666C360.602 99.3604 361.223 98.7649 364.165 98.4593C364.28 98.4484 364.076 98.6401 363.945 98.666ZM187.591 326.934C199.46 328.544 196.612 328.965 181.134 326.35C181.622 326.387 182.11 326.424 182.599 326.462C164.818 323.632 181.376 326.224 185.77 326.835C187.442 327.069 186.061 326.724 187.579 326.932C187.583 326.933 187.587 326.933 187.591 326.934ZM233.252 333.631C244.642 335.742 222.79 332.441 216.529 331.606C222.619 332.223 230.56 333.354 219.813 331.614C235.599 333.753 228.979 333.06 229.615 333.172C230.354 333.295 232.767 333.541 233.252 333.631ZM203.042 329.392C202.405 329.317 197.375 328.46 195.587 328.213C198.137 328.394 207.444 329.917 203.042 329.392ZM-40.9351 255.853C-40.932 255.355 -40.629 254.184 -39.4254 250.307C-39.711 251.549 -40.3729 254.026 -40.9351 255.853ZM113.581 97.2779C111.436 97.2859 106.677 98.2773 108.16 98.1303C108.368 98.0116 113.628 97.2585 113.581 97.2779ZM125.709 317.607C126.339 317.72 141.204 320.037 136.088 319.07C134.592 318.782 120.925 316.699 125.709 317.607ZM48.2341 306.867C49.5054 307.049 54.5437 307.717 54.6654 307.696C55.0182 307.618 48.8137 306.828 48.2341 306.867ZM101.628 99.6218C101.446 99.6666 99.2238 100.379 97.2912 101.089C95.5761 101.713 94.1063 102.273 94.5175 102.162C95.0636 102.014 96.1593 101.633 97.3341 101.21C99.6922 100.35 102.388 99.4238 101.628 99.6218ZM451.414 97.1301C452.01 97.1308 452.789 97.3388 452.992 97.3543C453.439 97.0078 464.471 99.3965 460.205 98.6431C459.8 98.5569 454.74 97.2727 450.063 97.4372C445.643 97.5019 441.811 97.7535 440.864 97.8624C439.95 97.6534 447.263 97.3849 449.238 97.3742C449.434 97.3664 449.587 97.2942 450.058 97.2232C450.341 97.1752 450.753 97.1289 451.409 97.131C451.41 97.1307 451.412 97.1304 451.414 97.1301ZM-35.1729 235.504C-35.1714 235.429 -35.1065 235.13 -34.99 234.651C-34.2159 231.46 -31.1983 220.363 -31.0922 220.559C-32.3653 225.24 -33.6582 229.982 -34.9422 234.664C-35.0201 234.948 -35.097 235.228 -35.1729 235.504ZM-37.2693 242.885C-38.2508 245.975 -36.2288 238.691 -35.5849 236.544C-35.4871 236.568 -37.125 242.439 -37.2693 242.885ZM76.4507 311.202C77.9733 311.361 73.3368 310.55 74.3867 310.642C75.0524 310.702 78.4286 311.215 79.4726 311.278C79.7738 311.295 76.4248 310.666 75.399 310.543C73.9837 310.373 75.3313 310.706 73.7952 310.51C68.776 309.866 64.2479 309.154 59.4592 308.51C59.0308 308.452 62.334 309.012 58.6882 308.518C58.1688 308.447 54.6952 307.809 50.3589 307.229C40.5568 306.377 33.6142 304.864 21.2759 303.148C21.7096 303.271 30.9309 304.808 31.4164 304.879C41.7036 306.522 60.0287 309.078 70.8651 310.471C73.5928 310.826 72.2836 310.545 73.468 310.694C74.4142 310.813 73.2479 310.869 76.4507 311.202ZM114.741 97.1325C113.717 96.8759 109.96 97.3681 107.371 98.006C108.335 97.9381 112.503 97.0194 114.741 97.1325ZM-37.4758 294.203C-35.8515 294.249 -31.1052 294.797 -30.7076 294.8C-30.1794 294.744 -37.0914 294.022 -37.4758 294.203ZM476.106 137.654C476.1 137.747 475.91 139.485 475.784 140.611C475.729 141.108 475.695 141.481 475.689 141.524C475.522 142.85 475.543 141.947 475.673 140.6C475.88 138.525 476.254 135.442 476.106 137.654ZM482.394 222.945C482.61 225.574 482.835 228.237 482.721 229.135C482.657 227.446 482.262 222.643 482.394 222.945ZM458.346 327.193C458.936 327.108 453.086 331.369 451.85 331.927C452.3 331.69 458.057 327.397 458.346 327.193ZM-41.7977 256.263C-40.0501 251.106 -40.8212 252.21 -39.7461 249.158C-39.5877 248.682 -38.4291 247.229 -40.2636 252.477C-40.6402 253.467 -39.4708 249.459 -41.7977 256.263ZM178.632 325.964C177.415 325.923 173.477 325.28 170.871 324.868C171.45 324.85 176.829 325.701 178.632 325.964ZM87.6418 104.428C85.3986 105.013 75.7248 109.041 78.1872 108.205C78.5069 108.063 86.2363 104.925 87.6418 104.428ZM397.526 107.072C400.68 108.856 395.991 105.871 392.935 104.208C392.238 103.826 391.631 103.505 391.184 103.284C391.5 103.459 392.131 103.822 392.9 104.27C394.753 105.345 397.332 106.963 397.526 107.072ZM473.439 307.097C473.392 307.288 471.427 311.128 471.305 311.265C469.569 314.31 475.063 303.512 473.439 307.097ZM480.059 195.457C480.389 197.126 481.433 208.07 481.509 210.496C481.139 208.215 479.683 193.403 480.059 195.457ZM-37.1682 271.635C-37.0655 270.288 -36.9598 268.827 -37.1728 266.944C-37.2987 266.01 -37.4598 264.914 -38.1568 263.428C-38.7581 262.06 -40.4081 260.078 -42.5321 259.295C-43.2573 258.999 -43.8351 258.652 -43.9794 258.508C-43.9484 258.475 -43.6234 258.754 -42.4982 259.209C-39.5558 260.294 -37.9205 263.239 -37.521 264.792C-37.0216 266.51 -37.0113 267.611 -36.9815 268.553C-36.9687 270.412 -37.1392 271.479 -37.1682 271.635ZM465.256 320.335C465.113 320.509 464.964 320.67 464.825 320.833C464.973 320.665 465.117 320.498 465.256 320.335ZM7.64478 301.227C10.4945 301.734 9.95822 301.442 9.77099 301.405C7.63423 300.995 4.32307 300.636 7.64478 301.227ZM111.992 96.9922C111.156 96.8403 106.89 97.7469 104.31 98.4763C105.105 98.3595 110.128 97.122 111.992 96.9922ZM245.485 335.616C249.128 336.29 234.177 334.577 231.064 334.013C230.838 333.87 244.962 335.534 245.485 335.616ZM386.22 100.351C385.987 99.9778 380.974 98.0845 382.011 98.6052C382.613 98.7975 386.297 100.452 386.22 100.351ZM223.578 332.904C222.169 332.753 218.93 332.158 220.089 332.234C221.576 332.332 223.941 332.942 223.578 332.904ZM97.8827 314.134C98.5773 314.247 106.766 315.284 103.412 314.652C101.113 314.217 100.701 314.368 100.119 314.285C99.3539 314.163 86.3232 312.112 97.8827 314.134ZM329.087 344.165C325.991 344.022 322.176 343.693 318.934 343.452C320.239 343.47 327.795 343.974 329.087 344.165ZM413.529 108.287C413.381 108.371 412.699 108.84 411.371 109.786C408.512 111.647 406.393 110.943 405.482 110.783C404.452 110.518 403.853 110.236 403.297 109.982C402.225 109.471 401.417 108.993 400.649 108.544C399.123 107.639 397.815 106.827 396.869 106.266C394.997 105.16 394.611 104.952 398.504 107.404C398.682 107.513 399.547 108.062 400.831 108.823C401.487 109.206 402.216 109.637 403.25 110.127C403.786 110.371 404.371 110.647 405.397 110.915C406.312 111.062 408.407 111.857 411.453 109.902C413.324 108.535 414.264 107.88 413.529 108.287ZM-41.7977 256.263C-42.0404 256.931 -42.3963 257.827 -42.8378 258.738C-42.4072 257.831 -42.0473 256.934 -41.7977 256.263ZM-35.3748 294.696C-36.5772 294.681 -30.5486 295.264 -28.8491 295.471C-28.2989 295.384 -35.1481 294.649 -35.3748 294.696ZM318.678 343.578C316.808 343.497 313.41 343.166 311.075 342.979C311.484 342.921 317.884 343.425 318.678 343.578ZM447.344 334.863C446.092 335.438 444.679 336.038 443.415 336.535C441.659 337.23 440.194 337.759 440.181 337.839C440.106 337.845 439.937 337.882 439.66 337.954C439.399 338.039 435.7 339.255 434.143 339.612C429.702 340.616 437.195 338.898 443.388 336.466C450.748 333.362 457.06 330.059 443.926 336.596C445.107 336.047 446.245 335.469 447.344 334.863ZM478.649 180.591C478.556 178.537 477.704 172.463 477.823 174.05C477.897 175.132 478.748 182.741 478.649 180.591ZM483.702 261.588C483.78 260.951 483.887 255.282 483.8 255.122C483.663 258.4 483.427 264.413 483.702 261.588ZM477.07 164.126C476.963 162.745 476.59 161.063 476.593 161.221C476.615 162.564 477.159 166.459 477.07 164.126ZM-44.4647 259.151C-44.3382 259.283 -43.7786 259.638 -42.8067 259.991C-40.5114 260.822 -38.973 263.019 -38.471 264.428C-37.9255 265.838 -37.8028 266.902 -37.7057 267.803C-37.5504 269.54 -37.6158 270.664 -37.5962 271.191C-37.6493 271.497 -37.7471 272.308 -37.9703 273.691C-37.9698 273.687 -37.9692 273.683 -37.9687 273.679C-37.8031 274.506 -41.3609 289.115 -39.5744 293.802C-39.3983 294.282 -39.2349 294.494 -39.1427 294.592C-39.0476 294.689 -38.982 294.728 -38.8598 294.785C-38.6165 294.899 -38.1968 294.957 -38.2134 294.936C-38.1771 294.926 -38.6687 294.821 -38.8882 294.652C-38.9967 294.554 -39.0207 294.579 -39.2339 294.174C-39.4377 293.773 -39.7487 292.769 -39.823 291.138C-39.818 290.261 -40.0705 291.602 -39.8896 287.851C-39.8698 287.597 -39.754 287.478 -39.6765 286.682C-39.6637 284.96 -37.615 274.405 -37.5626 271.511C-37.5403 271.491 -37.5054 271.323 -37.4628 270.966C-37.3796 270.172 -37.2769 268.951 -37.4813 267.176C-37.6047 266.275 -37.7644 265.208 -38.4327 263.766C-39.0025 262.431 -40.6713 260.445 -42.7091 259.744C-44.3926 259.177 -44.5679 258.995 -44.4647 259.151ZM482.81 272.8C482.988 271.685 483.288 268.07 483.212 267.685C483.041 269.493 482.419 275.403 482.81 272.8ZM412.823 108.285C412.402 108.558 411.862 108.948 411.142 109.463C408.514 111.18 406.566 110.574 405.72 110.445C404.77 110.223 404.226 109.985 403.735 109.78C402.784 109.364 402.166 109.026 401.657 108.762C400.669 108.238 400.245 108.026 400.88 108.439C401.14 108.602 401.748 108.974 402.734 109.48C403.241 109.733 403.811 110.024 404.755 110.345C405.248 110.502 405.83 110.69 406.815 110.775C407.737 110.85 409.523 110.802 411.232 109.59C412.934 108.317 413.872 107.616 412.823 108.285ZM483.746 236.432C484.03 249.93 483.86 239.654 484.066 241.717C483.974 239.956 483.866 238.195 483.746 236.432ZM-27.3741 204.461C-27.9877 206.566 -27.578 204 -26.7912 201.722C-26.5438 201.008 -27.0299 203.278 -27.3741 204.461ZM-0.665397 110.407C-1.70146 111.987 2.36718 103.821 0.994628 107.096C0.923407 107.259 -0.605839 110.305 -0.665397 110.407ZM-19.6926 175.677C-19.9177 177.16 -20.1509 178.095 -21.2957 182.126C-19.7103 176.133 -21.3705 181.64 -19.6926 175.677ZM440.223 337.844C440.199 337.845 440.18 337.846 440.181 337.839C440.207 337.837 440.219 337.839 440.223 337.844ZM476.14 150.903C476.192 149.198 476.269 143.975 476.098 145.518C476.054 145.591 475.987 150.296 476.14 150.903ZM-37.5962 271.191C-37.5512 270.924 -37.5417 271.061 -37.5626 271.511C-37.5839 271.531 -37.5921 271.413 -37.5962 271.191ZM478.501 177.122C478.378 177.03 479.155 184.223 479.209 184.569C479.878 188.743 478.842 180.124 478.501 177.122ZM365.61 97.153C365.262 97.2095 367.57 97.1839 368.917 96.9631C369.97 96.7813 366.935 96.9114 365.61 97.153ZM-16.035 161.931C-15.4255 159.678 -14.5796 156.533 -14.2916 155.974C-14.718 157.486 -15.9521 162.003 -16.035 161.931ZM-2.1311 113.305C-2.99903 115.8 -5.07639 121.475 -6.18416 125.141C-6.48248 125.136 -3.11322 115.583 -2.1311 113.305ZM-43.977 259.941C-43.9883 259.961 -44.0942 260.202 -44.131 260.315C-44.1789 260.444 -44.1013 260.312 -44.1594 259.893C-44.2186 259.475 -44.4274 259.138 -44.4698 259.068C-44.5202 258.982 -44.4923 258.986 -44.4629 258.966C-44.4208 258.946 -44.2769 259.016 -44.1019 259.428C-43.9196 259.838 -43.9627 260.39 -43.9959 260.392C-44.0279 260.429 -43.9573 260.13 -43.9021 259.947C-43.845 259.752 -43.8578 259.714 -43.977 259.941ZM375.805 96.7813C377.896 96.8405 373.434 96.2024 370.688 96.6125C370.577 96.6264 370.468 96.6415 370.363 96.6576C370.028 96.7096 370.234 96.7211 370.694 96.718C372.111 96.6661 375.565 96.7376 375.805 96.7813ZM477.188 135.192C477.43 132.237 476.673 138.26 476.481 140.686C476.452 141.043 476.44 141.323 476.443 141.483C476.466 141.251 476.495 140.983 476.531 140.692C476.749 138.906 477.1 136.253 477.188 135.192ZM484.382 252.166C484.834 241.548 484.049 247.335 484.126 249.218C484.139 249.484 484.372 252.425 484.382 252.166ZM64.0845 114.699C63.0755 115.329 64.6637 114.491 65.7384 113.777C66.8784 113.039 68.0551 112.294 68.3028 112.063C68.5644 111.748 65.4195 113.814 64.0845 114.699ZM389.877 345.731C390.32 345.711 390.758 345.689 391.19 345.668C390.866 345.69 390.439 345.712 389.877 345.731ZM480.579 104.631C479.619 111.68 479.98 111.156 479.956 111.768C479.831 113.161 479.365 116.457 479.128 119.117C479.36 116.068 479.588 112.989 479.769 109.957C479.606 112.303 477.227 133.294 477.256 133.774C477.33 134.386 477.978 127.802 478.01 127.596C478.057 127.312 478.54 126.316 478.615 125.728C478.751 124.718 480.561 106.988 480.579 104.631ZM483.778 229.908C483.828 231.623 483.701 232.118 483.776 232.912C483.801 233.183 483.947 233.22 484.026 234.145C483.951 232.731 483.868 231.319 483.778 229.908ZM473.688 101.766C472.03 100.786 479.781 104.398 479.83 104.737C481.039 105.532 475.162 102.314 473.688 101.766ZM478.222 173.449C478.192 173.176 477.463 165.596 477.392 165.739C477.48 167.641 478.55 177.639 478.222 173.449ZM484.086 235.289C484.188 237.864 484.164 242.717 484.362 242.156C484.362 242.152 484.362 242.149 484.362 242.145C484.294 239.862 484.201 237.577 484.086 235.289ZM382.976 97.8997C379.268 96.3029 380.925 97.1281 384.289 98.6616C385.398 98.9882 383.582 98.1786 382.976 97.8997ZM369.939 96.1354C368.772 95.886 355.647 98.2717 357.694 98.1506C358.415 98.0017 365.903 96.5643 366.24 96.607C366.758 96.5701 364.426 97.0249 368.368 96.5493C368.13 96.4956 370.365 96.1189 369.939 96.1354ZM379.877 96.6935C376.056 95.6596 375.025 96.2589 378.018 96.5592C379.157 96.7236 380.408 96.8652 379.877 96.6935ZM396.11 104.635C395.559 104.285 394.649 103.72 393.574 103.093C391.83 102.075 389.711 100.894 388.039 100.126C389.837 101.082 391.663 102.125 393.516 103.195C395.275 104.209 397.007 105.264 398.793 106.363C399.256 106.541 397.348 105.42 396.101 104.629C396.104 104.631 396.107 104.633 396.11 104.635ZM8.89124 86.8681C8.09769 88.4547 8.4612 87.5446 9.04667 86.2081C9.05466 86.1915 9.07717 86.1409 9.08478 86.124C9.84761 84.3111 10.7867 81.8284 10.8816 81.6407C11.322 80.7608 10.1392 84.1581 9.22178 86.1843C9.21389 86.2017 9.19055 86.2542 9.18226 86.2714C9.07883 86.4862 8.97842 86.6944 8.89124 86.8681ZM36.2007 96.367C35.2316 95.9385 34.6509 95.5115 32.4398 94.7996C33.8629 95.411 35.2783 96.0494 36.6987 96.691C37.4247 97.0187 38.1194 97.3464 38.8224 97.6908C40.3457 98.0573 38.0812 97.1225 36.7371 96.5915C36.5278 96.5071 36.3429 96.4304 36.2007 96.367ZM28.1379 92.3426C28.4529 92.4468 26.8687 91.4108 30.8661 93.0462C32.9061 93.996 24.7108 90.8529 19.1614 90.9366C17.4583 90.9377 16.0659 91.2162 15.3976 91.289C16.3531 91.0747 17.6809 90.8163 19.1621 90.8126C22.4485 90.795 26.2473 91.814 28.1379 92.3426ZM0.640917 93.9192C0.442474 93.9241 6.11223 91.6793 6.81005 91.5137C10.3562 90.4205 1.6029 93.633 0.640917 93.9192ZM19.8372 88.894C19.5093 88.8734 19.293 88.8627 19.1728 88.8531C18.9958 88.8406 19.0123 88.8292 19.173 88.8193C19.9504 88.6892 24.0523 89.1242 25.4381 89.5481C25.6351 89.5928 20.348 88.7912 19.8372 88.894ZM-12.9525 119.656C-14.214 122.501 -14.3523 125.354 -13.076 120.771C-13.0145 120.555 -12.8974 119.536 -12.9525 119.656ZM6.05343 91.3491C8.79752 90.4828 2.80337 92.6398 1.05555 93.3467C0.850308 93.3107 5.62238 91.4546 6.05343 91.3491ZM-14.3374 121.504C-15.7619 125.398 -14.5882 124.221 -14.4214 123.734C-13.7548 121.716 -11.6902 114.767 -11.1923 113.364C-14.763 123.624 -13.5975 119.702 -14.3374 121.504ZM-18.6942 139.736C-19.5586 143.382 -17.0006 134.172 -16.7772 132.365C-17.2153 134.157 -18.4493 138.712 -18.6942 139.736ZM-24.7764 161.589C-25.3237 163.51 -26.9591 169.284 -27.1029 170.269C-26.5486 168.15 -24.8726 162.421 -24.7764 161.589ZM-26.3133 165.883C-27.2929 168.868 -27.031 169.72 -26.2206 166.194C-26.1885 166.055 -26.2741 165.773 -26.3133 165.883ZM-31.1237 182.885C-31.8511 184.827 -32.0267 187.215 -31.1331 183.996C-30.8681 183.038 -31.0453 182.68 -31.1237 182.885ZM-16.5764 126.274C-17.4222 129.193 -18.0239 132.966 -16.4198 126.798C-16.9442 129.012 -17.4129 131.145 -17.9107 133.301C-16.3175 127.519 -16.1684 126.114 -15.945 124.904C-15.864 124.46 -15.7724 124.032 -15.5827 123.405C-14.5741 120.138 -14.2675 120.525 -14.3666 121.208C-13.9503 119.298 -11.9905 113.248 -9.65898 107.723C-9.64618 107.692 -9.60412 107.6 -9.58991 107.57C-8.50981 105.283 -7.4605 103.066 -6.60681 101.246C-7.49814 103.037 -8.58215 105.209 -9.72832 107.503C-9.74312 107.535 -9.78696 107.631 -9.80029 107.663C-11.8643 112.298 -13.8152 117.516 -15.0165 121.254C-15.4185 122.494 -15.7265 123.735 -16.0242 124.882C-16.1158 125.234 -16.2049 125.572 -16.2965 125.901C-16.912 128.148 -16.5282 126.112 -16.5733 126.262C-16.5743 126.266 -16.5753 126.27 -16.5764 126.274ZM-37.2771 205.285C-39.0944 211.074 -37.6268 207.492 -36.7991 204.174C-36.7663 204.031 -37.2323 205.142 -37.2771 205.285ZM-2.16803 93.0708C5.91995 90.3127 -0.767811 91.6188 17.2433 87.0804C9.2904 88.7321 16.7688 87.2943 15.2379 87.6868C13.9799 87.9537 9.70101 89.047 12.2353 88.5535C8.7372 88.9796 -4.40562 94.3076 -5.03027 94.8224C-5.02478 94.8196 -5.01929 94.8169 -5.01379 94.8142C-5.38631 94.9867 -4.65805 94.0945 -2.16803 93.0708ZM-25.953 161.301C-27.0178 163.084 -26.3687 164.101 -27.858 167.808C-28.5162 172.537 -24.9326 157.536 -23.3501 152.768C-23.1557 152.181 -22.9937 151.756 -22.8693 151.527C-22.9893 151.97 -23.1048 152.396 -23.2151 152.804C-25.9051 162.723 -24.2889 157.371 -23.0556 152.847C-22.0287 149.07 -21.28 145.923 -23.3576 152.232C-19.8571 140.316 -22.4114 148.274 -22.0226 146.395C-21.6095 144.404 -19.7119 137.645 -20.0068 137.934C-20.0078 137.937 -20.0087 137.941 -20.0097 137.945C-21.0689 142.088 -22.1587 146.259 -23.2495 150.397C-22.3452 148.049 -22.8242 150.086 -23.5996 152.701C-24.122 154.46 -24.8055 156.57 -25.258 157.673C-25.4921 158.894 -25.7157 160.073 -25.953 161.301ZM-19.2906 137.926C-19.3917 138.307 -21.7178 147.391 -21.4737 146.805C-21.0875 145.632 -17.8211 132.791 -19.2906 137.926ZM-5.56852 98.4265C-6.91843 101.259 -9.03259 105.502 -9.82612 107.457C-9.84135 107.489 -9.88643 107.587 -9.90014 107.621C-9.95142 107.765 -9.99612 107.897 -10.0337 108.016C-9.98122 107.891 -9.92716 107.763 -9.87169 107.633C-9.85808 107.6 -9.81336 107.502 -9.79825 107.47C-8.32917 104.42 -6.17925 100.091 -5.56852 98.4265ZM-47.8166 267.982C-45.3674 268.91 -47.7818 268.296 -50.568 266.057C-51.9977 264.953 -53.2566 262.562 -53.355 261.198C-53.4523 260.532 -53.4414 260.16 -53.46 260.185C-53.4633 260.212 -53.5358 260.636 -53.3642 261.662C-53.432 261.829 -52.4902 264.67 -50.8731 265.946C-49.359 267.316 -47.934 267.906 -47.8166 267.982ZM-28.4193 170.714C-29.7268 174.863 -28.6605 173.028 -27.9504 169.875C-27.9094 169.693 -28.3584 170.52 -28.4193 170.714ZM4.1224 90.4777C4.34479 90.16 15.7343 86.3876 19.1841 86.8077C19.1926 86.8077 19.201 86.8078 19.2093 86.8078C19.2013 86.8085 19.1929 86.8091 19.1841 86.8098C16.661 86.336 3.80223 90.605 4.1224 90.4777ZM-3.4894 92.8824C-6.32222 97.8977 -9.23544 104.807 -10.2886 107.235C-10.3059 107.272 -10.3569 107.383 -10.3724 107.421C-10.5285 107.831 -10.6361 108.113 -10.6929 108.245C-11.0954 109.182 -10.6757 107.623 -10.7698 107.836C-11.0764 108.289 -14.8596 118.471 -14.9208 119.008C-15.0272 119.368 -14.1334 117.598 -14.7433 119.753C-14.1861 117.742 -12.3875 112.439 -10.2643 107.467C-10.2492 107.43 -10.1995 107.322 -10.1828 107.286C-7.70008 102.102 -5.30994 97.1293 -5.1018 96.6506C-4.79585 95.9438 -7.57187 101.068 -3.49429 92.8928C-3.49266 92.8893 -3.49103 92.8859 -3.4894 92.8824ZM-11.7169 110.594C-10.6119 108.118 -13.3755 115.195 -13.9695 116.934C-15.4209 120.759 -11.9378 110.883 -11.7169 110.594ZM-17.499 127.973C-17.7409 128.821 -19.6083 136.118 -19.6493 136.793C-18.5737 133.367 -16.9744 126.14 -17.499 127.973ZM-39.4503 209.613C-39.9557 211.514 -41.5052 216.725 -41.473 217.06C-40.9639 215.154 -39.4156 209.942 -39.4503 209.613ZM46.1449 94.069C42.9959 92.3486 50.4319 96.0587 52.3816 97.6682C52.484 97.7063 46.4443 94.1152 46.1449 94.069ZM-29.726 171.123C-30.0607 172.238 -36.2664 195.275 -37.1042 198.514C-36.1429 195.382 -29.9003 172.585 -29.6668 171.534C-29.5978 171.23 -29.6816 170.982 -29.726 171.123ZM-16.4252 121.074C-15.9176 118.846 -15.2286 117.513 -15.1358 117.244C-14.2352 114.587 -12.1504 109.162 -12.4518 110.413C-14.4432 114.943 -17.4234 125.501 -16.4252 121.074ZM-40.6748 211.03C-42.7666 218.858 -38.45 203.916 -39.1704 205.826C-39.2168 205.953 -40.4613 210.231 -40.6748 211.03ZM-29.0767 168.539C-28.8886 167.534 -26.7367 159.645 -24.7699 152.387C-23.2705 146.861 -21.8856 141.688 -21.4725 140.102C-22.0863 143.494 -22.9758 146.072 -24.1575 150.545C-24.4684 151.723 -24.2802 151.445 -24.3137 151.571C-24.4244 151.988 -24.503 152.264 -24.5589 152.444C-24.7736 153.128 -24.6431 152.327 -24.9173 153.342C-25.1335 154.175 -29.533 171.002 -29.0767 168.539ZM-16.1511 119.797C-15.9553 118.838 -13.4481 111.4 -11.5086 106.94C-11.4888 106.891 -11.4236 106.749 -11.4016 106.702C-10.5261 104.864 -9.89427 103.546 -9.81104 103.391C-8.96846 101.815 -9.85777 103.772 -11.2713 106.765C-11.2928 106.811 -11.3563 106.949 -11.3756 106.996C-13.4093 111.724 -15.938 119.1 -16.1511 119.797ZM-29.8784 170.59C-29.4974 168.026 -26.2025 156.651 -28.1743 164.515C-28.3669 165.279 -29.3499 168.39 -29.8784 170.59ZM-40.7284 210.122C-40.8407 210.498 -43.1522 218.635 -43.0957 218.794C-42.7311 217.626 -39.427 205.78 -40.7284 210.122ZM-39.8831 205.81C-39.9351 206.007 -39.2274 204.149 -40.3027 207.961C-40.3912 208.273 -40.7602 208.817 -42.0086 213.63C-42.2657 214.621 -42.5432 216.152 -42.5047 216.046C-40.8009 211.141 -37.2772 195.93 -39.8831 205.81ZM-16.2279 119.475C-16.5681 120.244 -16.211 118.237 -15.4872 116.562C-15.1739 115.846 -15.5153 117.265 -16.2279 119.475ZM-47.9694 235.891C-46.7998 231.138 -50.9861 245.914 -51.1881 246.631C-50.9433 246.224 -48.0782 236.365 -47.9694 235.891ZM54.107 97.4817C54.1034 97.479 54.0998 97.4764 54.0961 97.4738C57.8477 100.389 55.4206 98.7097 55.6037 98.8409C63.0524 105.605 60.8601 103.669 61.9916 104.606C62.6202 105.212 62.9249 105.531 63.1526 105.782C62.4542 105.073 60.5777 104.369 59.4476 104.522C58.3199 104.618 57.9826 104.895 57.9255 104.922C57.8646 105.011 58.7224 104.468 60.1656 103.411C58.3552 104.731 57.8252 105.077 57.9792 105.012C58.0338 104.999 58.1307 104.971 58.0962 104.993C58.0706 105.011 57.9795 105.06 57.9876 105.063C57.9719 105.138 59.7586 103.928 59.8729 103.928C60.132 103.9 59.7269 104.243 59.0422 104.722C58.7198 104.948 58.2721 105.233 58.1266 105.294C58.0874 105.324 58.0576 105.247 58.7839 105.062C59.1503 104.982 59.8084 104.886 60.6786 105.069C61.5427 105.24 62.3864 105.739 62.8284 106.144C61.1414 104.345 57.3064 100.1 55.2868 98.7437C54.7992 98.326 58.3614 101.56 57.0568 100.513C53.0346 96.7455 38.8815 88.0995 54.107 97.4817ZM-15.0458 115.231C-14.7895 114.245 -13.2599 110.081 -11.8174 106.809C-11.7964 106.758 -11.7273 106.607 -11.704 106.557C-10.2501 103.603 -9.09491 101.344 -9.85667 103.086C-9.93172 103.258 -10.6309 104.751 -11.528 106.642C-11.5506 106.69 -11.6174 106.835 -11.6377 106.885C-13.4346 111.074 -15.5599 117.155 -15.0458 115.231ZM442.713 349.493C439.666 350.588 445.399 348.935 447.852 347.892C448.313 347.706 448.681 347.546 448.901 347.439C449.163 347.311 448.657 347.485 447.808 347.779C446.355 348.285 443.732 349.129 442.713 349.493ZM486.872 308.6C488.557 304.408 489.417 299.856 487.706 305.048C487.541 305.579 486.613 309.052 486.872 308.6ZM225.402 345.664C229.681 346.453 229.467 346.042 226.317 345.618C225.196 345.467 225.267 345.638 225.402 345.664ZM391.382 357.639C391.775 357.644 396.992 357.332 396.776 357.249C394.86 357.332 388.543 357.679 391.382 357.639ZM224.022 345.528C226.594 345.813 222.217 344.938 219.065 344.766C220.65 344.966 223.757 345.499 224.022 345.528ZM-33.0368 179.004C-33.4548 181.124 -35.104 186.976 -36.0035 190.357C-36.2962 190.668 -33.6583 181.422 -33.0368 179.004ZM477.437 325.272C479.861 321.702 474.283 329.081 474.871 328.478C474.974 328.409 477.363 325.428 477.437 325.272ZM87.0387 325.121C89.8218 325.359 81.0889 324.076 83.4683 324.593C83.5651 324.612 86.8658 325.104 87.0387 325.121ZM47.7935 319.891C49.9539 320.24 59.127 321.478 55.592 320.878C54.9751 320.779 48.0261 319.816 47.7935 319.891ZM62.2516 104.664C61.9719 104.247 62.7239 104.982 63.3667 105.542C62.7937 104.971 61.3565 104.21 60.1297 104.148C58.9107 104.06 58.2872 104.312 58.0074 104.401C57.4728 104.618 57.7529 104.524 57.9675 104.376C58.4779 104.056 59.1618 103.592 59.393 103.448C59.5286 103.36 58.9441 103.833 58.3165 104.317C58.0342 104.544 57.6485 104.785 57.8735 104.69C58.0156 104.657 58.3397 104.432 59.4921 104.37C60.6442 104.247 62.568 105.035 63.205 105.723C62.8525 105.407 62.454 104.969 62.2516 104.664ZM253.398 349.354C255.634 349.608 261.426 350.355 262.459 350.366C259.721 350.069 252.69 349.052 253.398 349.354ZM463.548 339.399C466.809 337.372 471.463 332.757 470.093 333.674C464.797 338.535 471.115 333.506 463.548 339.399ZM209.642 343.753C211.43 344.026 212.848 343.943 212.646 343.901C210.717 343.5 207.879 343.39 209.642 343.753ZM344.51 357.568C344.591 357.697 350.474 357.875 349.687 357.765C349.443 357.734 344.406 357.47 344.51 357.568ZM-53.3188 251.318C-54.168 253.589 -51.9898 246.473 -51.2262 244.112C-50.722 243.078 -53.2013 251.214 -53.3188 251.318ZM160.244 336.282C159.991 336.425 168.858 337.689 165.392 337.006C164.54 336.837 160.357 336.24 160.244 336.282ZM75.0755 323.973C81.0958 324.545 55.9005 321.107 62.4923 322.234C62.9218 322.317 74.5051 323.925 75.0755 323.973ZM33.8867 318.201C34.8873 318.371 34.3802 318.906 30.058 318.03C29.4942 317.916 32.1714 318.154 31.7147 318.049C31.408 317.989 22.1556 316.507 21.7152 316.448C21.2448 316.392 21.7662 316.666 21.2888 316.614C20.7394 316.556 15.0629 315.504 12.0539 315.02C6.42634 314.118 5.77597 314.168 5.33114 314.097C3.93359 313.871 1.73487 313.397 -1.01372 312.942C-11.9503 311.221 -27.796 308.175 -38.2362 307.409C-42.8068 307.518 -48.8252 303.637 -50.2712 299.771C-48.3168 304.423 -42.0941 307.409 -38.2311 307.313C-31.8383 307.69 -25.0243 308.752 -18.0162 309.85C-20.8551 309.711 -3.8476 311.951 -13.8149 310.676C-9.26254 311.429 30.4724 317.743 33.8753 318.199C33.8791 318.2 33.8829 318.2 33.8867 318.201ZM492.283 291.983C491.974 294.672 494.699 281.149 494.464 279.973C494.267 281.741 492.418 291.686 492.283 291.983ZM456.05 345.233C454.886 345.846 454.155 346.868 448.322 349.094C447.994 349.214 447.647 349.337 447.281 349.462C447.275 349.464 447.27 349.466 447.264 349.469C445.384 350.103 447.469 349.226 447.116 349.32C447.015 349.377 441.039 351.231 445.925 349.497C446.904 349.136 447.622 348.861 448.152 348.66C451.864 347.194 447.192 349.402 450.745 347.918C451.31 347.811 458.558 343.797 458.086 343.894C458.048 343.923 455.864 345.207 455.472 345.377C454.081 346.021 454.684 345.562 454.49 345.657C454.185 345.805 451.398 347.288 448.123 348.586C444.897 349.896 441.095 351.072 440.144 351.246C439.838 351.302 443.913 350.108 448.065 348.436C453.584 346.319 459.257 342.807 459.648 342.545C460.105 342.279 460.103 342.691 460.583 342.422C460.874 342.419 467.835 337.035 468.576 336.194C468.828 335.98 469.021 335.817 469.163 335.698C468.181 336.566 473.772 331.016 473.622 331.206C473.606 331.375 469.795 335.241 469.603 335.334C469.539 335.39 469.481 335.437 469.428 335.482C469.879 335.149 466.777 338.145 463.545 340.509C460.347 342.901 457.223 344.677 458.99 343.76C454.384 346.552 459.536 343.161 456.05 345.233ZM432.827 353.739C433.337 353.583 433.844 353.425 434.347 353.265C425.909 355.432 415.789 356.771 406.155 357.655C403.636 357.882 406.565 357.85 403.236 358.074C400.663 358.24 397.792 358.219 399.193 358.078C399.524 358.052 404.812 357.788 407.517 357.495C415.304 356.64 413.305 356.609 413.766 356.566C414.298 356.505 419.331 355.974 421.946 355.523C428.83 354.302 431.912 353.719 441.148 351.189C435.86 352.85 438.941 352.321 432.827 353.739ZM122.527 330.98C122.185 331.048 116.935 330.137 114.903 329.848C115.252 329.778 120.607 330.702 122.527 330.98ZM280.429 88.2471C278.783 87.9008 291.828 91.3835 288.427 90.3231C287.739 90.0545 282.296 88.5396 280.429 88.2471ZM320.784 99.907C322.206 98.7928 316.266 102.965 316.375 103.163C316.411 103.148 320.597 100.008 320.784 99.907ZM323.645 357.294C323.332 357.281 318.657 356.9 318.537 356.879C315.462 356.456 330.756 357.65 323.645 357.294ZM393.114 88.6785C388.511 86.4141 398.592 91.7457 399.695 92.4147C399.881 92.5107 399.907 92.5119 399.713 92.3834C399.576 92.2929 399.327 92.1364 398.952 91.9073C398.758 91.7662 393.456 88.8053 393.114 88.6785ZM406.659 96.6027C406.119 96.9537 404.593 98.0243 403.562 98.7611C405.63 97.3319 407.451 97.4953 408.065 97.552C408.769 97.6411 408.942 97.7332 409.043 97.7605C409.202 97.8208 408.969 97.7259 408.778 97.6247C408.357 97.408 407.925 97.1631 407.908 97.1741C407.859 97.1756 408.274 97.4491 408.704 97.6934C408.9 97.809 409.147 97.9203 409.015 97.8724C408.927 97.8512 408.773 97.7654 408.094 97.6741C407.506 97.6178 405.704 97.4277 403.629 98.8562C404.78 98.019 406.427 96.8333 406.659 96.6027ZM208.328 344.318C208.95 344.634 200.898 343.303 198.046 342.909C197.431 342.595 205.485 343.942 208.328 344.318ZM259.734 351.308C225.32 347.168 232.944 347.7 261.797 351.445C261.822 351.592 261.908 351.557 259.734 351.308ZM215.743 345.512C217.004 345.546 220.887 346.132 223.528 346.506C223.037 346.54 217.634 345.754 215.743 345.512ZM263.624 87.6517C265.217 87.3873 270.172 87.2355 272.672 87.2468C274.397 87.2431 275.246 87.3705 274.507 87.3548C274.396 87.3562 273.723 87.324 272.675 87.3527C269.808 87.3998 262.997 87.7412 263.624 87.6517ZM320.707 357.277C321.462 357.559 311.124 356.68 310.309 356.551C307.122 356.103 319.843 357.283 320.707 357.277ZM159.754 337.225C157.88 337.107 152.817 336.234 149.5 335.716C151.074 335.814 156.895 336.78 159.754 337.225ZM183.63 341.009C183.415 340.984 178.796 340.271 178.597 340.232C174.836 339.496 187.907 341.513 183.63 341.009ZM49.4291 92.5701C49.5829 92.6094 53.1046 94.7651 53.2019 94.8824C54.687 95.9956 52.8796 94.7521 51.0849 93.6697C49.3046 92.5899 47.5634 91.6377 49.4291 92.5701Z" fill="#E2EB95"/>
</g>
</svg>
