<svg width="461" height="289" viewBox="0 0 461 289" fill="none" xmlns="http://www.w3.org/2000/svg">
<rect width="461" height="289" fill="#FEFEF2"/>
<rect x="13" y="11" width="436" height="267" fill="#FEE6D4"/>
<mask id="mask0_1235_2541" style="mask-type:alpha" maskUnits="userSpaceOnUse" x="13" y="11" width="436" height="267">
<rect x="13" y="11" width="436" height="267" fill="#BFEAE1"/>
</mask>
<g mask="url(#mask0_1235_2541)">
<path d="M18.6429 86.1951C13.9019 86.1691 4.84138 89.4491 -0.845741 91.9129C-2.35404 95.0903 -4.29588 99.1635 -6.81322 104.421C-9.54827 110.879 -11.5281 116.897 -12.7387 121.22C-13.9493 125.543 -14.3776 128.094 -20.0063 149.077C-25.635 170.06 -36.1455 208.317 -41.6911 228.199C-47.2366 248.081 -47.8 249.545 -48.955 251.965L-49.0117 252.084C-50.1629 254.492 -51.6993 257.706 -45.284 260.234C-38.7627 262.804 -54.6952 294.882 -38.3846 295.754C-22.074 296.625 3.63707 303.452 83.3263 313.381C163.016 323.309 371.912 365.755 445.001 337.196C518.091 308.638 477.42 174.164 481.459 136.549C485.498 98.935 485.22 97.8206 484.459 97.1769C482.955 95.9035 478.081 92.7338 471.7 90.8499C466.821 89.4096 459.193 85.999 449.382 86.2461C442.348 86.4232 435.176 86.6716 428.695 89.234C414.093 95.0083 410.128 98.2965 407.421 100.214C406.218 101.067 402.607 98.2182 395.481 94.1344C384.576 87.8843 380.284 85.9566 369.878 86.5221C364.149 86.8334 354.892 88.3385 343.878 91.6095L343.351 91.766C338.695 93.1473 335.133 94.2042 331.994 96.1557C320.683 103.187 316.449 107.381 314.35 110.021C313.81 110.698 313.135 111.449 311.941 110.783C310.747 110.117 309.15 108.03 306.705 105.636C301.318 100.362 295.834 95.7281 289.718 93.7992C282.419 91.4977 276.873 90.0736 272.384 90.2081C265.185 90.4237 259.588 90.7051 256.134 91.8095C250.776 93.5229 244.236 95.5058 239.349 98.86C235.668 101.386 233.367 104.63 230.875 105.73C230.012 106.111 229.549 105.498 226.634 102.834C218.603 95.494 212.201 89.694 208.732 88.1507C204.222 86.1446 199.4 83.9121 193.715 83.7715C186.049 83.5818 181.027 83.7125 178.407 84.5986C173.231 86.3489 168.524 87.8064 163.918 90.5699C149.398 99.2798 147.546 101.097 146.262 100.103C144.472 98.7172 142.783 96.3099 134.661 92.1554C129.554 89.5433 123.042 86.4196 116.164 86.0447C111.573 85.7945 105.862 86.374 94.6418 90.3523C86.9972 93.0628 75.6744 97.3012 69.5915 100.116C62.3334 103.475 59.9067 107.08 58.4257 105.753C54.9485 102.639 50.927 96.4549 36.5814 90.9233C30.4334 88.5526 24.3315 86.2264 18.6429 86.1951Z" fill="#FAD5C2"/>
<path d="M105.1 95.3053C105.926 95.0429 109.161 94.3528 110.454 94.1901C109.077 94.4743 102.177 96.1598 105.1 95.3053ZM250.16 85.6266C248.829 86.1187 247.468 86.6371 246.091 87.2014C248.499 86.331 251.341 85.4233 253.839 84.6314C256.38 83.8446 258.325 83.6147 259.962 83.4242C260.633 83.3534 258.914 83.7109 260.497 83.5326C262.048 83.3793 261.745 83.1888 263.924 83.0069C265.187 82.8993 268.683 82.763 272.159 82.7011C276.674 82.6256 280.351 83.5556 282.248 83.9635C285.686 84.7554 288.852 85.7092 291.964 86.6748C300.902 89.6135 306.742 95.2643 311.969 100.259C312.984 101.252 313.932 102.267 314.756 103.156C315.165 103.596 315.55 104.009 315.828 104.288C315.963 104.424 316.075 104.528 316.095 104.546C316.104 104.563 316.064 104.492 315.599 104.225C315.274 104.05 314.752 103.786 313.866 103.627C313 103.458 311.707 103.529 310.719 103.903C308.687 104.724 308.408 105.535 308.455 105.393C308.37 105.581 308.975 104.417 311.257 103.765C312.338 103.477 313.476 103.553 314.178 103.729C314.903 103.906 315.307 104.121 315.574 104.269C316.066 104.562 316.058 104.609 316.049 104.599C316.024 104.585 315.931 104.507 315.836 104.421C315.639 104.242 315.427 104.035 315.27 103.885C314.948 103.574 314.831 103.475 314.903 103.578C314.968 103.673 315.224 103.972 315.515 104.291C315.658 104.447 315.812 104.607 315.896 104.691C315.956 104.769 316.054 104.784 315.475 104.446C315.172 104.285 314.682 104.032 313.807 103.877C312.956 103.712 311.644 103.799 310.678 104.195C308.702 105.062 308.552 105.786 308.688 105.517C309.928 103.964 311.195 102.691 311.954 101.939C312.699 101.465 312.248 100.088 324.51 91.9643C326.375 90.7668 327.391 90.1909 328.063 89.8333C329.438 89.1028 329.564 89.1645 330.952 88.5414C332.294 87.9469 335.162 86.7339 340.612 85.0537C332.233 87.3656 335.969 86.0654 341.721 84.3442C344.031 83.6489 346.725 82.9088 349.264 82.2799C350.798 81.8252 362.952 79.1998 369.468 78.983C369.605 78.9752 369.738 78.968 369.867 78.9613C371.911 78.8508 375.243 78.5733 378.388 78.9622C380.532 79.2417 382.228 79.6347 385.28 80.6198C390.947 82.5594 395.145 85.1393 399.303 87.4669C401.373 88.6499 403.407 89.8878 405.323 91.059C406.267 91.6344 407.217 92.2126 407.955 92.6197C408.306 92.8166 408.652 92.9778 408.611 92.9575C408.568 92.9489 408.459 92.8708 407.81 92.757C407.486 92.7092 406.971 92.6393 406.158 92.7272C405.338 92.8123 404.091 93.1528 402.982 93.9482C404.84 92.5787 407.661 90.672 410.103 89.3465C403.613 93.6842 415.507 86.5595 416.033 86.5984C418.832 85.2932 406.479 91.7207 411.423 89.2168C416.323 86.5818 421.179 84.5148 426.057 82.5625C428.349 81.651 430.673 80.991 432.956 80.5107C426.263 81.7881 441.744 78.4188 444.17 78.9565C443.861 78.8524 445.99 78.714 449.191 78.6559C456.022 78.1043 467.756 81.5634 473.758 83.8793C478.809 85.4416 482.485 87.4745 483.971 88.2479C484.445 88.4963 483.416 87.8653 483.404 87.8119C483.401 87.7866 483.655 87.891 484.481 88.3447C485.366 88.877 486.486 89.3457 489.235 91.5342C489.518 91.7602 490.312 92.5192 490.808 93.2991C491.326 94.088 491.602 94.7813 491.78 95.3199C492.103 96.3359 492.158 96.9427 492.212 97.3834C492.306 98.3082 492.302 98.8802 492.301 99.4973C492.289 100.645 492.227 101.723 492.148 102.899C492.016 104.72 491.917 104.059 491.864 104.971C491.832 105.543 491.997 108.995 491.417 112.463C491.189 113.735 491.749 105.504 490.042 123.56C490.714 119.531 489.883 128.114 488.858 137.344C488.238 143.09 488.813 150.71 488.926 153.137C488.899 151.958 488.883 150.815 488.879 149.714C489.072 155.343 489.373 156.375 489.469 157.667C489.9 162.855 490.562 170.142 491.135 175.026C491.816 180.853 492.096 180.746 492.75 187.543C492.637 185.969 492.512 184.313 492.392 182.71C492.913 187.409 493.419 192.08 493.888 196.729C492.368 185.973 494.124 199.038 494.208 199.955C494.36 201.35 494.011 199.376 494.258 201.682C494.284 201.924 494.399 201.55 494.753 205.135C495.469 212.66 495.16 211.46 495.419 214.633C495.437 214.919 495.511 213.911 495.923 219.363C497.041 236.801 495.858 219.27 495.754 218.618C495.644 217.747 495.63 223.726 494.624 208.993C494.986 213.913 494.769 214.451 494.81 215.006C494.862 215.507 495.468 224.073 495.483 224.56C495.79 228.784 495.756 225.054 495.829 225.877C495.92 226.543 496.117 236.961 496.601 239.407C496.187 244.421 496.242 236.523 495.764 228.188C495.634 226.972 495.899 236.145 495.881 236.631C496.059 248.497 496.318 241.929 496.582 244.528C496.712 245.897 496.39 250.744 496.779 246.269C496.624 257.123 496.537 250.537 496.506 251.236C496.444 252.296 496.391 256.086 496.348 256.565C496.294 257.267 496.3 254.819 496.12 257.587C496.091 258.045 496.036 262.516 496.451 256.77C495.991 264.453 496.121 263.805 495.559 266.398C495.666 271.764 494.768 270.184 494.484 272.254C493.636 277.797 494.327 276.25 494.32 276.55C494.377 278.567 490.885 293.891 489.423 297.619C489.708 296.022 492.855 285.555 493.134 283.154C494.547 275.174 490.491 294.271 491.308 288.407C490.84 290.86 490.317 293.241 489.689 295.68C487.898 299.946 490.225 293.803 485.776 305.387C485.303 307.387 488.947 297.204 488.327 299.293C488.101 300.517 485.352 307.259 485.295 307.376C485.351 307.564 487.783 301.475 487.48 302.463C487.506 304.886 475.391 325.904 484.159 309.711C481.852 314.292 480.047 316.305 477.628 320.056C476.832 321.265 478.926 318.649 479.412 318.177C479.75 317.598 479.528 319.946 470.967 329.028C470.562 329.354 477.509 321.556 477.503 321.209C477.707 320.891 476.165 322.086 475.943 322.32C475.564 322.736 471.624 328.04 466.118 332.632C460.69 337.331 453.822 340.892 451.411 341.807C452.094 341.593 450.367 342.504 447.516 343.633C442.371 345.777 433.384 347.986 431.931 348.333C431.358 348.493 433.563 348.169 432.949 348.333C429.218 349.427 419.032 350.9 414.271 351.43C408.966 352.075 409.724 352.111 409.413 352.154C407.11 352.388 408.94 352.087 407.528 352.231C405.322 352.553 390.663 353.49 389.951 353.47C389.739 353.487 392.105 353.568 388.957 353.74C388.398 353.75 388.794 353.602 379.283 353.904C368.006 354.186 387.168 354.032 382.479 354.337C375.153 354.17 375.448 354.446 373.45 354.443C372.757 354.439 367.635 354.188 362.147 354.113C366.109 354.131 370.034 354.11 374.051 354.039C370.071 354.031 362.614 354.018 359.353 353.885C357.784 353.824 359.048 353.631 355.672 353.552C354.99 353.527 352.015 354.032 361.01 353.977C361.738 354.188 357.415 353.978 355.492 353.977C355.198 353.977 354.033 354.276 351.539 353.991C350.937 353.895 357.518 353.267 340.608 353.229C340.067 353.225 341.939 353.435 341.41 353.434C341.053 353.437 336.758 353.172 336.276 353.16C335.788 353.152 337.864 353.393 337.282 353.388C334.301 353.363 330.407 352.62 336.556 353.002C334.519 352.829 332.417 352.644 330.417 352.458C332.561 352.98 327.232 352.377 324.399 352.192C306.294 350.958 318.396 352.088 315.275 351.993C310.269 351.809 314.148 351.459 306.69 351.036C306.024 350.985 314.9 352.083 297.481 350.355C300.063 350.585 302.638 350.806 305.205 351.018C303.766 350.521 295.91 350.206 295.3 350.147C288.417 349.529 293.096 349.87 282.898 349.017C281.989 348.94 280.007 348.637 278.069 348.474C270.008 347.798 288.686 349.728 289.177 349.902C289.414 350.034 269.339 347.865 268.66 347.719C265.755 347.234 277.757 348.671 275.488 348.217C274.657 348.114 246.085 344.865 240.405 343.986C233.817 343.038 230.922 342.123 230.804 342.69C229.022 341.88 227.335 342.04 226.496 341.922C216.283 340.466 216.348 340.464 207.568 339.267C205.638 339.002 204.042 338.597 203.359 338.527C202.962 338.487 203.672 338.776 201.733 338.552C199.02 338.246 182.887 335.655 181.668 335.36C180.465 335.078 188.558 336.352 187.121 335.966C181.22 335.066 175.802 334.286 169.851 333.356C167.417 332.975 168.686 333.052 167.637 332.888C167.189 332.819 158.828 331.633 159.148 331.726C160.005 331.972 185.857 335.848 179.02 335.012C177.694 334.851 173.141 333.885 173.809 334.318C150.596 330.713 127.55 326.923 104.494 323.438C117.787 325.146 132.69 327.703 146.592 329.841C148.551 330.143 154.935 331.167 154.184 330.882C142.341 329.002 127.638 326.785 116.351 324.961C115.98 324.901 117.363 324.961 115.979 324.727C113.361 324.281 105.182 323.302 103.729 323.031C103.475 322.977 108.3 323.492 106.859 323.153C103.156 322.283 102.136 322.85 99.0692 322.4C97.2915 322.137 88.6797 320.741 82.5074 319.954C79.6943 319.592 77.3624 319.311 76.1382 319.221C73.5544 319.031 78.2947 319.658 82.475 320.213C85.0402 320.556 87.4414 320.906 86.9365 320.915C85.3984 320.739 83.9022 320.566 82.452 320.398C72.7444 319.27 63.0544 317.858 53.9022 316.628C53.7138 316.603 55.3342 316.973 52.939 316.666C48.8262 316.138 47.7821 315.778 45.7724 315.462C43.6653 315.135 36.024 314.066 34.9816 313.833C34.8507 313.804 36.4382 313.825 36.6806 313.854C39.9942 314.249 41.1385 314.682 41.4471 314.73C42.6085 314.907 43.7205 314.96 44.7442 315.111C46.4262 315.358 47.4089 315.593 49.6398 315.911C51.1731 316.129 49.7141 315.742 51.1988 315.956C51.7437 316.037 57.6341 317.263 58.2328 316.91C58.4285 316.933 9.94683 309.683 5.17127 308.843C9.30272 309.567 13.4022 310.272 17.5915 310.977C9.12613 309.538 -0.975161 308.212 -1.62101 307.591C-14.1648 305.591 -27.0008 302.912 -38.7227 302.082C-41.2526 301.956 -44.4831 301.202 -47.1443 298.95C-49.8207 296.707 -51.091 293.702 -51.6734 291.309C-52.7742 286.427 -52.2978 282.631 -51.9101 278.975C-51.4693 275.355 -50.8215 271.961 -50.3521 268.812C-50.1206 267.257 -49.9346 265.725 -49.9153 264.598C-49.8978 264.057 -49.9652 263.583 -49.9504 263.687C-49.9322 263.74 -49.8846 264.006 -49.5586 264.507C-49.2293 265.036 -48.437 265.767 -47.5881 266.081C-49.7376 265.081 -52.4758 264.373 -55.1132 260.156C-56.3815 258.007 -56.5398 254.992 -56.0706 253.158C-55.6415 251.264 -54.9743 250.048 -54.6135 249.265C-54.0108 248.046 -53.6514 246.967 -53.1464 245.397C-51.5272 240.228 -52.0621 243.207 -49.6325 234.338C-50.3777 236.595 -51.1296 238.863 -51.8892 241.096C-51.1927 238.862 -49.3722 232.636 -47.6374 226.541C-45.9374 220.578 -44.3124 214.77 -43.8933 213.131C-43.7857 212.708 -43.9047 212.039 -42.5309 206.968C-41.3132 202.471 -40.899 201.795 -40.1996 199.414C-39.6097 197.403 -39.0426 195.123 -38.8669 194.529C-38.7313 194.073 -38.5514 193.927 -38.2244 192.825C-37.1969 189.359 -38.3379 192.081 -36.9675 188.735C-37.183 189.583 -37.3983 190.429 -37.6143 191.279C-36.3963 187.082 -34.629 181.38 -36.2358 187.61C-36.5124 188.682 -36.3866 187.731 -36.6048 188.527C-45.1511 219.691 -38.0541 194.878 -35.2594 183.904C-34.3021 181.153 -30.1242 165.397 -29.9487 164.884C-29.6983 164.174 -30.2791 166.898 -29.1943 163.416C-29.011 162.841 -25.425 149.347 -24.9006 147.764C-24.8304 147.553 -24.8105 147.54 -24.8543 147.777C-24.8956 148.004 -24.998 148.473 -25.183 149.263C-25.5533 150.857 -28.3261 160.894 -28.9852 163.34C-27.7117 159.672 -25.9717 152.653 -24.8095 147.789C-24.1877 145.188 -23.7242 143.183 -23.583 142.672C-21.9005 136.599 -26.3543 154.451 -22.6607 140.766C-19.8495 130.234 -22.7151 140.055 -21.7645 135.976C-21.2102 133.694 -17.9254 121.875 -18.3549 122.023C-18.0579 120.834 -17.8614 120.164 -17.7467 119.818C-17.4485 118.925 -17.6782 120.147 -17.5611 119.771C-17.4599 119.224 -14.962 110.953 -13.8349 108.386C-13.7067 108.072 -13.89 109.143 -13.752 108.82C-13.5849 108.406 -12.2799 104.94 -11.264 102.536C-11.2471 102.495 -11.1914 102.373 -11.1726 102.333C-10.5866 101.092 -10.1709 100.202 -10.1183 100.078C-10.0457 99.8991 -11.022 101.528 -10.7249 100.808C-10.3678 99.95 -7.00943 93.0125 -6.87029 92.5979C-6.68244 92.0306 -10.7465 100.661 -10.2357 99.1287C-8.28937 95.1777 -5.34001 88.6734 -4.24442 85.9737C-4.5048 86.6348 -6.3225 90.4843 -6.975 91.8157C-6.92673 91.0486 -3.03136 82.8215 -4.14985 85.7253C-3.41302 83.8734 -4.06019 85.0924 -3.68186 84.0153C-3.58437 83.741 -2.39365 81.1852 -2.21922 80.6866C-2.19493 80.6142 -3.51892 83.1875 -3.32825 82.6396C-3.12116 82.0602 -1.96781 79.5482 -0.851684 77.1007L-0.910535 77.2306C-0.18981 75.5765 0.493877 73.8085 0.613824 73.5434C1.20066 72.1841 -0.0315847 75.6252 -0.693775 77.3259L-0.637142 77.2009C-0.932892 77.9016 -1.10732 78.3587 -1.13932 78.4987C-1.13983 78.5161 -0.903156 78.057 -0.496943 77.2664L-0.552127 77.3881C0.127954 76.0492 1.2453 73.4723 1.27795 73.4304C1.51636 73.2569 0.342051 76.2135 -0.209649 77.5387L-0.157969 77.4247C-0.469342 78.133 -0.604578 78.5042 -0.458631 78.3296C-0.326167 78.0588 -0.190361 77.7797 -0.0413006 77.4792L-0.0917741 77.5905C0.412934 76.5272 0.927966 75.3254 1.43513 74.1255C1.05294 75.208 0.585798 76.4731 0.0855801 77.6685L0.134239 77.5611C-2.42984 83.4121 -5.9656 90.7084 -6.84641 93.0157C-4.01256 86.9526 -1.11213 80.7736 0.479884 77.7226L0.434798 77.822C0.990594 76.7396 1.37852 76.0415 1.51675 76.1097C1.62405 76.1548 1.31051 77.1884 0.998024 78.0697L1.03735 77.9829C0.668193 78.931 0.370246 79.697 0.417839 79.6559C0.560614 79.502 0.84701 78.9193 1.23749 78.0764L1.20024 78.1586C1.88451 76.6068 2.74008 74.089 2.79615 73.9694C2.86818 73.8178 2.90748 73.7496 2.91848 73.7538C2.91848 73.7538 2.91849 73.7538 2.91849 73.7538C2.98188 73.7664 2.11158 76.241 1.3053 78.2047L1.34147 78.1249C0.618006 79.7863 0.0205623 81.1553 -0.0375564 81.3332C-0.230938 81.9861 1.60463 78.9528 1.68581 78.98C1.654 79.1132 -0.635172 84.2686 0.305955 82.6071C0.823467 81.697 1.62156 80.0528 2.32012 78.5819L2.29406 78.6394C2.83181 77.4569 3.24592 76.4067 3.28335 76.3384C3.46442 75.9805 3.02673 77.2293 2.42474 78.6969L2.44947 78.6424C1.52043 80.7938 0.325017 83.4572 0.285928 83.6125C0.258529 83.7468 2.36802 79.5985 2.46352 79.4915C2.55725 79.4112 1.18204 82.66 0.720948 84.0009C0.388124 84.9852 1.74716 82.285 1.54149 82.7671C1.39387 83.1335 -2.10592 90.5471 -2.27029 90.9304C-2.50017 91.4848 -1.55743 89.8189 -1.64216 90.0777C-1.76095 90.4449 -2.95054 92.8336 -2.75979 92.5505C-2.60022 92.3177 2.22607 83.2113 2.2977 83.3294C2.45749 83.5182 -2.64523 93.185 2.44836 84.36C2.48377 84.3003 3.47127 82.0321 3.50287 81.9722C4.26389 80.6874 1.34005 87.5846 4.90099 79.7872C4.99247 79.5774 5.08685 79.356 5.18343 79.1249C5.09141 79.3519 4.99956 79.5746 4.90921 79.7892C-1.95986 95.2074 4.55325 81.3491 3.77025 83.8825C3.47045 84.8741 0.530885 91.2354 0.533326 91.2726C0.993657 90.717 1.81676 88.6549 2.21891 88.0052C2.44278 87.6503 -0.0645306 93.3838 0.647246 92.1651C1.01969 91.5341 3.83354 85.5188 3.95753 85.2711C5.16896 82.9489 3.92638 85.9061 4.24196 85.4236C4.45727 85.1026 6.15131 81.4499 6.19681 81.3621C6.29467 81.2169 4.20022 86.2665 3.78214 87.3239C3.47046 88.1297 4.93018 85.2412 4.69868 85.7956C3.306 89.1469 -0.368658 95.9507 3.32412 89.4642C3.54619 89.0764 4.73565 86.5155 4.77547 86.4445C5.6607 84.9328 3.46461 89.6424 3.18773 90.5253C2.70958 92.0634 5.77884 85.2703 3.27433 90.9429C5.12177 87.3337 6.2304 85.0156 7.94023 81.2065C7.94694 81.1925 7.96587 81.15 7.97226 81.1358C8.22248 80.5572 8.46721 79.9591 8.71926 79.3259C8.47541 79.9385 8.23115 80.5401 7.97577 81.1374C7.96936 81.1515 7.95042 81.1941 7.94369 81.2081C2.37038 93.5784 1.01027 97.6392 7.81284 83.0836C5.56067 87.9353 6.09345 87.5294 5.42657 88.9694C5.01 89.8707 1.4186 96.6775 3.5888 93.8093C3.85562 93.4633 5.7654 89.1532 5.30343 90.5673C0.446036 100.704 5.31166 90.8349 5.33421 90.8382C5.52456 91.0142 1.71202 99.0394 -2.01693 106.717L-1.91639 106.494C-4.39907 112.227 -6.32277 117.991 -6.86552 119.864C-7.14701 120.816 -7.40239 121.758 -7.62481 122.652C-8.54565 126.448 -9.13125 129.913 -9.37571 130.823C-10.3479 134.639 -9.70597 131.424 -9.98533 132.263C-10.259 133.137 -12.7595 143.985 -12.9295 144.521C-13.5557 146.593 -13.191 144.427 -13.2569 144.635C-13.5272 145.488 -14.1357 147.738 -14.8613 150.457C-16.2836 155.792 -18.182 163.017 -18.9403 165.687C-18.7781 165.599 -16.5703 157.495 -17.7363 162.609C-19.0985 168.575 -19.7535 168.752 -19.8212 168.904C-25.3346 189.161 -30.8909 209.409 -36.5195 229.642C-38.4216 236.389 -40.1815 242.992 -42.3922 249.959C-41.7774 249.51 -37.0462 231.879 -36.9024 231.464C-36.5095 230.074 -39.3743 243.229 -43.8243 254.413C-44.3403 255.436 -44.431 255.867 -44.3849 255.634C-44.3689 255.518 -44.3667 255.207 -44.4499 254.906C-44.5286 254.603 -44.6676 254.357 -44.7542 254.239C-44.9416 254.002 -44.8704 254.137 -44.7151 254.242C-44.5612 254.357 -44.3512 254.483 -44.2141 254.563C-44.5647 254.365 -44.8104 254.166 -44.848 254.106C-44.8991 254.041 -44.6635 254.196 -44.4682 254.675C-44.2646 255.15 -44.3028 255.692 -44.3027 255.714C-44.3011 255.759 -44.1968 255.466 -43.9309 254.95C-44.1007 255.403 -44.1939 255.766 -44.1608 255.752C-44.1483 255.743 -44.1071 255.619 -44.108 255.368C-44.1061 255.122 -44.173 254.752 -44.2987 254.462C-44.5734 253.843 -44.7984 253.807 -44.5471 253.98C-44.3169 254.152 -43.7825 254.449 -43.112 254.723C-41.0626 255.48 -39.4539 257.382 -38.8549 258.72C-38.1628 260.173 -38.0023 261.25 -37.8786 262.151C-37.6666 263.994 -37.7727 265.379 -37.8704 266.643C-38.0982 269.182 -38.4605 271.285 -38.7106 273.123C-39.032 275.421 -38.1819 271.042 -38.1895 271.09C-38.4709 273.82 -39.2328 277.743 -38.9266 274.72C-39.6966 280.808 -39.8154 279.914 -40.1165 284.125C-40.1078 284.309 -39.971 282.673 -39.9266 285.741C-39.9349 286.399 -39.6619 288.734 -39.2617 289.23C-39.0864 289.49 -39.1505 289.363 -39.0758 289.401C-39.0038 289.425 -38.746 289.473 -38.6292 289.459C-38.5266 289.456 -38.9287 289.21 -38.9131 289.104C-38.9022 289.002 -38.7484 289.109 -38.9748 289.225C-38.9905 289.171 -39.13 288.87 -39.217 288.533C-39.3082 288.202 -39.3739 287.849 -39.4175 287.606C-39.5061 287.093 -39.5477 286.917 -39.5912 286.918C-39.669 286.881 -39.759 287.488 -39.8409 286C-39.6944 285.363 -40.1292 287.244 -39.0261 277.855C-38.9164 278.797 -39.3976 282.044 -39.4594 284.783C-39.4969 286.156 -39.4061 287.366 -39.2591 288.078C-39.1114 288.804 -38.9775 289.018 -38.9344 289.074C-38.8468 289.155 -38.8216 289.134 -38.8702 288.977C-38.92 288.819 -39.1905 288.123 -39.2903 286.686C-39.5372 283.849 -38.8345 278.995 -38.7978 277.507C-38.6296 278.924 -38.5939 276.458 -37.9438 272.612C-37.2701 268.318 -37.4351 270.225 -37.1344 267.701C-36.8045 264.484 -37.012 262.688 -37.2965 261.322C-37.4673 260.567 -37.5987 259.987 -38.0714 258.866C-38.5624 257.912 -39.3636 255.648 -42.8658 254.098C-43.0967 253.992 -43.3397 253.868 -43.5701 253.73C-43.1295 254.105 -42.9644 254.258 -43.1723 254.232C-43.3511 254.216 -43.898 253.99 -44.2341 253.757C-44.3943 253.652 -44.4742 253.54 -44.3378 253.652C-44.216 253.742 -43.8156 254.251 -43.6736 254.923C-43.5251 255.591 -43.6453 255.987 -43.5832 255.895C-43.5318 255.819 -43.3339 255.435 -42.996 254.809C-42.319 253.561 -41.6995 252.08 -41.4038 251.328C-41.7692 252.419 -42.3514 253.857 -42.8475 254.879C-43.2635 255.73 -43.3758 256.13 -43.3119 255.93C-43.221 255.78 -43.2337 254.517 -43.6628 253.842C-44.0564 253.166 -44.2208 253.189 -44.001 253.307C-43.8002 253.435 -43.3355 253.668 -42.7794 253.879C-40.8729 254.596 -39.2654 256.143 -38.446 257.528C-37.6276 258.877 -37.3171 259.998 -37.102 260.966C-36.7303 262.78 -36.752 264.153 -36.777 265.316C-36.7211 264.82 -36.6756 264.337 -36.6539 263.751C-36.6055 266.3 -36.8805 268.172 -37.1301 270.024C-37.1257 269.721 -37.123 269.42 -37.1225 269.119C-38.2948 278.444 -38.8064 279.822 -38.8806 280.581C-39.2408 283.395 -39.3644 286.418 -38.9551 288.089C-38.8648 288.484 -38.7517 288.767 -38.6888 288.885C-38.6229 289.008 -38.634 288.961 -38.7003 288.908C-38.7621 288.851 -38.8398 288.829 -38.7445 288.864C-38.6538 288.896 -38.4167 288.955 -38.0224 288.975C-34.6849 289.156 -31.4792 289.528 -28.5195 289.921C-27.1117 290.133 -27.9676 289.668 -17.7981 291.491C-14.6176 292.073 -17.6388 291.768 -14.0129 292.338C-9.37202 292.589 -9.51427 292.984 -8.17383 293.208C-4.29298 293.858 -1.91035 294.126 -1.5509 294.184C3.23649 294.962 10.2566 296.131 15.5055 296.939C15.6211 296.956 12.8981 296.365 16.2874 296.948C17.5001 297.159 28.1198 299.507 37.5785 300.655C35.1338 300.253 32.6885 299.845 30.2558 299.435C33.1359 299.96 53.3181 302.659 48.417 301.777C45.4345 301.251 37.9987 300.62 37.2092 300.078C43.8775 301.272 81.1108 306.029 84.0092 306.419C84.4133 306.484 81.8924 306.306 82.4529 306.393C82.5648 306.411 83.2238 306.494 84.1698 306.611C86.6755 306.917 91.8277 307.597 92.634 307.748C93.3502 307.876 89.4324 307.432 89.7457 307.524C90.1624 307.6 100.709 309.126 101.412 309.066C98.7062 308.74 91.3656 307.666 95.2278 308.056C95.7166 308.105 98.3041 308.579 98.9359 308.646C104.664 309.242 87.6652 306.899 85.1497 306.623C95.7845 307.731 112.007 310.41 124.198 312.144C129.06 313.033 116.962 311.254 122.437 312.211C133.946 314.227 125.528 312.488 125.883 312.524C128.878 312.839 138.357 315.085 138.512 314.52C142.77 315.271 141.292 315.115 147.2 315.957C146.43 315.797 145.663 315.636 144.9 315.477C151.546 316.172 165.185 319.147 164.192 319.057C161.314 318.789 154.174 317.407 153.582 317.321C152.745 317.201 149.95 317.365 140.175 315.309C136.076 315.073 155.893 318.026 146.808 316.886C152.961 317.806 178.089 321.963 181.67 322.314C182.109 322.357 180.138 321.662 186.345 322.8C189.297 323.341 182.148 322.27 183.493 322.563C187.589 323.573 244.12 331.46 254.866 332.574C255.563 332.66 255.293 332.75 255.978 332.833C258.084 333.092 265.771 333.83 269.539 334.314C261.747 333.187 276.934 334.924 280.773 335.341C286.642 336.003 286.252 336.172 288.779 336.477C298.508 337.664 313.714 338.465 321.228 339.463C320.877 338.977 334.322 340.604 340.516 340.881C345.265 341.125 352.395 341.071 345.824 340.62C354.202 340.998 362.943 341.112 370.7 341.081C372.001 341.076 370.212 341.219 372.428 341.202C372.627 341.198 372.909 341.063 374.793 341.034C390.285 340.661 382.785 341.04 385.682 341.067C387.308 341.06 388.492 341.034 389.358 341.004C380.353 341.45 369.838 341.487 367.049 341.46C369.441 341.86 387.233 341.269 392.306 340.972C392.488 340.965 391.862 341.165 392.047 341.157C392.051 341.157 392.055 341.157 392.059 341.156C394.099 341.132 406.256 340.1 403.749 340.087C402.978 340.103 397.54 340.603 390.672 340.941C392.497 340.814 391.121 340.693 391.444 340.669C395.443 340.416 404.877 339.871 408.226 339.489C408.982 339.413 408.913 339.298 409.037 339.284C412.004 338.968 410.853 339.458 413.947 338.698C419.501 338.429 403.678 340.017 404.788 340.082C405.748 340.949 440.406 334.465 439.705 333.117C439.826 333.113 440.287 333.006 441.189 332.734C441.582 332.615 442.232 332.394 443.011 332.102C446.395 330.934 451.716 327.943 452.721 327.157C452.937 327.004 452.672 326.786 452.942 326.607C453.747 326.385 462.606 319.593 464.864 315.983C463.399 317.693 461.846 319.295 460.192 320.795C465.025 316.111 466.49 313.536 466.857 313.069C467.177 312.549 466.197 313.895 464.737 315.608C464.594 315.782 464.445 315.943 464.307 316.106C462.051 318.771 458.718 321.688 458.635 321.702C458.522 321.755 462.701 318.024 465.767 313.88C468.887 309.812 471.096 305.615 470.154 307.656C470.043 308.362 463.743 316.943 467 312.795C467.646 312.138 471.187 306.193 471.304 305.838C471.933 304.797 470.598 307.666 468.909 310.464C467.26 313.256 465.255 315.879 465.918 315.231C468.02 312.242 470.656 308.321 472.506 304.471C473.356 302.707 473.382 302.206 473.483 301.989C474.894 298.708 474.236 300.605 474.705 299.501C475.029 298.917 477.057 292.098 477.075 293.515C482.662 270.334 479.509 287.531 473.937 300.774C475.696 296.577 478.411 288.11 479.215 284.055C479.519 282.641 479.178 283.45 479.651 281.037C481.104 276.196 483.399 251.639 483.088 245.087C483.114 249.059 483.313 247.903 483.319 244.832C483.308 241.755 483.063 244.34 483.036 243.74C483.09 243.102 482.831 228.636 482.589 226.22C483.172 237.123 483.275 234.659 482.835 225.393C482.962 226.729 483.083 228.065 483.196 229.403C482.919 223.992 482.332 212.49 481.945 209.373C481.889 208.882 481.891 210.664 481.859 210.388C481.572 207.62 480.794 198.206 480.683 197.766C480.603 197.396 480.887 201.436 480.671 199.947C480.624 199.613 480.442 195.8 479.964 191.93C479.789 190.513 479.739 191.384 479.691 191.028C479.289 188.05 479.741 189.858 479.076 184.351C478.597 180.399 478.005 177.412 477.463 171.865C479.237 190.098 477.595 174.844 476.68 167.204C476.54 165.956 476.349 167.015 475.768 159.652C477.823 175.249 475.482 155.24 475.342 150.941C475.331 150.686 475.497 150.726 475.391 148.539C475.385 148.364 475.269 148.606 475.188 146.668C474.923 139.667 475.352 136.643 475.428 135.902C475.484 135.471 475.485 135.615 475.473 135.907C475.446 136.492 475.394 137.667 475.579 136.189C475.589 136.117 475.6 136.027 475.613 135.922C475.86 133.898 476.534 126.118 476.759 123.898C476.811 123.394 476.912 123.609 477.117 121.576C477.481 117.965 477.673 114.728 477.892 112.348C477.913 112.09 478.122 112.075 478.466 107.574C478.561 106.294 478.605 104.936 478.402 106.675C477.715 112.609 476.851 123.961 475.947 130.724C475.13 136.885 477.17 117.404 477.247 116.42C477.285 116.04 477 119.831 477.403 116.007C477.745 112.691 478.027 106.631 478.402 101.926C478.414 101.769 478.552 100.712 478.645 99.8897C478.693 99.4589 478.726 99.1222 478.748 98.9629C478.768 98.7978 478.792 98.8755 478.796 98.8613C478.908 97.9201 478.676 103.992 478.785 103.1C478.815 102.997 479.019 99.3275 479.031 99.159C479.054 99.0337 479.135 98.8205 479.248 98.8086C479.31 98.8149 479.357 98.8594 479.535 99.2529C479.584 99.3608 479.649 99.5011 479.731 99.6523C479.821 99.8226 479.94 100.028 480.092 100.242C480.397 100.697 480.926 101.164 481.042 101.214C481.005 101.019 480.802 100.747 480.632 100.618C479.252 99.6188 480.089 100.382 479.122 99.7542C477.657 98.747 473.039 96.4113 470.264 95.7115C468.818 95.2893 467.949 95.0173 467.828 95.0573C468.586 95.3176 469.371 95.584 470.225 95.8442C470.975 96.074 471.721 96.3303 472.461 96.6108C471.582 96.291 470.839 96.058 470.215 95.8786C464.28 94.0116 467.369 95.0832 466.186 94.7443C464.853 94.3614 465.269 94.2291 462.452 93.3547C462.142 93.2614 459.065 92.355 456.128 91.9388C453.184 91.4815 450.368 91.5426 450.473 91.5889C456.836 91.7118 454.455 92.0175 454.747 91.9852C455.855 92.1352 457.301 92.2111 458.809 92.5489C469.474 95.4521 458.632 92.7021 461.14 93.4636C461.992 93.7096 463.769 94.1179 464.146 94.2495C465.364 94.6648 465.329 94.8386 466.173 95.1055C468.172 95.7434 465.922 94.7301 466.092 94.7745C466.864 94.9592 468.565 95.5548 470.159 96.0696C471.745 96.6077 472.738 97.1009 470.549 96.5329C472.766 97.357 473.147 97.1874 474.841 98.0645C478.148 99.9186 473.078 97.3795 471.597 97.0187C471.032 96.8402 470.509 96.688 470.016 96.5535C464.831 95.0788 463.07 93.897 456.12 92.6725C453.767 92.2949 451.067 92.2941 449.536 92.3882C449.212 92.4035 448.933 92.4155 448.708 92.4228C447.698 92.3906 439.287 92.3299 439.254 93.3107C436.806 93.5252 433.389 93.837 430.865 94.7212C430.071 94.9983 429.357 95.2655 428.704 95.5375C425.858 96.7364 426.877 96.6508 426.617 96.769C426.212 96.9495 422.806 98.4165 421.718 98.9951C420.441 99.6639 421.117 99.448 419.13 100.503C414.295 103.198 414.478 102.974 413.963 103.23C412.559 104.082 411.682 104.739 410.984 105.244C408.873 106.661 407.346 106.524 406.594 106.546C405.802 106.518 405.426 106.438 405.133 106.394C404.596 106.3 404.473 106.287 404.394 106.302C404.283 106.331 404.218 106.425 403.165 106.017C401.408 105.411 397.026 102.457 392.285 99.7114C386.992 96.5577 381.759 94.0694 380.137 93.7875C381.477 94.1224 382.861 94.6135 384.319 95.2306C381.821 93.803 379.254 93.4657 379.285 93.1323C378.738 93.4114 373.671 92.4813 371.736 92.6821C371.039 92.7109 371.1 92.8001 370.222 92.8506C370.215 92.851 370.208 92.8514 370.2 92.8519C366.88 92.9471 358.721 94.3022 356.81 94.8206C349.325 96.6612 365.888 93.202 370.251 93.3925C370.812 93.3711 371.182 93.3633 371.36 93.3589C371.083 93.3685 370.725 93.3837 370.252 93.4107C365.417 93.3958 349.94 97.0539 358.039 95.5385C359.394 95.2947 361.733 94.619 362.488 94.4906C367.577 93.6501 363.602 94.4745 364.005 94.4337C364.693 94.3484 367.985 93.7242 368.824 93.702C369.056 93.696 367.819 93.9201 370.274 93.8018C370.722 93.7855 371.273 93.764 371.943 93.7473C371.613 93.7847 371.042 93.8236 370.278 93.8804C366.183 94.0374 355.818 95.9909 354.328 96.4638C353.697 96.6993 357.78 95.8583 346.014 98.7096C346.16 98.7065 346.306 98.7037 346.452 98.7013C346.309 98.7436 346.166 98.7863 346.023 98.8293C341.894 100.061 338.184 101.151 335.985 102.576C333.812 103.935 331.697 105.314 329.659 106.739C330.193 106.254 333.191 104 329.326 106.69C327.156 108.253 328.883 107.273 328.686 107.418C328.209 107.844 323.496 110.883 320.295 114.75C319.841 115.214 319.102 116.631 316.27 117.938C313.237 119.343 309.547 118.268 308.241 117.417C306.393 116.32 305.875 115.654 305.229 115.059C304.638 114.473 304.187 113.984 303.755 113.522C302.903 112.607 302.155 111.808 301.392 111.061C296.613 106.297 291.389 102.164 287.437 101.03C282.071 99.3088 277.984 98.3329 276.205 98.082C275.293 97.9336 273.793 97.7745 272.612 97.8472C269.412 97.9836 266.218 98.2048 265.856 98.2349C264.323 98.331 260.354 98.5804 258.487 99.1678C254.039 100.523 250.143 101.903 248.998 102.43C247.674 103.013 248.992 102.62 247.827 103.129C246.769 103.61 247.793 102.958 247.477 103.097C246.873 103.367 245.289 104.096 243.696 105.194C242.882 105.756 241.941 106.548 240.684 107.742C239.292 108.903 238.244 110.658 233.993 112.795C233.076 113.299 230.245 113.896 228.315 113.29C226.428 112.764 225.731 112.169 225.182 111.819C224.187 111.1 223.836 110.742 223.416 110.376C222.646 109.68 222.045 109.118 221.414 108.546C216.974 104.493 212.968 100.908 211.252 99.396C212.705 100.628 217.46 104.769 221.553 108.394C222.284 109.036 222.941 109.633 223.776 110.358C224.238 110.74 224.594 111.114 225.784 111.888C226.4 112.25 227.379 112.89 229.262 113.184C231.176 113.489 233.094 112.896 233.872 112.52C237.778 110.479 238.162 109.418 238.205 109.484C238.085 109.489 236.939 110.861 233.792 112.337C233.174 112.608 232.131 112.983 230.817 113.041C229.506 113.11 228.246 112.792 227.479 112.483C225.932 111.834 225.51 111.396 225.086 111.102C224.338 110.517 224.07 110.257 223.862 110.093C223.391 109.606 222.643 108.931 221.752 108.176C220.029 106.709 217.761 104.858 216.403 103.566C216.167 103.35 217.279 103.991 213.487 100.587C212.31 99.5544 208.189 96.1404 205.971 94.6942C205.918 94.6692 205.866 94.6468 205.845 94.64C203.146 93.5177 198.166 90.944 193.54 90.8582C188.846 90.7042 182.355 90.704 180.663 91.2698C173.633 93.4911 169.517 95.449 168.887 95.9604C168.801 95.9685 172.701 94.2293 170.138 95.5526C167.609 96.9701 168.702 96.1321 167.55 96.6246C167.126 96.8303 166.529 97.1519 165.474 97.7789C164.568 98.206 153.047 105.745 150.739 106.582C149.735 107.067 148.335 107.379 147.965 107.43C147.781 107.463 147.862 107.472 148.152 107.447C148.445 107.421 148.917 107.349 149.394 107.229C151.374 106.703 152.646 105.94 153.965 105.229C156.512 103.795 159.13 102.185 159.095 102.232C158.94 102.362 157.497 103.29 155.638 104.446C154.691 105.029 153.701 105.649 152.41 106.34C151.722 106.687 151.046 107.086 149.551 107.533C148.785 107.739 147.65 108.023 145.974 107.848C144.292 107.701 142.475 106.776 141.636 106.079C140.431 105.121 140.14 104.792 140.044 104.713C139.974 104.627 140.466 105.086 141.695 106.003C142.446 106.59 143.717 107.275 144.976 107.547C146.254 107.836 147.247 107.779 147.956 107.694C149.327 107.495 149.763 107.259 150.003 107.178C150.207 107.086 150.138 107.114 149.456 107.303C149.061 107.394 148.563 107.57 147.289 107.635C146.153 107.773 143.316 107.185 141.8 105.867C140.566 104.9 139.809 104.103 138.822 103.329C139.557 103.969 139.971 104.515 141.604 105.911C139.929 104.557 139.626 104.185 139.126 103.76C138.689 103.37 138.372 103.092 138.117 102.864C137.603 102.408 137.362 102.163 136.964 101.881C135.464 100.829 133.614 99.8906 131.307 98.713C129.676 97.8832 127.964 96.9669 126.074 95.9494C124.827 95.284 127.03 96.0859 126.879 96.0073C125.368 95.1564 123.244 94.7405 121.079 93.7862C120.995 93.7439 122.294 94.0802 122.46 94.0882C122.645 94.1678 121.557 93.41 117.084 92.7419C117.689 92.8447 118.3 92.9748 118.917 93.13C118.499 93.07 117.252 92.8428 115.797 92.7806C112.606 92.5241 107.844 93.5023 106.863 93.7454C102.796 94.7141 106.3 93.5472 102.164 94.7542C103.773 94.4637 100.137 95.6031 96.9123 96.7557C94.5683 97.5786 92.4614 98.2895 92.7405 98.0716C91.0198 99.0292 79.7294 102.96 74.7927 105.123C74.1014 105.419 73.2616 105.794 72.407 106.2C69.5836 107.486 66.4729 109.796 65.5147 110.43C64.8583 110.86 64.5316 110.998 63.9731 111.254C63.6777 111.384 63.3518 111.554 62.5373 111.883C62.1087 112.042 61.5653 112.279 60.45 112.468C59.4267 112.663 57.0988 112.671 55.1681 111.423C54.891 111.25 54.5124 110.993 54.079 110.606C52.1669 108.966 48.4706 104.658 44.0754 101.757C43.1944 101.127 41.3354 99.6397 43.1828 100.597C46.4542 102.14 51.0124 106.806 51.1247 106.707C51.2786 106.223 44.4289 100.715 42.0648 99.7139C31.7474 94.5145 37.7881 97.2474 37.6175 96.9957C37.3375 96.7856 36.1352 96.2155 34.756 95.6573C32.7608 94.8434 30.6045 94.0404 30.4571 93.9805C29.3876 93.5002 33.92 95.031 34.0478 94.9696C34.1605 94.8268 28.1633 92.3372 29.5659 92.8033C30.7377 93.1624 33.1425 94.1321 35.0379 94.9262C36.3012 95.4536 37.2639 95.9062 37.3992 95.9587C41.1852 97.5154 37.4854 95.4941 35.221 94.4513C34.8333 94.2694 34.4955 94.1097 34.2514 93.9901C33.8899 93.8124 34.8308 94.1176 35.2946 94.2605C35.4932 94.3212 35.5994 94.3507 35.4681 94.2946C35.414 94.2716 35.3605 94.2489 35.3077 94.2266C28.8317 91.534 33.8058 94.1443 29.3962 92.4969C25.4694 91.1326 30.6113 92.6142 30.4757 92.5791C30.2743 92.456 25.5627 90.8982 24.8665 90.7016C24.558 90.4524 32.3828 92.7086 35.4804 93.7785C36.2447 94.0149 36.6666 94.1346 36.5817 94.0564C36.2374 93.922 35.8864 93.7879 35.5284 93.6541C31.8407 92.2768 28.2236 90.9239 24.6511 90.0816C24.3973 89.6735 30.0239 91.5794 30.6281 91.8369C31.8362 92.2081 28.5622 90.9142 28.7306 90.9002C28.8191 90.8602 32.7907 92.0593 29.2833 90.7547C28.0765 90.3617 25.4793 89.4954 21.1413 88.7042C28.8021 89.9168 30.0657 90.9078 29.2783 90.4144C28.5025 90.0505 25.7224 89.167 25.5038 89.0839C25.0694 88.8716 32.5814 90.6709 23.5245 88.3463C23.2276 87.7908 23.7575 88.1677 26.3589 88.7805C29.5386 89.693 22.3286 86.9618 33.7783 91.1397C33.2294 90.5559 23.9267 87.5465 23.3963 87.6753C22.9661 87.5639 25.0936 87.901 24.3521 87.7002C19.9441 86.5605 19.1835 86.7737 19.2914 86.6744C19.3863 86.6374 20.2994 86.651 18.9777 86.4583C18.9524 86.455 18.8305 86.4484 18.6416 86.4428C17.0713 86.2654 10.8215 87.5554 16.6692 86.4169C17.3493 86.3245 18.0073 86.2676 18.6425 86.2686C29.3783 87.0835 33.3714 90.3226 35.4674 90.0948C30.067 87.7655 23.4715 85.6789 18.6448 85.8608C16.0945 85.9642 14.2516 86.5538 13.3215 86.7549C9.25222 87.8236 13.4303 86.5746 12.9241 86.672C12.7348 86.676 9.24719 87.6899 9.2027 87.7143C7.76861 87.9836 12.5409 85.858 18.6462 85.5924C23.4831 85.6681 28.4128 87.465 30.8909 88.2636C29.423 87.6675 27.9346 87.1053 26.4107 86.6143C28.5071 87.1708 30.5535 87.861 32.5716 88.5935C22.8888 85.1639 32.2931 88.3212 34.7995 88.8887C35.3732 88.9958 29.0138 86.7887 36.2883 89.2394C31.0155 87.192 32.7682 87.6635 27.7658 86.2193C27.8948 86.0947 32.8443 87.5603 37.242 89.2101C39.5862 90.0549 41.7943 91.0036 43.2311 91.6805C40.6733 90.39 38.7512 89.6161 37.3001 89.0595C30.4482 86.6645 34.687 87.8824 23.2391 84.7759C20.5607 84.4932 27.3428 85.7862 26.7513 85.7815C25.3169 85.5173 22.4822 84.6122 18.6512 84.6899C17.1933 84.7345 15.7597 85.0365 14.3232 85.4541C13.457 85.74 17.2318 85.0612 11.7125 86.3851C11.1001 86.5222 7.61495 87.4048 7.6632 87.3907C8.05724 87.076 11.4922 86.1018 11.627 86.0228C11.7344 85.9033 7.92727 87.0849 7.91909 87.0945C7.73573 86.9348 11.0728 86.0388 10.5768 86.1344C9.5174 86.3006 -4.39544 90.2066 13.7054 84.8935C-1.19989 89.623 11.4097 84.948 17.9791 84.3954C18.2277 84.3812 18.4512 84.3725 18.653 84.3674C19.8159 84.352 20.4219 84.2668 22.389 84.5025C25.3419 84.8686 28.552 85.9215 29.952 86.362C31.4369 86.8775 23.0835 83.6271 35.2547 88.0357C31.311 86.3951 25.0424 83.9211 18.6557 83.8709C15.1557 83.95 12.5027 84.7761 10.3119 85.3011C0.401062 88.3938 10.9991 83.6936 18.6587 83.33C20.5084 83.3292 21.9028 83.5284 22.4073 83.5893C23.0705 83.6655 20.8716 83.2263 21.3115 83.2763C22.3247 82.8607 34.7216 86.7518 35.7357 87.2333C36.9423 87.5434 31.4294 85.6275 31.0629 85.4009C30.9532 85.2882 35.3228 86.779 37.8242 87.7002C39.8654 88.4501 40.8606 88.8058 37.8686 87.5852C37.7407 87.5345 37.6051 87.4809 37.4615 87.4244C32.4502 85.1821 21.6908 82.5805 19.5005 82.563C26.4716 82.8949 32.3205 85.3724 37.9203 87.451C40.0556 88.2652 42.1747 89.1706 44.2426 90.188C42.2107 89.098 40.1199 88.1164 38.0077 87.2244C35.8996 86.3308 33.7484 85.4206 31.5026 84.5765C33.8467 85.3619 36.0126 86.2018 38.0909 87.0087C44.3757 89.4732 50.2309 92.5198 55.7089 97.1294C51.4056 93.2714 49.2396 92.17 48.9891 91.8861C48.7018 91.6532 50.1461 92.4329 52.1261 93.8116C56.2619 96.5109 61.2967 102.165 61.2009 101.89C61.5903 102.269 55.6436 95.6229 54.2863 94.7384C56.3809 96.1993 59.9113 99.808 61.9933 101.77C61.5194 101.281 60.2523 100.682 59.3417 100.683C58.4288 100.653 58.0489 100.834 57.8872 100.88C57.5969 100.999 57.8884 100.863 58.1481 100.679C58.7256 100.291 59.501 99.7251 60.2192 99.2238C61.6635 98.207 62.9921 97.3666 63.8061 96.8587C65.4733 95.8863 64.924 95.8451 60.6983 98.3356C62.1676 97.4234 65.1804 95.5875 67.0689 94.6653C67.9436 94.2194 68.5138 93.9345 68.4857 93.9389C68.3435 93.9588 67.7871 94.1733 66.9997 94.5157C65.2051 95.275 62.3127 96.8624 60.3064 98.2026C58.2316 99.585 57.373 100.137 57.8314 99.7387C59.3412 98.4498 62.8463 96.3329 66.5529 94.5899C66.6842 94.5268 66.8156 94.4643 66.9472 94.4023C82.5603 87.6169 79.8144 88.0184 92.1828 83.4173C93.5596 82.9244 95.1357 82.3889 96.9696 81.8303C96.5815 81.9111 96.1921 81.9945 95.809 82.0778C101.964 80.1476 108.833 78.2059 116.567 78.654C125.03 79.1842 132.015 82.5518 138.004 85.6195C140.269 86.7896 142.539 88.0531 144.843 89.5982C145.988 90.368 147.159 91.2302 148.278 92.167C149.362 93.0661 150.552 94.211 150.73 94.3322C150.236 93.9292 149.176 93.3514 148.151 93.1685C147.13 92.9695 146.369 93.0698 145.979 93.1379C145.167 93.3066 145.199 93.3706 145.239 93.3384C145.391 93.2751 145.937 92.9839 146.451 92.6853C147.513 92.0714 148.712 91.3347 149.901 90.6074C152.149 89.0837 155.805 86.7018 160.024 84.0798C165.17 80.8486 171.237 78.8825 175.926 77.2621C183.255 75.3337 186.541 76.0592 190.028 75.9304C190.702 75.9386 192.181 75.9773 193.906 76.046C199.059 76.1142 204.889 78.3317 205.382 78.5535C206.148 78.8723 204.412 78.2234 202.829 77.7809C201.248 77.3398 199.924 77.0611 202.041 77.672C202.517 77.7292 207.915 79.6445 211.713 81.4495C215.078 83.0679 216.525 84.4085 217.883 85.3808C219.136 86.3381 219.82 86.8787 219.6 86.6344C218.305 85.6087 215.453 83.0989 211.747 81.3723C211.099 81.0861 210.583 80.8535 210.358 80.742C209.161 80.1524 209.926 80.4422 211.801 81.251C218.315 84.4124 224.525 90.7616 231.757 97.2292C232.445 97.8582 233.154 98.5234 233.704 99.0226C233.948 99.2509 234.264 99.4936 233.985 99.2856C233.803 99.19 233.476 98.83 232.038 98.4366C230.556 97.9784 228.309 98.4853 227.811 98.7887C227.462 98.9681 227.857 98.7721 228.345 98.3319C228.85 97.8961 229.508 97.2687 230.216 96.606C231.638 95.2675 233.317 93.7965 235.058 92.6089C239.713 89.5083 242.918 88.4625 243.512 88.1313C242.256 88.5806 240.983 89.0788 239.694 89.6524C243.302 87.8967 246.815 86.6957 250.16 85.6266ZM116.048 93.3924C115.96 93.3976 115.865 93.4016 115.763 93.4051C114.03 93.3881 110.497 93.5524 108.061 94.1573C104.588 94.8888 98.5159 97.7135 100.987 96.1389C106.282 94.404 111.304 93.1425 115.765 93.3785C115.859 93.3824 115.953 93.387 116.048 93.3924ZM196.147 91.6711C193.366 91.2002 195.523 90.9105 197.966 91.7458C198.262 91.8808 200.045 92.7256 196.147 91.6711ZM161.207 100.907C161.354 100.808 164.332 99.0014 164.431 98.951C167.174 97.4663 158.219 102.902 161.207 100.907ZM339.796 100.452C336.467 101.783 338.836 101.151 341.152 100.235C341.293 100.177 340.022 100.365 339.796 100.452ZM337.461 101.388C336.902 101.565 336.29 101.858 335.753 102.203C333.077 103.901 330.755 105.905 334.174 103.625C334.355 103.506 335.09 102.983 335.89 102.423C336.587 101.895 337.523 101.368 337.461 101.388ZM183.574 91.2877C183.885 91.108 187.707 91.0589 189.454 91.1249C189.396 91.2291 184.984 91.1404 183.574 91.2877ZM276.869 98.0335C276.969 98.0165 274.577 97.4954 272.604 97.5612C268.497 97.6599 263.936 97.9728 263.481 98.1113C264.581 97.964 268.819 97.7534 272.607 97.6634C274.515 97.6046 276.825 98.0731 276.869 98.0335ZM304.587 113.956C304.307 113.65 302.403 111.594 301.578 110.872C301.265 110.586 301.065 110.418 301.075 110.457C301.213 110.605 301.364 110.763 301.523 110.928C302.254 111.687 303.188 112.668 303.932 113.423C304.673 114.175 305.181 114.627 304.587 113.956ZM376.048 93.8527C376.155 93.8505 375.495 93.6462 375.663 93.5645C375.818 93.5255 376.915 93.3494 380.039 94.4217C380.955 94.7198 377.585 93.9815 377.913 94.1247C378.604 94.2957 379.139 94.4521 379.576 94.5783C376.741 93.7668 373.209 93.8564 372.811 93.822C371.164 93.6475 376.051 93.7701 376.048 93.8527ZM415.225 103.194C415.739 102.698 420.137 100.378 421.247 99.934C421.43 99.8578 420.751 100.434 422.828 99.4397C424.537 98.6447 421.854 99.5785 425.23 98.1168C428.675 96.6715 424.153 98.8138 424.479 98.6964C424.859 98.5144 430.148 96.1812 430.064 96.39C429.95 96.5263 424.214 98.8534 422.885 99.5362C421.161 100.381 423.323 99.5323 420.451 100.888C418.686 101.753 419.514 100.991 419.137 101.164C418.715 101.266 413.21 104.795 415.234 103.19C415.231 103.191 415.228 103.193 415.225 103.194ZM380.379 94.808C380.152 94.7454 379.889 94.6693 379.576 94.5783C379.844 94.6496 380.112 94.726 380.379 94.808ZM125.155 95.6355C126.823 96.4177 121.711 94.4357 119.947 93.9857C119.908 93.7742 124.864 95.4101 125.155 95.6355ZM383.336 95.6976C388.25 98.233 384.342 96.1073 380.379 94.808C381.652 95.1835 381.754 94.9789 383.336 95.6976ZM223.862 110.093C224.081 110.321 224.241 110.506 224.223 110.569C223.568 109.909 223.597 109.876 223.862 110.093ZM244.055 104.531C245.686 103.445 244.632 103.974 243.417 104.787C242.412 105.451 241.01 106.786 241.058 106.828C241.12 106.808 242.727 105.393 243.497 104.904C243.796 104.698 244.024 104.553 244.055 104.531ZM344.9 98.8566C344.759 98.8926 345.354 98.6521 345.901 98.4205C346.597 98.1225 347.192 97.847 345.853 98.2578C345.085 98.4988 343.656 98.9484 341.529 99.7243C346.477 98.2667 341.255 99.9251 341.395 99.947C341.503 99.9773 343.501 99.3552 345.962 98.6243C348.338 97.9048 350.964 97.1941 351.92 96.9858C353.108 96.4653 348.276 97.8289 345.942 98.5576C345.49 98.6934 345.133 98.7969 344.912 98.8533C344.908 98.8544 344.904 98.8555 344.9 98.8566ZM475.516 99.8583C474.578 99.5203 471.779 98.2514 469.69 97.6566C469.549 97.6143 469.41 97.5722 469.275 97.5305C469.396 97.5548 469.539 97.5866 469.7 97.6243C470.936 97.8551 473.698 98.9156 475.516 99.8583ZM19.6286 297.425C37.5248 300.037 39.7634 300.932 23.4247 298.236C23.0691 298.178 18.5434 297.317 19.6286 297.425ZM174.038 320.019C175.708 320.531 170.042 319.707 166.423 319.042C165.6 318.892 162.601 318.168 166.081 318.654C165.917 318.941 171.302 319.889 174.038 320.019ZM386.189 96.9095C387.248 97.3188 389.752 98.7207 392.067 100.092C393.078 100.688 394.032 101.273 394.784 101.732C394.206 101.447 393.184 100.865 392.006 100.198C389.932 99.0184 387.498 97.6199 386.189 96.9095ZM78.5549 306.005C80.4286 306.262 81.7532 306.205 81.4245 306.145C79.9513 305.875 76.4391 305.61 78.5549 306.005ZM372.372 93.3377C372.256 93.2913 373.818 93.1968 375.31 93.296C376.81 93.3803 378.222 93.7028 378.381 93.8688C377.354 93.4947 372.614 93.3295 372.372 93.3377ZM471.677 98.1338C470.8 97.7158 475.49 99.4535 476.746 100.306C476.626 100.282 472.281 98.2989 471.677 98.1338ZM109.298 310.128C111.007 310.4 115.171 311.032 115.683 311.02C116.253 310.991 110.119 310.108 109.298 310.128ZM-10.2832 138.176C-10.1843 137.968 -11.5975 144.485 -12.4386 147.339C-14.0174 152.723 -10.3556 138.397 -10.2832 138.176ZM60.5873 303.776C55.2852 302.848 61.1669 303.848 60.9756 303.597C57.4164 303.116 48.4222 301.861 54.5519 302.927C55.7802 303.138 58.9007 303.535 60.5873 303.776ZM65.5147 304.508C66.0856 304.511 70.0019 304.797 66.6453 304.372C65.0994 304.176 62.6214 304.101 65.5147 304.508ZM-20.9088 178.013C-22.3746 182.648 -16.4224 161.209 -16.2238 160.578C-16.1179 160.257 -16.044 160.049 -15.9973 159.932C-15.8428 159.125 -14.7557 155.057 -14.4786 154.632C-14.817 155.839 -15.7027 159.169 -15.8271 159.561C-15.8787 159.723 -15.9187 159.844 -15.9484 159.927C-16.1982 161.391 -20.6257 177.131 -20.9088 178.013ZM-30.8757 213.532C-29.6747 208.096 -28.9397 207.279 -29.0515 207.745C-30.4664 213.632 -29.7676 209.733 -29.8321 209.903C-29.9736 210.31 -30.9541 214.493 -30.8711 213.515C-30.8726 213.521 -30.8742 213.527 -30.8757 213.532ZM-22.9819 185.287C-22.9271 185.063 -21.6811 180.566 -21.6238 180.385C-20.4555 176.742 -23.9795 189.462 -22.9819 185.287ZM439.611 93.3293C442.613 93.0786 439.652 93.5076 437.755 93.7461C437.607 93.7738 437.015 93.6138 439.611 93.3293ZM68.1628 304.807C68.7759 304.915 78.6815 306.272 84.1355 306.886C86.2362 307.124 87.6635 307.266 87.3282 307.142C86.9851 307.105 85.7653 306.945 84.1536 306.741C77.6458 305.928 64.4208 304.143 68.1628 304.807ZM214.608 326.383C211.141 325.888 214.964 326.172 216.772 326.523C217.447 326.655 215.471 326.506 214.608 326.383ZM363.426 93.939C360.084 94.6334 360.705 94.0379 363.647 93.7322C363.761 93.7213 363.557 93.913 363.426 93.939ZM187.072 322.207C198.941 323.817 196.094 324.238 180.616 321.623C181.103 321.66 181.591 321.697 182.08 321.734C164.299 318.905 180.857 321.497 185.251 322.108C186.924 322.342 185.543 321.997 187.061 322.205C187.065 322.205 187.068 322.206 187.072 322.207ZM232.734 328.904C244.124 331.015 222.272 327.714 216.011 326.879C222.101 327.496 230.041 328.626 219.295 326.887C235.08 329.026 228.461 328.333 229.097 328.445C229.835 328.568 232.248 328.814 232.734 328.904ZM202.524 324.665C201.886 324.59 196.857 323.733 195.069 323.486C197.618 323.667 206.926 325.19 202.524 324.665ZM-41.4537 251.126C-41.4506 250.628 -41.1475 249.457 -39.944 245.58C-40.2296 246.822 -40.8915 249.299 -41.4537 251.126ZM113.063 92.5508C110.917 92.5588 106.159 93.5503 107.641 93.4033C107.849 93.2845 113.11 92.5315 113.063 92.5508ZM125.19 312.88C125.821 312.992 140.685 315.31 135.569 314.343C134.074 314.055 120.406 311.972 125.19 312.88ZM47.7155 302.14C48.9869 302.322 54.0252 302.99 54.1468 302.969C54.4997 302.891 48.2952 302.101 47.7155 302.14ZM101.11 94.8947C100.928 94.9395 98.7053 95.6518 96.7726 96.3618C95.0575 96.9858 93.5877 97.5462 93.999 97.4345C94.545 97.2868 95.6408 96.9057 96.8156 96.4829C99.1737 95.6231 101.869 94.6968 101.11 94.8947ZM450.895 92.4031C451.491 92.4037 452.27 92.6117 452.473 92.6272C452.92 92.2808 463.953 94.6695 459.686 93.916C459.281 93.8298 454.221 92.5456 449.544 92.7102C445.125 92.7748 441.293 93.0265 440.345 93.1354C439.431 92.9264 446.744 92.6579 448.719 92.6472C448.915 92.6393 449.068 92.5671 449.539 92.4962C449.822 92.4482 450.234 92.4019 450.89 92.404C450.892 92.4037 450.893 92.4034 450.895 92.4031ZM-35.6914 230.777C-35.69 230.702 -35.6251 230.403 -35.5085 229.924C-34.7344 226.733 -31.7168 215.635 -31.6108 215.832C-32.8838 220.513 -34.1768 225.255 -35.4608 229.937C-35.5387 230.221 -35.6155 230.501 -35.6914 230.777ZM-37.7878 238.157C-38.7694 241.248 -36.7473 233.964 -36.1034 231.817C-36.0056 231.841 -37.6435 237.712 -37.7878 238.157ZM75.9321 306.475C77.4547 306.634 72.8182 305.823 73.8682 305.915C74.5339 305.975 77.91 306.487 78.954 306.551C79.2552 306.568 75.9063 305.939 74.8804 305.816C73.4652 305.646 74.8128 305.979 73.2766 305.783C68.2574 305.139 63.7294 304.427 58.9406 303.782C58.5123 303.725 61.8154 304.285 58.1696 303.79C57.6503 303.72 54.1766 303.081 49.8403 302.501C40.0382 301.65 33.0956 300.137 20.7574 298.421C21.1911 298.544 30.4123 300.08 30.8978 300.152C41.185 301.795 59.5102 304.351 70.3466 305.744C73.0743 306.099 71.765 305.818 72.9494 305.967C73.8956 306.086 72.7293 306.142 75.9321 306.475ZM114.222 92.4054C113.198 92.1488 109.442 92.6411 106.852 93.279C107.816 93.211 111.984 92.2924 114.222 92.4054ZM-37.9944 289.476C-36.3701 289.522 -31.6238 290.07 -31.2262 290.073C-30.698 290.017 -37.61 289.295 -37.9944 289.476ZM475.588 132.927C475.582 133.02 475.392 134.758 475.266 135.884C475.21 136.38 475.176 136.754 475.17 136.797C475.004 138.123 475.024 137.22 475.154 135.872C475.361 133.798 475.736 130.715 475.588 132.927ZM481.876 218.218C482.092 220.847 482.317 223.51 482.203 224.408C482.138 222.719 481.743 217.915 481.876 218.218ZM457.828 322.466C458.417 322.381 452.568 326.642 451.331 327.2C451.782 326.963 457.539 322.67 457.828 322.466ZM-42.3163 251.536C-40.5687 246.379 -41.3398 247.482 -40.2647 244.431C-40.1063 243.955 -38.9476 242.502 -40.7822 247.75C-41.1587 248.74 -39.9893 244.732 -42.3163 251.536ZM178.114 321.237C176.896 321.196 172.958 320.553 170.352 320.141C170.932 320.123 176.311 320.974 178.114 321.237ZM87.1232 99.7013C84.88 100.286 75.2063 104.314 77.6686 103.478C77.9884 103.336 85.7177 100.198 87.1232 99.7013ZM397.008 102.345C400.162 104.129 395.473 101.144 392.417 99.4814C391.72 99.0993 391.113 98.7782 390.666 98.5571C390.981 98.732 391.612 99.0947 392.381 99.5434C394.235 100.618 396.814 102.236 397.008 102.345ZM472.921 302.37C472.874 302.561 470.908 306.401 470.787 306.538C469.05 309.583 474.544 298.785 472.921 302.37ZM479.541 190.73C479.871 192.398 480.914 203.343 480.991 205.769C480.62 203.488 479.164 188.676 479.541 190.73ZM-37.6868 266.908C-37.5841 265.561 -37.4783 264.1 -37.6914 262.217C-37.8173 261.283 -37.9783 260.187 -38.6753 258.701C-39.2766 257.333 -40.9267 255.351 -43.0506 254.567C-43.7759 254.272 -44.3536 253.925 -44.4979 253.781C-44.467 253.748 -44.1419 254.027 -43.0167 254.481C-40.0744 255.567 -38.4391 258.511 -38.0396 260.065C-37.5401 261.783 -37.5299 262.884 -37.5 263.826C-37.4872 265.684 -37.6578 266.752 -37.6868 266.908ZM464.737 315.608C464.594 315.782 464.445 315.943 464.307 316.106C464.454 315.938 464.598 315.771 464.737 315.608ZM7.12623 296.5C9.97593 297.006 9.43967 296.715 9.25244 296.678C7.11568 296.268 3.80452 295.909 7.12623 296.5ZM111.474 92.2651C110.637 92.1132 106.372 93.0199 103.792 93.7492C104.586 93.6325 109.61 92.395 111.474 92.2651ZM244.966 330.889C248.609 331.563 233.658 329.85 230.546 329.286C230.319 329.143 244.443 330.807 244.966 330.889ZM385.701 95.6237C385.468 95.2507 380.455 93.3575 381.493 93.8782C382.095 94.0705 385.778 95.7252 385.701 95.6237ZM223.059 328.177C221.65 328.026 218.411 327.431 219.57 327.507C221.057 327.605 223.423 328.215 223.059 328.177ZM97.3641 309.407C98.0587 309.52 106.247 310.557 102.894 309.925C100.595 309.49 100.182 309.641 99.6001 309.558C98.8353 309.436 85.8046 307.385 97.3641 309.407ZM328.569 339.438C325.472 339.295 321.658 338.966 318.416 338.725C319.721 338.743 327.276 339.247 328.569 339.438ZM413.011 103.56C412.863 103.644 412.181 104.113 410.853 105.059C407.994 106.92 405.874 106.216 404.964 106.056C403.934 105.791 403.335 105.509 402.779 105.254C401.706 104.744 400.899 104.266 400.13 103.817C398.605 102.912 397.297 102.1 396.351 101.539C394.478 100.433 394.093 100.225 397.986 102.677C398.163 102.786 399.028 103.335 400.312 104.096C400.969 104.479 401.697 104.91 402.732 105.4C403.268 105.644 403.852 105.92 404.878 106.188C405.793 106.335 407.888 107.13 410.935 105.175C412.805 103.808 413.745 103.153 413.011 103.56ZM-42.3163 251.536C-42.559 252.204 -42.9149 253.1 -43.3564 254.011C-42.9258 253.103 -42.5659 252.207 -42.3163 251.536ZM-35.8933 289.969C-37.0958 289.954 -31.0671 290.537 -29.3676 290.744C-28.8175 290.657 -35.6667 289.922 -35.8933 289.969ZM318.159 338.851C316.289 338.77 312.891 338.439 310.556 338.252C310.965 338.194 317.366 338.698 318.159 338.851ZM446.825 330.136C445.573 330.711 444.161 331.311 442.896 331.808C441.14 332.503 439.675 333.032 439.662 333.112C439.587 333.118 439.419 333.155 439.141 333.227C438.881 333.312 435.182 334.528 433.625 334.885C429.183 335.889 436.676 334.171 442.869 331.739C450.229 328.635 456.541 325.332 443.407 331.869C444.588 331.32 445.727 330.742 446.825 330.136ZM478.131 175.864C478.037 173.81 477.185 167.736 477.304 169.323C477.378 170.405 478.229 178.014 478.131 175.864ZM483.183 256.86C483.262 256.224 483.369 250.555 483.281 250.395C483.144 253.673 482.908 259.686 483.183 256.86ZM476.551 159.399C476.444 158.018 476.071 156.336 476.075 156.494C476.097 157.837 476.64 161.732 476.551 159.399ZM-44.9833 254.424C-44.8568 254.556 -44.2971 254.911 -43.3252 255.264C-41.0299 256.095 -39.4915 258.292 -38.9895 259.701C-38.444 261.111 -38.3213 262.175 -38.2243 263.076C-38.069 264.813 -38.1344 265.937 -38.1148 266.464C-38.1679 266.77 -38.2657 267.581 -38.4888 268.964C-38.4883 268.96 -38.4878 268.956 -38.4873 268.952C-38.3216 269.779 -41.8794 284.388 -40.093 289.075C-39.9169 289.555 -39.7534 289.767 -39.6612 289.865C-39.5661 289.962 -39.5006 290.001 -39.3783 290.057C-39.1351 290.172 -38.7154 290.23 -38.7319 290.209C-38.6956 290.199 -39.1873 290.094 -39.4068 289.925C-39.5153 289.827 -39.5392 289.852 -39.7525 289.446C-39.9563 289.046 -40.2673 288.042 -40.3415 286.411C-40.3365 285.534 -40.589 286.875 -40.4082 283.124C-40.3884 282.87 -40.2726 282.751 -40.1951 281.955C-40.1822 280.233 -38.1336 269.678 -38.0811 266.784C-38.0589 266.764 -38.0239 266.596 -37.9814 266.239C-37.8981 265.445 -37.7955 264.224 -37.9998 262.449C-38.1233 261.548 -38.283 260.481 -38.9512 259.039C-39.521 257.704 -41.1898 255.718 -43.2276 255.017C-44.9112 254.45 -45.0865 254.268 -44.9833 254.424ZM482.292 268.073C482.47 266.958 482.769 263.343 482.694 262.958C482.523 264.766 481.901 270.676 482.292 268.073ZM412.305 103.558C411.884 103.831 411.343 104.22 410.624 104.736C407.996 106.452 406.047 105.847 405.201 105.718C404.252 105.496 403.708 105.258 403.217 105.053C402.266 104.637 401.647 104.299 401.138 104.035C400.15 103.511 399.727 103.298 400.362 103.712C400.622 103.875 401.229 104.247 402.215 104.753C402.722 105.006 403.293 105.297 404.237 105.618C404.73 105.775 405.311 105.963 406.296 106.048C407.219 106.123 409.005 106.075 410.714 104.863C412.416 103.59 413.353 102.889 412.305 103.558ZM483.228 231.705C483.512 245.203 483.341 234.927 483.548 236.99C483.455 235.229 483.348 233.468 483.228 231.705ZM-27.8927 199.734C-28.5062 201.839 -28.0966 199.273 -27.3098 196.995C-27.0623 196.281 -27.5484 198.551 -27.8927 199.734ZM-1.18395 105.68C-2.22002 107.26 1.84863 99.0939 0.476074 102.369C0.404852 102.532 -1.12439 105.578 -1.18395 105.68ZM-20.2112 170.95C-20.4362 172.432 -20.6694 173.368 -21.8142 177.399C-20.2289 171.405 -21.8891 176.912 -20.2112 170.95ZM439.705 333.117C439.681 333.118 439.661 333.119 439.662 333.112C439.688 333.109 439.701 333.112 439.705 333.117ZM475.622 146.176C475.674 144.471 475.75 139.248 475.58 140.791C475.535 140.864 475.468 145.569 475.622 146.176ZM-38.1148 266.464C-38.0698 266.197 -38.0602 266.334 -38.0811 266.784C-38.1024 266.804 -38.1106 266.686 -38.1148 266.464ZM477.982 172.395C477.859 172.303 478.636 179.496 478.69 179.842C479.36 184.016 478.323 175.397 477.982 172.395ZM365.091 92.426C364.743 92.4825 367.051 92.4569 368.399 92.236C369.451 92.0542 366.417 92.1844 365.091 92.426ZM-16.5536 157.204C-15.9441 154.951 -15.0982 151.805 -14.8101 151.247C-15.2365 152.759 -16.4707 157.275 -16.5536 157.204ZM-2.64965 108.578C-3.51759 111.073 -5.59494 116.748 -6.70271 120.414C-7.00103 120.408 -3.63178 110.856 -2.64965 108.578ZM-44.4955 255.214C-44.5069 255.234 -44.6128 255.475 -44.6496 255.588C-44.6974 255.717 -44.6199 255.585 -44.678 255.166C-44.7372 254.748 -44.946 254.411 -44.9883 254.341C-45.0388 254.255 -45.0109 254.259 -44.9815 254.238C-44.9394 254.219 -44.7954 254.289 -44.6205 254.701C-44.4382 255.111 -44.4812 255.663 -44.5145 255.665C-44.5464 255.702 -44.4758 255.403 -44.4207 255.22C-44.3636 255.025 -44.3764 254.987 -44.4955 255.214ZM375.287 92.0543C377.377 92.1135 372.915 91.4753 370.169 91.8855C370.058 91.8994 369.949 91.9144 369.845 91.9305C369.51 91.9826 369.715 91.9941 370.175 91.991C371.593 91.939 375.046 92.0105 375.287 92.0543ZM476.669 130.465C476.912 127.51 476.154 133.533 475.962 135.959C475.934 136.316 475.921 136.596 475.925 136.756C475.947 136.524 475.977 136.256 476.012 135.965C476.23 134.179 476.581 131.526 476.669 130.465ZM483.863 247.438C484.315 236.821 483.53 242.608 483.607 244.491C483.62 244.757 483.853 247.697 483.863 247.438ZM63.566 109.972C62.557 110.602 64.1452 109.764 65.2199 109.05C66.3598 108.312 67.5366 107.567 67.7843 107.336C68.0458 107.021 64.9009 109.087 63.566 109.972ZM389.358 341.004C389.801 340.984 390.239 340.962 390.672 340.941C390.348 340.963 389.921 340.985 389.358 341.004ZM480.061 99.9039C479.1 106.953 479.462 106.429 479.438 107.041C479.313 108.434 478.847 111.73 478.61 114.39C478.842 111.341 479.069 108.262 479.25 105.23C479.088 107.576 476.709 128.567 476.738 129.047C476.811 129.659 477.46 123.075 477.491 122.869C477.538 122.585 478.022 121.589 478.096 121.001C478.232 119.991 480.042 102.261 480.061 99.9039ZM483.259 225.181C483.309 226.896 483.182 227.391 483.257 228.185C483.282 228.456 483.428 228.493 483.508 229.418C483.433 228.004 483.35 226.592 483.259 225.181ZM473.169 97.0388C471.511 96.0586 479.262 99.6714 479.312 100.01C480.521 100.805 474.643 97.5866 473.169 97.0388ZM477.703 168.722C477.674 168.449 476.945 160.869 476.873 161.012C476.961 162.914 478.031 172.912 477.703 168.722ZM483.567 230.562C483.67 233.137 483.645 237.99 483.844 237.429C483.844 237.425 483.844 237.421 483.844 237.418C483.775 235.135 483.682 232.85 483.567 230.562ZM382.458 93.1727C378.749 91.5759 380.407 92.401 383.77 93.9345C384.88 94.2612 383.063 93.4515 382.458 93.1727ZM369.42 91.4083C368.253 91.159 355.128 93.5447 357.175 93.4236C357.896 93.2747 365.384 91.8373 365.722 91.88C366.24 91.8431 363.907 92.2979 367.849 91.8222C367.611 91.7686 369.847 91.3918 369.42 91.4083ZM379.359 91.9664C375.537 90.9326 374.506 91.5318 377.5 91.8321C378.638 91.9966 379.89 92.1382 379.359 91.9664ZM395.592 99.9079C395.041 99.5579 394.131 98.9933 393.056 98.3663C391.311 97.3482 389.193 96.1666 387.521 95.3986C389.318 96.3551 391.145 97.3983 392.998 98.4676C394.756 99.4822 396.489 100.537 398.275 101.636C398.738 101.814 396.829 100.693 395.582 99.902C395.585 99.9039 395.589 99.9059 395.592 99.9079ZM8.37269 82.141C7.57913 83.7277 7.94264 82.8175 8.52811 81.4811C8.5361 81.4644 8.55862 81.4138 8.56623 81.397C9.32905 79.584 10.2681 77.1014 10.363 76.9136C10.8035 76.0338 9.62065 79.431 8.70322 81.4572C8.69533 81.4747 8.67199 81.5271 8.66371 81.5444C8.56028 81.7592 8.45987 81.9673 8.37269 82.141ZM35.6821 91.6399C34.713 91.2115 34.1324 90.7844 31.9213 90.0726C33.3444 90.684 34.7598 91.3224 36.1802 91.9639C36.9061 92.2917 37.6008 92.6194 38.3038 92.9637C39.8271 93.3303 37.5627 92.3954 36.2185 91.8644C36.0093 91.78 35.8244 91.7034 35.6821 91.6399ZM27.6193 87.6156C27.9344 87.7197 26.3501 86.6837 30.3476 88.3191C32.3875 89.2689 24.1923 86.1259 18.6429 86.2096C16.9397 86.2107 15.5473 86.4891 14.879 86.5619C15.8345 86.3476 17.1623 86.0893 18.6435 86.0855C21.93 86.068 25.7287 87.0869 27.6193 87.6156ZM0.122362 89.1921C-0.0760809 89.1971 5.59367 86.9522 6.29149 86.7866C9.83767 85.6934 1.08434 88.9059 0.122362 89.1921ZM19.3187 84.1669C18.9907 84.1464 18.7745 84.1357 18.6543 84.126C18.4772 84.1135 18.4938 84.1022 18.6545 84.0922C19.4318 83.9622 23.5338 84.3971 24.9196 84.821C25.1166 84.8657 19.8294 84.0642 19.3187 84.1669ZM-13.471 114.929C-14.7325 117.774 -14.8708 120.627 -13.5945 116.044C-13.533 115.828 -13.4159 114.809 -13.471 114.929ZM5.53488 86.622C8.27897 85.7557 2.28482 87.9127 0.536992 88.6197C0.331753 88.5837 5.10383 86.7276 5.53488 86.622ZM-14.856 116.777C-16.2805 120.671 -15.1068 119.494 -14.94 119.007C-14.2733 116.989 -12.2088 110.04 -11.7109 108.637C-15.2815 118.897 -14.116 114.975 -14.856 116.777ZM-19.2127 135.009C-20.0772 138.655 -17.5192 129.445 -17.2958 127.638C-17.7339 129.43 -18.9678 133.985 -19.2127 135.009ZM-25.295 156.862C-25.8423 158.783 -27.4777 164.557 -27.6215 165.541C-27.0671 163.423 -25.3912 157.694 -25.295 156.862ZM-26.8319 161.156C-27.8115 164.141 -27.5496 164.993 -26.7391 161.467C-26.7071 161.328 -26.7926 161.046 -26.8319 161.156ZM-31.6423 178.158C-32.3697 180.1 -32.5452 182.488 -31.6516 179.269C-31.3866 178.311 -31.5639 177.953 -31.6423 178.158ZM-17.0949 121.547C-17.9407 124.466 -18.5425 128.239 -16.9383 122.071C-17.4628 124.285 -17.9315 126.418 -18.4293 128.574C-16.8361 122.792 -16.687 121.386 -16.4635 120.177C-16.3825 119.733 -16.291 119.305 -16.1013 118.678C-15.0926 115.411 -14.7861 115.797 -14.8851 116.481C-14.4689 114.571 -12.5091 108.52 -10.1775 102.996C-10.1647 102.965 -10.1227 102.873 -10.1085 102.843C-9.02837 100.556 -7.97906 98.339 -7.12536 96.5192C-8.0167 98.31 -9.10071 100.482 -10.2469 102.776C-10.2617 102.808 -10.3055 102.904 -10.3188 102.936C-12.3829 107.571 -14.3337 112.789 -15.535 116.527C-15.9371 117.766 -16.2451 119.008 -16.5428 120.155C-16.6343 120.507 -16.7235 120.845 -16.8151 121.174C-17.4305 123.421 -17.0467 121.385 -17.0918 121.535C-17.0929 121.539 -17.0939 121.543 -17.0949 121.547ZM-37.7957 200.558C-39.6129 206.347 -38.1454 202.765 -37.3176 199.447C-37.2849 199.304 -37.7509 200.415 -37.7957 200.558ZM-2.68659 88.3437C5.40139 85.5856 -1.28637 86.8917 16.7247 82.3533C8.77184 84.0051 16.2502 82.5672 14.7193 82.9597C13.4614 83.2266 9.18245 84.3199 11.7167 83.8265C8.21865 84.2525 -4.92417 89.5806 -5.54882 90.0953C-5.54334 90.0926 -5.53785 90.0899 -5.53235 90.0872C-5.90487 90.2597 -5.1766 89.3675 -2.68659 88.3437ZM-26.4715 156.574C-27.5364 158.357 -26.8872 159.374 -28.3766 163.081C-29.0348 167.81 -25.4512 152.809 -23.8687 148.041C-23.6743 147.454 -23.5123 147.029 -23.3878 146.8C-23.5079 147.243 -23.6233 147.669 -23.7336 148.077C-26.4237 157.996 -24.8075 152.644 -23.5742 148.12C-22.5473 144.343 -21.7985 141.196 -23.8761 147.505C-20.3757 135.589 -22.9299 143.547 -22.5412 141.668C-22.1281 139.677 -20.2305 132.918 -20.5254 133.207C-20.5263 133.21 -20.5273 133.214 -20.5282 133.218C-21.5875 137.361 -22.6772 141.532 -23.7681 145.67C-22.8638 143.322 -23.3427 145.359 -24.1182 147.974C-24.6405 149.733 -25.3241 151.843 -25.7766 152.946C-26.0107 154.167 -26.2342 155.346 -26.4715 156.574ZM-19.8092 133.199C-19.9102 133.58 -22.2364 142.664 -21.9923 142.078C-21.606 140.905 -18.3397 128.064 -19.8092 133.199ZM-6.08708 93.6994C-7.43698 96.5324 -9.55114 100.775 -10.3447 102.73C-10.3599 102.762 -10.405 102.86 -10.4187 102.894C-10.47 103.038 -10.5147 103.17 -10.5523 103.289C-10.4998 103.164 -10.4457 103.036 -10.3902 102.906C-10.3766 102.873 -10.3319 102.775 -10.3168 102.743C-8.84772 99.6928 -6.69781 95.3636 -6.08708 93.6994ZM-48.3351 263.255C-45.8859 264.183 -48.3003 263.569 -51.0866 261.33C-52.5163 260.226 -53.7752 257.835 -53.8736 256.471C-53.9709 255.805 -53.9599 255.433 -53.9786 255.458C-53.9818 255.485 -54.0544 255.909 -53.8828 256.935C-53.9505 257.102 -53.0087 259.943 -51.3917 261.219C-49.8776 262.589 -48.4526 263.179 -48.3351 263.255ZM-28.9379 165.987C-30.2453 170.136 -29.179 168.301 -28.469 165.148C-28.428 164.966 -28.8769 165.793 -28.9379 165.987ZM3.60384 85.7506C3.82623 85.4329 15.2157 81.6605 18.6655 82.0806C18.6741 82.0807 18.6825 82.0807 18.6907 82.0808C18.6828 82.0814 18.6744 82.0821 18.6655 82.0827C16.1425 81.6089 3.28367 85.8779 3.60384 85.7506ZM-4.00796 88.1554C-6.84077 93.1707 -9.75399 100.08 -10.8072 102.508C-10.8244 102.545 -10.8754 102.656 -10.8909 102.694C-11.047 103.103 -11.1546 103.386 -11.2115 103.518C-11.6139 104.455 -11.1942 102.896 -11.2883 103.109C-11.595 103.562 -15.3782 113.744 -15.4393 114.28C-15.5457 114.64 -14.6519 112.87 -15.2618 115.026C-14.7046 113.015 -12.906 107.712 -10.7828 102.739C-10.7677 102.703 -10.7181 102.595 -10.7013 102.559C-8.21863 97.375 -5.82849 92.4023 -5.62036 91.9235C-5.3144 91.2168 -8.09043 96.3409 -4.01284 88.1657C-4.01122 88.1623 -4.00959 88.1588 -4.00796 88.1554ZM-12.2354 105.867C-11.1305 103.391 -13.8941 110.468 -14.4881 112.207C-15.9395 116.031 -12.4563 106.156 -12.2354 105.867ZM-18.0176 123.246C-18.2595 124.094 -20.1269 131.391 -20.1679 132.066C-19.0922 128.64 -17.493 121.413 -18.0176 123.246ZM-39.9689 204.886C-40.4742 206.787 -42.0238 211.998 -41.9916 212.333C-41.4825 210.427 -39.9341 205.215 -39.9689 204.886ZM45.6264 89.342C42.4773 87.6216 49.9133 91.3316 51.8631 92.9411C51.9655 92.9792 45.9258 89.3882 45.6264 89.342ZM-30.2446 166.396C-30.5793 167.511 -36.7849 190.548 -37.6227 193.787C-36.6615 190.655 -30.4188 167.858 -30.1854 166.807C-30.1164 166.503 -30.2002 166.255 -30.2446 166.396ZM-16.9437 116.347C-16.4362 114.119 -15.7471 112.785 -15.6543 112.517C-14.7538 109.859 -12.669 104.435 -12.9704 105.686C-14.9617 110.216 -17.942 120.774 -16.9437 116.347ZM-41.1933 206.303C-43.2851 214.131 -38.9686 199.189 -39.689 201.099C-39.7354 201.226 -40.9798 205.504 -41.1933 206.303ZM-29.5953 163.812C-29.4071 162.807 -27.2553 154.918 -25.2884 147.66C-23.789 142.133 -22.4042 136.961 -21.991 135.375C-22.6049 138.767 -23.4944 141.345 -24.6761 145.818C-24.987 146.996 -24.7987 146.718 -24.8322 146.844C-24.943 147.261 -25.0215 147.537 -25.0774 147.717C-25.2922 148.401 -25.1616 147.6 -25.4359 148.615C-25.652 149.448 -30.0515 166.275 -29.5953 163.812ZM-16.6697 115.07C-16.4739 114.111 -13.9667 106.673 -12.0272 102.213C-12.0074 102.164 -11.9422 102.022 -11.9201 101.975C-11.0447 100.137 -10.4128 98.8191 -10.3296 98.6639C-9.48701 97.0876 -10.3763 99.0448 -11.7899 102.037C-11.8113 102.084 -11.8749 102.222 -11.8942 102.269C-13.9279 106.997 -16.4566 114.373 -16.6697 115.07ZM-30.3969 165.863C-30.0159 163.299 -26.7211 151.924 -28.6928 159.788C-28.8855 160.552 -29.8684 163.663 -30.3969 165.863ZM-41.2469 205.395C-41.3592 205.771 -43.6708 213.908 -43.6142 214.067C-43.2497 212.899 -39.9456 201.053 -41.2469 205.395ZM-40.4017 201.083C-40.4536 201.28 -39.746 199.422 -40.8212 203.234C-40.9098 203.546 -41.2787 204.09 -42.5271 208.903C-42.7842 209.894 -43.0617 211.425 -43.0233 211.319C-41.3194 206.414 -37.7958 191.203 -40.4017 201.083ZM-16.7464 114.748C-17.0866 115.517 -16.7295 113.51 -16.0058 111.835C-15.6924 111.119 -16.0339 112.537 -16.7464 114.748ZM-48.4879 231.164C-47.3184 226.411 -51.5046 241.187 -51.7066 241.904C-51.4619 241.496 -48.5967 231.638 -48.4879 231.164ZM53.5884 92.7546C53.5848 92.752 53.5812 92.7493 53.5776 92.7467C57.3292 95.662 54.9021 93.9826 55.0851 94.1139C62.5339 100.878 60.3416 98.9415 61.4731 99.8791C62.1016 100.485 62.4064 100.804 62.634 101.055C61.9356 100.346 60.0591 99.6424 58.9291 99.7947C57.8013 99.8907 57.4641 100.168 57.407 100.195C57.346 100.284 58.2039 99.7408 59.6471 98.6841C57.8367 100.004 57.3067 100.35 57.4607 100.285C57.5152 100.272 57.6122 100.244 57.5777 100.266C57.552 100.284 57.4609 100.333 57.469 100.336C57.4533 100.411 59.2401 99.2006 59.3543 99.2008C59.6134 99.1733 59.2084 99.5163 58.5236 99.995C58.2012 100.221 57.7536 100.506 57.608 100.567C57.5688 100.597 57.539 100.52 58.2654 100.335C58.6317 100.255 59.2898 100.159 60.1601 100.342C61.0242 100.513 61.8678 101.012 62.3098 101.416C60.6228 99.6184 56.7879 95.3727 54.7682 94.0167C54.2806 93.5989 57.8428 96.8334 56.5382 95.7863C52.516 92.0185 38.363 83.3725 53.5884 92.7546ZM-15.5643 110.504C-15.3081 109.518 -13.7785 105.354 -12.3359 102.082C-12.3149 102.031 -12.2459 101.88 -12.2226 101.83C-10.7687 98.8762 -9.61346 96.6169 -10.3752 98.3586C-10.4503 98.5311 -11.1494 100.024 -12.0466 101.915C-12.0692 101.963 -12.136 102.108 -12.1563 102.158C-13.9532 106.347 -16.0784 112.428 -15.5643 110.504ZM442.194 344.766C439.147 345.861 444.88 344.207 447.333 343.165C447.795 342.979 448.163 342.819 448.383 342.712C448.644 342.584 448.138 342.758 447.289 343.052C445.836 343.558 443.213 344.402 442.194 344.766ZM486.353 303.873C488.038 299.681 488.898 295.129 487.188 300.321C487.023 300.852 486.095 304.325 486.353 303.873ZM224.883 340.937C229.162 341.726 228.948 341.315 225.799 340.891C224.677 340.74 224.748 340.911 224.883 340.937ZM390.863 352.912C391.257 352.917 396.474 352.604 396.258 352.522C394.341 352.605 388.025 352.952 390.863 352.912ZM223.503 340.801C226.076 341.086 221.698 340.211 218.546 340.039C220.131 340.239 223.238 340.772 223.503 340.801ZM-33.5553 174.277C-33.9734 176.397 -35.6226 182.249 -36.522 185.63C-36.8147 185.941 -34.1769 176.695 -33.5553 174.277ZM476.918 320.545C479.342 316.975 473.764 324.354 474.353 323.751C474.456 323.682 476.844 320.7 476.918 320.545ZM86.5202 320.394C89.3032 320.632 80.5703 319.349 82.9497 319.866C83.0466 319.885 86.3473 320.377 86.5202 320.394ZM47.2749 315.164C49.4353 315.513 58.6084 316.751 55.0734 316.151C54.4565 316.052 47.5076 315.089 47.2749 315.164ZM61.733 99.9373C61.4533 99.5202 62.2053 100.255 62.8482 100.815C62.2752 100.244 60.838 99.4829 59.6112 99.4205C58.3922 99.3326 57.7686 99.5852 57.4889 99.674C56.9542 99.8914 57.2344 99.7965 57.449 99.6489C57.9593 99.3292 58.6433 98.8645 58.8745 98.7208C59.01 98.6332 58.4255 99.1061 57.7979 99.5899C57.5157 99.8169 57.13 100.058 57.3549 99.9632C57.4971 99.9302 57.8212 99.7046 58.9735 99.6429C60.1257 99.5203 62.0494 100.308 62.6864 100.996C62.3339 100.68 61.9354 100.242 61.733 99.9373ZM252.88 344.627C255.116 344.881 260.907 345.628 261.941 345.639C259.203 345.342 252.171 344.325 252.88 344.627ZM463.029 334.671C466.291 332.645 470.945 328.03 469.574 328.946C464.278 333.808 470.597 328.779 463.029 334.671ZM209.123 339.026C210.912 339.299 212.329 339.216 212.128 339.174C210.198 338.773 207.361 338.663 209.123 339.026ZM343.991 352.841C344.072 352.97 349.956 353.148 349.168 353.038C348.924 353.007 343.887 352.743 343.991 352.841ZM-53.8374 246.591C-54.6866 248.862 -52.5083 241.746 -51.7447 239.385C-51.2405 238.351 -53.7199 246.487 -53.8374 246.591ZM159.726 331.555C159.472 331.698 168.339 332.962 164.873 332.279C164.021 332.11 159.839 331.513 159.726 331.555ZM74.557 319.246C80.5772 319.818 55.382 316.38 61.9738 317.507C62.4033 317.59 73.9865 319.198 74.557 319.246ZM33.3681 313.474C34.3688 313.644 33.8616 314.179 29.5394 313.303C28.9757 313.189 31.6528 313.427 31.1961 313.322C30.8895 313.262 21.6371 311.78 21.1966 311.721C20.7262 311.665 21.2476 311.939 20.7703 311.887C20.2208 311.829 14.5443 310.777 11.5354 310.293C5.90779 309.391 5.25742 309.441 4.81258 309.37C3.41504 309.144 1.21632 308.67 -1.53228 308.215C-12.4688 306.494 -28.3145 303.448 -38.7548 302.682C-43.3253 302.79 -49.3437 298.91 -50.7898 295.044C-48.8353 299.696 -42.6126 302.682 -38.7497 302.586C-32.3569 302.963 -25.5428 304.025 -18.5348 305.123C-21.3737 304.984 -4.36616 307.224 -14.3334 305.949C-9.78109 306.702 29.9538 313.016 33.3567 313.472C33.3605 313.473 33.3643 313.473 33.3681 313.474ZM491.764 287.256C491.456 289.945 494.18 276.422 493.945 275.246C493.749 277.014 491.899 286.959 491.764 287.256ZM455.531 340.506C454.367 341.119 453.636 342.141 447.803 344.367C447.475 344.487 447.129 344.609 446.763 344.735C446.757 344.737 446.751 344.739 446.745 344.741C444.866 345.376 446.951 344.499 446.597 344.593C446.496 344.65 440.52 346.504 445.406 344.77C446.386 344.409 447.103 344.134 447.634 343.933C451.345 342.467 446.674 344.675 450.226 343.191C450.792 343.084 458.04 339.07 457.567 339.167C457.529 339.196 455.345 340.48 454.954 340.65C453.562 341.294 454.165 340.835 453.971 340.93C453.667 341.078 450.879 342.561 447.605 343.859C444.378 345.169 440.577 346.345 439.626 346.519C439.319 346.575 443.395 345.381 447.546 343.709C453.065 341.592 458.738 338.08 459.129 337.818C459.586 337.552 459.585 337.964 460.065 337.695C460.356 337.692 467.316 332.308 468.058 331.467C468.31 331.253 468.502 331.09 468.644 330.971C467.663 331.839 473.253 326.289 473.103 326.479C473.087 326.648 469.276 330.514 469.085 330.607C469.02 330.663 468.962 330.71 468.909 330.755C469.361 330.421 466.258 333.418 463.026 335.782C459.828 338.174 456.704 339.95 458.471 339.033C453.866 341.825 459.018 338.434 455.531 340.506ZM432.308 349.012C432.819 348.856 433.325 348.698 433.829 348.538C425.391 350.705 415.27 352.044 405.637 352.928C403.117 353.155 406.047 353.123 402.717 353.347C400.144 353.513 397.273 353.492 398.674 353.351C399.006 353.325 404.293 353.061 406.998 352.768C414.785 351.913 412.786 351.882 413.248 351.839C413.78 351.778 418.813 351.247 421.427 350.796C428.312 349.575 431.393 348.992 440.629 346.462C435.342 348.123 438.422 347.594 432.308 349.012ZM122.009 326.253C121.667 326.321 116.416 325.41 114.385 325.121C114.733 325.051 120.088 325.975 122.009 326.253ZM279.911 83.52C278.265 83.1737 291.309 86.6564 287.908 85.596C287.22 85.3274 281.777 83.8125 279.911 83.52ZM320.265 95.18C321.687 94.0658 315.747 98.2381 315.856 98.4355C315.892 98.4207 320.078 95.281 320.265 95.18ZM323.126 352.567C322.814 352.554 318.138 352.173 318.019 352.151C314.943 351.729 330.237 352.923 323.126 352.567ZM392.596 83.9514C387.992 81.687 398.073 87.0186 399.176 87.6877C399.363 87.7837 399.389 87.7848 399.194 87.6563C399.057 87.5658 398.808 87.4094 398.434 87.1803C398.24 87.0391 392.937 84.0783 392.596 83.9514ZM406.141 91.8757C405.6 92.2266 404.074 93.2972 403.043 94.034C405.111 92.6048 406.933 92.7682 407.546 92.8249C408.25 92.914 408.423 93.0061 408.525 93.0335C408.683 93.0937 408.45 92.9989 408.26 92.8976C407.838 92.6809 407.407 92.436 407.39 92.447C407.34 92.4485 407.756 92.722 408.186 92.9664C408.381 93.0819 408.629 93.1932 408.496 93.1454C408.409 93.1241 408.254 93.0384 407.575 92.9471C406.987 92.8907 405.185 92.7007 403.11 94.1291C404.261 93.292 405.909 92.1063 406.141 91.8757ZM207.81 339.591C208.431 339.907 200.38 338.575 197.527 338.182C196.912 337.868 204.966 339.215 207.81 339.591ZM259.215 346.581C224.801 342.441 232.425 342.973 261.278 346.718C261.303 346.865 261.389 346.83 259.215 346.581ZM215.225 340.784C216.485 340.819 220.369 341.405 223.009 341.779C222.518 341.813 217.116 341.027 215.225 340.784ZM263.105 82.9247C264.699 82.6602 269.653 82.5084 272.153 82.5198C273.879 82.516 274.727 82.6435 273.988 82.6277C273.878 82.6292 273.204 82.597 272.157 82.6257C269.289 82.6727 262.478 83.0141 263.105 82.9247ZM320.189 352.55C320.944 352.832 310.606 351.953 309.79 351.824C306.603 351.376 319.325 352.556 320.189 352.55ZM159.236 332.498C157.361 332.38 152.299 331.507 148.982 330.988C150.556 331.087 156.376 332.053 159.236 332.498ZM183.111 336.282C182.896 336.257 178.277 335.544 178.078 335.505C174.317 334.769 187.388 336.786 183.111 336.282ZM48.9106 87.8431C49.0644 87.8824 52.5861 90.038 52.6834 90.1553C54.1685 91.2685 52.3611 90.0251 50.5664 88.9427C48.7861 87.8629 47.0449 86.9106 48.9106 87.8431Z" fill="#FAD5C2"/>
</g>
</svg>
