<svg width="461" height="289" viewBox="0 0 461 289" fill="none" xmlns="http://www.w3.org/2000/svg">
<rect width="461" height="289" fill="#FEFEF2"/>
<rect x="13" y="11" width="436" height="267" fill="#BFEAE1"/>
<mask id="mask0_1235_2562" style="mask-type:alpha" maskUnits="userSpaceOnUse" x="13" y="11" width="436" height="267">
<rect x="13" y="11" width="436" height="267" fill="#BFEAE1"/>
</mask>
<g mask="url(#mask0_1235_2562)">
<path d="M20.1615 90.9222C15.4205 90.8962 6.35993 94.1761 0.672814 96.6399C-0.835483 99.8173 -2.77733 103.891 -5.29466 109.148C-8.02972 115.606 -10.0096 121.624 -11.2202 125.947C-12.4307 130.27 -12.8591 132.821 -18.4878 153.804C-24.1164 174.787 -34.627 213.044 -40.1725 232.926C-45.718 252.808 -46.2815 254.272 -47.4365 256.692L-47.4932 256.811C-48.6444 259.219 -50.1807 262.433 -43.7654 264.961C-37.2442 267.531 -53.1766 299.609 -36.866 300.481C-20.5554 301.352 5.15563 308.179 84.8449 318.108C164.534 328.036 373.43 370.482 446.52 341.924C519.609 313.365 478.939 178.891 482.978 141.276C487.017 103.662 486.738 102.548 485.978 101.904C484.473 100.631 479.6 97.4608 473.218 95.5769C468.339 94.1366 460.712 90.726 450.9 90.9731C443.867 91.1502 436.694 91.3987 430.214 93.9611C415.611 99.7353 411.647 103.024 408.94 104.941C407.736 105.794 404.125 102.945 397 98.8614C386.094 92.6114 381.802 90.6836 371.396 91.2491C365.667 91.5605 356.411 93.0655 345.397 96.3365L344.869 96.4931C340.214 97.8744 336.651 98.9313 333.512 100.883C322.202 107.914 317.968 112.108 315.868 114.748C315.329 115.425 314.654 116.176 313.46 115.51C312.266 114.844 310.669 112.757 308.223 110.363C302.837 105.089 297.353 100.455 291.236 98.5262C283.938 96.2248 278.392 94.8007 273.902 94.9352C266.703 95.1508 261.107 95.4322 257.653 96.5366C252.294 98.25 245.754 100.233 240.867 103.587C237.187 106.113 234.885 109.358 232.394 110.457C231.53 110.838 231.068 110.225 228.153 107.561C220.122 100.221 213.72 94.4211 210.25 92.8778C205.741 90.8716 200.918 88.6392 195.234 88.4985C187.568 88.3089 182.546 88.4396 179.926 89.3257C174.75 91.076 170.043 92.5334 165.436 95.2969C150.916 104.007 149.065 105.824 147.781 104.83C145.991 103.444 144.302 101.037 136.179 96.8824C131.073 94.2704 124.561 91.1466 117.683 90.7718C113.092 90.5215 107.38 91.101 96.1604 95.0793C88.5158 97.7899 77.1929 102.028 71.11 104.843C63.852 108.202 61.4253 111.807 59.9442 110.48C56.467 107.366 52.4455 101.182 38.1 95.6504C31.9519 93.2797 25.85 90.9534 20.1615 90.9222Z" fill="#A5DED6"/>
<path d="M106.619 100.032C107.444 99.7699 110.679 99.0799 111.973 98.9172C110.596 99.2013 103.696 100.887 106.619 100.032ZM251.679 90.3536C250.348 90.8458 248.987 91.3642 247.609 91.9285C250.017 91.0581 252.86 90.1503 255.358 89.3584C257.899 88.5717 259.843 88.3417 261.481 88.1512C262.151 88.0805 260.432 88.4379 262.015 88.2597C263.566 88.1063 263.264 87.9158 265.443 87.734C266.705 87.6264 270.202 87.4901 273.677 87.4282C278.193 87.3526 281.87 88.2826 283.767 88.6905C287.204 89.4825 290.37 90.4363 293.483 91.4019C302.42 94.3405 308.261 99.9913 313.488 104.986C314.503 105.979 315.45 106.994 316.275 107.883C316.684 108.323 317.068 108.736 317.346 109.015C317.482 109.151 317.593 109.255 317.613 109.273C317.622 109.29 317.583 109.219 317.117 108.952C316.792 108.777 316.271 108.513 315.384 108.354C314.519 108.185 313.225 108.256 312.238 108.631C310.206 109.451 309.927 110.262 309.974 110.12C309.888 110.308 310.494 109.144 312.776 108.492C313.857 108.204 314.994 108.28 315.696 108.456C316.422 108.633 316.825 108.848 317.093 108.996C317.585 109.289 317.576 109.336 317.567 109.326C317.543 109.312 317.449 109.234 317.354 109.148C317.157 108.969 316.945 108.762 316.788 108.612C316.467 108.301 316.349 108.202 316.421 108.305C316.487 108.4 316.743 108.699 317.034 109.018C317.176 109.174 317.331 109.334 317.415 109.418C317.474 109.496 317.572 109.511 316.994 109.173C316.691 109.012 316.2 108.759 315.326 108.604C314.474 108.439 313.162 108.526 312.197 108.922C310.221 109.789 310.071 110.513 310.206 110.244C311.447 108.691 312.713 107.418 313.473 106.666C314.218 106.192 313.766 104.816 326.029 96.6913C327.894 95.4938 328.909 94.9179 329.582 94.5603C330.956 93.8298 331.082 93.8916 332.47 93.2684C333.812 92.6739 336.681 91.461 342.13 89.7808C333.752 92.0926 337.487 90.7924 343.239 89.0713C345.55 88.376 348.243 87.6359 350.783 87.007C352.317 86.5523 364.47 83.9269 370.987 83.71C371.124 83.7023 371.257 83.6951 371.386 83.6883C373.43 83.5779 376.761 83.3004 379.907 83.6892C382.051 83.9688 383.747 84.3617 386.798 85.3469C392.466 87.2865 396.663 89.8663 400.821 92.194C402.891 93.3769 404.926 94.6148 406.842 95.7861C407.786 96.3614 408.736 96.9397 409.474 97.3468C409.825 97.5436 410.17 97.7049 410.129 97.6846C410.086 97.6759 409.978 97.5979 409.328 97.4841C409.005 97.4362 408.489 97.3664 407.677 97.4542C406.857 97.5393 405.61 97.8798 404.501 98.6753C406.359 97.3058 409.18 95.399 411.622 94.0736C405.132 98.4112 417.026 91.2865 417.552 91.3255C420.351 90.0203 407.998 96.4477 412.942 93.9438C417.842 91.3088 422.697 89.2418 427.576 87.2896C429.868 86.3781 432.192 85.718 434.474 85.2377C427.781 86.5151 443.263 83.1459 445.688 83.6836C445.379 83.5794 447.508 83.441 450.709 83.383C457.54 82.8314 469.275 86.2905 475.276 88.6063C480.327 90.1686 484.003 92.2015 485.489 92.9749C485.964 93.2234 484.934 92.5924 484.922 92.539C484.919 92.5137 485.173 92.6181 486 93.0718C486.885 93.6041 488.005 94.0728 490.754 96.2613C491.036 96.4872 491.831 97.2463 492.326 98.0261C492.845 98.815 493.12 99.5083 493.299 100.047C493.621 101.063 493.676 101.67 493.731 102.11C493.825 103.035 493.82 103.607 493.819 104.224C493.808 105.372 493.746 106.45 493.666 107.626C493.534 109.447 493.436 108.786 493.382 109.698C493.351 110.27 493.515 113.722 492.935 117.19C492.708 118.462 493.267 110.231 491.561 128.287C492.233 124.258 491.402 132.841 490.377 142.071C489.757 147.817 490.331 155.437 490.445 157.864C490.417 156.685 490.401 155.542 490.398 154.441C490.59 160.07 490.891 161.102 490.988 162.394C491.419 167.582 492.08 174.869 492.653 179.754C493.335 185.58 493.614 185.473 494.269 192.27C494.155 190.696 494.03 189.04 493.91 187.437C494.431 192.136 494.938 196.808 495.406 201.456C493.887 190.7 495.642 203.765 495.726 204.682C495.879 206.077 495.53 204.103 495.777 206.409C495.802 206.651 495.917 206.277 496.271 209.862C496.987 217.387 496.679 216.188 496.937 219.36C496.955 219.646 497.029 218.638 497.441 224.09C498.559 241.528 497.377 223.997 497.273 223.345C497.162 222.474 497.149 228.453 496.143 213.72C496.504 218.64 496.288 219.178 496.328 219.733C496.38 220.234 496.986 228.8 497.001 229.287C497.309 233.511 497.274 229.782 497.347 230.604C497.438 231.27 497.635 241.688 498.119 244.134C497.706 249.148 497.761 241.25 497.283 232.915C497.152 231.7 497.418 240.872 497.399 241.358C497.577 253.224 497.837 246.656 498.101 249.255C498.231 250.624 497.909 255.471 498.297 250.996C498.143 261.85 498.055 255.264 498.024 255.963C497.962 257.023 497.91 260.813 497.866 261.292C497.812 261.994 497.818 259.546 497.638 262.314C497.609 262.772 497.555 267.243 497.969 261.497C497.509 269.18 497.639 268.532 497.078 271.125C497.184 276.491 496.287 274.911 496.002 276.981C495.154 282.524 495.846 280.977 495.839 281.277C495.895 283.294 492.403 298.618 490.941 302.346C491.226 300.749 494.374 290.282 494.652 287.881C496.065 279.901 492.01 298.998 492.827 293.135C492.358 295.587 491.835 297.968 491.208 300.407C489.417 304.673 491.743 298.53 487.295 310.114C486.821 312.114 490.465 301.931 489.845 304.02C489.62 305.244 486.871 311.987 486.813 312.103C486.869 312.291 489.302 306.202 488.999 307.19C489.025 309.613 476.909 330.631 485.678 314.438C483.371 319.019 481.566 321.032 479.146 324.783C478.351 325.992 480.444 323.376 480.931 322.904C481.268 322.325 481.047 324.673 472.485 333.755C472.081 334.082 479.027 326.283 479.021 325.936C479.226 325.618 477.684 326.813 477.462 327.047C477.083 327.463 473.143 332.767 467.636 337.359C462.208 342.058 455.34 345.619 452.929 346.534C453.612 346.32 451.886 347.231 449.035 348.36C443.889 350.504 434.902 352.713 433.45 353.06C432.877 353.22 435.082 352.896 434.468 353.06C430.737 354.154 420.551 355.627 415.79 356.157C410.485 356.802 411.242 356.838 410.932 356.881C408.629 357.115 410.459 356.814 409.046 356.958C406.841 357.28 392.182 358.217 391.47 358.197C391.257 358.214 393.623 358.295 390.475 358.467C389.917 358.477 390.312 358.329 380.801 358.631C369.525 358.913 388.687 358.759 383.997 359.064C376.671 358.897 376.966 359.173 374.969 359.17C374.275 359.166 369.153 358.915 363.665 358.84C367.628 358.859 371.552 358.837 375.57 358.766C371.59 358.758 364.132 358.745 360.872 358.612C359.302 358.551 360.567 358.358 357.191 358.279C356.508 358.254 353.533 358.759 362.528 358.704C363.256 358.915 358.934 358.705 357.011 358.704C356.716 358.704 355.552 359.003 353.057 358.718C352.456 358.622 359.037 357.994 342.127 357.956C341.586 357.952 343.458 358.162 342.929 358.162C342.571 358.164 338.277 357.899 337.795 357.887C337.307 357.879 339.382 358.121 338.801 358.115C335.819 358.09 331.925 357.347 338.074 357.73C336.038 357.556 333.936 357.371 331.936 357.185C334.08 357.707 328.751 357.104 325.918 356.919C307.813 355.686 319.914 356.815 316.794 356.72C311.787 356.536 315.666 356.186 308.209 355.763C307.543 355.712 316.419 356.81 298.999 355.082C301.582 355.312 304.157 355.533 306.724 355.745C305.284 355.248 297.428 354.933 296.819 354.874C289.936 354.257 294.614 354.597 284.416 353.744C283.507 353.667 281.526 353.364 279.588 353.201C271.526 352.525 290.204 354.455 290.696 354.629C290.933 354.761 270.857 352.592 270.179 352.446C267.274 351.961 279.276 353.398 277.007 352.944C276.175 352.841 247.603 349.592 241.923 348.713C235.336 347.765 232.44 346.85 232.323 347.418C230.541 346.607 228.853 346.767 228.014 346.649C217.801 345.194 217.866 345.191 209.086 343.994C207.156 343.729 205.56 343.324 204.878 343.254C204.481 343.214 205.191 343.503 203.251 343.279C200.538 342.973 184.406 340.382 183.186 340.088C181.984 339.805 190.077 341.079 188.639 340.694C182.739 339.794 177.32 339.013 171.369 338.083C168.936 337.702 170.205 337.779 169.156 337.615C168.708 337.546 160.346 336.361 160.666 336.453C161.524 336.699 187.376 340.576 180.539 339.739C179.212 339.578 174.659 338.612 175.327 339.045C152.114 335.44 129.069 331.65 106.012 328.165C119.305 329.873 134.209 332.43 148.111 334.568C150.069 334.87 156.453 335.894 155.703 335.609C143.86 333.729 129.157 331.512 117.869 329.688C117.499 329.628 118.882 329.688 117.498 329.454C114.88 329.008 106.701 328.029 105.248 327.758C104.993 327.704 109.818 328.219 108.377 327.88C104.675 327.01 103.655 327.577 100.588 327.127C98.81 326.864 90.1983 325.468 84.0259 324.681C81.2128 324.319 78.8809 324.038 77.6568 323.948C75.073 323.758 79.8133 324.385 83.9936 324.94C86.5587 325.283 88.96 325.633 88.455 325.642C86.9169 325.466 85.4208 325.293 83.9706 325.125C74.2629 323.997 64.573 322.585 55.4208 321.355C55.2324 321.33 56.8528 321.7 54.4576 321.393C50.3448 320.865 49.3006 320.505 47.291 320.19C45.1839 319.862 37.5426 318.793 36.5002 318.56C36.3692 318.531 37.9568 318.552 38.1991 318.582C41.5128 318.976 42.657 319.409 42.9656 319.457C44.127 319.634 45.2391 319.687 46.2628 319.838C47.9447 320.085 48.9275 320.32 51.1584 320.638C52.6916 320.856 51.2327 320.469 52.7174 320.683C53.2622 320.764 59.1526 321.99 59.7514 321.637C59.9471 321.66 11.4654 314.41 6.68983 313.57C10.8213 314.294 14.9208 314.999 19.1101 315.704C10.6447 314.265 0.543394 312.939 -0.102459 312.318C-12.6463 310.318 -25.4822 307.639 -37.2042 306.809C-39.734 306.683 -42.9646 305.929 -45.6258 303.677C-48.3022 301.434 -49.5724 298.429 -50.1549 296.036C-51.2557 291.154 -50.7792 287.358 -50.3915 283.702C-49.9508 280.082 -49.303 276.688 -48.8335 273.539C-48.6021 271.984 -48.416 270.452 -48.3967 269.325C-48.3793 268.784 -48.4467 268.31 -48.4319 268.414C-48.4136 268.467 -48.3661 268.733 -48.0401 269.234C-47.7107 269.763 -46.9184 270.494 -46.0695 270.808C-48.2191 269.808 -50.9572 269.1 -53.5946 264.883C-54.863 262.734 -55.0213 259.719 -54.5521 257.885C-54.123 255.991 -53.4558 254.775 -53.095 253.992C-52.4922 252.773 -52.1328 251.694 -51.6278 250.124C-50.0087 244.955 -50.5435 247.935 -48.1139 239.065C-48.8591 241.322 -49.611 243.59 -50.3707 245.824C-49.6742 243.589 -47.8536 237.363 -46.1188 231.268C-44.4188 225.305 -42.7939 219.497 -42.3748 217.858C-42.2672 217.436 -42.3861 216.766 -41.0123 211.695C-39.7947 207.198 -39.3804 206.522 -38.681 204.141C-38.0912 202.13 -37.524 199.85 -37.3484 199.256C-37.2127 198.8 -37.0328 198.654 -36.7059 197.553C-35.6784 194.086 -36.8194 196.808 -35.449 193.462C-35.6644 194.31 -35.8797 195.157 -36.0957 196.006C-34.8778 191.809 -33.1105 186.107 -34.7172 192.337C-34.9938 193.409 -34.868 192.458 -35.0862 193.254C-43.6326 224.418 -36.5355 199.605 -33.7409 188.631C-32.7836 185.88 -28.6057 170.124 -28.4301 169.611C-28.1797 168.901 -28.7606 171.625 -27.6757 168.143C-27.4925 167.568 -23.9065 154.074 -23.382 152.491C-23.3118 152.28 -23.2919 152.267 -23.3358 152.504C-23.3771 152.732 -23.4794 153.2 -23.6645 153.99C-24.0347 155.584 -26.8076 165.621 -27.4667 168.067C-26.1931 164.399 -24.4531 157.38 -23.291 152.516C-22.6692 149.915 -22.2057 147.91 -22.0645 147.399C-20.3819 141.326 -24.8358 159.178 -21.1421 145.493C-18.331 134.961 -21.1966 144.782 -20.246 140.703C-19.6917 138.421 -16.4069 126.602 -16.8364 126.75C-16.5393 125.561 -16.3429 124.891 -16.2282 124.545C-15.9299 123.652 -16.1597 124.874 -16.0426 124.498C-15.9413 123.951 -13.4434 115.68 -12.3163 113.113C-12.1882 112.799 -12.3715 113.87 -12.2334 113.547C-12.0664 113.133 -10.7614 109.667 -9.74543 107.263C-9.72851 107.222 -9.67286 107.1 -9.65406 107.06C-9.06809 105.819 -8.65236 104.929 -8.5997 104.805C-8.52717 104.626 -9.50342 106.255 -9.20639 105.535C-8.84928 104.677 -5.49087 97.7395 -5.35173 97.3249C-5.16389 96.7577 -9.22799 105.388 -8.71716 103.856C-6.77081 99.9047 -3.82145 93.4004 -2.72586 90.7007C-2.98624 91.3619 -4.80395 95.2114 -5.45644 96.5428C-5.40817 95.7756 -1.5128 87.5486 -2.63129 90.4524C-1.89446 88.6004 -2.54163 89.8195 -2.1633 88.7423C-2.06581 88.468 -0.875095 85.9123 -0.700669 85.4137C-0.676379 85.3412 -2.00036 87.9145 -1.80969 87.3667C-1.6026 86.7872 -0.449259 84.2752 0.666871 81.8278L0.60802 81.9576C1.32874 80.3036 2.01243 78.5356 2.13238 78.2705C2.71922 76.9112 1.48697 80.3522 0.824779 82.0529L0.881412 81.928C0.585663 82.6286 0.411234 83.0857 0.379239 83.2258C0.37872 83.2431 0.615399 82.7841 1.02161 81.9934L0.966428 82.1152C1.64651 80.7763 2.76386 78.1994 2.79651 78.1574C3.03492 77.9839 1.86061 80.9406 1.30891 82.2658L1.36059 82.1517C1.04921 82.86 0.913977 83.2312 1.05992 83.0566C1.19239 82.7859 1.32819 82.5068 1.47725 82.2062L1.42678 82.3176C1.93149 81.2543 2.44652 80.0525 2.95368 78.8525C2.5715 79.935 2.10435 81.2001 1.60413 82.3956L1.65279 82.2882C-0.911286 88.1392 -4.44704 95.4355 -5.32785 97.7428C-2.494 91.6797 0.406426 85.5007 1.99844 82.4496L1.95335 82.5491C2.50915 81.4667 2.89707 80.7685 3.0353 80.8367C3.1426 80.8818 2.82907 81.9154 2.51658 82.7967L2.5559 82.7099C2.18675 83.658 1.8888 84.4241 1.93639 84.383C2.07917 84.229 2.36556 83.6464 2.75605 82.8034L2.71879 82.8856C3.40306 81.3338 4.25863 78.8161 4.31471 78.6965C4.38674 78.5449 4.42604 78.4766 4.43703 78.4808C4.43704 78.4808 4.43704 78.4808 4.43704 78.4808C4.50043 78.4935 3.63013 80.9681 2.82385 82.9318L2.86003 82.852C2.13656 84.5133 1.53912 85.8823 1.481 86.0602C1.28762 86.7132 3.12319 83.6799 3.20437 83.7071C3.17255 83.8402 0.883383 88.9956 1.82451 87.3342C2.34202 86.424 3.14011 84.7799 3.83867 83.309L3.81261 83.3665C4.35036 82.184 4.76448 81.1338 4.8019 81.0654C4.98298 80.7075 4.54529 81.9563 3.9433 83.424L3.96802 83.3694C3.03898 85.5208 1.84357 88.1842 1.80448 88.3396C1.77708 88.4739 3.88657 84.3255 3.98207 84.2185C4.0758 84.1382 2.7006 87.387 2.2395 88.728C1.90668 89.7123 3.26571 87.0121 3.06004 87.4941C2.91243 87.8606 -0.587361 95.2742 -0.75174 95.6574C-0.98161 96.2119 -0.038871 94.546 -0.123607 94.8048C-0.242394 95.172 -1.43199 97.5607 -1.24124 97.2776C-1.08166 97.0447 3.74463 87.9383 3.81625 88.0564C3.97605 88.2453 -1.12668 97.9121 3.96691 89.087C4.00232 89.0273 4.98982 86.7591 5.02142 86.6993C5.78245 85.4145 2.8586 92.3116 6.41954 84.5143C6.51102 84.3044 6.60541 84.083 6.70199 83.8519C6.60997 84.079 6.51812 84.3017 6.42777 84.5162C-0.441308 99.9345 6.07181 86.0761 5.28881 88.6096C4.98901 89.6012 2.04944 95.9625 2.05188 95.9997C2.51221 95.4441 3.33531 93.3819 3.73747 92.7322C3.96134 92.3773 1.45402 98.1108 2.1658 96.8921C2.53824 96.2612 5.35209 90.2459 5.47609 89.9981C6.68751 87.676 5.44494 90.6331 5.76051 90.1507C5.97582 89.8296 7.66986 86.1769 7.71537 86.0891C7.81322 85.9439 5.71877 90.9935 5.3007 92.051C4.98901 92.8567 6.44873 89.9683 6.21723 90.5227C4.82455 93.8739 1.1499 100.678 4.84268 94.1912C5.06474 93.8034 6.2542 91.2425 6.29403 91.1715C7.17925 89.6599 4.98317 94.3695 4.70628 95.2524C4.22814 96.7905 7.2974 89.9973 4.79289 95.6699C6.64032 92.0607 7.74896 89.7426 9.45878 85.9336C9.4655 85.9196 9.48442 85.877 9.49082 85.8629C9.74103 85.2843 9.98577 84.6861 10.2378 84.053C9.99396 84.6656 9.74971 85.2672 9.49432 85.8644C9.48792 85.8786 9.46897 85.9212 9.46225 85.9352C3.88894 98.3054 2.52883 102.366 9.3314 87.8107C7.07923 92.6623 7.61201 92.2565 6.94513 93.6964C6.52855 94.5977 2.93715 101.405 5.10736 98.5364C5.37418 98.1904 7.28395 93.8803 6.82199 95.2943C1.96459 105.431 6.83021 95.5619 6.85277 95.5653C7.04312 95.7412 3.23057 103.766 -0.498371 111.444L-0.397839 111.221C-2.88051 116.954 -4.80421 122.718 -5.34697 124.591C-5.62845 125.543 -5.88384 126.485 -6.10625 127.379C-7.02709 131.175 -7.6127 134.64 -7.85716 135.55C-8.82932 139.366 -8.18741 136.151 -8.46677 136.99C-8.74046 137.864 -11.241 148.712 -11.4109 149.248C-12.0371 151.321 -11.6725 149.154 -11.7384 149.362C-12.0087 150.215 -12.6172 152.465 -13.3428 155.184C-14.7651 160.519 -16.6634 167.744 -17.4217 170.414C-17.2596 170.326 -15.0518 162.222 -16.2178 167.336C-17.5799 173.302 -18.235 173.479 -18.3027 173.632C-23.816 193.888 -29.3724 214.136 -35.0009 234.369C-36.9031 241.116 -38.663 247.719 -40.8736 254.686C-40.2588 254.237 -35.5277 236.606 -35.3838 236.191C-34.9909 234.801 -37.8557 247.956 -42.3057 259.14C-42.8217 260.163 -42.9125 260.595 -42.8663 260.361C-42.8503 260.245 -42.8482 259.934 -42.9314 259.633C-43.01 259.33 -43.1491 259.084 -43.2356 258.967C-43.423 258.729 -43.3518 258.864 -43.1965 258.969C-43.0426 259.084 -42.8326 259.21 -42.6955 259.29C-43.0462 259.092 -43.2918 258.893 -43.3295 258.833C-43.3805 258.768 -43.1449 258.923 -42.9497 259.402C-42.7461 259.877 -42.7842 260.419 -42.7841 260.441C-42.7825 260.486 -42.6783 260.193 -42.4123 259.677C-42.5821 260.13 -42.6754 260.493 -42.6422 260.479C-42.6298 260.47 -42.5885 260.346 -42.5894 260.095C-42.5875 259.849 -42.6545 259.479 -42.7801 259.189C-43.0549 258.57 -43.2798 258.534 -43.0285 258.707C-42.7984 258.879 -42.2639 259.176 -41.5935 259.45C-39.544 260.207 -37.9353 262.109 -37.3363 263.447C-36.6443 264.901 -36.4837 265.977 -36.36 266.878C-36.1481 268.721 -36.2541 270.106 -36.3519 271.37C-36.5796 273.909 -36.942 276.012 -37.192 277.85C-37.5135 280.148 -36.6633 275.769 -36.6709 275.817C-36.9524 278.547 -37.7142 282.47 -37.4081 279.447C-38.178 285.535 -38.2968 284.641 -38.5979 288.852C-38.5893 289.036 -38.4525 287.4 -38.408 290.468C-38.4163 291.126 -38.1434 293.461 -37.7432 293.957C-37.5679 294.217 -37.632 294.09 -37.5572 294.128C-37.4852 294.152 -37.2275 294.2 -37.1106 294.186C-37.0081 294.183 -37.4102 293.938 -37.3946 293.831C-37.3837 293.729 -37.2299 293.837 -37.4563 293.952C-37.472 293.898 -37.6114 293.597 -37.6984 293.26C-37.7896 292.929 -37.8553 292.576 -37.899 292.333C-37.9876 291.82 -38.0291 291.644 -38.0727 291.645C-38.1504 291.608 -38.2404 292.215 -38.3223 290.727C-38.1759 290.09 -38.6106 291.971 -37.5076 282.582C-37.3979 283.524 -37.8791 286.771 -37.9408 289.51C-37.9783 290.883 -37.8876 292.093 -37.7406 292.805C-37.5929 293.531 -37.4589 293.745 -37.4158 293.801C-37.3282 293.882 -37.303 293.861 -37.3516 293.704C-37.4014 293.546 -37.6719 292.85 -37.7717 291.413C-38.0186 288.576 -37.316 283.722 -37.2792 282.234C-37.111 283.651 -37.0754 281.185 -36.4253 277.34C-35.7515 273.045 -35.9166 274.952 -35.6159 272.428C-35.2859 269.211 -35.4934 267.415 -35.7779 266.049C-35.9488 265.294 -36.0802 264.714 -36.5528 263.593C-37.0438 262.64 -37.8451 260.375 -41.3472 258.825C-41.5782 258.719 -41.8211 258.595 -42.0516 258.457C-41.6109 258.832 -41.4458 258.985 -41.6538 258.959C-41.8325 258.943 -42.3794 258.718 -42.7155 258.484C-42.8758 258.379 -42.9556 258.267 -42.8192 258.379C-42.6974 258.469 -42.2971 258.978 -42.155 259.65C-42.0065 260.318 -42.1267 260.714 -42.0647 260.622C-42.0133 260.546 -41.8153 260.162 -41.4775 259.536C-40.8004 258.288 -40.181 256.807 -39.8853 256.055C-40.2507 257.146 -40.8329 258.584 -41.3289 259.607C-41.745 260.457 -41.8572 260.857 -41.7934 260.657C-41.7025 260.507 -41.7152 259.244 -42.1443 258.569C-42.5378 257.893 -42.7023 257.916 -42.4824 258.034C-42.2816 258.162 -41.8169 258.395 -41.2609 258.606C-39.3543 259.323 -37.7468 260.87 -36.9274 262.255C-36.109 263.604 -35.7986 264.726 -35.5834 265.693C-35.2117 267.507 -35.2334 268.88 -35.2584 270.043C-35.2025 269.547 -35.1571 269.064 -35.1354 268.478C-35.0869 271.027 -35.3619 272.899 -35.6115 274.751C-35.6071 274.448 -35.6045 274.147 -35.6039 273.846C-36.7762 283.171 -37.2879 284.549 -37.3621 285.308C-37.7223 288.122 -37.8459 291.145 -37.4365 292.816C-37.3462 293.211 -37.2331 293.494 -37.1702 293.612C-37.1044 293.735 -37.1154 293.689 -37.1818 293.635C-37.2436 293.578 -37.3213 293.556 -37.2259 293.591C-37.1352 293.623 -36.8982 293.682 -36.5038 293.702C-33.1663 293.883 -29.9606 294.255 -27.0009 294.648C-25.5932 294.86 -26.4491 294.395 -16.2795 296.218C-13.099 296.8 -16.1202 296.495 -12.4943 297.065C-7.85347 297.316 -7.99572 297.711 -6.65528 297.935C-2.77442 298.585 -0.391794 298.853 -0.032345 298.911C4.75504 299.689 11.7752 300.858 17.024 301.666C17.1396 301.683 14.4167 301.092 17.8059 301.675C19.0187 301.886 29.6383 304.234 39.097 305.382C36.6523 304.98 34.2071 304.572 31.7743 304.162C34.6545 304.687 54.8366 307.386 49.9356 306.504C46.9531 305.978 39.5173 305.347 38.7277 304.805C45.3961 305.999 82.6293 310.757 85.5277 311.146C85.9318 311.211 83.411 311.033 83.9715 311.12C84.0834 311.138 84.7423 311.221 85.6883 311.338C88.194 311.644 93.3462 312.324 94.1526 312.475C94.8688 312.603 90.9509 312.159 91.2643 312.251C91.681 312.327 102.228 313.853 102.93 313.794C100.225 313.467 92.8841 312.393 96.7464 312.783C97.2352 312.832 99.8227 313.306 100.454 313.374C106.182 313.969 89.1837 311.626 86.6683 311.35C97.303 312.458 113.526 315.137 125.717 316.871C130.578 317.76 118.481 315.981 123.955 316.939C135.464 318.954 127.046 317.215 127.401 317.251C130.397 317.566 139.875 319.812 140.031 319.247C144.289 319.998 142.81 319.842 148.719 320.684C147.949 320.524 147.182 320.363 146.418 320.204C153.064 320.899 166.704 323.874 165.71 323.784C162.832 323.516 155.692 322.134 155.101 322.048C154.264 321.928 151.468 322.092 141.693 320.036C137.595 319.8 157.411 322.753 148.327 321.613C154.48 322.533 179.608 326.691 183.188 327.042C183.628 327.084 181.657 326.389 187.863 327.527C190.815 328.068 183.666 326.997 185.011 327.29C189.108 328.3 245.638 336.187 256.385 337.302C257.082 337.387 256.811 337.477 257.496 337.56C259.603 337.819 267.29 338.557 271.058 339.041C263.266 337.914 278.453 339.651 282.292 340.068C288.161 340.73 287.771 340.899 290.297 341.204C300.026 342.391 315.232 343.192 322.746 344.19C322.396 343.704 335.84 345.331 342.035 345.608C346.783 345.852 353.914 345.798 347.342 345.348C355.721 345.725 364.461 345.839 372.218 345.809C373.519 345.803 371.731 345.946 373.946 345.929C374.146 345.925 374.427 345.79 376.311 345.761C391.804 345.388 384.304 345.767 387.201 345.794C388.826 345.787 390.011 345.761 390.877 345.731C381.871 346.177 371.357 346.214 368.567 346.187C370.96 346.587 388.752 345.996 393.824 345.699C394.007 345.692 393.38 345.893 393.565 345.884C393.569 345.884 393.573 345.884 393.577 345.884C395.618 345.859 407.774 344.827 405.267 344.815C404.497 344.83 399.059 345.33 392.19 345.668C394.015 345.541 392.64 345.42 392.962 345.396C396.961 345.143 406.396 344.598 409.744 344.216C410.5 344.14 410.432 344.025 410.555 344.011C413.522 343.695 412.372 344.185 415.466 343.425C421.02 343.156 405.197 344.744 406.307 344.809C407.266 345.676 441.924 339.192 441.223 337.844C441.345 337.84 441.806 337.733 442.708 337.461C443.101 337.342 443.751 337.121 444.529 336.83C447.914 335.661 453.234 332.67 454.24 331.884C454.456 331.731 454.19 331.513 454.461 331.334C455.266 331.112 464.124 324.32 466.383 320.71C464.918 322.42 463.365 324.022 461.71 325.522C466.544 320.838 468.009 318.263 468.376 317.796C468.696 317.276 467.716 318.622 466.256 320.335C466.113 320.509 465.964 320.67 465.825 320.833C463.57 323.498 460.237 326.415 460.153 326.429C460.041 326.482 464.22 322.752 467.286 318.607C470.406 314.539 472.615 310.342 471.673 312.383C471.562 313.089 465.261 321.67 468.519 317.522C469.164 316.865 472.706 310.92 472.822 310.565C473.452 309.524 472.117 312.393 470.428 315.191C468.779 317.983 466.773 320.606 467.437 319.958C469.538 316.969 472.174 313.048 474.025 309.198C474.874 307.434 474.901 306.933 475.002 306.716C476.413 303.435 475.754 305.332 476.224 304.228C476.547 303.644 478.576 296.825 478.594 298.242C484.18 275.061 481.027 292.258 475.456 305.501C477.214 301.304 479.93 292.837 480.734 288.782C481.037 287.368 480.697 288.177 481.169 285.764C482.622 280.923 484.917 256.366 484.606 249.814C484.633 253.786 484.832 252.63 484.838 249.559C484.827 246.482 484.581 249.067 484.555 248.467C484.609 247.829 484.35 233.363 484.107 230.947C484.69 241.85 484.793 239.386 484.354 230.12C484.481 231.456 484.601 232.792 484.715 234.13C484.438 228.719 483.851 217.217 483.464 214.101C483.407 213.609 483.409 215.391 483.377 215.115C483.091 212.347 482.312 202.933 482.202 202.493C482.121 202.123 482.406 206.163 482.19 204.674C482.143 204.34 481.961 200.527 481.483 196.658C481.308 195.24 481.257 196.111 481.209 195.755C480.807 192.777 481.26 194.585 480.595 189.078C480.116 185.126 479.524 182.139 478.981 176.592C480.755 194.825 479.113 179.571 478.198 171.931C478.059 170.683 477.867 171.742 477.286 164.379C479.341 179.976 477.001 159.967 476.86 155.668C476.849 155.413 477.015 155.453 476.91 153.266C476.904 153.091 476.787 153.333 476.707 151.395C476.441 144.394 476.871 141.37 476.947 140.629C477.003 140.198 477.003 140.342 476.991 140.634C476.965 141.219 476.912 142.394 477.098 140.916C477.107 140.844 477.118 140.754 477.131 140.649C477.379 138.625 478.053 130.845 478.278 128.625C478.329 128.121 478.431 128.336 478.636 126.303C479 122.692 479.192 119.455 479.411 117.075C479.432 116.817 479.641 116.802 479.984 112.301C480.08 111.021 480.123 109.663 479.921 111.402C479.234 117.336 478.369 128.688 477.466 135.451C476.648 141.612 478.689 122.131 478.766 121.147C478.803 120.768 478.519 124.558 478.922 120.734C479.263 117.418 479.545 111.358 479.92 106.653C479.933 106.496 480.071 105.439 480.164 104.617C480.211 104.186 480.245 103.849 480.266 103.69C480.286 103.525 480.311 103.603 480.314 103.588C480.426 102.647 480.195 108.719 480.303 107.827C480.334 107.724 480.538 104.055 480.549 103.886C480.572 103.761 480.654 103.548 480.766 103.536C480.829 103.542 480.875 103.586 481.053 103.98C481.103 104.088 481.168 104.228 481.25 104.379C481.339 104.55 481.459 104.755 481.61 104.969C481.915 105.424 482.445 105.891 482.561 105.941C482.523 105.747 482.32 105.474 482.15 105.345C480.77 104.346 481.607 105.109 480.64 104.481C479.175 103.474 474.557 101.138 471.783 100.439C470.336 100.016 469.467 99.7443 469.346 99.7844C470.105 100.045 470.889 100.311 471.744 100.571C472.494 100.801 473.24 101.057 473.98 101.338C473.101 101.018 472.358 100.785 471.734 100.606C465.799 98.7387 468.887 99.8102 467.705 99.4713C466.371 99.0885 466.788 98.9562 463.971 98.0818C463.66 97.9884 460.584 97.082 457.646 96.6659C454.703 96.2085 451.887 96.2697 451.992 96.316C458.355 96.4388 455.974 96.7446 456.265 96.7122C457.374 96.8623 458.82 96.9381 460.328 97.2759C470.992 100.179 460.151 97.4292 462.658 98.1906C463.51 98.4367 465.287 98.8449 465.664 98.9766C466.883 99.3919 466.848 99.5657 467.692 99.8325C469.69 100.47 467.44 99.4571 467.611 99.5015C468.382 99.6863 470.083 100.282 471.677 100.797C473.264 101.335 474.256 101.828 472.068 101.26C474.285 102.084 474.665 101.914 476.36 102.792C479.666 104.646 474.596 102.107 473.116 101.746C472.551 101.567 472.028 101.415 471.534 101.281C466.35 99.8058 464.589 98.6241 457.638 97.3996C455.285 97.0219 452.585 97.0211 451.055 97.1153C450.731 97.1306 450.451 97.1425 450.226 97.1498C449.217 97.1177 440.805 97.0569 440.773 98.0378C438.325 98.2523 434.907 98.564 432.384 99.4482C431.59 99.7253 430.875 99.9926 430.223 100.265C427.377 101.463 428.395 101.378 428.136 101.496C427.731 101.677 424.325 103.144 423.237 103.722C421.959 104.391 422.636 104.175 420.649 105.23C415.814 107.925 415.996 107.701 415.481 107.958C414.078 108.809 413.201 109.466 412.502 109.971C410.391 111.388 408.865 111.251 408.113 111.273C407.32 111.245 406.944 111.165 406.652 111.121C406.114 111.027 405.991 111.014 405.913 111.029C405.801 111.058 405.736 111.152 404.684 110.744C402.927 110.138 398.544 107.184 393.803 104.438C388.511 101.285 383.277 98.7965 381.656 98.5146C382.995 98.8494 384.38 99.3406 385.838 99.9577C383.339 98.5301 380.773 98.1928 380.804 97.8594C380.256 98.1385 375.19 97.2083 373.255 97.4092C372.558 97.438 372.618 97.5271 371.74 97.5776C371.733 97.5781 371.726 97.5785 371.719 97.5789C368.398 97.6741 360.24 99.0292 358.328 99.5476C350.844 101.388 367.407 97.929 371.77 98.1196C372.331 98.0981 372.701 98.0903 372.878 98.0859C372.601 98.0956 372.243 98.1108 371.771 98.1377C366.936 98.1229 351.458 101.781 359.557 100.266C360.913 100.022 363.251 99.346 364.007 99.2176C369.095 98.3771 365.12 99.2016 365.524 99.1608C366.212 99.0754 369.503 98.4513 370.342 98.429C370.574 98.423 369.337 98.6471 371.792 98.5288C372.24 98.5125 372.791 98.491 373.461 98.4743C373.132 98.5117 372.56 98.5506 371.796 98.6074C367.702 98.7645 357.337 100.718 355.847 101.191C355.215 101.426 359.298 100.585 347.532 103.437C347.679 103.434 347.825 103.431 347.971 103.428C347.828 103.471 347.685 103.513 347.541 103.556C343.413 104.788 339.702 105.878 337.504 107.303C335.33 108.662 333.216 110.042 331.178 111.466C331.712 110.981 334.71 108.727 330.844 111.417C328.675 112.98 330.402 112 330.205 112.145C329.728 112.571 325.014 115.61 321.813 119.477C321.36 119.941 320.62 121.358 317.789 122.665C314.755 124.07 311.065 122.995 309.76 122.144C307.911 121.047 307.394 120.381 306.747 119.786C306.157 119.2 305.705 118.711 305.273 118.249C304.422 117.334 303.674 116.535 302.911 115.788C298.131 111.024 292.908 106.891 288.956 105.757C283.589 104.036 279.502 103.06 277.723 102.809C276.812 102.661 275.311 102.502 274.131 102.574C270.93 102.711 267.737 102.932 267.375 102.962C265.842 103.058 261.872 103.307 260.005 103.895C255.558 105.25 251.661 106.63 250.517 107.157C249.193 107.74 250.51 107.347 249.346 107.856C248.287 108.337 249.312 107.685 248.996 107.824C248.392 108.094 246.807 108.823 245.215 109.922C244.4 110.483 243.46 111.275 242.203 112.469C240.81 113.63 239.762 115.385 235.512 117.522C234.595 118.026 231.764 118.623 229.833 118.017C227.946 117.491 227.249 116.897 226.701 116.546C225.705 115.827 225.355 115.469 224.935 115.103C224.164 114.407 223.563 113.845 222.933 113.273C218.493 109.22 214.486 105.635 212.771 104.123C214.224 105.355 218.978 109.496 223.071 113.121C223.803 113.764 224.459 114.36 225.294 115.086C225.756 115.467 226.113 115.841 227.302 116.615C227.918 116.977 228.898 117.617 230.78 117.911C232.694 118.216 234.613 117.623 235.391 117.247C239.296 115.207 239.68 114.145 239.724 114.211C239.603 114.216 238.458 115.588 235.31 117.065C234.693 117.335 233.65 117.71 232.335 117.768C231.024 117.837 229.765 117.519 228.998 117.21C227.45 116.561 227.028 116.123 226.605 115.829C225.857 115.244 225.589 114.984 225.381 114.82C224.91 114.333 224.161 113.658 223.271 112.903C221.548 111.436 219.279 109.585 217.922 108.293C217.686 108.077 218.798 108.718 215.005 105.314C213.828 104.281 209.707 100.867 207.49 99.4212C207.436 99.3962 207.384 99.3739 207.364 99.367C204.664 98.2447 199.685 95.6711 195.058 95.5852C190.365 95.4312 183.873 95.431 182.182 95.9969C175.151 98.2182 171.035 100.176 170.406 100.687C170.319 100.696 174.22 98.9564 171.657 100.28C169.128 101.697 170.221 100.859 169.068 101.352C168.645 101.557 168.048 101.879 166.992 102.506C166.087 102.933 154.565 110.472 152.258 111.309C151.254 111.794 149.854 112.106 149.483 112.157C149.3 112.19 149.381 112.199 149.67 112.174C149.963 112.148 150.435 112.076 150.913 111.956C152.892 111.43 154.165 110.667 155.484 109.956C158.031 108.523 160.648 106.912 160.614 106.959C160.459 107.089 159.015 108.017 157.157 109.173C156.209 109.756 155.22 110.376 153.928 111.067C153.241 111.414 152.565 111.813 151.07 112.26C150.303 112.466 149.168 112.75 147.493 112.575C145.81 112.428 143.994 111.503 143.154 110.806C141.95 109.848 141.659 109.519 141.562 109.44C141.493 109.354 141.984 109.813 143.214 110.73C143.964 111.317 145.236 112.002 146.495 112.274C147.772 112.563 148.766 112.506 149.474 112.421C150.846 112.222 151.282 111.986 151.521 111.905C151.725 111.814 151.657 111.841 150.974 112.03C150.579 112.121 150.082 112.297 148.808 112.362C147.671 112.5 144.835 111.912 143.319 110.594C142.084 109.627 141.328 108.83 140.34 108.056C141.075 108.696 141.489 109.242 143.122 110.638C141.447 109.284 141.145 108.912 140.644 108.487C140.207 108.097 139.891 107.82 139.636 107.591C139.121 107.135 138.88 106.891 138.482 106.608C136.983 105.556 135.132 104.618 132.825 103.44C131.195 102.61 129.482 101.694 127.592 100.676C126.346 100.011 128.548 100.813 128.397 100.734C126.886 99.8835 124.762 99.4675 122.598 98.5132C122.514 98.471 123.812 98.8072 123.978 98.8152C124.163 98.8949 123.076 98.1371 118.602 97.469C119.207 97.5718 119.819 97.7018 120.435 97.8571C120.018 97.7971 118.771 97.5699 117.316 97.5077C114.125 97.2512 109.362 98.2294 108.381 98.4725C104.315 99.4411 107.819 98.2743 103.683 99.4812C105.291 99.1907 101.656 100.33 98.4309 101.483C96.0868 102.306 93.98 103.017 94.2591 102.799C92.5383 103.756 81.248 107.687 76.3112 109.85C75.62 110.146 74.7802 110.521 73.9255 110.927C71.1022 112.213 67.9915 114.523 67.0332 115.157C66.3768 115.587 66.0501 115.726 65.4916 115.981C65.1963 116.111 64.8704 116.281 64.0558 116.61C63.6273 116.77 63.0838 117.006 61.9686 117.195C60.9452 117.39 58.6173 117.398 56.6866 116.15C56.4096 115.977 56.031 115.72 55.5975 115.333C53.6854 113.693 49.9892 109.385 45.594 106.484C44.7129 105.854 42.8539 104.367 44.7013 105.324C47.9728 106.867 52.531 111.533 52.6433 111.434C52.7972 110.95 45.9474 105.442 43.5833 104.441C33.266 99.2415 39.3067 101.974 39.136 101.723C38.8561 101.513 37.6538 100.943 36.2745 100.384C34.2794 99.5704 32.123 98.7675 31.9757 98.7075C30.9062 98.2272 35.4386 99.758 35.5663 99.6967C35.6791 99.5539 29.6818 97.0643 31.0845 97.5304C32.2563 97.8895 34.6611 98.8592 36.5565 99.6532C37.8197 100.181 38.7825 100.633 38.9177 100.686C42.7037 102.242 39.0039 100.221 36.7396 99.1783C36.3519 98.9965 36.0141 98.8368 35.7699 98.7172C35.4084 98.5394 36.3493 98.8446 36.8132 98.9875C37.0117 99.0482 37.1179 99.0777 36.9867 99.0217C36.9326 98.9986 36.8791 98.9759 36.8262 98.9536C30.3502 96.261 35.3243 98.8713 30.9147 97.224C26.9879 95.8597 32.1299 97.3412 31.9942 97.3061C31.7928 97.1831 27.0812 95.6253 26.3851 95.4286C26.0766 95.1795 33.9014 97.4357 36.999 98.5056C37.7632 98.742 38.1851 98.8616 38.1003 98.7835C37.756 98.6491 37.4049 98.515 37.047 98.3811C33.3593 97.0038 29.7421 95.6509 26.1696 94.8087C25.9159 94.4006 31.5425 96.3065 32.1466 96.564C33.3548 96.9352 30.0807 95.6413 30.2492 95.6273C30.3376 95.5873 34.3092 96.7863 30.8019 95.4818C29.595 95.0888 26.9979 94.2225 22.6598 93.4313C30.3206 94.6438 31.5843 95.6348 30.7968 95.1414C30.0211 94.7776 27.241 93.8941 27.0224 93.8109C26.588 93.5987 34.0999 95.398 25.043 93.0733C24.7462 92.5178 25.2761 92.8948 27.8774 93.5075C31.0572 94.4201 23.8471 91.6888 35.2969 95.8668C34.748 95.2829 25.4453 92.2736 24.9149 92.4024C24.4847 92.291 26.6121 92.6281 25.8706 92.4272C21.4626 91.2875 20.702 91.5007 20.8099 91.4014C20.9049 91.3644 21.818 91.3781 20.4962 91.1853C20.471 91.1821 20.3491 91.1754 20.1601 91.1699C18.5898 90.9924 12.3401 92.2825 18.1878 91.144C18.8678 91.0515 19.5258 90.9947 20.1611 90.9957C30.8968 91.8106 34.8899 95.0497 36.986 94.8218C31.5855 92.4925 24.9901 90.4059 20.1633 90.5878C17.6131 90.6913 15.7701 91.2809 14.8401 91.482C10.7708 92.5506 14.9488 91.3016 14.4427 91.399C14.2534 91.4031 10.7657 92.417 10.7213 92.4413C9.28716 92.7106 14.0595 90.5851 20.1648 90.3195C25.0016 90.3951 29.9313 92.1921 32.4095 92.9906C30.9415 92.3945 29.4532 91.8323 27.9293 91.3414C30.0256 91.8978 32.0721 92.5881 34.0902 93.3205C24.4073 89.8909 33.8116 93.0482 36.318 93.6157C36.8918 93.7228 30.5324 91.5158 37.8068 93.9664C32.534 91.9191 34.2867 92.3905 29.2844 90.9463C29.4134 90.8218 34.3628 92.2873 38.7606 93.9371C41.1048 94.782 43.3129 95.7307 44.7496 96.4075C42.1918 95.1171 40.2698 94.3432 38.8186 93.7866C31.9668 91.3915 36.2056 92.6094 24.7576 89.5029C22.0793 89.2203 28.8613 90.5132 28.2698 90.5085C26.8354 90.2443 24.0008 89.3392 20.1697 89.4169C18.7119 89.4615 17.2783 89.7636 15.8417 90.1812C14.9756 90.467 18.7504 89.7883 13.2311 91.1121C12.6187 91.2492 9.13351 92.1319 9.18175 92.1177C9.57579 91.8031 13.0108 90.8288 13.1455 90.7498C13.2529 90.6304 9.44583 91.812 9.43764 91.8215C9.25429 91.6619 12.5913 90.7659 12.0954 90.8614C11.036 91.0276 -2.87688 94.9337 15.224 89.6205C0.318666 94.3501 12.9283 89.6751 19.4977 89.1225C19.7463 89.1083 19.9698 89.0996 20.1715 89.0944C21.3344 89.0791 21.9405 88.9938 23.9076 89.2295C26.8605 89.5957 30.0706 90.6486 31.4706 91.089C32.9554 91.6045 24.602 88.3541 36.7733 92.7627C32.8296 91.1222 26.561 88.6481 20.1742 88.598C16.6743 88.677 14.0213 89.5032 11.8304 90.0282C1.91962 93.1209 12.5177 88.4207 20.1772 88.0571C22.0269 88.0562 23.4213 88.2555 23.9259 88.3164C24.589 88.3926 22.3902 87.9534 22.83 88.0033C23.8433 87.5878 36.2402 91.4789 37.2543 91.9604C38.4609 92.2704 32.9479 90.3545 32.5815 90.1279C32.4718 90.0152 36.8413 91.5061 39.3428 92.4272C41.3839 93.1772 42.3791 93.5329 39.3871 92.3122C39.2592 92.2616 39.1236 92.208 38.98 92.1514C33.9687 89.9091 23.2093 87.3076 21.0191 87.29C27.9902 87.6219 33.8391 90.0994 39.4389 92.178C41.5741 92.9922 43.6933 93.8976 45.7612 94.915C43.7293 93.8251 41.6384 92.8435 39.5263 91.9514C37.4182 91.0579 35.267 90.1476 33.0212 89.3035C35.3652 90.0889 37.5311 90.9289 39.6094 91.7358C45.8943 94.2003 51.7495 97.2469 57.2274 101.856C52.9242 97.9984 50.7581 96.897 50.5076 96.6131C50.2204 96.3803 51.6647 97.16 53.6447 98.5387C57.7805 101.238 62.8153 106.892 62.7195 106.617C63.1089 106.996 57.1621 100.35 55.8048 99.4655C57.8994 100.926 61.4299 104.535 63.5119 106.497C63.0379 106.008 61.7709 105.409 60.8602 105.41C59.9474 105.38 59.5674 105.561 59.4058 105.607C59.1154 105.726 59.407 105.59 59.6667 105.406C60.2441 105.018 61.0195 104.452 61.7377 103.951C63.1821 102.934 64.5106 102.094 65.3246 101.586C66.9918 100.613 66.4425 100.572 62.2168 103.063C63.6861 102.15 66.6989 100.315 68.5875 99.3923C69.4622 98.9464 70.0324 98.6616 70.0043 98.666C69.8621 98.6858 69.3056 98.9003 68.5183 99.2428C66.7236 100.002 63.8312 101.589 61.8249 102.93C59.7502 104.312 58.8915 104.864 59.3499 104.466C60.8597 103.177 64.3648 101.06 68.0715 99.317C68.2027 99.2538 68.3342 99.1913 68.4658 99.1293C84.0788 92.344 81.333 92.7455 93.7014 88.1443C95.0781 87.6515 96.6542 87.1159 98.4882 86.5573C98.1001 86.6382 97.7107 86.7216 97.3275 86.8049C103.483 84.8747 110.351 82.933 118.086 83.381C126.549 83.9112 133.534 87.2788 139.523 90.3465C141.788 91.5167 144.057 92.7802 146.361 94.3252C147.507 95.0951 148.678 95.9572 149.797 96.8941C150.88 97.7932 152.07 98.9381 152.248 99.0593C151.754 98.6562 150.695 98.0785 149.67 97.8955C148.648 97.6966 147.888 97.7968 147.497 97.8649C146.685 98.0336 146.717 98.0976 146.757 98.0654C146.91 98.0022 147.456 97.7109 147.97 97.4123C149.031 96.7984 150.23 96.0618 151.419 95.3345C153.667 93.8107 157.324 91.4289 161.543 88.8068C166.689 85.5757 172.755 83.6096 177.445 81.9892C184.774 80.0607 188.059 80.7863 191.547 80.6574C192.22 80.6656 193.699 80.7043 195.425 80.7731C200.577 80.8412 206.408 83.0587 206.9 83.2805C207.666 83.5994 205.93 82.9504 204.347 82.5079C202.766 82.0668 201.442 81.7881 203.559 82.399C204.035 82.4562 209.434 84.3715 213.231 86.1766C216.596 87.795 218.044 89.1356 219.402 90.1079C220.655 91.0652 221.339 91.6058 221.119 91.3614C219.824 90.3358 216.972 87.8259 213.266 86.0993C212.618 85.8132 212.102 85.5806 211.877 85.469C210.68 84.8795 211.445 85.1693 213.32 85.978C219.833 89.1395 226.044 95.4887 233.275 101.956C233.964 102.585 234.673 103.25 235.223 103.75C235.466 103.978 235.783 104.221 235.504 104.013C235.322 103.917 234.995 103.557 233.557 103.164C232.074 102.705 229.828 103.212 229.329 103.516C228.98 103.695 229.376 103.499 229.863 103.059C230.369 102.623 231.026 101.996 231.735 101.333C233.157 99.9946 234.835 98.5235 236.577 97.336C241.232 94.2353 244.437 93.1895 245.03 92.8584C243.774 93.3077 242.501 93.8059 241.213 94.3795C244.82 92.6238 248.334 91.4228 251.679 90.3536ZM117.566 98.1194C117.479 98.1246 117.383 98.1287 117.282 98.1322C115.548 98.1151 112.015 98.2795 109.58 98.8844C106.107 99.6158 100.034 102.441 102.505 100.866C107.8 99.1311 112.823 97.8696 117.283 98.1056C117.377 98.1094 117.472 98.1141 117.566 98.1194ZM197.665 96.3982C194.884 95.9273 197.042 95.6375 199.485 96.4729C199.78 96.6079 201.564 97.4527 197.665 96.3982ZM162.725 105.634C162.873 105.535 165.85 103.728 165.95 103.678C168.693 102.193 159.737 107.629 162.725 105.634ZM341.315 105.179C337.985 106.51 340.355 105.878 342.671 104.962C342.811 104.904 341.541 105.092 341.315 105.179ZM338.979 106.115C338.42 106.292 337.808 106.585 337.272 106.93C334.595 108.628 332.274 110.632 335.692 108.352C335.874 108.233 336.609 107.71 337.408 107.15C338.105 106.622 339.042 106.095 338.979 106.115ZM185.092 96.0147C185.403 95.835 189.225 95.786 190.972 95.8519C190.914 95.9562 186.503 95.8674 185.092 96.0147ZM278.387 102.761C278.488 102.744 276.096 102.222 274.122 102.288C270.015 102.387 265.455 102.7 264.999 102.838C266.099 102.691 270.338 102.48 274.126 102.39C276.033 102.332 278.343 102.8 278.387 102.761ZM306.105 118.683C305.826 118.377 303.922 116.321 303.096 115.599C302.784 115.313 302.584 115.145 302.593 115.184C302.732 115.332 302.882 115.49 303.041 115.655C303.773 116.414 304.707 117.395 305.45 118.15C306.192 118.902 306.7 119.354 306.105 118.683ZM377.566 98.5798C377.673 98.5776 377.014 98.3733 377.181 98.2915C377.336 98.2526 378.433 98.0764 381.557 99.1488C382.474 99.4469 379.104 98.7085 379.431 98.8518C380.123 99.0228 380.657 99.1792 381.095 99.3054C378.26 98.4938 374.727 98.5834 374.329 98.549C372.683 98.3746 377.57 98.4971 377.566 98.5798ZM416.743 107.921C417.258 107.425 421.656 105.105 422.766 104.661C422.948 104.585 422.269 105.161 424.347 104.167C426.055 103.372 423.372 104.306 426.749 102.844C430.193 101.399 425.671 103.541 425.997 103.423C426.378 103.242 431.667 100.908 431.582 101.117C431.468 101.253 425.733 103.58 424.403 104.263C422.679 105.108 424.842 104.259 421.97 105.615C420.205 106.48 421.032 105.718 420.656 105.891C420.234 105.993 414.728 109.522 416.752 107.917C416.749 107.918 416.746 107.92 416.743 107.921ZM381.897 99.5351C381.671 99.4725 381.408 99.3963 381.095 99.3054C381.363 99.3766 381.63 99.4531 381.897 99.5351ZM126.673 100.363C128.342 101.145 123.23 99.1628 121.465 98.7127C121.427 98.5013 126.383 100.137 126.673 100.363ZM384.855 100.425C389.768 102.96 385.861 100.834 381.897 99.5351C383.17 99.9105 383.273 99.7059 384.855 100.425ZM225.381 114.82C225.6 115.048 225.759 115.233 225.741 115.296C225.086 114.636 225.115 114.603 225.381 114.82ZM245.574 109.258C247.205 108.172 246.151 108.701 244.935 109.514C243.931 110.178 242.529 111.513 242.576 111.555C242.638 111.535 244.246 110.121 245.015 109.631C245.315 109.425 245.543 109.28 245.574 109.258ZM346.419 103.584C346.277 103.62 346.872 103.379 347.42 103.148C348.116 102.85 348.711 102.574 347.371 102.985C346.604 103.226 345.174 103.675 343.047 104.451C347.996 102.994 342.774 104.652 342.913 104.674C343.022 104.704 345.02 104.082 347.48 103.351C349.857 102.632 352.483 101.921 353.438 101.713C354.626 101.192 349.795 102.556 347.46 103.285C347.009 103.42 346.651 103.524 346.43 103.58C346.426 103.581 346.423 103.583 346.419 103.584ZM477.035 104.585C476.096 104.247 473.298 102.978 471.209 102.384C471.067 102.341 470.929 102.299 470.794 102.258C470.915 102.282 471.057 102.314 471.218 102.351C472.455 102.582 475.216 103.643 477.035 104.585ZM21.1472 302.153C39.0434 304.764 41.282 305.659 24.9433 302.963C24.5877 302.905 20.062 302.044 21.1472 302.153ZM175.557 324.746C177.226 325.258 171.561 324.434 167.941 323.769C167.118 323.619 164.119 322.895 167.6 323.381C167.436 323.668 172.821 324.616 175.557 324.746ZM387.708 101.637C388.766 102.046 391.271 103.448 393.585 104.819C394.597 105.415 395.551 106 396.302 106.459C395.725 106.174 394.702 105.592 393.524 104.925C391.45 103.745 389.016 102.347 387.708 101.637ZM80.0734 310.732C81.9472 310.989 83.2718 310.932 82.943 310.872C81.4698 310.603 77.9577 310.337 80.0734 310.732ZM373.891 98.0648C373.775 98.0184 375.337 97.9238 376.829 98.0231C378.329 98.1074 379.74 98.4298 379.9 98.5958C378.873 98.2218 374.133 98.0566 373.891 98.0648ZM473.196 102.861C472.318 102.443 477.008 104.181 478.265 105.033C478.145 105.009 473.799 103.026 473.196 102.861ZM110.817 314.855C112.526 315.127 116.69 315.759 117.202 315.747C117.771 315.718 111.637 314.835 110.817 314.855ZM-8.76461 142.903C-8.66579 142.695 -10.0789 149.212 -10.92 152.066C-12.4989 157.45 -8.83702 143.124 -8.76461 142.903ZM62.1059 308.503C56.8038 307.575 62.6854 308.575 62.4942 308.324C58.9349 307.843 49.9408 306.588 56.0705 307.654C57.2988 307.865 60.4192 308.262 62.1059 308.503ZM67.0333 309.235C67.6042 309.238 71.5205 309.524 68.1638 309.099C66.6179 308.903 64.1399 308.828 67.0333 309.235ZM-19.3902 182.74C-20.8561 187.375 -14.9039 165.936 -14.7053 165.305C-14.5993 164.984 -14.5254 164.776 -14.4787 164.659C-14.3242 163.852 -13.2371 159.784 -12.9601 159.359C-13.2984 160.566 -14.1842 163.896 -14.3086 164.288C-14.3601 164.45 -14.4001 164.571 -14.4299 164.654C-14.6797 166.118 -19.1072 181.858 -19.3902 182.74ZM-29.3572 218.259C-28.1562 212.823 -27.4212 212.006 -27.5329 212.472C-28.9478 218.359 -28.249 214.46 -28.3135 214.63C-28.455 215.037 -29.4355 219.22 -29.3525 218.243C-29.3541 218.248 -29.3556 218.254 -29.3572 218.259ZM-21.4634 190.014C-21.4085 189.79 -20.1626 185.294 -20.1052 185.112C-18.9369 181.469 -22.461 194.189 -21.4634 190.014ZM441.13 98.0563C444.131 97.8057 441.17 98.2347 439.273 98.4731C439.125 98.5009 438.534 98.3408 441.13 98.0563ZM69.6813 309.534C70.2945 309.643 80.2001 310.999 85.6541 311.613C87.7547 311.851 89.1821 311.993 88.8468 311.869C88.5036 311.832 87.2839 311.673 85.6721 311.468C79.1644 310.655 65.9394 308.87 69.6813 309.534ZM216.126 331.11C212.66 330.616 216.483 330.899 218.291 331.25C218.965 331.382 216.99 331.233 216.126 331.11ZM364.945 98.666C361.602 99.3604 362.223 98.7649 365.165 98.4593C365.28 98.4484 365.076 98.6401 364.945 98.666ZM188.591 326.934C200.46 328.544 197.612 328.965 182.134 326.35C182.622 326.387 183.11 326.424 183.599 326.462C165.818 323.632 182.376 326.224 186.77 326.835C188.442 327.069 187.061 326.724 188.579 326.932C188.583 326.933 188.587 326.933 188.591 326.934ZM234.252 333.631C245.642 335.742 223.79 332.441 217.529 331.606C223.619 332.223 231.56 333.354 220.813 331.614C236.599 333.753 229.979 333.06 230.615 333.172C231.354 333.295 233.767 333.541 234.252 333.631ZM204.042 329.392C203.405 329.317 198.375 328.46 196.587 328.213C199.137 328.394 208.444 329.917 204.042 329.392ZM-39.9351 255.853C-39.932 255.355 -39.629 254.184 -38.4254 250.307C-38.711 251.549 -39.3729 254.026 -39.9351 255.853ZM114.581 97.2779C112.436 97.2859 107.677 98.2773 109.16 98.1303C109.368 98.0116 114.628 97.2585 114.581 97.2779ZM126.709 317.607C127.339 317.72 142.204 320.037 137.088 319.07C135.592 318.782 121.925 316.699 126.709 317.607ZM49.2341 306.867C50.5054 307.049 55.5437 307.717 55.6654 307.696C56.0182 307.618 49.8137 306.828 49.2341 306.867ZM102.628 99.6218C102.446 99.6666 100.224 100.379 98.2912 101.089C96.5761 101.713 95.1063 102.273 95.5175 102.162C96.0636 102.014 97.1593 101.633 98.3341 101.21C100.692 100.35 103.388 99.4238 102.628 99.6218ZM452.414 97.1301C453.01 97.1308 453.789 97.3388 453.992 97.3543C454.439 97.0078 465.471 99.3965 461.205 98.6431C460.8 98.5569 455.74 97.2727 451.063 97.4372C446.643 97.5019 442.811 97.7535 441.864 97.8624C440.95 97.6534 448.263 97.3849 450.238 97.3742C450.434 97.3664 450.587 97.2942 451.058 97.2232C451.341 97.1752 451.753 97.1289 452.409 97.131C452.41 97.1307 452.412 97.1304 452.414 97.1301ZM-34.1729 235.504C-34.1714 235.429 -34.1065 235.13 -33.99 234.651C-33.2159 231.46 -30.1983 220.363 -30.0922 220.559C-31.3653 225.24 -32.6582 229.982 -33.9422 234.664C-34.0201 234.948 -34.097 235.228 -34.1729 235.504ZM-36.2693 242.885C-37.2508 245.975 -35.2288 238.691 -34.5849 236.544C-34.4871 236.568 -36.125 242.439 -36.2693 242.885ZM77.4507 311.202C78.9733 311.361 74.3368 310.55 75.3867 310.642C76.0524 310.702 79.4286 311.215 80.4726 311.278C80.7738 311.295 77.4248 310.666 76.399 310.543C74.9837 310.373 76.3313 310.706 74.7952 310.51C69.776 309.866 65.2479 309.154 60.4592 308.51C60.0308 308.452 63.334 309.012 59.6882 308.518C59.1688 308.447 55.6952 307.809 51.3589 307.229C41.5568 306.377 34.6142 304.864 22.2759 303.148C22.7096 303.271 31.9309 304.808 32.4164 304.879C42.7036 306.522 61.0287 309.078 71.8651 310.471C74.5928 310.826 73.2836 310.545 74.468 310.694C75.4142 310.813 74.2479 310.869 77.4507 311.202ZM115.741 97.1325C114.717 96.8759 110.96 97.3681 108.371 98.006C109.335 97.9381 113.503 97.0194 115.741 97.1325ZM-36.4758 294.203C-34.8515 294.249 -30.1052 294.797 -29.7076 294.8C-29.1794 294.744 -36.0914 294.022 -36.4758 294.203ZM477.106 137.654C477.1 137.747 476.91 139.485 476.784 140.611C476.729 141.108 476.695 141.481 476.689 141.524C476.522 142.85 476.543 141.947 476.673 140.6C476.88 138.525 477.254 135.442 477.106 137.654ZM483.394 222.945C483.61 225.574 483.835 228.237 483.721 229.135C483.657 227.446 483.262 222.643 483.394 222.945ZM459.346 327.193C459.936 327.108 454.086 331.369 452.85 331.927C453.3 331.69 459.057 327.397 459.346 327.193ZM-40.7977 256.263C-39.0501 251.106 -39.8212 252.21 -38.7461 249.158C-38.5877 248.682 -37.4291 247.229 -39.2636 252.477C-39.6402 253.467 -38.4708 249.459 -40.7977 256.263ZM179.632 325.964C178.415 325.923 174.477 325.28 171.871 324.868C172.45 324.85 177.829 325.701 179.632 325.964ZM88.6418 104.428C86.3986 105.013 76.7248 109.041 79.1872 108.205C79.5069 108.063 87.2363 104.925 88.6418 104.428ZM398.526 107.072C401.68 108.856 396.991 105.871 393.935 104.208C393.238 103.826 392.631 103.505 392.184 103.284C392.5 103.459 393.131 103.822 393.9 104.27C395.753 105.345 398.332 106.963 398.526 107.072ZM474.439 307.097C474.392 307.288 472.427 311.128 472.305 311.265C470.569 314.31 476.063 303.512 474.439 307.097ZM481.059 195.457C481.389 197.126 482.433 208.07 482.509 210.496C482.139 208.215 480.683 193.403 481.059 195.457ZM-36.1682 271.635C-36.0655 270.288 -35.9598 268.827 -36.1728 266.944C-36.2987 266.01 -36.4598 264.914 -37.1568 263.428C-37.7581 262.06 -39.4081 260.078 -41.5321 259.295C-42.2573 258.999 -42.8351 258.652 -42.9794 258.508C-42.9484 258.475 -42.6234 258.754 -41.4982 259.209C-38.5558 260.294 -36.9205 263.239 -36.521 264.792C-36.0216 266.51 -36.0113 267.611 -35.9815 268.553C-35.9687 270.412 -36.1392 271.479 -36.1682 271.635ZM466.256 320.335C466.113 320.509 465.964 320.67 465.825 320.833C465.973 320.665 466.117 320.498 466.256 320.335ZM8.64478 301.227C11.4945 301.734 10.9582 301.442 10.771 301.405C8.63423 300.995 5.32307 300.636 8.64478 301.227ZM112.992 96.9922C112.156 96.8403 107.89 97.7469 105.31 98.4763C106.105 98.3595 111.128 97.122 112.992 96.9922ZM246.485 335.616C250.128 336.29 235.177 334.577 232.064 334.013C231.838 333.87 245.962 335.534 246.485 335.616ZM387.22 100.351C386.987 99.9778 381.974 98.0845 383.011 98.6052C383.613 98.7975 387.297 100.452 387.22 100.351ZM224.578 332.904C223.169 332.753 219.93 332.158 221.089 332.234C222.576 332.332 224.941 332.942 224.578 332.904ZM98.8827 314.134C99.5773 314.247 107.766 315.284 104.412 314.652C102.113 314.217 101.701 314.368 101.119 314.285C100.354 314.163 87.3232 312.112 98.8827 314.134ZM330.087 344.165C326.991 344.022 323.176 343.693 319.934 343.452C321.239 343.47 328.795 343.974 330.087 344.165ZM414.529 108.287C414.381 108.371 413.699 108.84 412.371 109.786C409.512 111.647 407.393 110.943 406.482 110.783C405.452 110.518 404.853 110.236 404.297 109.982C403.225 109.471 402.417 108.993 401.649 108.544C400.123 107.639 398.815 106.827 397.869 106.266C395.997 105.16 395.611 104.952 399.504 107.404C399.682 107.513 400.547 108.062 401.831 108.823C402.487 109.206 403.216 109.637 404.25 110.127C404.786 110.371 405.371 110.647 406.397 110.915C407.312 111.062 409.407 111.857 412.453 109.902C414.324 108.535 415.264 107.88 414.529 108.287ZM-40.7977 256.263C-41.0404 256.931 -41.3963 257.827 -41.8378 258.738C-41.4072 257.831 -41.0473 256.934 -40.7977 256.263ZM-34.3748 294.696C-35.5772 294.681 -29.5486 295.264 -27.8491 295.471C-27.2989 295.384 -34.1481 294.649 -34.3748 294.696ZM319.678 343.578C317.808 343.497 314.41 343.166 312.075 342.979C312.484 342.921 318.884 343.425 319.678 343.578ZM448.344 334.863C447.092 335.438 445.679 336.038 444.415 336.535C442.659 337.23 441.194 337.759 441.181 337.839C441.106 337.845 440.937 337.882 440.66 337.954C440.399 338.039 436.7 339.255 435.143 339.612C430.702 340.616 438.195 338.898 444.388 336.466C451.748 333.362 458.06 330.059 444.926 336.596C446.107 336.047 447.245 335.469 448.344 334.863ZM479.649 180.591C479.556 178.537 478.704 172.463 478.823 174.05C478.897 175.132 479.748 182.741 479.649 180.591ZM484.702 261.588C484.78 260.951 484.887 255.282 484.8 255.122C484.663 258.4 484.427 264.413 484.702 261.588ZM478.07 164.126C477.963 162.745 477.59 161.063 477.593 161.221C477.615 162.564 478.159 166.459 478.07 164.126ZM-43.4647 259.151C-43.3382 259.283 -42.7786 259.638 -41.8067 259.991C-39.5114 260.822 -37.973 263.019 -37.471 264.428C-36.9255 265.838 -36.8028 266.902 -36.7057 267.803C-36.5504 269.54 -36.6158 270.664 -36.5962 271.191C-36.6493 271.497 -36.7471 272.308 -36.9703 273.691C-36.9698 273.687 -36.9692 273.683 -36.9687 273.679C-36.8031 274.506 -40.3609 289.115 -38.5744 293.802C-38.3983 294.282 -38.2349 294.494 -38.1427 294.592C-38.0476 294.689 -37.982 294.728 -37.8598 294.785C-37.6165 294.899 -37.1968 294.957 -37.2134 294.936C-37.1771 294.926 -37.6687 294.821 -37.8882 294.652C-37.9967 294.554 -38.0207 294.579 -38.2339 294.174C-38.4377 293.773 -38.7487 292.769 -38.823 291.138C-38.818 290.261 -39.0705 291.602 -38.8896 287.851C-38.8698 287.597 -38.754 287.478 -38.6765 286.682C-38.6637 284.96 -36.615 274.405 -36.5626 271.511C-36.5403 271.491 -36.5054 271.323 -36.4628 270.966C-36.3796 270.172 -36.2769 268.951 -36.4813 267.176C-36.6047 266.275 -36.7644 265.208 -37.4327 263.766C-38.0025 262.431 -39.6713 260.445 -41.7091 259.744C-43.3926 259.177 -43.5679 258.995 -43.4647 259.151ZM483.81 272.8C483.988 271.685 484.288 268.07 484.212 267.685C484.041 269.493 483.419 275.403 483.81 272.8ZM413.823 108.285C413.402 108.558 412.862 108.948 412.142 109.463C409.514 111.18 407.566 110.574 406.72 110.445C405.77 110.223 405.226 109.985 404.735 109.78C403.784 109.364 403.166 109.026 402.657 108.762C401.669 108.238 401.245 108.026 401.88 108.439C402.14 108.602 402.748 108.974 403.734 109.48C404.241 109.733 404.811 110.024 405.755 110.345C406.248 110.502 406.83 110.69 407.815 110.775C408.737 110.85 410.523 110.802 412.232 109.59C413.934 108.317 414.872 107.616 413.823 108.285ZM484.746 236.432C485.03 249.93 484.86 239.654 485.066 241.717C484.974 239.956 484.866 238.195 484.746 236.432ZM-26.3741 204.461C-26.9877 206.566 -26.578 204 -25.7912 201.722C-25.5438 201.008 -26.0299 203.278 -26.3741 204.461ZM0.334603 110.407C-0.701461 111.987 3.36718 103.821 1.99463 107.096C1.92341 107.259 0.394161 110.305 0.334603 110.407ZM-18.6926 175.677C-18.9177 177.16 -19.1509 178.095 -20.2957 182.126C-18.7103 176.133 -20.3705 181.64 -18.6926 175.677ZM441.223 337.844C441.199 337.845 441.18 337.846 441.181 337.839C441.207 337.837 441.219 337.839 441.223 337.844ZM477.14 150.903C477.192 149.198 477.269 143.975 477.098 145.518C477.054 145.591 476.987 150.296 477.14 150.903ZM-36.5962 271.191C-36.5512 270.924 -36.5417 271.061 -36.5626 271.511C-36.5839 271.531 -36.5921 271.413 -36.5962 271.191ZM479.501 177.122C479.378 177.03 480.155 184.223 480.209 184.569C480.878 188.743 479.842 180.124 479.501 177.122ZM366.61 97.153C366.262 97.2095 368.57 97.1839 369.917 96.9631C370.97 96.7813 367.935 96.9114 366.61 97.153ZM-15.035 161.931C-14.4255 159.678 -13.5796 156.533 -13.2916 155.974C-13.718 157.486 -14.9521 162.003 -15.035 161.931ZM-1.1311 113.305C-1.99903 115.8 -4.07639 121.475 -5.18416 125.141C-5.48248 125.136 -2.11322 115.583 -1.1311 113.305ZM-42.977 259.941C-42.9883 259.961 -43.0942 260.202 -43.131 260.315C-43.1789 260.444 -43.1013 260.312 -43.1594 259.893C-43.2186 259.475 -43.4274 259.138 -43.4698 259.068C-43.5202 258.982 -43.4923 258.986 -43.4629 258.966C-43.4208 258.946 -43.2769 259.016 -43.1019 259.428C-42.9196 259.838 -42.9627 260.39 -42.9959 260.392C-43.0279 260.429 -42.9573 260.13 -42.9021 259.947C-42.845 259.752 -42.8578 259.714 -42.977 259.941ZM376.805 96.7813C378.896 96.8405 374.434 96.2024 371.688 96.6125C371.577 96.6264 371.468 96.6415 371.363 96.6576C371.028 96.7096 371.234 96.7211 371.694 96.718C373.111 96.6661 376.565 96.7376 376.805 96.7813ZM478.188 135.192C478.43 132.237 477.673 138.26 477.481 140.686C477.452 141.043 477.44 141.323 477.443 141.483C477.466 141.251 477.495 140.983 477.531 140.692C477.749 138.906 478.1 136.253 478.188 135.192ZM485.382 252.166C485.834 241.548 485.049 247.335 485.126 249.218C485.139 249.484 485.372 252.425 485.382 252.166ZM65.0845 114.699C64.0755 115.329 65.6637 114.491 66.7384 113.777C67.8784 113.039 69.0551 112.294 69.3028 112.063C69.5644 111.748 66.4195 113.814 65.0845 114.699ZM390.877 345.731C391.32 345.711 391.758 345.689 392.19 345.668C391.866 345.69 391.439 345.712 390.877 345.731ZM481.579 104.631C480.619 111.68 480.98 111.156 480.956 111.768C480.831 113.161 480.365 116.457 480.128 119.117C480.36 116.068 480.588 112.989 480.769 109.957C480.606 112.303 478.227 133.294 478.256 133.774C478.33 134.386 478.978 127.802 479.01 127.596C479.057 127.312 479.54 126.316 479.615 125.728C479.751 124.718 481.561 106.988 481.579 104.631ZM484.778 229.908C484.828 231.623 484.701 232.118 484.776 232.912C484.801 233.183 484.947 233.22 485.026 234.145C484.951 232.731 484.868 231.319 484.778 229.908ZM474.688 101.766C473.03 100.786 480.781 104.398 480.83 104.737C482.039 105.532 476.162 102.314 474.688 101.766ZM479.222 173.449C479.192 173.176 478.463 165.596 478.392 165.739C478.48 167.641 479.55 177.639 479.222 173.449ZM485.086 235.289C485.188 237.864 485.164 242.717 485.362 242.156C485.362 242.152 485.362 242.149 485.362 242.145C485.294 239.862 485.201 237.577 485.086 235.289ZM383.976 97.8997C380.268 96.3029 381.925 97.1281 385.289 98.6616C386.398 98.9882 384.582 98.1786 383.976 97.8997ZM370.939 96.1354C369.772 95.886 356.647 98.2717 358.694 98.1506C359.415 98.0017 366.903 96.5643 367.24 96.607C367.758 96.5701 365.426 97.0249 369.368 96.5493C369.13 96.4956 371.365 96.1189 370.939 96.1354ZM380.877 96.6935C377.056 95.6596 376.025 96.2589 379.018 96.5592C380.157 96.7236 381.408 96.8652 380.877 96.6935ZM397.11 104.635C396.559 104.285 395.649 103.72 394.574 103.093C392.83 102.075 390.711 100.894 389.039 100.126C390.837 101.082 392.663 102.125 394.516 103.195C396.275 104.209 398.007 105.264 399.793 106.363C400.256 106.541 398.348 105.42 397.101 104.629C397.104 104.631 397.107 104.633 397.11 104.635ZM9.89124 86.8681C9.09769 88.4547 9.4612 87.5446 10.0467 86.2081C10.0547 86.1915 10.0772 86.1409 10.0848 86.124C10.8476 84.3111 11.7867 81.8284 11.8816 81.6407C12.322 80.7608 11.1392 84.1581 10.2218 86.1843C10.2139 86.2017 10.1905 86.2542 10.1823 86.2714C10.0788 86.4862 9.97842 86.6944 9.89124 86.8681ZM37.2007 96.367C36.2316 95.9385 35.6509 95.5115 33.4398 94.7996C34.8629 95.411 36.2783 96.0494 37.6987 96.691C38.4247 97.0187 39.1194 97.3464 39.8224 97.6908C41.3457 98.0573 39.0812 97.1225 37.7371 96.5915C37.5278 96.5071 37.3429 96.4304 37.2007 96.367ZM29.1379 92.3426C29.4529 92.4468 27.8687 91.4108 31.8661 93.0462C33.9061 93.996 25.7108 90.8529 20.1614 90.9366C18.4583 90.9377 17.0659 91.2162 16.3976 91.289C17.3531 91.0747 18.6809 90.8163 20.1621 90.8126C23.4485 90.795 27.2473 91.814 29.1379 92.3426ZM1.64092 93.9192C1.44247 93.9241 7.11223 91.6793 7.81005 91.5137C11.3562 90.4205 2.6029 93.633 1.64092 93.9192ZM20.8372 88.894C20.5093 88.8734 20.293 88.8627 20.1728 88.8531C19.9958 88.8406 20.0123 88.8292 20.173 88.8193C20.9504 88.6892 25.0523 89.1242 26.4381 89.5481C26.6351 89.5928 21.348 88.7912 20.8372 88.894ZM-11.9525 119.656C-13.214 122.501 -13.3523 125.354 -12.076 120.771C-12.0145 120.555 -11.8974 119.536 -11.9525 119.656ZM7.05343 91.3491C9.79752 90.4828 3.80337 92.6398 2.05555 93.3467C1.85031 93.3107 6.62238 91.4546 7.05343 91.3491ZM-13.3374 121.504C-14.7619 125.398 -13.5882 124.221 -13.4214 123.734C-12.7548 121.716 -10.6902 114.767 -10.1923 113.364C-13.763 123.624 -12.5975 119.702 -13.3374 121.504ZM-17.6942 139.736C-18.5586 143.382 -16.0006 134.172 -15.7772 132.365C-16.2153 134.157 -17.4493 138.712 -17.6942 139.736ZM-23.7764 161.589C-24.3237 163.51 -25.9591 169.284 -26.1029 170.269C-25.5486 168.15 -23.8726 162.421 -23.7764 161.589ZM-25.3133 165.883C-26.2929 168.868 -26.031 169.72 -25.2206 166.194C-25.1885 166.055 -25.2741 165.773 -25.3133 165.883ZM-30.1237 182.885C-30.8511 184.827 -31.0267 187.215 -30.1331 183.996C-29.8681 183.038 -30.0453 182.68 -30.1237 182.885ZM-15.5764 126.274C-16.4222 129.193 -17.0239 132.966 -15.4198 126.798C-15.9442 129.012 -16.4129 131.145 -16.9107 133.301C-15.3175 127.519 -15.1684 126.114 -14.945 124.904C-14.864 124.46 -14.7724 124.032 -14.5827 123.405C-13.5741 120.138 -13.2675 120.525 -13.3666 121.208C-12.9503 119.298 -10.9905 113.248 -8.65898 107.723C-8.64618 107.692 -8.60412 107.6 -8.58991 107.57C-7.50981 105.283 -6.4605 103.066 -5.60681 101.246C-6.49814 103.037 -7.58215 105.209 -8.72832 107.503C-8.74312 107.535 -8.78696 107.631 -8.80029 107.663C-10.8643 112.298 -12.8152 117.516 -14.0165 121.254C-14.4185 122.494 -14.7265 123.735 -15.0242 124.882C-15.1158 125.234 -15.2049 125.572 -15.2965 125.901C-15.912 128.148 -15.5282 126.112 -15.5733 126.262C-15.5743 126.266 -15.5753 126.27 -15.5764 126.274ZM-36.2771 205.285C-38.0944 211.074 -36.6268 207.492 -35.7991 204.174C-35.7663 204.031 -36.2323 205.142 -36.2771 205.285ZM-1.16803 93.0708C6.91995 90.3127 0.232189 91.6188 18.2433 87.0804C10.2904 88.7321 17.7688 87.2943 16.2379 87.6868C14.9799 87.9537 10.701 89.047 13.2353 88.5535C9.7372 88.9796 -3.40562 94.3076 -4.03027 94.8224C-4.02478 94.8196 -4.01929 94.8169 -4.01379 94.8142C-4.38631 94.9867 -3.65805 94.0945 -1.16803 93.0708ZM-24.953 161.301C-26.0178 163.084 -25.3687 164.101 -26.858 167.808C-27.5162 172.537 -23.9326 157.536 -22.3501 152.768C-22.1557 152.181 -21.9937 151.756 -21.8693 151.527C-21.9893 151.97 -22.1048 152.396 -22.2151 152.804C-24.9051 162.723 -23.2889 157.371 -22.0556 152.847C-21.0287 149.07 -20.28 145.923 -22.3576 152.232C-18.8571 140.316 -21.4114 148.274 -21.0226 146.395C-20.6095 144.404 -18.7119 137.645 -19.0068 137.934C-19.0078 137.937 -19.0087 137.941 -19.0097 137.945C-20.0689 142.088 -21.1587 146.259 -22.2495 150.397C-21.3452 148.049 -21.8242 150.086 -22.5996 152.701C-23.122 154.46 -23.8055 156.57 -24.258 157.673C-24.4921 158.894 -24.7157 160.073 -24.953 161.301ZM-18.2906 137.926C-18.3917 138.307 -20.7178 147.391 -20.4737 146.805C-20.0875 145.632 -16.8211 132.791 -18.2906 137.926ZM-4.56852 98.4265C-5.91843 101.259 -8.03259 105.502 -8.82612 107.457C-8.84135 107.489 -8.88643 107.587 -8.90014 107.621C-8.95142 107.765 -8.99612 107.897 -9.03374 108.016C-8.98122 107.891 -8.92716 107.763 -8.87169 107.633C-8.85808 107.6 -8.81336 107.502 -8.79825 107.47C-7.32917 104.42 -5.17925 100.091 -4.56852 98.4265ZM-46.8166 267.982C-44.3674 268.91 -46.7818 268.296 -49.568 266.057C-50.9977 264.953 -52.2566 262.562 -52.355 261.198C-52.4523 260.532 -52.4414 260.16 -52.46 260.185C-52.4633 260.212 -52.5358 260.636 -52.3642 261.662C-52.432 261.829 -51.4902 264.67 -49.8731 265.946C-48.359 267.316 -46.934 267.906 -46.8166 267.982ZM-27.4193 170.714C-28.7268 174.863 -27.6605 173.028 -26.9504 169.875C-26.9094 169.693 -27.3584 170.52 -27.4193 170.714ZM5.1224 90.4777C5.34479 90.16 16.7343 86.3876 20.1841 86.8077C20.1926 86.8077 20.201 86.8078 20.2093 86.8078C20.2013 86.8085 20.1929 86.8091 20.1841 86.8098C17.661 86.336 4.80223 90.605 5.1224 90.4777ZM-2.4894 92.8824C-5.32222 97.8977 -8.23544 104.807 -9.28864 107.235C-9.30587 107.272 -9.35685 107.383 -9.37236 107.421C-9.52846 107.831 -9.63608 108.113 -9.69293 108.245C-10.0954 109.182 -9.67569 107.623 -9.76978 107.836C-10.0764 108.289 -13.8596 118.471 -13.9208 119.008C-14.0272 119.368 -13.1334 117.598 -13.7433 119.753C-13.1861 117.742 -11.3875 112.439 -9.26425 107.467C-9.24916 107.43 -9.19952 107.322 -9.18276 107.286C-6.70008 102.102 -4.30994 97.1293 -4.1018 96.6506C-3.79585 95.9438 -6.57187 101.068 -2.49429 92.8928C-2.49266 92.8893 -2.49103 92.8859 -2.4894 92.8824ZM-10.7169 110.594C-9.61192 108.118 -12.3755 115.195 -12.9695 116.934C-14.4209 120.759 -10.9378 110.883 -10.7169 110.594ZM-16.499 127.973C-16.7409 128.821 -18.6083 136.118 -18.6493 136.793C-17.5737 133.367 -15.9744 126.14 -16.499 127.973ZM-38.4503 209.613C-38.9557 211.514 -40.5052 216.725 -40.473 217.06C-39.9639 215.154 -38.4156 209.942 -38.4503 209.613ZM47.1449 94.069C43.9959 92.3486 51.4319 96.0587 53.3816 97.6682C53.484 97.7063 47.4443 94.1152 47.1449 94.069ZM-28.726 171.123C-29.0607 172.238 -35.2664 195.275 -36.1042 198.514C-35.1429 195.382 -28.9003 172.585 -28.6668 171.534C-28.5978 171.23 -28.6816 170.982 -28.726 171.123ZM-15.4252 121.074C-14.9176 118.846 -14.2286 117.513 -14.1358 117.244C-13.2352 114.587 -11.1504 109.162 -11.4518 110.413C-13.4432 114.943 -16.4234 125.501 -15.4252 121.074ZM-39.6748 211.03C-41.7666 218.858 -37.45 203.916 -38.1704 205.826C-38.2168 205.953 -39.4613 210.231 -39.6748 211.03ZM-28.0767 168.539C-27.8886 167.534 -25.7367 159.645 -23.7699 152.387C-22.2705 146.861 -20.8856 141.688 -20.4725 140.102C-21.0863 143.494 -21.9758 146.072 -23.1575 150.545C-23.4684 151.723 -23.2802 151.445 -23.3137 151.571C-23.4244 151.988 -23.503 152.264 -23.5589 152.444C-23.7736 153.128 -23.6431 152.327 -23.9173 153.342C-24.1335 154.175 -28.533 171.002 -28.0767 168.539ZM-15.1511 119.797C-14.9553 118.838 -12.4481 111.4 -10.5086 106.94C-10.4888 106.891 -10.4236 106.749 -10.4016 106.702C-9.52614 104.864 -8.89427 103.546 -8.81104 103.391C-7.96846 101.815 -8.85777 103.772 -10.2713 106.765C-10.2928 106.811 -10.3563 106.949 -10.3756 106.996C-12.4093 111.724 -14.938 119.1 -15.1511 119.797ZM-28.8784 170.59C-28.4974 168.026 -25.2025 156.651 -27.1743 164.515C-27.3669 165.279 -28.3499 168.39 -28.8784 170.59ZM-39.7284 210.122C-39.8407 210.498 -42.1522 218.635 -42.0957 218.794C-41.7311 217.626 -38.427 205.78 -39.7284 210.122ZM-38.8831 205.81C-38.9351 206.007 -38.2274 204.149 -39.3027 207.961C-39.3912 208.273 -39.7602 208.817 -41.0086 213.63C-41.2657 214.621 -41.5432 216.152 -41.5047 216.046C-39.8009 211.141 -36.2772 195.93 -38.8831 205.81ZM-15.2279 119.475C-15.5681 120.244 -15.211 118.237 -14.4872 116.562C-14.1739 115.846 -14.5153 117.265 -15.2279 119.475ZM-46.9694 235.891C-45.7998 231.138 -49.9861 245.914 -50.1881 246.631C-49.9433 246.224 -47.0782 236.365 -46.9694 235.891ZM55.107 97.4817C55.1034 97.479 55.0998 97.4764 55.0961 97.4738C58.8477 100.389 56.4206 98.7097 56.6037 98.8409C64.0524 105.605 61.8601 103.669 62.9916 104.606C63.6202 105.212 63.9249 105.531 64.1526 105.782C63.4542 105.073 61.5777 104.369 60.4476 104.522C59.3199 104.618 58.9826 104.895 58.9255 104.922C58.8646 105.011 59.7224 104.468 61.1656 103.411C59.3552 104.731 58.8252 105.077 58.9792 105.012C59.0338 104.999 59.1307 104.971 59.0962 104.993C59.0706 105.011 58.9795 105.06 58.9876 105.063C58.9719 105.138 60.7586 103.928 60.8729 103.928C61.132 103.9 60.7269 104.243 60.0422 104.722C59.7198 104.948 59.2721 105.233 59.1266 105.294C59.0874 105.324 59.0576 105.247 59.7839 105.062C60.1503 104.982 60.8084 104.886 61.6786 105.069C62.5427 105.24 63.3864 105.739 63.8284 106.144C62.1414 104.345 58.3064 100.1 56.2868 98.7437C55.7992 98.326 59.3614 101.56 58.0568 100.513C54.0346 96.7455 39.8815 88.0995 55.107 97.4817ZM-14.0458 115.231C-13.7895 114.245 -12.2599 110.081 -10.8174 106.809C-10.7964 106.758 -10.7273 106.607 -10.704 106.557C-9.25013 103.603 -8.09491 101.344 -8.85667 103.086C-8.93172 103.258 -9.63086 104.751 -10.528 106.642C-10.5506 106.69 -10.6174 106.835 -10.6377 106.885C-12.4346 111.074 -14.5599 117.155 -14.0458 115.231ZM443.713 349.493C440.666 350.588 446.399 348.935 448.852 347.892C449.313 347.706 449.681 347.546 449.901 347.439C450.163 347.311 449.657 347.485 448.808 347.779C447.355 348.285 444.732 349.129 443.713 349.493ZM487.872 308.6C489.557 304.408 490.417 299.856 488.706 305.048C488.541 305.579 487.613 309.052 487.872 308.6ZM226.402 345.664C230.681 346.453 230.467 346.042 227.317 345.618C226.196 345.467 226.267 345.638 226.402 345.664ZM392.382 357.639C392.775 357.644 397.992 357.332 397.776 357.249C395.86 357.332 389.543 357.679 392.382 357.639ZM225.022 345.528C227.594 345.813 223.217 344.938 220.065 344.766C221.65 344.966 224.757 345.499 225.022 345.528ZM-32.0368 179.004C-32.4548 181.124 -34.104 186.976 -35.0035 190.357C-35.2962 190.668 -32.6583 181.422 -32.0368 179.004ZM478.437 325.272C480.861 321.702 475.283 329.081 475.871 328.478C475.974 328.409 478.363 325.428 478.437 325.272ZM88.0387 325.121C90.8218 325.359 82.0889 324.076 84.4683 324.593C84.5651 324.612 87.8658 325.104 88.0387 325.121ZM48.7935 319.891C50.9539 320.24 60.127 321.478 56.592 320.878C55.9751 320.779 49.0261 319.816 48.7935 319.891ZM63.2516 104.664C62.9719 104.247 63.7239 104.982 64.3667 105.542C63.7937 104.971 62.3565 104.21 61.1297 104.148C59.9107 104.06 59.2872 104.312 59.0074 104.401C58.4728 104.618 58.7529 104.524 58.9675 104.376C59.4779 104.056 60.1618 103.592 60.393 103.448C60.5286 103.36 59.9441 103.833 59.3165 104.317C59.0342 104.544 58.6485 104.785 58.8735 104.69C59.0156 104.657 59.3397 104.432 60.4921 104.37C61.6442 104.247 63.568 105.035 64.205 105.723C63.8525 105.407 63.454 104.969 63.2516 104.664ZM254.398 349.354C256.634 349.608 262.426 350.355 263.459 350.366C260.721 350.069 253.69 349.052 254.398 349.354ZM464.548 339.399C467.809 337.372 472.463 332.757 471.093 333.674C465.797 338.535 472.115 333.506 464.548 339.399ZM210.642 343.753C212.43 344.026 213.848 343.943 213.646 343.901C211.717 343.5 208.879 343.39 210.642 343.753ZM345.51 357.568C345.591 357.697 351.474 357.875 350.687 357.765C350.443 357.734 345.406 357.47 345.51 357.568ZM-52.3188 251.318C-53.168 253.589 -50.9898 246.473 -50.2262 244.112C-49.722 243.078 -52.2013 251.214 -52.3188 251.318ZM161.244 336.282C160.991 336.425 169.858 337.689 166.392 337.006C165.54 336.837 161.357 336.24 161.244 336.282ZM76.0755 323.973C82.0958 324.545 56.9005 321.107 63.4923 322.234C63.9218 322.317 75.5051 323.925 76.0755 323.973ZM34.8867 318.201C35.8873 318.371 35.3802 318.906 31.058 318.03C30.4942 317.916 33.1714 318.154 32.7147 318.049C32.408 317.989 23.1556 316.507 22.7152 316.448C22.2448 316.392 22.7662 316.666 22.2888 316.614C21.7394 316.556 16.0629 315.504 13.0539 315.02C7.42634 314.118 6.77597 314.168 6.33114 314.097C4.93359 313.871 2.73487 313.397 -0.0137227 312.942C-10.9503 311.221 -26.796 308.175 -37.2362 307.409C-41.8068 307.518 -47.8252 303.637 -49.2712 299.771C-47.3168 304.423 -41.0941 307.409 -37.2311 307.313C-30.8383 307.69 -24.0243 308.752 -17.0162 309.85C-19.8551 309.711 -2.8476 311.951 -12.8149 310.676C-8.26254 311.429 31.4724 317.743 34.8753 318.199C34.8791 318.2 34.8829 318.2 34.8867 318.201ZM493.283 291.983C492.974 294.672 495.699 281.149 495.464 279.973C495.267 281.741 493.418 291.686 493.283 291.983ZM457.05 345.233C455.886 345.846 455.155 346.868 449.322 349.094C448.994 349.214 448.647 349.337 448.281 349.462C448.275 349.464 448.27 349.466 448.264 349.469C446.384 350.103 448.469 349.226 448.116 349.32C448.015 349.377 442.039 351.231 446.925 349.497C447.904 349.136 448.622 348.861 449.152 348.66C452.864 347.194 448.192 349.402 451.745 347.918C452.31 347.811 459.558 343.797 459.086 343.894C459.048 343.923 456.864 345.207 456.472 345.377C455.081 346.021 455.684 345.562 455.49 345.657C455.185 345.805 452.398 347.288 449.123 348.586C445.897 349.896 442.095 351.072 441.144 351.246C440.838 351.302 444.913 350.108 449.065 348.436C454.584 346.319 460.257 342.807 460.648 342.545C461.105 342.279 461.103 342.691 461.583 342.422C461.874 342.419 468.835 337.035 469.576 336.194C469.828 335.98 470.021 335.817 470.163 335.698C469.181 336.566 474.772 331.016 474.622 331.206C474.606 331.375 470.795 335.241 470.603 335.334C470.539 335.39 470.481 335.437 470.428 335.482C470.879 335.149 467.777 338.145 464.545 340.509C461.347 342.901 458.223 344.677 459.99 343.76C455.384 346.552 460.536 343.161 457.05 345.233ZM433.827 353.739C434.337 353.583 434.844 353.425 435.347 353.265C426.909 355.432 416.789 356.771 407.155 357.655C404.636 357.882 407.565 357.85 404.236 358.074C401.663 358.24 398.792 358.219 400.193 358.078C400.524 358.052 405.812 357.788 408.517 357.495C416.304 356.64 414.305 356.609 414.766 356.566C415.298 356.505 420.331 355.974 422.946 355.523C429.83 354.302 432.912 353.719 442.148 351.189C436.86 352.85 439.941 352.321 433.827 353.739ZM123.527 330.98C123.185 331.048 117.935 330.137 115.903 329.848C116.252 329.778 121.607 330.702 123.527 330.98ZM281.429 88.2471C279.783 87.9008 292.828 91.3835 289.427 90.3231C288.739 90.0545 283.296 88.5396 281.429 88.2471ZM321.784 99.907C323.206 98.7928 317.266 102.965 317.375 103.163C317.411 103.148 321.597 100.008 321.784 99.907ZM324.645 357.294C324.332 357.281 319.657 356.9 319.537 356.879C316.462 356.456 331.756 357.65 324.645 357.294ZM394.114 88.6785C389.511 86.4141 399.592 91.7457 400.695 92.4147C400.881 92.5107 400.907 92.5119 400.713 92.3834C400.576 92.2929 400.327 92.1364 399.952 91.9073C399.758 91.7662 394.456 88.8053 394.114 88.6785ZM407.659 96.6027C407.119 96.9537 405.593 98.0243 404.562 98.7611C406.63 97.3319 408.451 97.4953 409.065 97.552C409.769 97.6411 409.942 97.7332 410.043 97.7605C410.202 97.8208 409.969 97.7259 409.778 97.6247C409.357 97.408 408.925 97.1631 408.908 97.1741C408.859 97.1756 409.274 97.4491 409.704 97.6934C409.9 97.809 410.147 97.9203 410.015 97.8724C409.927 97.8512 409.773 97.7654 409.094 97.6741C408.506 97.6178 406.704 97.4277 404.629 98.8562C405.78 98.019 407.427 96.8333 407.659 96.6027ZM209.328 344.318C209.95 344.634 201.898 343.303 199.046 342.909C198.431 342.595 206.485 343.942 209.328 344.318ZM260.734 351.308C226.32 347.168 233.944 347.7 262.797 351.445C262.822 351.592 262.908 351.557 260.734 351.308ZM216.743 345.512C218.004 345.546 221.887 346.132 224.528 346.506C224.037 346.54 218.634 345.754 216.743 345.512ZM264.624 87.6517C266.217 87.3873 271.172 87.2355 273.672 87.2468C275.397 87.2431 276.246 87.3705 275.507 87.3548C275.396 87.3562 274.723 87.324 273.675 87.3527C270.808 87.3998 263.997 87.7412 264.624 87.6517ZM321.707 357.277C322.462 357.559 312.124 356.68 311.309 356.551C308.122 356.103 320.843 357.283 321.707 357.277ZM160.754 337.225C158.88 337.107 153.817 336.234 150.5 335.716C152.074 335.814 157.895 336.78 160.754 337.225ZM184.63 341.009C184.415 340.984 179.796 340.271 179.597 340.232C175.836 339.496 188.907 341.513 184.63 341.009ZM50.4291 92.5701C50.5829 92.6094 54.1046 94.7651 54.2019 94.8824C55.687 95.9956 53.8796 94.7521 52.0849 93.6697C50.3046 92.5899 48.5634 91.6377 50.4291 92.5701Z" fill="#A5DED6"/>
</g>
</svg>
