<svg width="1280" height="20" viewBox="0 0 1280 20" fill="none" xmlns="http://www.w3.org/2000/svg">
<g clip-path="url(#clip0_155_355)">
<path d="M1225.77 2.01182C1227.33 1.91587 1229.53 2.43469 1231.37 2.46202C1239.09 2.58199 1241.95 2.94164 1248.93 3.14561C1259.28 3.44859 1290 2.76669 1290 6.3711C1290 6.37119 1290 6.37128 1290 6.37137C1290 6.40671 1290 6.44246 1289.99 6.47863C1289.88 7.1653 1287.27 7.91493 1286.88 8.69153C1286.5 9.46841 1286.79 14.4838 1283.07 14.7658C1277.69 15.1373 1264.79 13.8513 1261.92 13.9083C1259.95 13.9476 1257.54 14.4035 1255.03 14.4845C1246.94 14.7454 1242.71 14.412 1235.42 15.6505C1232.51 14.9979 1229.59 14.3452 1226.68 13.6925C1222.87 13.9951 1217.11 13.1344 1214.8 13.1818C1212.9 13.2208 1211.79 13.7369 1209.81 13.7609C1207.6 13.7907 1204.2 13.2336 1200.17 13.3175C1193.56 13.4525 1192.38 14.7989 1188.42 14.9699C1184.31 15.1468 1177.91 14.415 1172.67 14.8888C1172.01 15.0369 1171.35 15.185 1170.69 15.3331C1171.16 15.6681 1171.63 16.0031 1172.11 16.338C1169.46 16.494 1168.33 15.8075 1165.9 15.7951C1163.04 15.7801 1161.58 16.4309 1159.66 16.4279C1158.09 16.4248 1155.95 15.903 1153.91 15.9357C1150.93 15.9807 1151.58 16.7342 1149.98 16.8751C1149.34 16.9299 1137.53 17.3457 1136.86 17.3517C1131.79 17.3814 1131.35 16.3501 1127.31 16.2599C1116.09 16.0139 1104.58 16.8473 1094.21 17.1622C1089.58 17.3031 1084.74 17.2432 1080.13 17.0783C1087.4 14.4388 1071.3 12.3846 1077.32 16.5148C1072.18 15.9272 1068.54 17.0422 1063.67 16.8537C1060.52 16.7307 1058.34 16.158 1053.84 16.173C1045.86 16.2033 1037.13 17.8311 1034.83 14.8888C1025.46 15.4075 1017.34 14.3402 1013.97 16.9376C1011.55 17.0963 1005.36 15.5492 1002.65 15.339C1000.09 15.141 980.42 14.4424 977.202 14.4035C973.985 14.3645 968.353 14.3221 965.644 14.5499C962.24 14.8319 959.861 17.5256 953.8 14.3761C946.753 14.631 944.243 14.5408 937.689 14.1749C936.502 14.1088 936.368 13.6412 935.675 13.6408C934.247 13.6408 931.818 13.9863 929.269 14.0285C925.077 14.0974 922.685 13.1136 923.152 14.6163C920.389 14.8683 917.625 15.1203 914.862 15.3722C913.892 15.0822 912.923 14.7921 911.953 14.5021C910.476 14.8182 908.998 15.1342 907.521 15.4503C909.256 13.2757 898.857 14.559 902.233 15.8068C896.876 15.3569 891.519 14.907 886.162 14.4572C886.91 11.9857 874.4 14.1719 875.453 15.5158C874.84 15.5138 874.227 15.5119 873.614 15.5099C868.248 14.853 863.32 15.3903 856.778 14.9494C850.238 14.5084 850.852 14.2678 848.863 13.131C847.324 13.1961 845.784 13.2612 844.245 13.3263C836.169 16.4428 837.596 11.047 823.766 13.4376C819.348 11.4789 808.456 12.5078 801.234 13.1017C800.393 13.1707 800.379 13.5509 799.26 13.6681C796.524 13.95 789.541 13.4613 789.78 14.6876C787.363 14.3328 784.946 13.978 782.529 13.6232C780.553 13.8462 778.578 14.0691 776.602 14.2921C776.612 14.6749 776.622 15.0578 776.632 15.4406C772.654 14.1359 766.403 14.6373 763.32 14.3253C762.706 14.2621 762.573 13.734 760.666 13.59C758.437 13.419 754.283 13.5753 751.626 13.4103C750.593 13.9952 749.56 14.5802 748.528 15.1652C743.777 15.4825 742.107 13.9385 739.318 13.8185C738.815 13.7976 729.652 13.9086 729.158 13.9415C725.116 14.2028 726.261 15.5182 714.571 15.2365C712.49 15.1855 710.806 14.7303 708.924 14.712C705.6 14.6791 695.585 15.7113 694.797 16.6652C690.766 15.4714 679.979 15.9593 676.802 15.6144C675.843 15.5083 675.626 14.7479 672.679 14.5861C670.29 14.4541 664.136 15.063 661.105 14.9611C657.889 14.8501 656.74 14.2113 655.299 14.1661C653.937 14.1242 652.682 14.6398 650.826 14.6369C645.034 14.6189 639.788 13.7888 635.21 13.7736C628.589 13.7496 622.74 15.2763 617.2 15.9542C615.825 15.8553 614.474 15.5275 613.032 15.5245C595.198 15.4765 575.08 15.1952 557.193 14.8683C548.888 14.7181 528.239 12.6457 533.75 16.1037C530.865 16.7092 509.882 15.3151 505.891 15.2941C501.9 15.2733 498.738 15.8933 495.601 15.9025C486.137 15.9295 479.472 15.4827 467.951 16.0226C464.976 16.1638 461.788 16.8983 460.026 16.8898C457.903 16.8778 455.619 16.1673 452.87 16.1222C446.316 16.0202 434.101 16.2539 427.813 16.131C426.665 16.107 426.262 15.4832 424.62 15.2882C418.226 14.5264 411.059 14.5925 412.327 16.5841C404.131 15.4534 396.55 16.4848 388.955 16.548C372.895 16.677 343.642 16.2121 329.652 17.049C320.831 17.5769 321.057 18.4702 308.069 17.6994C305.186 17.5284 302.316 17.2978 298.819 17.0939C290.623 16.614 283.103 14.9638 276.856 16.9523C267.753 16.4366 260.503 16.8023 253.749 15.1017C252.952 15.5096 252.156 15.9175 251.36 16.3253C250.244 16.3354 249.128 16.3455 248.012 16.3556C247.664 15.9666 247.315 15.5776 246.967 15.1886C238.972 15.0839 228.829 16.6827 222.061 16.671C210.714 16.653 181.489 16.0319 170.729 15.507C165.017 15.2282 164.71 16.0614 161.439 14.3488C160.162 14.4679 158.884 14.587 157.606 14.7062C156.807 15.0812 156.007 15.4562 155.208 15.8312C147.879 15.8462 139.187 15.2637 132.205 15.2697C119.483 15.2817 100.38 16.3138 87.6047 15.6359C84.4014 15.4649 80.3972 14.6916 77.2603 14.7003C72.6949 14.7123 71.5852 15.9957 65.7916 16.0197C55.8063 16.0587 37.2104 14.5678 27.7724 14.6818C24.9692 14.7148 23.6614 15.1923 21.7258 15.2433C13.6094 15.4623 6.94578 15.4234 -0.836882 16.1613C-9.19343 14.9315 -8.47153 13.3441 -11.0613 11.7423C-13.0239 10.5334 -19.0421 7.73175 -19.8964 6.67297C-20.4965 5.92911 -18.256 4.97223 -19.0969 4.15343C-9.085 3.49955 -4.87882 4.21939 3.25088 5.37121C18.2643 5.32531 33.2778 5.27941 48.2912 5.23351C49.6571 5.68045 51.0231 6.12739 52.389 6.57433C52.389 6.57531 52.389 6.57629 52.389 6.57726C58.1546 7.09306 60.5983 5.94205 63.7078 5.68078C93.4768 3.17915 152.069 5.1371 184.841 5.41906C191.904 5.47902 214.877 4.87677 219.722 5.60265C220.977 5.7917 221.326 6.48086 222.661 6.51086C234.586 6.10102 246.511 5.69119 258.436 5.28136C282.959 6.35219 308.311 5.46782 333.02 5.30285C399.873 4.85592 466.058 4.31268 531.816 4.47765C544.525 4.51064 560.652 3.99431 573.094 4.32726C578.286 4.4653 580.45 5.57203 587.271 4.74718C587.343 5.04536 587.414 5.34354 587.486 5.64171C593.439 5.28174 597.243 4.60327 603.917 4.53429C609.537 4.4773 624.406 4.43302 629.373 4.54698C631.949 4.60397 630.989 5.16114 633.391 5.15831C637.502 5.14932 646.287 4.37904 651.961 4.37902C657.1 4.37902 665.765 5.02083 669.716 4.92785C683.946 4.59789 699.446 3.64651 714.611 3.90147C718.8 3.97361 724.188 4.69605 725.5 4.67589C728.063 4.63391 728.826 3.93213 730.547 3.8419C739.291 3.386 752.92 4.21995 761.491 4.25304C789.417 4.36102 819.002 4.05472 846.809 4.1837C864.376 4.26468 893.57 4.14118 909.789 4.66905C913.287 4.78304 912.354 5.55187 915.291 5.55187C918.547 5.5517 920.311 5.03233 921.833 4.99035C932.366 4.69638 955.619 4.17137 965.564 4.70226C967.458 4.80419 968.832 5.4066 969.966 5.40441C970.54 5.40441 971.837 4.99331 973.639 4.95128C989.552 4.57934 1001.15 4.81909 1016.75 4.96007C1046.61 5.227 1081.21 4.46219 1112.58 4.87609C1119.41 4.96607 1124.1 6.15762 1125.06 6.14562C1127.17 6.12159 1128.52 5.32015 1132.79 5.12218C1147 4.47148 1166.12 5.32669 1179.63 4.92492C1186.31 4.72697 1195.48 3.7096 1202.04 3.48448C1207.29 3.30453 1219.68 3.70361 1222 3.25694C1223.42 2.98708 1224.07 2.12033 1225.77 2.01182ZM1049.05 15.504C1049.98 14.1183 1040.16 15.2699 1043.85 16.0138C1044.68 16.1813 1048.81 15.8638 1049.05 15.504ZM589.165 13.0978C589.255 13.4936 589.345 13.8895 589.435 14.2853C590.724 14.1206 592.013 13.9559 593.303 13.7911C592.578 13.5532 591.854 13.3152 591.129 13.0773C590.474 13.0841 589.82 13.091 589.165 13.0978Z" fill="currentColor"/>
</g>
<defs>
<clipPath id="clip0_155_355">
<rect width="1280" height="20" fill="white"/>
</clipPath>
</defs>
</svg>
