<svg width="1280" height="106" viewBox="0 0 1280 106" fill="none" xmlns="http://www.w3.org/2000/svg">
<g clip-path="url(#clip0_153_228)">
<mask id="path-1-outside-1_153_228" maskUnits="userSpaceOnUse" x="0" y="0.896484" width="1280" height="136" fill="black">
<rect fill="white" y="0.896484" width="1280" height="136"/>
<path fill-rule="evenodd" clip-rule="evenodd" d="M1 135H27.6207V55.1379H67.5518V135H80.8621H94.1725V41.8276H80.8621V28.5172H40.9311V41.8276H27.6207V1.89648H1V135ZM227.345 28.5172V41.8276H214.035V121.69H227.345V135H293.897V121.69H307.208V95.069H280.587V108.379H240.656V55.1379H280.587V68.4483H307.208V55.1379V41.8276H293.897V28.5172H227.345ZM320.553 1.89648V135H347.173V81.7586H360.484V95.069H373.794V135H400.415V95.069H387.104V81.7586H373.794V68.4483H387.104V55.1379H400.415V28.5172H373.794V55.1379H360.484V68.4483H347.173V1.89648H320.553ZM480.173 28.5172V41.8276H466.863V121.69H480.173V135H546.725V121.69H560.035V95.069H533.414V108.379H493.483V55.1379H533.414V68.4483H560.035V41.8276H546.725V28.5172H480.173ZM573.38 1.89648V135H600.001V1.89648H573.38ZM706.588 28.5172H679.967V108.379H640.036V28.5172H613.415V121.69H626.725V135H666.657V121.69H679.967V135H706.588V28.5172ZM719.933 135H799.795V121.69H813.105V41.8276H799.795V28.5172H759.864V41.8276H746.553V1.89648H719.933V135ZM746.553 55.1379H786.484V108.379H746.553V55.1379ZM892.898 15.2068H879.588V41.8276H906.208V28.5172H946.139V41.8276H932.829V55.1379H919.519V68.4483H906.208V81.7586H892.898V95.069H879.588V135H972.76V108.379H919.519V95.069H932.829V81.7586H946.139V68.4483H959.45V55.1379H972.76V15.2068H959.45V1.89648H892.898V15.2068ZM999.415 1.89648V15.2068H986.105V121.69H999.415V135H1052.66V121.69H1065.97V15.2068H1052.66V1.89648H999.415ZM1012.73 28.5172H1039.35V108.379H1012.73V28.5172ZM1092.59 15.2068H1079.28V41.8276H1105.9V28.5172H1145.83V41.8276H1132.52V55.1379H1119.21V68.4483H1105.9V81.7586H1092.59V95.069H1079.28V135H1172.45V108.379H1119.21V95.069H1132.52V81.7586H1145.83V68.4483H1159.14V55.1379H1172.45V15.2068H1159.14V1.89648H1092.59V15.2068ZM1199.11 1.89648V15.2068H1185.8V121.69H1199.11V135H1265.66V121.69H1278.97V68.4483H1265.66V55.1379H1212.42V28.5172H1252.35V41.8276H1278.97V15.2068H1265.66V1.89648H1199.11ZM1212.42 81.7586H1252.35V108.379H1212.42V81.7586Z"/>
<path fill-rule="evenodd" clip-rule="evenodd" d="M120.828 81.7586H107.518V121.69H120.828V135H160.759V121.69H174.069V135H200.69V41.8276H187.38V28.5172H120.828V41.8276H107.518V55.1379H174.069V68.4483H120.828V81.7586ZM134.138 95.069V108.379H174.069V95.069H134.138Z"/>
</mask>
<path fill-rule="evenodd" clip-rule="evenodd" d="M1 135H27.6207V55.1379H67.5518V135H80.8621H94.1725V41.8276H80.8621V28.5172H40.9311V41.8276H27.6207V1.89648H1V135ZM227.345 28.5172V41.8276H214.035V121.69H227.345V135H293.897V121.69H307.208V95.069H280.587V108.379H240.656V55.1379H280.587V68.4483H307.208V55.1379V41.8276H293.897V28.5172H227.345ZM320.553 1.89648V135H347.173V81.7586H360.484V95.069H373.794V135H400.415V95.069H387.104V81.7586H373.794V68.4483H387.104V55.1379H400.415V28.5172H373.794V55.1379H360.484V68.4483H347.173V1.89648H320.553ZM480.173 28.5172V41.8276H466.863V121.69H480.173V135H546.725V121.69H560.035V95.069H533.414V108.379H493.483V55.1379H533.414V68.4483H560.035V41.8276H546.725V28.5172H480.173ZM573.38 1.89648V135H600.001V1.89648H573.38ZM706.588 28.5172H679.967V108.379H640.036V28.5172H613.415V121.69H626.725V135H666.657V121.69H679.967V135H706.588V28.5172ZM719.933 135H799.795V121.69H813.105V41.8276H799.795V28.5172H759.864V41.8276H746.553V1.89648H719.933V135ZM746.553 55.1379H786.484V108.379H746.553V55.1379ZM892.898 15.2068H879.588V41.8276H906.208V28.5172H946.139V41.8276H932.829V55.1379H919.519V68.4483H906.208V81.7586H892.898V95.069H879.588V135H972.76V108.379H919.519V95.069H932.829V81.7586H946.139V68.4483H959.45V55.1379H972.76V15.2068H959.45V1.89648H892.898V15.2068ZM999.415 1.89648V15.2068H986.105V121.69H999.415V135H1052.66V121.69H1065.97V15.2068H1052.66V1.89648H999.415ZM1012.73 28.5172H1039.35V108.379H1012.73V28.5172ZM1092.59 15.2068H1079.28V41.8276H1105.9V28.5172H1145.83V41.8276H1132.52V55.1379H1119.21V68.4483H1105.9V81.7586H1092.59V95.069H1079.28V135H1172.45V108.379H1119.21V95.069H1132.52V81.7586H1145.83V68.4483H1159.14V55.1379H1172.45V15.2068H1159.14V1.89648H1092.59V15.2068ZM1199.11 1.89648V15.2068H1185.8V121.69H1199.11V135H1265.66V121.69H1278.97V68.4483H1265.66V55.1379H1212.42V28.5172H1252.35V41.8276H1278.97V15.2068H1265.66V1.89648H1199.11ZM1212.42 81.7586H1252.35V108.379H1212.42V81.7586Z" stroke="black" stroke-width="2" mask="url(#path-1-outside-1_153_228)"/>
<path fill-rule="evenodd" clip-rule="evenodd" d="M120.828 81.7586H107.518V121.69H120.828V135H160.759V121.69H174.069V135H200.69V41.8276H187.38V28.5172H120.828V41.8276H107.518V55.1379H174.069V68.4483H120.828V81.7586ZM134.138 95.069V108.379H174.069V95.069H134.138Z" stroke="black" stroke-width="2" mask="url(#path-1-outside-1_153_228)"/>
</g>
<defs>
<clipPath id="clip0_153_228">
<rect width="1280" height="106" fill="white"/>
</clipPath>
</defs>
</svg>
