<svg width="1280" height="106" viewBox="0 0 1280 106" fill="none" xmlns="http://www.w3.org/2000/svg">
<g clip-path="url(#clip0_141_5)">
<path d="M1 41.875H14.4464V55.3214H1V41.875ZM1 28.4286H14.4464V41.875H1V28.4286ZM14.4464 28.4286H27.8929V41.875H14.4464V28.4286ZM14.4464 41.875H27.8929V55.3214H14.4464V41.875ZM14.4464 55.3214H27.8929V68.7679H14.4464V55.3214ZM14.4464 68.7679H27.8929V82.2143H14.4464V68.7679ZM14.4464 82.2143H27.8929V95.6607H14.4464V82.2143ZM1 82.2143H14.4464V95.6607H1V82.2143ZM1 68.7679H14.4464V82.2143H1V68.7679ZM1 55.3214H14.4464V68.7679H1V55.3214ZM1 95.6607H14.4464V109.107H1V95.6607ZM14.4464 95.6607H27.8929V109.107H14.4464V95.6607ZM14.4464 109.107H27.8929V122.554H14.4464V109.107ZM14.4464 122.554H27.8929V136H14.4464V122.554ZM1 122.554H14.4464V136H1V122.554ZM1 109.107H14.4464V122.554H1V109.107ZM68.2321 122.554H81.6786V136H68.2321V122.554ZM81.6786 122.554H95.125V136H81.6786V122.554ZM81.6786 109.107H95.125V122.554H81.6786V109.107ZM81.6786 95.6607H95.125V109.107H81.6786V95.6607ZM81.6786 82.2143H95.125V95.6607H81.6786V82.2143ZM81.6786 68.7679H95.125V82.2143H81.6786V68.7679ZM81.6786 55.3214H95.125V68.7679H81.6786V55.3214ZM81.6786 41.875H95.125V55.3214H81.6786V41.875ZM68.2321 68.7679H81.6786V82.2143H68.2321V68.7679ZM68.2321 82.2143H81.6786V95.6607H68.2321V82.2143ZM68.2321 95.6607H81.6786V109.107H68.2321V95.6607ZM68.2321 109.107H81.6786V122.554H68.2321V109.107ZM68.2321 55.3214H81.6786V68.7679H68.2321V55.3214ZM27.8929 41.875H41.3393V55.3214H27.8929V41.875ZM41.3393 41.875H54.7857V55.3214H41.3393V41.875ZM54.7857 41.875H68.2321V55.3214H54.7857V41.875ZM54.7857 28.4286H68.2321V41.875H54.7857V28.4286ZM68.2321 28.4286H81.6786V41.875H68.2321V28.4286ZM68.2321 41.875H81.6786V55.3214H68.2321V41.875ZM41.3393 28.4286H54.7857V41.875H41.3393V28.4286ZM1 1.53572H14.4464V14.9821H1V1.53572ZM14.4464 1.53572H27.8929V14.9821H14.4464V1.53572ZM14.4464 14.9821H27.8929V28.4286H14.4464V14.9821ZM1 14.9821H14.4464V28.4286H1V14.9821ZM189.285 136H175.839V122.554H189.285V136ZM189.285 122.554H175.839V109.107H189.285V122.554ZM175.839 122.554H162.392V109.107H175.839V122.554ZM162.392 136H148.946V122.554H162.392V136ZM148.946 136H135.499V122.554H148.946V136ZM135.499 136H122.053V122.554H135.499V136ZM135.499 122.554H122.053V109.107H135.499V122.554ZM148.946 122.554H135.499V109.107H148.946V122.554ZM122.053 122.554H108.606V109.107H122.053V122.554ZM122.053 109.107H108.606V95.6607H122.053V109.107ZM122.053 55.3214H108.606V41.875H122.053V55.3214ZM135.499 55.3214H122.053V41.875H135.499V55.3214ZM135.499 109.107H122.053V95.6607H135.499V109.107ZM148.946 55.3214H135.499V41.875H148.946V55.3214ZM135.499 41.875H122.053V28.4286H135.499V41.875ZM148.946 41.875H135.499V28.4286H148.946V41.875ZM162.392 41.875H148.946V28.4286H162.392V41.875ZM175.839 41.875H162.392V28.4286H175.839V41.875ZM189.285 41.875H175.839V28.4286H189.285V41.875ZM189.285 55.3214H175.839V41.875H189.285V55.3214ZM175.839 55.3214H162.392V41.875H175.839V55.3214ZM189.285 68.7679H175.839V55.3214H189.285V68.7679ZM202.731 55.3214H189.285V41.875H202.731V55.3214ZM202.731 68.7679H189.285V55.3214H202.731V68.7679ZM202.731 82.2143H189.285V68.7679H202.731V82.2143ZM202.731 95.6607H189.285V82.2143H202.731V95.6607ZM202.731 109.107H189.285V95.6607H202.731V109.107ZM202.731 122.554H189.285V109.107H202.731V122.554ZM189.285 109.107H175.839V95.6607H189.285V109.107ZM189.285 95.6607H175.839V82.2143H189.285V95.6607ZM189.285 82.2143H175.839V68.7679H189.285V82.2143ZM162.392 55.3214H148.946V41.875H162.392V55.3214ZM162.392 122.554H148.946V109.107H162.392V122.554ZM189.285 122.554H202.731V136H189.285V122.554ZM162.392 68.7679H175.839V82.2143H162.392V68.7679ZM148.946 68.7679H162.392V82.2143H148.946V68.7679ZM135.499 68.7679H148.946V82.2143H135.499V68.7679ZM122.053 68.7679H135.499V82.2143H122.053V68.7679ZM108.606 82.2143H122.053V95.6607H108.606V82.2143ZM122.053 82.2143H135.499V95.6607H122.053V82.2143ZM162.392 82.2143H175.839V95.6607H162.392V82.2143ZM148.946 82.2143H162.392V95.6607H148.946V82.2143ZM135.499 82.2143H148.946V95.6607H135.499V82.2143ZM243.106 28.4286H256.552V41.875H243.106V28.4286ZM229.659 28.4286H243.106V41.875H229.659V28.4286ZM229.659 41.875H243.106V55.3214H229.659V41.875ZM243.106 41.875H256.552V55.3214H243.106V41.875ZM256.552 28.4286H269.999V41.875H256.552V28.4286ZM269.999 28.4286H283.445V41.875H269.999V28.4286ZM283.445 28.4286H296.891V41.875H283.445V28.4286ZM283.445 41.875H296.891V55.3214H283.445V41.875ZM269.999 41.875H283.445V55.3214H269.999V41.875ZM296.891 41.875H310.338V55.3214H296.891V41.875ZM296.891 55.3214H310.338V68.7679H296.891V55.3214ZM296.891 95.6607H310.338V109.107H296.891V95.6607ZM296.891 109.107H310.338V122.554H296.891V109.107ZM283.445 109.107H296.891V122.554H283.445V109.107ZM283.445 95.6607H296.891V109.107H283.445V95.6607ZM283.445 55.3214H296.891V68.7679H283.445V55.3214ZM269.999 109.107H283.445V122.554H269.999V109.107ZM283.445 122.554H296.891V136H283.445V122.554ZM269.999 122.554H283.445V136H269.999V122.554ZM256.552 122.554H269.999V136H256.552V122.554ZM243.106 122.554H256.552V136H243.106V122.554ZM229.659 122.554H243.106V136H229.659V122.554ZM229.659 109.107H243.106V122.554H229.659V109.107ZM243.106 109.107H256.552V122.554H243.106V109.107ZM229.659 95.6607H243.106V109.107H229.659V95.6607ZM216.213 109.107H229.659V122.554H216.213V109.107ZM216.213 95.6607H229.659V109.107H216.213V95.6607ZM216.213 82.2143H229.659V95.6607H216.213V82.2143ZM216.213 68.7679H229.659V82.2143H216.213V68.7679ZM216.213 55.3214H229.659V68.7679H216.213V55.3214ZM216.213 41.875H229.659V55.3214H216.213V41.875ZM229.659 55.3214H243.106V68.7679H229.659V55.3214ZM229.659 68.7679H243.106V82.2143H229.659V68.7679ZM229.659 82.2143H243.106V95.6607H229.659V82.2143ZM256.552 109.107H269.999V122.554H256.552V109.107ZM256.552 41.875H269.999V55.3214H256.552V41.875ZM323.819 1.53572H337.266V14.9821H323.819V1.53572ZM337.266 1.53572H350.712V14.9821H337.266V1.53572ZM337.266 14.9821H350.712V28.4286H337.266V14.9821ZM337.266 28.4286H350.712V41.875H337.266V28.4286ZM337.266 41.875H350.712V55.3214H337.266V41.875ZM323.819 41.875H337.266V55.3214H323.819V41.875ZM323.819 28.4286H337.266V41.875H323.819V28.4286ZM323.819 14.9821H337.266V28.4286H323.819V14.9821ZM323.819 55.3214H337.266V68.7679H323.819V55.3214ZM323.819 68.7679H337.266V82.2143H323.819V68.7679ZM323.819 82.2143H337.266V95.6607H323.819V82.2143ZM323.819 95.6607H337.266V109.107H323.819V95.6607ZM323.819 109.107H337.266V122.554H323.819V109.107ZM323.819 122.554H337.266V136H323.819V122.554ZM337.266 122.554H350.712V136H337.266V122.554ZM337.266 109.107H350.712V122.554H337.266V109.107ZM337.266 95.6607H350.712V109.107H337.266V95.6607ZM337.266 82.2143H350.712V95.6607H337.266V82.2143ZM337.266 68.7679H350.712V82.2143H337.266V68.7679ZM337.266 55.3214H350.712V68.7679H337.266V55.3214ZM350.712 68.7679H364.159V82.2143H350.712V68.7679ZM364.159 68.7679H377.605V82.2143H364.159V68.7679ZM364.159 55.3214H377.605V68.7679H364.159V55.3214ZM377.605 55.3214H391.051V68.7679H377.605V55.3214ZM377.605 41.875H391.051V55.3214H377.605V41.875ZM377.605 28.4286H391.051V41.875H377.605V28.4286ZM391.051 28.4286H404.498V41.875H391.051V28.4286ZM391.051 41.875H404.498V55.3214H391.051V41.875ZM364.159 82.2143H377.605V95.6607H364.159V82.2143ZM377.605 82.2143H391.051V95.6607H377.605V82.2143ZM391.051 95.6607H404.498V109.107H391.051V95.6607ZM377.605 95.6607H391.051V109.107H377.605V95.6607ZM377.605 109.107H391.051V122.554H377.605V109.107ZM391.051 109.107H404.498V122.554H391.051V109.107ZM391.051 122.554H404.498V136H391.051V122.554ZM377.605 122.554H391.051V136H377.605V122.554ZM498.518 28.4286H511.964V41.875H498.518V28.4286ZM485.071 28.4286H498.518V41.875H485.071V28.4286ZM485.071 41.875H498.518V55.3214H485.071V41.875ZM498.518 41.875H511.964V55.3214H498.518V41.875ZM511.964 28.4286H525.411V41.875H511.964V28.4286ZM525.411 28.4286H538.857V41.875H525.411V28.4286ZM538.857 28.4286H552.304V41.875H538.857V28.4286ZM538.857 41.875H552.304V55.3214H538.857V41.875ZM525.411 41.875H538.857V55.3214H525.411V41.875ZM552.304 41.875H565.75V55.3214H552.304V41.875ZM552.304 55.3214H565.75V68.7679H552.304V55.3214ZM552.304 95.6607H565.75V109.107H552.304V95.6607ZM552.304 109.107H565.75V122.554H552.304V109.107ZM538.857 109.107H552.304V122.554H538.857V109.107ZM538.857 95.6607H552.304V109.107H538.857V95.6607ZM538.857 55.3214H552.304V68.7679H538.857V55.3214ZM525.411 109.107H538.857V122.554H525.411V109.107ZM538.857 122.554H552.304V136H538.857V122.554ZM525.411 122.554H538.857V136H525.411V122.554ZM511.964 122.554H525.411V136H511.964V122.554ZM498.518 122.554H511.964V136H498.518V122.554ZM485.071 122.554H498.518V136H485.071V122.554ZM485.071 109.107H498.518V122.554H485.071V109.107ZM498.518 109.107H511.964V122.554H498.518V109.107ZM485.071 95.6607H498.518V109.107H485.071V95.6607ZM471.625 109.107H485.071V122.554H471.625V109.107ZM471.625 95.6607H485.071V109.107H471.625V95.6607ZM471.625 82.2143H485.071V95.6607H471.625V82.2143ZM471.625 68.7679H485.071V82.2143H471.625V68.7679ZM471.625 55.3214H485.071V68.7679H471.625V55.3214ZM471.625 41.875H485.071V55.3214H471.625V41.875ZM485.071 55.3214H498.518V68.7679H485.071V55.3214ZM485.071 68.7679H498.518V82.2143H485.071V68.7679ZM485.071 82.2143H498.518V95.6607H485.071V82.2143ZM511.964 109.107H525.411V122.554H511.964V109.107ZM511.964 41.875H525.411V55.3214H511.964V41.875ZM579.231 1.53572H592.678V14.9821H579.231V1.53572ZM592.678 1.53572H606.124V14.9821H592.678V1.53572ZM592.678 14.9821H606.124V28.4286H592.678V14.9821ZM592.678 28.4286H606.124V41.875H592.678V28.4286ZM592.678 41.875H606.124V55.3214H592.678V41.875ZM592.678 55.3214H606.124V68.7679H592.678V55.3214ZM592.678 68.7679H606.124V82.2143H592.678V68.7679ZM579.231 68.7679H592.678V82.2143H579.231V68.7679ZM579.231 82.2143H592.678V95.6607H579.231V82.2143ZM579.231 95.6607H592.678V109.107H579.231V95.6607ZM579.231 109.107H592.678V122.554H579.231V109.107ZM579.231 122.554H592.678V136H579.231V122.554ZM592.678 122.554H606.124V136H592.678V122.554ZM592.678 109.107H606.124V122.554H592.678V109.107ZM592.678 95.6607H606.124V109.107H592.678V95.6607ZM592.678 82.2143H606.124V95.6607H592.678V82.2143ZM579.231 55.3214H592.678V68.7679H579.231V55.3214ZM579.231 41.875H592.678V55.3214H579.231V41.875ZM579.231 28.4286H592.678V41.875H579.231V28.4286ZM579.231 14.9821H592.678V28.4286H579.231V14.9821ZM713.801 122.554H700.354V109.107H713.801V122.554ZM713.801 136H700.354V122.554H713.801V136ZM700.354 136H686.908V122.554H700.354V136ZM700.354 122.554H686.908V109.107H700.354V122.554ZM700.354 109.107H686.908V95.6607H700.354V109.107ZM700.354 95.6607H686.908V82.2143H700.354V95.6607ZM700.354 82.2143H686.908V68.7679H700.354V82.2143ZM713.801 82.2143H700.354V68.7679H713.801V82.2143ZM713.801 95.6607H700.354V82.2143H713.801V95.6607ZM713.801 109.107H700.354V95.6607H713.801V109.107ZM713.801 68.7679H700.354V55.3214H713.801V68.7679ZM700.354 68.7679H686.908V55.3214H700.354V68.7679ZM700.354 55.3214H686.908V41.875H700.354V55.3214ZM700.354 41.875H686.908V28.4286H700.354V41.875ZM713.801 41.875H700.354V28.4286H713.801V41.875ZM713.801 55.3214H700.354V41.875H713.801V55.3214ZM646.569 41.875H633.122V28.4286H646.569V41.875ZM633.122 41.875H619.676V28.4286H633.122V41.875ZM633.122 55.3214H619.676V41.875H633.122V55.3214ZM633.122 68.7679H619.676V55.3214H633.122V68.7679ZM633.122 82.2143H619.676V68.7679H633.122V82.2143ZM633.122 95.6607H619.676V82.2143H633.122V95.6607ZM633.122 109.107H619.676V95.6607H633.122V109.107ZM633.122 122.554H619.676V109.107H633.122V122.554ZM646.569 95.6607H633.122V82.2143H646.569V95.6607ZM646.569 82.2143H633.122V68.7679H646.569V82.2143ZM646.569 68.7679H633.122V55.3214H646.569V68.7679ZM646.569 55.3214H633.122V41.875H646.569V55.3214ZM646.569 109.107H633.122V95.6607H646.569V109.107ZM686.908 122.554H673.461V109.107H686.908V122.554ZM673.461 122.554H660.015V109.107H673.461V122.554ZM660.015 122.554H646.569V109.107H660.015V122.554ZM660.015 136H646.569V122.554H660.015V136ZM646.569 136H633.122V122.554H646.569V136ZM646.569 122.554H633.122V109.107H646.569V122.554ZM673.461 136H660.015V122.554H673.461V136ZM727.282 41.875H740.729V55.3214H727.282V41.875ZM727.282 28.4286H740.729V41.875H727.282V28.4286ZM740.729 28.4286H754.175V41.875H740.729V28.4286ZM740.729 41.875H754.175V55.3214H740.729V41.875ZM740.729 55.3214H754.175V68.7679H740.729V55.3214ZM740.729 68.7679H754.175V82.2143H740.729V68.7679ZM740.729 82.2143H754.175V95.6607H740.729V82.2143ZM727.282 82.2143H740.729V95.6607H727.282V82.2143ZM727.282 68.7679H740.729V82.2143H727.282V68.7679ZM727.282 55.3214H740.729V68.7679H727.282V55.3214ZM727.282 95.6607H740.729V109.107H727.282V95.6607ZM740.729 95.6607H754.175V109.107H740.729V95.6607ZM740.729 109.107H754.175V122.554H740.729V109.107ZM740.729 122.554H754.175V136H740.729V122.554ZM727.282 122.554H740.729V136H727.282V122.554ZM727.282 109.107H740.729V122.554H727.282V109.107ZM794.514 122.554H807.961V136H794.514V122.554ZM807.961 109.107H821.407V122.554H807.961V109.107ZM807.961 95.6607H821.407V109.107H807.961V95.6607ZM807.961 82.2143H821.407V95.6607H807.961V82.2143ZM807.961 68.7679H821.407V82.2143H807.961V68.7679ZM807.961 55.3214H821.407V68.7679H807.961V55.3214ZM807.961 41.875H821.407V55.3214H807.961V41.875ZM794.514 68.7679H807.961V82.2143H794.514V68.7679ZM794.514 82.2143H807.961V95.6607H794.514V82.2143ZM794.514 95.6607H807.961V109.107H794.514V95.6607ZM794.514 109.107H807.961V122.554H794.514V109.107ZM794.514 55.3214H807.961V68.7679H794.514V55.3214ZM754.175 41.875H767.622V55.3214H754.175V41.875ZM767.622 41.875H781.068V55.3214H767.622V41.875ZM781.068 41.875H794.514V55.3214H781.068V41.875ZM781.068 28.4286H794.514V41.875H781.068V28.4286ZM794.514 28.4286H807.961V41.875H794.514V28.4286ZM794.514 41.875H807.961V55.3214H794.514V41.875ZM767.622 28.4286H781.068V41.875H767.622V28.4286ZM727.282 1.53572H740.729V14.9821H727.282V1.53572ZM740.729 1.53572H754.175V14.9821H740.729V1.53572ZM740.729 14.9821H754.175V28.4286H740.729V14.9821ZM727.282 14.9821H740.729V28.4286H727.282V14.9821ZM754.175 122.554H767.622V136H754.175V122.554ZM767.622 122.554H781.068V136H767.622V122.554ZM781.068 122.554H794.514V136H781.068V122.554ZM781.068 109.107H794.514V122.554H781.068V109.107ZM767.622 109.107H781.068V122.554H767.622V109.107ZM754.175 109.107H767.622V122.554H754.175V109.107ZM888.569 14.9821H902.016V28.4286H888.569V14.9821ZM888.569 28.4286H902.016V41.875H888.569V28.4286ZM902.016 28.4286H915.462V41.875H902.016V28.4286ZM902.016 14.9821H915.462V28.4286H902.016V14.9821ZM902.016 1.53572H915.462V14.9821H902.016V1.53572ZM915.462 1.53572H928.909V14.9821H915.462V1.53572ZM928.909 1.53572H942.355V14.9821H928.909V1.53572ZM942.355 1.53572H955.801V14.9821H942.355V1.53572ZM955.801 1.53572H969.248V14.9821H955.801V1.53572ZM955.801 14.9821H969.248V28.4286H955.801V14.9821ZM942.355 14.9821H955.801V28.4286H942.355V14.9821ZM928.909 14.9821H942.355V28.4286H928.909V14.9821ZM915.462 14.9821H928.909V28.4286H915.462V14.9821ZM955.801 28.4286H969.248V41.875H955.801V28.4286ZM969.248 28.4286H982.694V41.875H969.248V28.4286ZM969.248 14.9821H982.694V28.4286H969.248V14.9821ZM969.248 41.875H982.694V55.3214H969.248V41.875ZM955.801 41.875H969.248V55.3214H955.801V41.875ZM942.355 41.875H955.801V55.3214H942.355V41.875ZM942.355 55.3214H955.801V68.7679H942.355V55.3214ZM955.801 55.3214H969.248V68.7679H955.801V55.3214ZM928.909 55.3214H942.355V68.7679H928.909V55.3214ZM928.909 68.7679H942.355V82.2143H928.909V68.7679ZM942.355 68.7679H955.801V82.2143H942.355V68.7679ZM915.462 68.7679H928.909V82.2143H915.462V68.7679ZM915.462 82.2143H928.909V95.6607H915.462V82.2143ZM928.909 82.2143H942.355V95.6607H928.909V82.2143ZM902.016 82.2143H915.462V95.6607H902.016V82.2143ZM902.016 95.6607H915.462V109.107H902.016V95.6607ZM915.462 95.6607H928.909V109.107H915.462V95.6607ZM888.569 95.6607H902.016V109.107H888.569V95.6607ZM888.569 109.107H902.016V122.554H888.569V109.107ZM888.569 122.554H902.016V136H888.569V122.554ZM902.016 122.554H915.462V136H902.016V122.554ZM902.016 109.107H915.462V122.554H902.016V109.107ZM915.462 109.107H928.909V122.554H915.462V109.107ZM928.909 109.107H942.355V122.554H928.909V109.107ZM928.909 122.554H942.355V136H928.909V122.554ZM942.355 122.554H955.801V136H942.355V122.554ZM955.801 122.554H969.248V136H955.801V122.554ZM969.248 122.554H982.694V136H969.248V122.554ZM969.248 109.107H982.694V122.554H969.248V109.107ZM955.801 109.107H969.248V122.554H955.801V109.107ZM942.355 109.107H955.801V122.554H942.355V109.107ZM915.462 122.554H928.909V136H915.462V122.554ZM1023.07 1.53572H1036.52V14.9821H1023.07V1.53572ZM1009.62 1.53572H1023.07V14.9821H1009.62V1.53572ZM1009.62 14.9821H1023.07V28.4286H1009.62V14.9821ZM1023.07 14.9821H1036.52V28.4286H1023.07V14.9821ZM1036.52 14.9821H1049.96V28.4286H1036.52V14.9821ZM1036.52 1.53572H1049.96V14.9821H1036.52V1.53572ZM1049.96 1.53572H1063.41V14.9821H1049.96V1.53572ZM1063.41 14.9821H1076.85V28.4286H1063.41V14.9821ZM1049.96 14.9821H1063.41V28.4286H1049.96V14.9821ZM1063.41 28.4286H1076.85V41.875H1063.41V28.4286ZM1063.41 109.107H1076.85V122.554H1063.41V109.107ZM1063.41 95.6607H1076.85V109.107H1063.41V95.6607ZM1063.41 82.2143H1076.85V95.6607H1063.41V82.2143ZM1063.41 68.7679H1076.85V82.2143H1063.41V68.7679ZM1063.41 55.3214H1076.85V68.7679H1063.41V55.3214ZM1063.41 41.875H1076.85V55.3214H1063.41V41.875ZM1049.96 109.107H1063.41V122.554H1049.96V109.107ZM1049.96 122.554H1063.41V136H1049.96V122.554ZM1036.52 122.554H1049.96V136H1036.52V122.554ZM1036.52 109.107H1049.96V122.554H1036.52V109.107ZM1023.07 122.554H1036.52V136H1023.07V122.554ZM1009.62 122.554H1023.07V136H1009.62V122.554ZM1009.62 109.107H1023.07V122.554H1009.62V109.107ZM1023.07 109.107H1036.52V122.554H1023.07V109.107ZM1009.62 95.6607H1023.07V109.107H1009.62V95.6607ZM996.176 109.107H1009.62V122.554H996.176V109.107ZM996.176 95.6607H1009.62V109.107H996.176V95.6607ZM996.176 82.2143H1009.62V95.6607H996.176V82.2143ZM996.176 68.7679H1009.62V82.2143H996.176V68.7679ZM996.176 55.3214H1009.62V68.7679H996.176V55.3214ZM996.176 41.875H1009.62V55.3214H996.176V41.875ZM996.176 28.4286H1009.62V41.875H996.176V28.4286ZM1009.62 28.4286H1023.07V41.875H1009.62V28.4286ZM996.176 14.9821H1009.62V28.4286H996.176V14.9821ZM1009.62 41.875H1023.07V55.3214H1009.62V41.875ZM1009.62 55.3214H1023.07V68.7679H1009.62V55.3214ZM1009.62 68.7679H1023.07V82.2143H1009.62V68.7679ZM1009.62 82.2143H1023.07V95.6607H1009.62V82.2143ZM1049.96 28.4286H1063.41V41.875H1049.96V28.4286ZM1049.96 41.875H1063.41V55.3214H1049.96V41.875ZM1049.96 55.3214H1063.41V68.7679H1049.96V55.3214ZM1049.96 68.7679H1063.41V82.2143H1049.96V68.7679ZM1049.96 82.2143H1063.41V95.6607H1049.96V82.2143ZM1049.96 95.6607H1063.41V109.107H1049.96V95.6607ZM1090.3 14.9821H1103.75V28.4286H1090.3V14.9821ZM1090.3 28.4286H1103.75V41.875H1090.3V28.4286ZM1103.75 28.4286H1117.19V41.875H1103.75V28.4286ZM1103.75 14.9821H1117.19V28.4286H1103.75V14.9821ZM1103.75 1.53572H1117.19V14.9821H1103.75V1.53572ZM1117.19 1.53572H1130.64V14.9821H1117.19V1.53572ZM1130.64 1.53572H1144.09V14.9821H1130.64V1.53572ZM1144.09 1.53572H1157.53V14.9821H1144.09V1.53572ZM1157.53 1.53572H1170.98V14.9821H1157.53V1.53572ZM1157.53 14.9821H1170.98V28.4286H1157.53V14.9821ZM1144.09 14.9821H1157.53V28.4286H1144.09V14.9821ZM1130.64 14.9821H1144.09V28.4286H1130.64V14.9821ZM1117.19 14.9821H1130.64V28.4286H1117.19V14.9821ZM1157.53 28.4286H1170.98V41.875H1157.53V28.4286ZM1170.98 28.4286H1184.43V41.875H1170.98V28.4286ZM1170.98 14.9821H1184.43V28.4286H1170.98V14.9821ZM1170.98 41.875H1184.43V55.3214H1170.98V41.875ZM1157.53 41.875H1170.98V55.3214H1157.53V41.875ZM1144.09 41.875H1157.53V55.3214H1144.09V41.875ZM1144.09 55.3214H1157.53V68.7679H1144.09V55.3214ZM1157.53 55.3214H1170.98V68.7679H1157.53V55.3214ZM1130.64 55.3214H1144.09V68.7679H1130.64V55.3214ZM1130.64 68.7679H1144.09V82.2143H1130.64V68.7679ZM1144.09 68.7679H1157.53V82.2143H1144.09V68.7679ZM1117.19 68.7679H1130.64V82.2143H1117.19V68.7679ZM1117.19 82.2143H1130.64V95.6607H1117.19V82.2143ZM1130.64 82.2143H1144.09V95.6607H1130.64V82.2143ZM1103.75 82.2143H1117.19V95.6607H1103.75V82.2143ZM1103.75 95.6607H1117.19V109.107H1103.75V95.6607ZM1117.19 95.6607H1130.64V109.107H1117.19V95.6607ZM1090.3 95.6607H1103.75V109.107H1090.3V95.6607ZM1090.3 109.107H1103.75V122.554H1090.3V109.107ZM1090.3 122.554H1103.75V136H1090.3V122.554ZM1103.75 122.554H1117.19V136H1103.75V122.554ZM1103.75 109.107H1117.19V122.554H1103.75V109.107ZM1117.19 109.107H1130.64V122.554H1117.19V109.107ZM1130.64 109.107H1144.09V122.554H1130.64V109.107ZM1130.64 122.554H1144.09V136H1130.64V122.554ZM1144.09 122.554H1157.53V136H1144.09V122.554ZM1157.53 122.554H1170.98V136H1157.53V122.554ZM1170.98 122.554H1184.43V136H1170.98V122.554ZM1170.98 109.107H1184.43V122.554H1170.98V109.107ZM1157.53 109.107H1170.98V122.554H1157.53V109.107ZM1144.09 109.107H1157.53V122.554H1144.09V109.107ZM1117.19 122.554H1130.64V136H1117.19V122.554ZM1265.14 1.53572H1278.59V14.9821H1265.14V1.53572ZM1251.69 1.53572H1265.14V14.9821H1251.69V1.53572ZM1251.69 14.9821H1265.14V28.4286H1251.69V14.9821ZM1238.25 14.9821H1251.69V28.4286H1238.25V14.9821ZM1224.8 14.9821H1238.25V28.4286H1224.8V14.9821ZM1224.8 1.53572H1238.25V14.9821H1224.8V1.53572ZM1211.35 1.53572H1224.8V14.9821H1211.35V1.53572ZM1197.91 1.53572H1211.35V14.9821H1197.91V1.53572ZM1238.25 1.53572H1251.69V14.9821H1238.25V1.53572ZM1265.14 14.9821H1278.59V28.4286H1265.14V14.9821ZM1211.35 14.9821H1224.8V28.4286H1211.35V14.9821ZM1197.91 14.9821H1211.35V28.4286H1197.91V14.9821ZM1197.91 28.4286H1211.35V41.875H1197.91V28.4286ZM1197.91 41.875H1211.35V55.3214H1197.91V41.875ZM1211.35 41.875H1224.8V55.3214H1211.35V41.875ZM1211.35 28.4286H1224.8V41.875H1211.35V28.4286ZM1211.35 55.3214H1224.8V68.7679H1211.35V55.3214ZM1197.91 55.3214H1211.35V68.7679H1197.91V55.3214ZM1211.35 68.7679H1224.8V82.2143H1211.35V68.7679ZM1224.8 68.7679H1238.25V82.2143H1224.8V68.7679ZM1238.25 68.7679H1251.69V82.2143H1238.25V68.7679ZM1251.69 68.7679H1265.14V82.2143H1251.69V68.7679ZM1251.69 55.3214H1265.14V68.7679H1251.69V55.3214ZM1238.25 55.3214H1251.69V68.7679H1238.25V55.3214ZM1224.8 55.3214H1238.25V68.7679H1224.8V55.3214ZM1265.14 68.7679H1278.59V82.2143H1265.14V68.7679ZM1265.14 82.2143H1278.59V95.6607H1265.14V82.2143ZM1265.14 95.6607H1278.59V109.107H1265.14V95.6607ZM1265.14 109.107H1278.59V122.554H1265.14V109.107ZM1251.69 95.6607H1265.14V109.107H1251.69V95.6607ZM1251.69 82.2143H1265.14V95.6607H1251.69V82.2143ZM1251.69 109.107H1265.14V122.554H1251.69V109.107ZM1251.69 122.554H1265.14V136H1251.69V122.554ZM1238.25 122.554H1251.69V136H1238.25V122.554ZM1224.8 122.554H1238.25V136H1224.8V122.554ZM1224.8 109.107H1238.25V122.554H1224.8V109.107ZM1211.35 109.107H1224.8V122.554H1211.35V109.107ZM1211.35 122.554H1224.8V136H1211.35V122.554ZM1238.25 109.107H1251.69V122.554H1238.25V109.107ZM1197.91 109.107H1211.35V122.554H1197.91V109.107ZM1197.91 95.6607H1211.35V109.107H1197.91V95.6607ZM1211.35 95.6607H1224.8V109.107H1211.35V95.6607Z" fill="currentColor"/>
</g>
<defs>
<clipPath id="clip0_141_5">
<rect width="1280" height="106" fill="white"/>
</clipPath>
</defs>
</svg>
