<svg width="1280" height="106" viewBox="0 0 1280 106" fill="none" xmlns="http://www.w3.org/2000/svg">
<g clip-path="url(#clip0_153_230)">
<path fill-rule="evenodd" clip-rule="evenodd" d="M174.069 135H200.69V41.8276H187.38V28.5172H120.828V41.8276H107.518V55.1379H174.069V68.4483H120.828V81.7586H107.518V121.69H120.828V135H160.759V121.69H174.069V135ZM174.069 108.379V95.069H134.138V108.379H174.069Z" fill="currentColor"/>
<path fill-rule="evenodd" clip-rule="evenodd" d="M240.656 108.379V55.1379H280.587V68.4483H307.208V41.8276H293.897V28.5172H227.345V41.8276H214.035V121.69H227.345V135H293.897V121.69H307.208V95.069H280.587V108.379H240.656Z" fill="currentColor"/>
<path fill-rule="evenodd" clip-rule="evenodd" d="M320.553 1.89648V135H347.173V121.69V108.379V95.069V81.7586H360.484V95.069H373.794V135H387.104H400.415V95.069H387.104V81.7586H373.794V68.4483H387.104V55.1379H400.415V28.5172H373.794V55.1379H360.484V68.4483H347.173V1.89648H320.553Z" fill="currentColor"/>
<path fill-rule="evenodd" clip-rule="evenodd" d="M480.173 28.5172V41.8276H466.863V121.69H480.173V135H546.725V121.69H560.035V95.069H533.414V108.379H493.483V55.1379H533.414V68.4483H560.035V41.8276H546.725V28.5172H480.173Z" fill="currentColor"/>
<path d="M573.38 1.89648H600.001V135H573.38V1.89648Z" fill="currentColor"/>
<path fill-rule="evenodd" clip-rule="evenodd" d="M613.415 121.69H626.725V135H666.657V121.69H679.967V135H706.588V28.5172H679.967V108.379H640.036V28.5172H613.415V121.69Z" fill="currentColor"/>
<path fill-rule="evenodd" clip-rule="evenodd" d="M719.933 1.89648H746.553V41.8276H759.864V28.5172H799.795V41.8276H813.105V121.69H799.795V135H719.933V1.89648ZM746.553 55.1379H786.484V108.379H746.553V55.1379Z" fill="currentColor"/>
<path fill-rule="evenodd" clip-rule="evenodd" d="M879.588 135H972.76V108.379H919.519V95.069H932.829V81.7586H946.139V68.4483H959.45V55.1379H972.76V15.2068H959.45V1.89648H892.898V15.2068H879.588V41.8276H906.208V28.5172H946.139V41.8276H932.829V55.1379H919.519V68.4483H906.208V81.7586H892.898V95.069H879.588V135Z" fill="currentColor"/>
<path d="M999.415 1.89648V15.2068H986.105V121.69H999.415V135H1052.66V121.69H1065.97V15.2068H1052.66V1.89648H999.415ZM1012.73 108.379V28.5172H1039.35V108.379H1012.73Z" fill="currentColor"/>
<path d="M1079.28 15.2068H1092.59V1.89648H1159.14V15.2068H1172.45V55.1379H1159.14V68.4483H1145.83V81.7586H1132.52V95.069H1119.21V108.379H1172.45V135H1079.28V95.069H1092.59V81.7586H1105.9V68.4483H1119.21V55.1379H1132.52V41.8276H1145.83V28.5172H1105.9V41.8276H1079.28V15.2068Z" fill="currentColor"/>
<path fill-rule="evenodd" clip-rule="evenodd" d="M1199.11 1.89648V15.2068H1185.8V121.69H1199.11V135H1265.66V121.69H1278.97V68.4483H1265.66V55.1379H1252.35H1212.42V28.5172H1252.35V41.8276H1278.97V15.2068H1265.66V1.89648H1199.11ZM1212.42 81.7586V108.379H1252.35V81.7586H1212.42Z" fill="currentColor"/>
<path fill-rule="evenodd" clip-rule="evenodd" d="M27.6207 41.8276V1.89648H1V135H27.6207V55.1379H67.5518V135H94.1725V41.8276H80.8621V28.5172H40.9311V41.8276H27.6207Z" fill="currentColor"/>
</g>
<defs>
<clipPath id="clip0_153_230">
<rect width="1280" height="106" fill="white"/>
</clipPath>
</defs>
</svg>
