<svg width="52" height="36" viewBox="0 0 52 36" fill="none" xmlns="http://www.w3.org/2000/svg">
<path d="M3.01695 15.351C3.02226 15.275 2.98458 15.3868 3.02182 15.1815C3.11682 14.6579 4.01569 14.2432 4.66042 13.9635C4.98271 13.8238 5.35239 13.7841 6.04192 13.7548C6.5482 13.7333 7.37379 13.7776 7.90969 13.8556C8.68723 13.9687 9.04096 14.3542 9.31931 14.68C9.5985 15.0068 9.80565 15.5069 10.0506 16.4805C10.2199 17.1535 10.3131 18.2266 10.3855 18.8916C10.483 19.7883 10.4881 20.1761 10.5089 20.6348C10.5447 21.4253 10.4702 21.9802 10.4396 22.1131C10.4045 22.2653 9.92392 21.6851 9.10074 20.5142C8.46137 19.6047 7.90911 19.1615 7.57442 18.9253C6.98295 18.5078 6.31647 18.4006 5.20439 18.3355C4.35559 18.2859 3.68329 19.1957 3.20028 19.7566C2.94929 20.048 2.79341 20.4358 2.63427 20.8234C2.47842 21.2031 2.41955 21.8238 2.40507 22.5335C2.3953 23.0128 2.63678 23.3452 2.85681 23.6374C3.0697 23.9201 3.54856 24.1223 4.16852 24.3649C4.49192 24.4915 4.85873 24.5542 5.37684 24.6205C5.89494 24.6867 6.55977 24.7366 7.10254 24.6739C7.6453 24.6112 8.04587 24.4345 8.44584 24.1816C8.84581 23.9288 9.23305 23.6052 9.63202 23.2719M22.3059 14.1197C22.2876 14.1184 21.5109 14.0641 20.2174 14.014C19.4236 13.9832 18.9102 14.2591 18.4481 14.4898C18.0438 14.6916 17.5436 15.1375 16.9237 15.7096C16.4166 16.1776 16.134 16.6136 15.8756 17.1245C15.7109 17.4501 15.5617 17.9407 15.439 18.6063C15.3163 19.272 15.246 20.1055 15.2263 20.6284C15.1862 21.6938 15.6394 22.2738 16.0421 22.6618C16.4453 23.0501 16.9156 23.2549 17.151 23.3668C17.4105 23.4902 18.053 23.6503 19.1449 23.8527C20.4291 24.0907 21.3113 24.0294 21.6103 23.9917C21.7659 23.9614 21.9293 23.9087 22.2659 23.7543C22.6026 23.5998 23.1077 23.3453 23.7417 22.9981M31.6747 13.6218C31.0228 13.5762 29.7243 13.5155 29.2654 13.8344C28.1126 14.6355 27.9321 15.3657 27.6736 15.9889C27.4438 16.5425 27.2719 17.2408 27.1282 18.0875C26.9388 19.2036 26.9663 20.0324 27.0288 20.4853C27.1939 21.6818 27.4392 21.8997 27.7398 22.2268C28.1236 22.6445 28.6199 22.9417 29.0631 23.2016C29.6202 23.5283 30.1657 23.7158 30.6677 23.7978C31.3166 23.9038 32.1835 23.6459 33.1033 23.1874C33.9358 22.7723 34.4807 22.2443 34.8609 21.8522C35.2391 21.4623 35.4645 20.952 35.6462 20.4471C35.8405 19.9069 35.8906 19.1358 35.9376 18.4115L35.9418 18.3466C35.9645 17.9988 35.8423 17.5155 35.557 16.6524C35.2311 15.6663 34.7989 15.0442 34.5674 14.7325C34.3403 14.4268 33.8271 14.167 33.0742 13.862C32.6659 13.724 32.2042 13.6198 31.9301 13.5636C31.6559 13.5074 31.5834 13.5023 31.5086 13.4971M41.0736 14.0857C41.0723 14.1051 41.0709 14.1246 40.9785 15.5415C40.8861 16.9583 40.7028 19.7721 40.6492 21.7017C40.5956 23.6312 40.6774 24.5913 40.7917 23.9431C40.906 23.2948 41.0502 21.0093 41.1489 19.6975C41.2679 18.1146 41.4498 17.601 41.6974 17.0754C41.9938 16.4462 42.4943 15.7972 43.0131 15.2223C43.8587 14.2855 45.1006 13.9409 45.8634 13.8276C46.4805 13.7359 47.0067 13.8782 47.2949 13.989C47.8671 14.2091 48.246 15.1261 48.6444 16.8309C48.895 17.9033 49.0377 19.9239 49.2652 21.432C49.4927 22.9401 49.7003 23.8967 49.8092 24.4345C49.9181 24.9722 49.922 25.0622 49.926 25.1548" stroke="currentColor" stroke-width="2.66667" stroke-linecap="round"/>
</svg>
