<svg width="63" height="36" viewBox="0 0 63 36" fill="none" xmlns="http://www.w3.org/2000/svg">
<path d="M8.22346 14.8185C6.20099 14.2484 4.83644 14.056 4.23967 14.2611C3.73677 14.434 3.25648 14.7837 2.73462 15.3394C2.08421 16.032 1.91815 17.0812 2.04929 18.6678C2.14702 19.8502 2.90379 21.7111 3.61851 22.6879C4.33323 23.6647 5.13525 23.6787 5.76462 23.556C6.87238 23.34 7.65554 22.3775 8.32584 21.0707C8.53546 20.6621 8.6955 20.2877 8.81546 19.9445M8.81546 19.9445C9.50995 17.9572 8.86077 17.0119 8.70907 16.4785C8.66448 16.3217 8.57251 16.5491 8.67778 18.132C8.7107 18.6269 8.75967 19.2552 8.81546 19.9445ZM8.81546 19.9445C8.91185 21.1355 9.02857 22.5087 9.11795 23.6912M9.11795 23.6912C9.14228 24.013 9.16458 24.3207 9.18389 24.6068C9.37274 27.4039 8.94452 29.4065 8.29134 31.3108C7.4601 33.7343 4.91528 34.4237 3.78056 34.6211C3.19302 34.7233 2.54636 34.3888 2.16941 33.9779C1.79247 33.5669 1.6958 32.9769 1.89547 32.1692C2.09515 31.3615 2.59409 30.354 3.9115 28.8373C5.2289 27.3206 7.34963 25.3252 8.65927 24.1138C8.82569 23.9599 8.97798 23.8196 9.11795 23.6912ZM9.11795 23.6912C10.0795 22.8091 10.46 22.4876 10.8506 22.1577M13.8919 15.0806C13.8694 16.3736 13.7361 17.8785 13.7165 20.443C13.9378 21.5547 14.4612 22.4876 15.3397 23.0443C15.8513 23.1667 16.4966 22.964 17.1615 22.7552M13.1859 9.23353C13.1259 9.60687 13.0659 9.98022 13.1414 10.2011C13.217 10.4221 13.4299 10.4793 13.6203 10.4834C13.8107 10.4875 13.972 10.4369 14.1109 10.278C14.3614 9.85372 14.5355 9.26033 14.489 8.907C14.3834 8.87355 14.1114 9.13623 13.8311 9.40687M23.2868 15.407C22.7558 15.1838 21.5696 15.2668 20.0779 15.6719C19.2101 15.9076 18.8921 16.5702 18.5838 17.2374C18.1767 18.1187 18.1943 19.31 18.2557 20.3897C18.3066 21.2857 18.7955 21.9169 19.2439 22.4102C19.4915 22.6825 19.9616 22.8012 20.3948 22.8646C20.8281 22.9281 21.2568 22.8821 21.8612 22.3303C22.9947 21.2954 23.7116 20.0611 24.1404 19.0317M24.1404 19.0317C24.302 18.6435 24.4227 18.2844 24.5093 17.9762C24.8506 16.7615 24.92 14.6932 24.9075 12.3453C24.8938 9.77694 23.896 8.45004 23.6291 8.2825C23.4369 8.16187 23.2846 9.40209 23.116 11.31C22.896 13.7992 23.4776 16.6389 24.1369 19.0248C24.1381 19.0271 24.1392 19.0294 24.1404 19.0317ZM24.1404 19.0317C25.3933 21.5465 26.9878 22.7622 28.3257 23.298C28.9218 23.5005 29.3486 23.5614 29.7884 23.6242M30.8232 18.825C32.4254 18.96 33.6316 18.6617 34.3474 17.8128C34.7253 17.3645 34.96 16.7481 35.0265 16.2323C35.0931 15.7164 34.9401 15.2858 34.7291 14.9815C34.3483 14.4324 33.6076 14.282 32.8806 14.2418C32.1945 14.2038 31.4375 14.8341 30.6697 15.5484C30.0368 16.1373 29.7228 16.9646 29.4605 18.063C29.0921 19.6058 29.8021 21.3388 30.7764 22.624C31.5691 23.6697 32.8399 23.7225 33.9179 23.6611C35.2127 23.443 36.2581 22.975 36.8624 22.3389C37.1403 22.0179 37.3598 21.7009 37.5859 21.3742M42.549 15.6266C41.8573 15.4293 41.3227 15.3532 40.8932 15.433M40.8932 15.433C40.823 15.4461 40.7557 15.4633 40.6909 15.4848C39.2409 15.9663 39.2286 20.1457 39.7599 21.9742C40.1197 23.2125 41.5426 23.4417 42.1078 23.5328L42.1095 23.5331C42.7213 23.6316 43.3803 23.5293 44.084 23.3269C45.7953 22.8345 46.6921 20.4792 47.2571 18.6176M40.8932 15.433C40.9144 15.404 40.9374 15.3773 40.9622 15.3534L40.9661 15.3496C41.2738 15.0533 42.4354 13.9344 44.1123 14.6021C45.317 15.0818 46.5791 15.4286 47.0483 16.411C47.282 16.9005 47.6083 17.4131 47.4507 17.9602C47.3906 18.169 47.3264 18.3896 47.2571 18.6176M40.8932 15.433C40.771 15.6003 40.7063 15.8453 40.6781 16.0761C40.645 16.347 40.6938 16.6153 41.036 16.973C43.3019 18.1981 45.6956 18.5398 47.2571 18.6176M47.2571 18.6176C47.4439 18.6269 47.6188 18.6325 47.7801 18.6353L49.3032 18.6619M50.9573 16.2015C51.0957 20.6237 51.218 22.903 51.3233 23.0418C51.9983 23.9309 51.6312 20.8648 51.7525 18.6011C51.7906 17.8911 52.0156 17.4112 52.2663 16.9302C52.4883 16.5043 52.899 16.2905 53.4122 16.1374C54.2617 15.8839 55.1677 16.2199 55.7302 16.4453C56.1568 16.6162 56.5049 17.052 56.8716 17.6775C58.0556 19.6972 57.5924 22.9008 58.2692 24.24C58.6968 24.4403 59.2389 24.3963 59.9163 24.1666C60.272 23.9848 60.6519 23.6706 61.0433 23.3468" stroke="currentColor" stroke-width="2.3503" stroke-linecap="round"/>
</svg>
