<svg width="46" height="36" viewBox="0 0 46 36" fill="none" xmlns="http://www.w3.org/2000/svg">
<path d="M1.66699 13.5805C1.9526 14.3859 3.12598 18.0414 4.74559 23.0772C5.32447 24.8771 5.4683 25.1238 5.72563 25.2296C5.98296 25.3355 6.36435 25.2881 6.6687 25.0957C6.97305 24.9033 7.1888 24.5673 8.0123 22.8776C8.83581 21.1879 10.2605 18.1547 11.0359 16.4814C11.8114 14.8082 11.8943 14.5869 12.1609 13.9938M16.1905 14.5809C17.6601 14.8596 18.662 15.3038 19.092 15.9483C20.7135 18.3783 19.6654 23.18 19.2769 24.3187C19.1995 24.5453 19.0416 24.6745 18.7585 24.7514C18.0541 24.9429 17.3212 24.6799 16.8265 24.3535C16.3481 24.0377 16.0191 23.6265 15.7743 23.1871C15.4865 22.6705 15.4909 22.045 15.596 21.5512C15.7092 21.3223 15.9443 21.1375 16.5189 20.903C17.0935 20.6685 18.0005 20.39 18.935 20.103M24.372 24.8998C24.3804 24.4202 24.3888 23.9407 24.3751 21.0694C24.3614 18.1981 24.3253 12.9495 24.3112 10.4192C24.297 7.8889 24.3059 8.23582 24.3151 8.59327M32.3877 24.5222C31.6977 24.6536 31.0445 24.6419 30.4989 24.4339C29.4358 24.0288 28.9263 22.3902 28.5896 20.0094C28.2372 17.5178 29.5529 15.2512 30.8652 13.9944C31.1892 13.6841 31.7836 13.7839 32.1949 13.8589C32.9471 13.9961 33.433 14.5706 33.7857 15.0574C34.0926 15.4811 34.0911 16.1886 34.04 16.9806C33.9478 18.4088 32.6032 19.4111 31.4937 20.1333C31.1815 20.2677 30.8367 20.3653 30.547 20.4164C30.2572 20.4675 30.0329 20.4693 29.8018 20.4712M36.8565 23.3196C37.7857 18.973 38.7263 16.0684 39.2401 15.5526C39.9603 14.8296 41.2776 14.8028 42.2873 14.8422C42.7043 14.8585 42.9219 14.9539 43.1552 15.2812C43.9011 18.1769 43.7268 22.1002 43.3771 23.927C43.2491 24.6606 43.2215 25.0015 43.081 25.0857" stroke="currentColor" stroke-width="2.66667" stroke-linecap="round"/>
</svg>
