<svg width="33" height="36" viewBox="0 0 33 36" fill="none" xmlns="http://www.w3.org/2000/svg">
<path d="M2.67725 8.08496C2.75567 8.58146 2.69811 10.2368 2.71958 12.3668C2.73086 13.4847 2.81364 15.5221 2.83529 18.412C2.88685 20.0903 2.9234 21.8411 2.95959 23.7745C2.99345 24.4961 3.05877 24.6908 3.12608 24.8915M7.75766 17.4004C7.68714 16.4939 7.68227 20.9338 7.80004 22.88C7.84972 23.1955 7.91498 23.4905 7.94938 24.0516C7.98379 24.6126 7.98536 25.4309 7.9866 26.0756M8.55986 13.3793C8.46225 13.2795 8.36463 13.1797 8.34663 13.0306C8.32863 12.8814 8.3932 12.686 8.52485 12.553C8.65651 12.42 8.85328 12.3554 9.00358 12.4363C9.04981 12.4611 9.09108 12.4999 9.1266 12.548M9.1266 12.548C9.20654 12.6563 9.25731 12.8117 9.26986 12.9612C9.28799 13.1771 9.22342 13.3738 9.09171 13.4754C8.96 13.5769 8.7631 13.5773 8.64525 13.4792C8.52739 13.3811 8.49454 13.1846 8.55852 13.001C8.62249 12.8175 8.7843 12.6531 8.96613 12.5845C9.01844 12.5648 9.072 12.5534 9.1266 12.548ZM9.1266 12.548C9.26178 12.5347 9.4033 12.5579 9.54784 12.5816M13.2129 9.123C13.2146 9.96336 13.0877 11.5395 12.9209 13.4731C12.9286 17.4588 13.1354 19.9753 13.3035 22.4491C13.339 23.5377 13.3422 25.1742 13.3452 26.7603M18.8866 19.8085L18.8858 19.391C18.8876 20.364 18.8243 21.4844 18.7781 23.3666C18.7628 23.7689 18.7309 23.9672 18.7152 24.4292C18.6995 24.8912 18.7009 25.611 18.6022 25.8569M19.1711 15.0419C19.1712 15.085 19.1712 15.1281 19.1686 15.1588M19.1686 15.1588C19.1651 15.1982 19.1572 15.2174 19.1389 15.1907C19.1063 15.143 19.041 14.9465 19.0895 14.7475C19.138 14.5486 19.3023 14.3532 19.452 14.3835C19.5321 14.3998 19.6066 14.4824 19.664 14.5939M19.1686 15.1588C19.1748 15.176 19.1822 15.1929 19.1908 15.2095C19.2764 15.3753 19.4738 15.5061 19.6056 15.454C19.7374 15.402 19.8017 15.174 19.7668 14.925C19.7505 14.8093 19.7137 14.6907 19.664 14.5939M19.1686 15.1588C19.1127 15.0051 19.152 14.8353 19.2847 14.7299C19.3717 14.6607 19.4987 14.6213 19.664 14.5939M19.664 14.5939C19.7785 14.5749 19.9113 14.5616 20.062 14.5482M29.0994 18.1984C28.7039 17.3466 28.3354 16.713 27.972 16.3527C27.6034 15.9873 27.0149 15.9227 26.4026 15.9894C25.049 16.1367 24.3729 17.3466 23.6806 18.7293C22.6756 20.7368 22.9576 22.9696 23.0735 23.8622C23.214 24.9448 24.1839 25.875 25.0626 26.2894C26.0961 26.7769 27.6478 25.2159 28.496 24.4308C28.9924 23.9712 29.242 22.2979 29.3474 20.3611M29.3474 20.3611C29.3886 19.6025 29.4078 18.8035 29.411 18.0211C29.4121 17.7616 29.2327 17.9306 29.1988 18.1947C29.1357 18.6859 29.2049 19.4615 29.3474 20.3611ZM29.3474 20.3611C29.5576 21.6891 29.9272 23.2874 30.2654 24.6402C30.4341 25.2979 30.5691 25.8305 30.7172 26.39C30.7999 26.7527 30.8981 27.2754 31 28.2115" stroke="currentColor" stroke-width="2.7205" stroke-linecap="round" stroke-linejoin="round"/>
</svg>
